<?xml version="1.0" encoding="UTF-8" standalone="no"?>
<svg
   xmlns:dc="http://purl.org/dc/elements/1.1/"
   xmlns:cc="http://creativecommons.org/ns#"
   xmlns:rdf="http://www.w3.org/1999/02/22-rdf-syntax-ns#"
   xmlns:svg="http://www.w3.org/2000/svg"
   xmlns="http://www.w3.org/2000/svg"
   xmlns:sodipodi="http://sodipodi.sourceforge.net/DTD/sodipodi-0.dtd"
   xmlns:inkscape="http://www.inkscape.org/namespaces/inkscape"
   id="cute_critters"
   data-name="cute critters"
   viewBox="0 0 221 221"
   version="1.1"
   sodipodi:docname="cat.svg"
   width="221"
   height="221"
   inkscape:version="1.0.2 (e86c870879, 2021-01-15, custom)">
  <metadata
     id="metadata1294">
    <rdf:RDF>
      <cc:Work
         rdf:about="">
        <dc:format>image/svg+xml</dc:format>
        <dc:type
           rdf:resource="http://purl.org/dc/dcmitype/StillImage" />
      </cc:Work>
    </rdf:RDF>
  </metadata>
  <defs
     id="defs1292" />
  <sodipodi:namedview
     pagecolor="#ffffff"
     bordercolor="#666666"
     borderopacity="1"
     objecttolerance="10"
     gridtolerance="10"
     guidetolerance="10"
     inkscape:pageopacity="0"
     inkscape:pageshadow="2"
     inkscape:window-width="1920"
     inkscape:window-height="986"
     id="namedview1290"
     showgrid="false"
     inkscape:zoom="0.88888889"
     inkscape:cx="391.5"
     inkscape:cy="-87.375"
     inkscape:window-x="-11"
     inkscape:window-y="-11"
     inkscape:window-maximized="1"
     inkscape:current-layer="cute_critters" />
  <g
     id="cat"
     transform="translate(-58.5,-58.5)">
    <circle
       cx="169"
       cy="169"
       r="110"
       fill="#f072ab"
       id="circle1224" />
    <path
       d="M 169,279.5 A 110.5,110.5 0 1 1 279.5,169 110.63,110.63 0 0 1 169,279.5 Z m 0,-220 A 109.5,109.5 0 1 0 278.5,169 109.62,109.62 0 0 0 169,59.5 Z"
       fill="#ffffff"
       id="path1226" />
    <path
       d="m 169.48,233.44 c 0,-12.29 5.1,-23.22 13,-30.27 -16.79,-1.73 -37.1,1 -45.2,7.54 -4.14,3.33 -7.83,10.08 -11.07,18.31 a 31.54,31.54 0 0 1 4.15,-0.31 c 18.79,0 34,17.25 34,38.54 a 43,43 0 0 1 -1.58,11.57 c 2,0.11 4.1,0.18 6.17,0.18 a 109.51,109.51 0 0 0 40,-7.55 29.68,29.68 0 0 1 -5.52,0.53 C 184.72,272 169.48,254.72 169.48,233.44 Z"
       fill="#fdffe9"
       id="path1228" />
    <path
       d="m 221,247.77 c 0,-0.22 -0.11,-0.43 -0.17,-0.64 -0.28,-1.06 -0.56,-2.12 -0.86,-3.17 l -0.3,-1.08 c -0.26,-0.89 -0.51,-1.78 -0.77,-2.67 l -0.39,-1.28 c -0.25,-0.8 -0.49,-1.6 -0.74,-2.38 l -0.45,-1.4 c -0.24,-0.73 -0.47,-1.45 -0.72,-2.16 -0.16,-0.48 -0.33,-1 -0.49,-1.43 -0.24,-0.68 -0.48,-1.35 -0.72,-2 -0.18,-0.48 -0.35,-1 -0.53,-1.42 -0.24,-0.64 -0.49,-1.26 -0.73,-1.87 -0.24,-0.61 -0.37,-0.91 -0.56,-1.36 l -0.75,-1.74 c -0.19,-0.43 -0.38,-0.87 -0.58,-1.29 -0.2,-0.42 -0.51,-1.07 -0.77,-1.6 -0.26,-0.53 -0.39,-0.8 -0.6,-1.19 -0.21,-0.39 -0.53,-1 -0.8,-1.48 -0.27,-0.48 -0.4,-0.72 -0.6,-1.06 -0.2,-0.34 -0.58,-0.92 -0.87,-1.37 -0.19,-0.29 -0.38,-0.61 -0.58,-0.89 -0.32,-0.46 -0.65,-0.88 -1,-1.3 -0.17,-0.22 -0.33,-0.45 -0.5,-0.65 a 18.58,18.58 0 0 0 -1.52,-1.63 15.1,15.1 0 0 0 -1.62,-1.3 l -0.46,-0.32 c -0.56,-0.37 -1.15,-0.73 -1.79,-1.07 l -0.16,-0.09 c -0.71,-0.37 -1.47,-0.72 -2.26,-1.05 l -0.49,-0.2 c -0.76,-0.3 -1.54,-0.59 -2.37,-0.86 l -0.16,-0.06 c -0.92,-0.29 -1.89,-0.57 -2.88,-0.82 l -0.29,-0.07 c -1,-0.24 -2,-0.47 -3,-0.67 h -0.05 c -2.22,-0.44 -4.56,-0.78 -7,-1 v 0 c -7.92,7.05 -13,18 -13,30.27 0,21.28 15.24,38.54 34,38.54 a 29.68,29.68 0 0 0 5.52,-0.53 108.59,108.59 0 0 0 14.59,-7 c 0.38,-0.32 0.77,-0.62 1.14,-1 -1.07,-5.1 -2.32,-10.48 -3.72,-15.71 z"
       fill="#019678"
       id="path1230" />
    <path
       d="m 130.38,228.71 a 30.2,30.2 0 0 0 -4.17,0.32 c -0.23,0.59 -0.46,1.21 -0.7,1.82 -0.11,0.32 -0.23,0.63 -0.34,0.94 -0.23,0.62 -0.46,1.25 -0.68,1.88 l -0.3,0.87 c -0.75,2.19 -1.48,4.45 -2.18,6.76 l -0.21,0.7 c -0.22,0.75 -0.44,1.49 -0.65,2.24 -0.06,0.21 -0.12,0.43 -0.19,0.65 -0.69,2.46 -1.36,4.94 -2,7.43 l -0.12,0.46 -0.6,2.42 c 0,0.15 -0.07,0.31 -0.11,0.47 -0.62,2.54 -1.2,5.07 -1.74,7.54 0,0.1 -0.05,0.2 -0.07,0.3 -0.14,0.62 -0.27,1.24 -0.4,1.85 a 109.43,109.43 0 0 0 46.9,13.46 43,43 0 0 0 1.58,-11.57 C 164.41,246 149.17,228.71 130.38,228.71 Z"
       fill="#ec1b34"
       id="path1232" />
    <path
       d="M 202.22,85.86 C 207.77,88 206,126.22 206,126.22 L 176.31,115.3 c 0,0 21.09,-31.3 25.91,-29.44 z"
       fill="#fdffe9"
       id="path1234" />
    <path
       d="m 185.66,112.35 a 200,200 0 0 1 13.73,-17.43 178.85,178.85 0 0 1 0.83,22.8 z"
       fill="#ec1b34"
       id="path1236" />
    <ellipse
       cx="170.32001"
       cy="164.88"
       rx="65"
       ry="52.119999"
       transform="rotate(-6.31,170.33464,164.88298)"
       fill="#fdffe9"
       id="ellipse1238" />
    <path
       d="m 114.26,98.17 c -4.75,3.57 7.62,39.81 7.62,39.81 l 25.45,-18.72 c 0,0 -28.95,-24.18 -33.07,-21.09 z"
       fill="#fdffe9"
       id="path1240" />
    <path
       d="m 125.25,130.37 a 208.48,208.48 0 0 1 -5.76,-24.29 c 4.59,2.77 15.15,8.93 21.75,14.14 z"
       fill="#ec1b34"
       id="path1242" />
    <path
       d="m 138.41,182.58 a 38,38 0 0 0 18.44,-68.26 c -30.74,6.43 -52.73,29.78 -51.32,55.37 a 38,38 0 0 0 32.88,12.89 z"
       fill="#fbae17"
       id="path1244" />
    <path
       d="m 184.83,188.14 c -0.35,0 -0.7,0 -1.06,0 -6,-0.45 -12.81,-5.16 -13.58,-14.42 a 1.0031949,1.0031949 0 1 1 2,-0.16 c 0.66,8.09 6.55,12.2 11.73,12.59 a 9.51,9.51 0 0 0 10.33,-7.55 1.0017609,1.0017609 0 1 1 1.95,0.46 11.33,11.33 0 0 1 -11.37,9.08 z"
       fill="#171717"
       id="path1246" />
    <path
       d="m 158.47,191.06 a 11.3,11.3 0 0 1 -10.31,-6.73 1,1 0 1 1 1.79,-0.88 9.49,9.49 0 0 0 11.73,5.11 c 5,-1.51 9.82,-6.8 8.7,-14.84 a 1,1 0 0 1 0.86,-1.13 1,1 0 0 1 1.12,0.85 c 1.29,9.21 -4.33,15.29 -10.09,17 a 13.15,13.15 0 0 1 -3.8,0.62 z"
       fill="#171717"
       id="path1248" />
    <ellipse
       cx="200.50999"
       cy="164.94"
       rx="9.1899996"
       ry="8.8100004"
       transform="rotate(-6.31,200.54028,164.9102)"
       fill="#ffb0d2"
       id="ellipse1250" />
    <ellipse
       cx="140.87"
       cy="171.53999"
       rx="9.1899996"
       ry="8.8100004"
       transform="rotate(-6.31,140.85252,171.53757)"
       fill="#ffb0d2"
       id="ellipse1252" />
    <path
       d="m 187.17,154.71 a 1.27,1.27 0 0 1 -1.25,-1.11 10.252463,10.252463 0 0 1 20.38,-2.26 1.24,1.24 0 0 1 -1.1,1.38 1.23,1.23 0 0 1 -1.38,-1.1 7.7517434,7.7517434 0 0 0 -15.41,1.7 1.25,1.25 0 0 1 -1.11,1.38 z"
       fill="#171717"
       id="path1254" />
    <path
       d="m 133.49,160.64 a 1.25,1.25 0 0 1 -1.24,-1.11 10.251913,10.251913 0 0 1 20.38,-2.25 1.26,1.26 0 0 1 -1.11,1.38 1.25,1.25 0 0 1 -1.38,-1.11 7.77,7.77 0 0 0 -8.55,-6.85 7.75,7.75 0 0 0 -6.85,8.56 1.26,1.26 0 0 1 -1.11,1.38 z"
       fill="#171717"
       id="path1256" />
    <path
       d="m 185.3,175.72 a 1.11,1.11 0 0 0 -0.25,-2.2 1.11,1.11 0 0 0 0.25,2.2 z"
       fill="#f399c0"
       id="path1258" />
    <path
       d="m 189.79,177.82 a 1.11,1.11 0 0 0 -0.24,-2.2 1.11,1.11 0 0 0 0.24,2.2 z"
       fill="#f399c0"
       id="path1260" />
    <path
       d="m 182,178.68 a 1.1021116,1.1021116 0 0 0 -0.25,-2.19 1.1021116,1.1021116 0 0 0 0.25,2.19 z"
       fill="#f399c0"
       id="path1262" />
    <path
       d="m 185.88,181 a 1.11,1.11 0 0 0 -0.25,-2.2 1.11,1.11 0 0 0 0.25,2.2 z"
       fill="#f399c0"
       id="path1264" />
    <path
       d="m 157.46,178.8 a 1.11,1.11 0 0 0 -0.24,-2.2 1.11,1.11 0 0 0 0.24,2.2 z"
       fill="#f399c0"
       id="path1266" />
    <path
       d="m 162,180.9 a 1.11,1.11 0 0 0 -0.24,-2.2 1.11,1.11 0 0 0 0.24,2.2 z"
       fill="#f399c0"
       id="path1268" />
    <path
       d="m 154.15,181.76 a 1.11,1.11 0 0 0 -0.25,-2.2 1.11,1.11 0 0 0 0.25,2.2 z"
       fill="#f399c0"
       id="path1270" />
    <path
       d="m 158.05,184.05 a 1.11,1.11 0 0 0 -0.25,-2.2 1.11,1.11 0 0 0 0.25,2.2 z"
       fill="#f399c0"
       id="path1272" />
    <path
       d="m 190.23,171.76 25.2,-7.55 -24.7,9 a 0.78,0.78 0 1 1 -0.54,-1.46 z"
       fill="#f072ab"
       id="path1274" />
    <path
       d="m 191.72,179.49 22.77,4.27 -23,-2.73 a 0.78020831,0.78020831 0 0 1 0.18,-1.55 z"
       fill="#f072ab"
       id="path1276" />
    <path
       d="M 190.83,175.7 230.26,172 191,177.25 a 0.78,0.78 0 0 1 -0.88,-0.67 0.77,0.77 0 0 1 0.67,-0.87 z"
       fill="#f072ab"
       id="path1278" />
    <path
       d="m 152.23,177.5 -26.08,-3.42 26.24,1.92 a 0.78,0.78 0 1 1 -0.11,1.55 z"
       fill="#f072ab"
       id="path1280" />
    <path
       d="m 153.2,185.26 -21.86,7.74 21.29,-9.15 a 0.78,0.78 0 1 1 0.62,1.43 z"
       fill="#f072ab"
       id="path1282" />
    <path
       d="m 152.83,181.47 -39.46,3.41 39.3,-5 a 0.78080087,0.78080087 0 1 1 0.19,1.55 z"
       fill="#f072ab"
       id="path1284" />
    <path
       d="m 180,170.1 c 0.41,3.71 -3.26,7.15 -8.2,7.7 -4.94,0.55 -9.28,-2 -9.69,-5.72 -0.41,-3.72 17.43,-5.68 17.89,-1.98 z"
       fill="#171717"
       id="path1286" />
  </g>
</svg>
