<?xml version="1.0" encoding="UTF-8" standalone="no"?>
<svg
   xmlns:dc="http://purl.org/dc/elements/1.1/"
   xmlns:cc="http://creativecommons.org/ns#"
   xmlns:rdf="http://www.w3.org/1999/02/22-rdf-syntax-ns#"
   xmlns:svg="http://www.w3.org/2000/svg"
   xmlns="http://www.w3.org/2000/svg"
   xmlns:sodipodi="http://sodipodi.sourceforge.net/DTD/sodipodi-0.dtd"
   xmlns:inkscape="http://www.inkscape.org/namespaces/inkscape"
   id="cute_critters"
   data-name="cute critters"
   viewBox="0 0 220 220.00006"
   version="1.1"
   sodipodi:docname="dog.svg"
   width="220"
   height="220.00006"
   inkscape:version="1.0.2 (e86c870879, 2021-01-15, custom)">
  <metadata
     id="metadata1422">
    <rdf:RDF>
      <cc:Work
         rdf:about="">
        <dc:format>image/svg+xml</dc:format>
        <dc:type
           rdf:resource="http://purl.org/dc/dcmitype/StillImage" />
      </cc:Work>
    </rdf:RDF>
  </metadata>
  <defs
     id="defs1420" />
  <sodipodi:namedview
     pagecolor="#ffffff"
     bordercolor="#666666"
     borderopacity="1"
     objecttolerance="10"
     gridtolerance="10"
     guidetolerance="10"
     inkscape:pageopacity="0"
     inkscape:pageshadow="2"
     inkscape:window-width="855"
     inkscape:window-height="480"
     id="namedview1418"
     showgrid="false"
     inkscape:zoom="0.88888889"
     inkscape:cx="109"
     inkscape:cy="110"
     inkscape:window-x="0"
     inkscape:window-y="0"
     inkscape:window-maximized="0"
     inkscape:current-layer="cute_critters" />
  <g
     id="dog"
     transform="translate(-341,-340)">
    <circle
       cx="451"
       cy="450"
       r="110"
       fill="#48cfad"
       id="circle1360" />
    <path
       d="m 505,539.75 a 31.5,31.5 0 0 1 -21.25,8.46 c -18.79,0 -34,-17.25 -34,-38.54 0,-12.29 5.1,-23.22 13,-30.27 -16.8,-1.72 -37.1,1 -45.2,7.54 -4.14,3.34 -7.83,10.08 -11.07,18.32 a 29.91,29.91 0 0 1 4.15,-0.32 c 18.79,0 34,17.25 34,38.54 a 42.53,42.53 0 0 1 -3.15,16.09 c 3.13,0.26 6.29,0.43 9.49,0.43 a 109.46,109.46 0 0 0 55.15,-14.84 q -0.51,-2.65 -1.12,-5.41 z"
       fill="#fdffe9"
       id="path1362" />
    <path
       d="m 405.77,507.09 c 0.23,-0.63 0.47,-1.23 0.71,-1.83 v 0 z"
       fill="#fdffe9"
       id="path1364" />
    <path
       d="m 462.75,479.4 c 2.42,0.25 4.76,0.59 7,1 -2.24,-0.4 -4.58,-0.75 -7,-1 z"
       fill="#fdffe9"
       id="path1366" />
    <path
       d="m 505,539.74 c -1.11,-5.13 -2.36,-10.48 -3.75,-15.74 -0.05,-0.22 -0.11,-0.43 -0.17,-0.64 -0.28,-1.06 -0.56,-2.12 -0.86,-3.16 -0.1,-0.37 -0.2,-0.73 -0.31,-1.09 -0.25,-0.89 -0.5,-1.78 -0.76,-2.66 -0.13,-0.44 -0.27,-0.87 -0.4,-1.31 -0.24,-0.79 -0.48,-1.58 -0.73,-2.36 l -0.45,-1.4 c -0.24,-0.72 -0.47,-1.45 -0.72,-2.16 -0.16,-0.48 -0.33,-1 -0.49,-1.43 -0.24,-0.68 -0.48,-1.34 -0.72,-2 -0.18,-0.48 -0.35,-1 -0.53,-1.42 -0.24,-0.63 -0.49,-1.25 -0.73,-1.86 -0.19,-0.46 -0.37,-0.92 -0.56,-1.37 -0.19,-0.45 -0.5,-1.16 -0.75,-1.73 -0.25,-0.57 -0.38,-0.87 -0.58,-1.3 -0.2,-0.43 -0.51,-1.07 -0.77,-1.59 l -0.6,-1.2 c -0.26,-0.51 -0.53,-1 -0.8,-1.48 -0.27,-0.48 -0.4,-0.72 -0.6,-1.06 -0.2,-0.34 -0.58,-0.92 -0.87,-1.36 -0.29,-0.44 -0.38,-0.61 -0.58,-0.89 -0.32,-0.47 -0.65,-0.89 -1,-1.31 -0.17,-0.21 -0.33,-0.45 -0.5,-0.65 a 18.58,18.58 0 0 0 -1.52,-1.63 16.44,16.44 0 0 0 -1.62,-1.3 l -0.46,-0.31 a 19.28,19.28 0 0 0 -1.79,-1.08 l -0.16,-0.09 c -0.71,-0.37 -1.47,-0.72 -2.26,-1.05 l -0.49,-0.2 c -0.76,-0.3 -1.54,-0.59 -2.37,-0.86 L 476,482 c -0.92,-0.3 -1.89,-0.57 -2.88,-0.83 l -0.29,-0.07 c -1,-0.24 -2,-0.47 -3,-0.67 v 0 c -2.22,-0.43 -4.56,-0.77 -7,-1 v 0 c -7.92,7.05 -13,18 -13,30.27 0,21.29 15.24,38.54 34,38.54 A 31.5,31.5 0 0 0 505,539.75 Z"
       fill="#fbae17"
       id="path1368" />
    <path
       d="m 410.63,504.94 a 30.2,30.2 0 0 0 -4.17,0.32 l -0.69,1.83 c -0.12,0.31 -0.24,0.62 -0.35,0.93 -0.23,0.63 -0.46,1.25 -0.68,1.89 -0.1,0.28 -0.2,0.56 -0.29,0.85 -0.76,2.2 -1.49,4.47 -2.19,6.78 l -0.21,0.69 c -0.22,0.75 -0.44,1.5 -0.65,2.25 l -0.18,0.62 c -0.7,2.47 -1.37,5 -2,7.45 l -0.12,0.46 -0.6,2.43 c 0,0.15 -0.07,0.29 -0.11,0.44 -0.62,2.57 -1.2,5.11 -1.75,7.59 l -0.06,0.26 -0.51,2.38 -0.09,0.42 c -0.17,0.81 -0.34,1.62 -0.5,2.42 a 109.33,109.33 0 0 0 46,14.62 42.53,42.53 0 0 0 3.15,-16.09 c 0.03,-21.29 -15.21,-38.54 -34,-38.54 z"
       fill="#019678"
       id="path1370" />
    <ellipse
       cx="450"
       cy="484"
       rx="40"
       ry="24"
       fill="#ec1b34"
       id="ellipse1372" />
    <path
       d="m 470.19,421.46 c 0,0 0.11,-0.93 0.36,-2.4 0.25,-1.47 0.66,-3.5 1.27,-5.72 a 43,43 0 0 1 2.51,-6.87 19.64,19.64 0 0 1 4.06,-5.84 20.93,20.93 0 0 1 6.53,-4 27,27 0 0 1 9.19,-1.83 c 9.08,-0.22 18.3,4.27 26.1,10.52 7.8,6.25 14.2,14.24 17.61,21 9.5,18.84 -17.69,37 -27.42,16.65 a 76.12,76.12 0 0 1 -3.71,-9.82 36.87,36.87 0 0 0 -4.15,-9 c -4.55,-7 -11.69,-9.47 -16.65,0.08 -1.68,3.24 -3.5,4.68 -5.29,5 a 6.55,6.55 0 0 1 -5.08,-1.58 19.81,19.81 0 0 1 -3.82,-4 c -0.94,-1.21 -1.51,-2.19 -1.51,-2.19 z"
       fill="#492d2c"
       fill-rule="evenodd"
       id="path1374" />
    <path
       d="m 431.81,421.46 c 0,0 -0.11,-0.93 -0.36,-2.4 -0.25,-1.47 -0.66,-3.5 -1.27,-5.72 a 43,43 0 0 0 -2.51,-6.87 19.64,19.64 0 0 0 -4.06,-5.84 20.93,20.93 0 0 0 -6.53,-4 27,27 0 0 0 -9.19,-1.83 c -9.08,-0.22 -18.3,4.27 -26.1,10.52 -7.8,6.25 -14.2,14.24 -17.61,21 -9.5,18.84 17.69,37 27.42,16.65 a 76.12,76.12 0 0 0 3.71,-9.82 36.87,36.87 0 0 1 4.15,-9 c 4.55,-7 11.69,-9.47 16.65,0.08 1.68,3.24 3.5,4.68 5.29,5 a 6.55,6.55 0 0 0 5.08,-1.58 19.81,19.81 0 0 0 3.82,-4 c 0.94,-1.21 1.51,-2.19 1.51,-2.19 z"
       fill="#492d2c"
       fill-rule="evenodd"
       id="path1376" />
    <path
       d="m 451,492 c 1.82,0 3.61,-0.07 5.38,-0.22 1.77,-0.15 3.51,-0.35 5.23,-0.63 1.72,-0.28 3.39,-0.62 5,-1 1.61,-0.38 3.27,-0.88 4.84,-1.41 1.57,-0.53 3.11,-1.12 4.6,-1.76 1.49,-0.64 2.94,-1.34 4.34,-2.09 1.4,-0.75 2.75,-1.55 4.05,-2.4 1.3,-0.85 2.55,-1.75 3.74,-2.69 1.19,-0.94 2.32,-1.94 3.39,-3 a 41.58,41.58 0 0 0 3,-3.21 40.81,40.81 0 0 0 2.64,-3.44 38,38 0 0 0 2.21,-3.64 35,35 0 0 0 1.77,-3.84 33.32,33.32 0 0 0 1.3,-4 34,34 0 0 0 0.8,-4.14 33.74,33.74 0 0 0 0,-8.52 v 0 a 35.25,35.25 0 0 0 -0.79,-4.12 v 0 0 a 33,33 0 0 0 -1.3,-4 32.12,32.12 0 0 0 -1.37,-3.06 l -8.68,-19.35 -1.41,-3.07 -1.74,-2.94 -2.1,-2.75 -2.43,-2.57 -2.72,-2.37 -3,-2.16 -3.24,-1.92 -3.45,-1.7 -3.67,-1.41 -3.87,-1.12 -4,-0.82 -4.18,-0.51 -4.34,-0.14 -4.3,0.17 -4.18,0.51 -4,0.82 -3.87,1.12 -3.71,1.38 -3.47,1.67 -3.24,1.92 -3,2.16 -2.72,2.37 -2.43,2.57 -2.1,2.75 -1.77,2.92 -1.42,3.07 -8.68,19.34 c -0.5,1 -1,2 -1.37,3.07 a 31.11,31.11 0 0 0 -1.3,4 v 0 a 31.69,31.69 0 0 0 -0.79,4.13 v 0 a 33.79,33.79 0 0 0 2.1,16.66 35,35 0 0 0 1.77,3.84 38.07,38.07 0 0 0 2.22,3.64 38.69,38.69 0 0 0 2.63,3.44 41.58,41.58 0 0 0 3,3.21 c 1.08,1 2.21,2 3.39,3 1.18,1 2.44,1.84 3.74,2.69 1.3,0.85 2.65,1.65 4.05,2.4 1.4,0.75 2.85,1.45 4.34,2.09 1.49,0.64 3,1.23 4.6,1.76 1.6,0.53 3.19,1 4.84,1.41 1.65,0.41 3.32,0.74 5,1 1.68,0.26 3.45,0.49 5.22,0.63 1.77,0.14 3.64,0.26 5.45,0.26 z"
       fill="#fdffe9"
       fill-rule="evenodd"
       id="path1378" />
    <path
       d="m 482.11,439.15 a 1.5,1.5 0 0 1 -1.5,-1.5 7.5,7.5 0 0 0 -15,0 1.5,1.5 0 0 1 -3,0 10.5,10.5 0 0 1 21,0 1.5,1.5 0 0 1 -1.5,1.5 z"
       fill="#171717"
       id="path1380" />
    <path
       d="m 424,448 a 25,25 0 0 0 2.71,-49.85 l -2.48,1.47 -3,2.16 -2.72,2.37 -2.43,2.57 -2.1,2.75 -1.77,2.92 -1.42,3.07 -8.68,19.34 -0.07,0.16 A 25,25 0 0 0 424,448 Z"
       fill="#6b4241"
       id="path1382" />
    <path
       d="m 438.11,439.15 a 1.5,1.5 0 0 1 -1.5,-1.5 7.5,7.5 0 0 0 -15,0 1.5,1.5 0 0 1 -3,0 10.5,10.5 0 0 1 21,0 1.5,1.5 0 0 1 -1.5,1.5 z"
       fill="#171717"
       id="path1384" />
    <path
       d="m 451,456 a 13.84,13.84 0 0 1 -9.75,8.53 c 1.16,6.72 3.64,13.94 9,13.79 5.36,-0.15 7.91,-7.51 9,-14.21 A 13.9,13.9 0 0 1 451,456 Z m -0.75,18.68 v -16.4 h 1.68 z"
       fill="#ff7bac"
       id="path1386" />
    <polygon
       points="450.25,458.31 450.25,474.71 451.93,458.31 "
       fill="#d6508d"
       id="polygon1388" />
    <path
       d="m 473.33,456.24 a 1,1 0 0 0 -1.21,0.58 9,9 0 0 1 -10.53,6 8.48,8.48 0 0 1 -0.83,-0.22 9.88,9.88 0 0 1 -1.16,-0.39 12,12 0 0 1 -7.35,-8.54 11.34,11.34 0 0 0 1.66,-0.33 v 0 c 3.27,-0.89 5.62,-3.2 5.62,-6 0,-3.52 -17.06,-3.52 -17.06,0 0,2.76 2.35,5.07 5.62,6 v 0 a 11.22,11.22 0 0 0 1.67,0.33 12,12 0 0 1 -8.52,8.93 l -0.28,0.08 a 5.54,5.54 0 0 1 -0.55,0.14 9,9 0 0 1 -10.53,-6 0.9441001,0.9441001 0 1 0 -1.78,0.63 10.68,10.68 0 0 0 10.29,7.47 13,13 0 0 0 2.37,-0.23 c 0.16,0 0.32,-0.09 0.48,-0.12 v 0 A 13.84,13.84 0 0 0 451,456 a 13.9,13.9 0 0 0 8.3,8.11 13.43,13.43 0 0 0 1.46,0.43 c 0.16,0 0.32,0.09 0.48,0.12 a 13,13 0 0 0 2.37,0.23 10.68,10.68 0 0 0 10.29,-7.47 1,1 0 0 0 -0.57,-1.18 z"
       fill="#171717"
       id="path1390" />
    <path
       d="m 464.69,453.57 a 1.11,1.11 0 0 0 0,-2.21 1.11,1.11 0 0 0 0,2.21 z"
       fill="#c6bcb6"
       id="path1392" />
    <path
       d="m 468.93,456.15 a 1.11,1.11 0 0 0 0,-2.21 1.11,1.11 0 0 0 0,2.21 z"
       fill="#c6bcb6"
       id="path1394" />
    <path
       d="m 461.07,456.15 a 1.11,1.11 0 0 0 0,-2.21 1.11,1.11 0 0 0 0,2.21 z"
       fill="#c6bcb6"
       id="path1396" />
    <path
       d="m 464.69,458.86 a 1.11,1.11 0 0 0 0,-2.22 1.11,1.11 0 0 0 0,2.22 z"
       fill="#c6bcb6"
       id="path1398" />
    <path
       d="m 436.69,453.57 a 1.11,1.11 0 0 0 0,-2.21 1.11,1.11 0 0 0 0,2.21 z"
       fill="#c6bcb6"
       id="path1400" />
    <path
       d="m 440.93,456.15 a 1.11,1.11 0 0 0 0,-2.21 1.11,1.11 0 0 0 0,2.21 z"
       fill="#c6bcb6"
       id="path1402" />
    <path
       d="m 433.07,456.15 a 1.11,1.11 0 0 0 0,-2.21 1.11,1.11 0 0 0 0,2.21 z"
       fill="#c6bcb6"
       id="path1404" />
    <path
       d="m 436.69,458.86 a 1.11,1.11 0 0 0 0,-2.22 1.11,1.11 0 0 0 0,2.22 z"
       fill="#c6bcb6"
       id="path1406" />
    <path
       d="m 458.37,377.15 c 0.29,2.08 -0.54,7.29 -5.72,12.85 -2.28,2.45 -2.07,1.94 -2.95,3.19 a 14.09,14.09 0 0 1 -3.26,3.28 7.62,7.62 0 0 1 -3.85,1.88 29.93,29.93 0 0 1 -0.63,-5.07 9.41,9.41 0 0 1 1.25,-5.08 13.29,13.29 0 0 1 4,-3.89 c 1.33,-0.93 9.26,-3.71 11.2,-7.16"
       fill="#fdffe9"
       id="path1408" />
    <path
       d="m 464.57,382.9 c 0.3,2.08 -1.45,11.44 -5.29,12.77 -0.47,1.54 -2.94,0.79 -3.82,2 a 13.94,13.94 0 0 1 -3.26,3.33 12.22,12.22 0 0 1 -4.9,2.13 12.12,12.12 0 0 1 0.42,-5.32 c 0.46,-1.53 1.1,-5.71 5.3,-7.44 6.12,-2.51 8.71,-4 11.55,-7.46"
       fill="#fdffe9"
       id="path1410" />
    <ellipse
       cx="474.20001"
       cy="447.51999"
       rx="6.8000002"
       ry="5.29"
       fill="#ffb0d2"
       id="ellipse1412" />
    <ellipse
       cx="427.79999"
       cy="447.51999"
       rx="6.8000002"
       ry="5.29"
       fill="#ffb0d2"
       id="ellipse1414" />
  </g>
</svg>
