<?xml version="1.0" encoding="UTF-8" standalone="no"?>
<svg
   xmlns:dc="http://purl.org/dc/elements/1.1/"
   xmlns:cc="http://creativecommons.org/ns#"
   xmlns:rdf="http://www.w3.org/1999/02/22-rdf-syntax-ns#"
   xmlns:svg="http://www.w3.org/2000/svg"
   xmlns="http://www.w3.org/2000/svg"
   xmlns:sodipodi="http://sodipodi.sourceforge.net/DTD/sodipodi-0.dtd"
   xmlns:inkscape="http://www.inkscape.org/namespaces/inkscape"
   id="cute_critters"
   data-name="cute critters"
   viewBox="0 0 221 221"
   version="1.1"
   sodipodi:docname="fox.svg"
   width="221"
   height="221"
   inkscape:version="1.0.2 (e86c870879, 2021-01-15, custom)">
  <metadata
     id="metadata564">
    <rdf:RDF>
      <cc:Work
         rdf:about="">
        <dc:format>image/svg+xml</dc:format>
        <dc:type
           rdf:resource="http://purl.org/dc/dcmitype/StillImage" />
        <dc:title></dc:title>
      </cc:Work>
    </rdf:RDF>
  </metadata>
  <defs
     id="defs562" />
  <sodipodi:namedview
     pagecolor="#ffffff"
     bordercolor="#666666"
     borderopacity="1"
     objecttolerance="10"
     gridtolerance="10"
     guidetolerance="10"
     inkscape:pageopacity="0"
     inkscape:pageshadow="2"
     inkscape:window-width="1920"
     inkscape:window-height="986"
     id="namedview560"
     showgrid="false"
     fit-margin-top="0"
     fit-margin-left="0"
     fit-margin-right="0"
     fit-margin-bottom="0"
     inkscape:zoom="0.88888889"
     inkscape:cx="-168.5"
     inkscape:cy="-168.5"
     inkscape:window-x="-11"
     inkscape:window-y="-11"
     inkscape:window-maximized="1"
     inkscape:current-layer="cute_critters" />
  <g
     id="fox"
     transform="translate(-618.5,-618.5)">
    <circle
       cx="729"
       cy="729"
       r="110"
       fill="#fbae17"
       id="circle288" />
    <path
       d="M 729,839.5 A 110.5,110.5 0 1 1 839.5,729 110.63,110.63 0 0 1 729,839.5 Z m 0,-220 A 109.5,109.5 0 1 0 838.5,729 109.62,109.62 0 0 0 729,619.5 Z"
       fill="#ffffff"
       id="path290" />
    <path
       d="M 831.07,759.82 A 51.83,51.83 0 0 0 809.94,733 a 1.32,1.32 0 0 1 0,0.13 52.21,52.21 0 0 1 17.5,18.87 c -0.88,1.19 -2,2.44 -2.94,2.22 -1.66,-0.41 -2.25,-3.22 -3.39,-2.84 -1.14,0.38 -3.5,5.76 -4.25,5.08 -0.75,-0.68 -0.34,-2.93 -1.53,-3.26 -1.19,-0.33 -3.33,3.57 -3.77,4.53 -0.44,0.96 -1.14,0.7 -2.16,-1.17 -1.02,-1.87 -2.78,-4.3 -3.73,-3.85 -0.95,0.45 -1.39,3.6 -2.48,4.1 -0.77,0.35 -2.41,-0.24 -3.77,-0.86 a 35.8,35.8 0 0 1 -9,9.31 c -13.28,9 -45.31,38 -35.13,60.14 1.58,3.45 3.15,6.45 4.69,9.13 a 109.65,109.65 0 0 0 34,-16.81 175.64,175.64 0 0 0 24.52,-24.85 109.42,109.42 0 0 0 12.85,-23.65 17.84,17.84 0 0 0 -0.28,-9.4 z"
       fill="#e31a32"
       id="path292" />
    <path
       d="m 803.23,756.82 c 1.1,-0.5 1.55,-3.66 2.51,-4.1 0.96,-0.44 2.73,2 3.77,3.85 1.04,1.85 1.75,2.13 2.19,1.17 0.44,-0.96 2.61,-4.86 3.81,-4.53 1.2,0.33 0.77,2.58 1.54,3.26 0.77,0.68 3.14,-4.69 4.3,-5.08 1.16,-0.39 1.74,2.43 3.42,2.84 0.91,0.22 2.09,-1 3,-2.22 A 52.48,52.48 0 0 0 810,733.11 l -0.38,-0.23 c 0,0 -3.35,12.68 -10.44,23 l 0.22,0.1 c 1.4,0.6 3.06,1.19 3.83,0.84 z"
       fill="#fdffe9"
       id="path294" />
    <path
       d="m 798.94,760 a 0.22,0.22 0 0 0 -0.16,0 0.18,0.18 0 0 0 -0.1,0.11 8.47,8.47 0 0 1 -1.16,1.83 0.2,0.2 0 0 0 0,0.28 0.21,0.21 0 0 0 0.29,0 8.93,8.93 0 0 0 1.21,-1.92 0.2,0.2 0 0 0 -0.08,-0.3 z"
       fill="#f58523"
       id="path296" />
    <path
       d="m 795.47,763 h -0.06 c -0.55,0.63 -1.11,1.25 -1.66,1.86 l -0.37,0.41 a 0.2,0.2 0 0 0 0.3,0.26 l 0.36,-0.4 c 0.56,-0.62 1.12,-1.24 1.67,-1.87 a 0.2,0.2 0 0 0 0,-0.28 0.18,0.18 0 0 0 -0.24,0.02 z"
       fill="#f58523"
       id="path298" />
    <path
       d="m 794.64,765.3 h -0.06 l -0.14,0.14 a 16.13,16.13 0 0 0 -1.66,1.74 0.2,0.2 0 0 0 0,0.28 0.19,0.19 0 0 0 0.28,0 15.24,15.24 0 0 1 1.61,-1.71 l 0.15,-0.13 a 0.22,0.22 0 0 0 0,-0.29 0.22,0.22 0 0 0 -0.18,-0.03 z"
       fill="#f58523"
       id="path300" />
    <path
       d="m 791.32,766.71 v 0 a 3.29,3.29 0 0 0 -1.19,1.24 l -0.23,0.33 a 0.2,0.2 0 0 0 0.32,0.24 l 0.24,-0.35 a 3.1,3.1 0 0 1 1,-1.11 0.19,0.19 0 0 0 0.09,-0.26 0.19,0.19 0 0 0 -0.23,-0.09 z"
       fill="#f58523"
       id="path302" />
    <path
       d="m 789.81,769.47 a 12.23,12.23 0 0 0 -1.08,1.08 l -0.53,0.56 a 0.2,0.2 0 1 0 0.28,0.28 c 0.19,-0.19 0.36,-0.38 0.54,-0.57 0.35,-0.37 0.68,-0.73 1,-1.05 a 0.2,0.2 0 0 0 0,-0.28 0.2,0.2 0 0 0 -0.21,-0.02 z"
       fill="#f58523"
       id="path304" />
    <path
       d="m 787.18,769.82 v 0 a 5.41,5.41 0 0 0 -0.71,0.63 4.54,4.54 0 0 1 -0.75,0.64 0.21,0.21 0 0 0 -0.06,0.28 0.19,0.19 0 0 0 0.27,0.06 4.66,4.66 0 0 0 0.82,-0.7 6,6 0 0 1 0.66,-0.58 0.2,0.2 0 0 0 0,-0.28 0.19,0.19 0 0 0 -0.23,-0.05 z"
       fill="#f58523"
       id="path306" />
    <path
       d="m 785.3,773.05 v 0 a 5.63,5.63 0 0 0 -1.58,1.43 l -0.31,0.36 a 0.19,0.19 0 0 0 0,0.28 0.2,0.2 0 0 0 0.28,0 l 0.31,-0.36 a 5.25,5.25 0 0 1 1.47,-1.33 0.21,0.21 0 0 0 0.08,-0.27 0.19,0.19 0 0 0 -0.25,-0.11 z"
       fill="#f58523"
       id="path308" />
    <path
       d="m 782.55,773.15 v 0 a 6,6 0 0 0 -1.34,1.69 0.20124612,0.20124612 0 0 0 0.36,0.18 5.49,5.49 0 0 1 1.25,-1.58 0.2,0.2 0 0 0 0,-0.28 0.22,0.22 0 0 0 -0.27,-0.01 z"
       fill="#f58523"
       id="path310" />
    <path
       d="m 781.07,777.23 v 0 a 9.48,9.48 0 0 0 -2,2.13 l 0.16,0.13 0.19,0.08 a 8.82,8.82 0 0 1 1.89,-2 0.21,0.21 0 0 0 0.05,-0.28 0.2,0.2 0 0 0 -0.29,-0.06 z"
       fill="#f58523"
       id="path312" />
    <path
       d="m 779.17,776.8 a 0.22,0.22 0 0 0 -0.23,0 0.1,0.1 0 0 0 -0.05,0 4.13,4.13 0 0 0 -1,1.72 0.2,0.2 0 1 0 0.37,0.14 3.85,3.85 0 0 1 0.94,-1.56 0.2,0.2 0 0 0 -0.03,-0.3 z"
       fill="#f58523"
       id="path314" />
    <path
       d="m 777.23,780.94 -0.15,0.06 a 2.24,2.24 0 0 0 -1.07,1.15 0.2,0.2 0 0 0 0.11,0.26 0.19,0.19 0 0 0 0.26,-0.1 1.8,1.8 0 0 1 1,-1 0.21,0.21 0 0 0 0.12,-0.25 0.2,0.2 0 0 0 -0.27,-0.12 z"
       fill="#f58523"
       id="path316" />
    <path
       d="m 776.11,779.05 a 0.2,0.2 0 0 0 -0.26,-0.12 l -0.22,0.09 a 2.69,2.69 0 0 0 -1,0.78 0.2,0.2 0 1 0 0.31,0.25 2.19,2.19 0 0 1 1,-0.74 0.2,0.2 0 0 0 0.17,-0.26 z"
       fill="#f58523"
       id="path318" />
    <path
       d="m 772.26,783.68 a 4.75,4.75 0 0 0 0.4,-0.63 2.74,2.74 0 0 1 0.73,-0.91 0.2,0.2 0 0 0 0.05,-0.28 0.2,0.2 0 0 0 -0.25,-0.07 v 0 a 2.92,2.92 0 0 0 -0.85,1 6.42,6.42 0 0 1 -0.37,0.58 0.2,0.2 0 0 0 0,0.28 0.2,0.2 0 0 0 0.29,0.03 z"
       fill="#f58523"
       id="path320" />
    <path
       d="m 774.55,781.62 h -0.07 a 8,8 0 0 0 -1.41,1.7 0.2,0.2 0 0 0 0.07,0.28 0.2,0.2 0 0 0 0.27,-0.08 8.07,8.07 0 0 1 1.36,-1.62 v 0 a 0.18,0.18 0 0 0 0,-0.27 0.19,0.19 0 0 0 -0.22,-0.01 z"
       fill="#f58523"
       id="path322" />
    <path
       d="m 772.45,785.23 h -0.06 a 12.19,12.19 0 0 0 -1.24,1.53 l -0.26,0.36 a 0.2,0.2 0 0 0 0.32,0.24 l 0.26,-0.36 a 11.73,11.73 0 0 1 1.2,-1.48 0.21,0.21 0 0 0 0,-0.29 0.2,0.2 0 0 0 -0.22,0 z"
       fill="#f58523"
       id="path324" />
    <path
       d="m 770.9,785.31 a 0.25,0.25 0 0 0 -0.19,0 0.24,0.24 0 0 0 -0.08,0.09 10.53,10.53 0 0 1 -1,1.31 0.19,0.19 0 0 0 0,0.28 0.2,0.2 0 0 0 0.28,0 11.37,11.37 0 0 0 1,-1.37 0.21,0.21 0 0 0 -0.01,-0.31 z"
       fill="#f58523"
       id="path326" />
    <path
       d="m 768.36,787.8 a 0.22,0.22 0 0 0 -0.16,0 0.22,0.22 0 0 0 -0.1,0.11 9.72,9.72 0 0 1 -0.58,1.1 c -0.12,0.22 -0.24,0.43 -0.35,0.65 a 0.19,0.19 0 0 0 0.08,0.27 0.2,0.2 0 0 0 0.27,-0.09 c 0.11,-0.21 0.23,-0.42 0.35,-0.63 a 10.55,10.55 0 0 0 0.6,-1.15 0.19,0.19 0 0 0 -0.11,-0.26 z"
       fill="#f58523"
       id="path328" />
    <path
       d="m 769.25,788.79 v 0 a 4.75,4.75 0 0 0 -1.22,1.34 0.2,0.2 0 0 0 0.06,0.28 0.2,0.2 0 0 0 0.27,-0.06 4.26,4.26 0 0 1 1.12,-1.23 0.2,0.2 0 0 0 0,-0.28 0.2,0.2 0 0 0 -0.23,-0.05 z"
       fill="#f58523"
       id="path330" />
    <path
       d="m 766.57,790.92 h -0.06 a 3,3 0 0 0 -1,0.9 4.42,4.42 0 0 1 -0.5,0.55 0.2,0.2 0 0 0 0,0.28 0.19,0.19 0 0 0 0.28,0 3.88,3.88 0 0 0 0.55,-0.6 2.48,2.48 0 0 1 0.93,-0.81 v 0 a 0.21,0.21 0 0 0 0.1,-0.26 0.21,0.21 0 0 0 -0.3,-0.06 z"
       fill="#f58523"
       id="path332" />
    <path
       d="m 764.58,792.4 0.11,-0.18 a 5.55,5.55 0 0 1 1,-1.35 0.2,0.2 0 0 0 0,-0.28 0.2,0.2 0 0 0 -0.24,-0.05 5.54,5.54 0 0 0 -1.11,1.45 l -0.11,0.17 a 0.2,0.2 0 0 0 0.07,0.28 0.2,0.2 0 0 0 0.28,-0.04 z"
       fill="#f58523"
       id="path334" />
    <path
       d="m 763.54,793.73 a 0.2,0.2 0 0 0 -0.27,-0.09 v 0 a 2.65,2.65 0 0 0 -1.14,1.32 0.19,0.19 0 0 0 0.09,0.26 0.2,0.2 0 0 0 0.27,-0.09 2.3,2.3 0 0 1 1,-1.13 0.21,0.21 0 0 0 0.05,-0.27 z"
       fill="#f58523"
       id="path336" />
    <path
       d="m 764.65,793.44 a 0.18,0.18 0 0 0 -0.07,0 l -0.19,0.23 -0.85,1 a 0.2,0.2 0 0 0 0,0.28 0.21,0.21 0 0 0 0.29,0 c 0.29,-0.33 0.57,-0.67 0.86,-1 l 0.19,-0.22 a 0.21,0.21 0 0 0 0,-0.29 0.18,0.18 0 0 0 -0.23,0 z"
       fill="#f58523"
       id="path338" />
    <path
       d="m 762.36,796.42 h -0.06 a 5.92,5.92 0 0 0 -1.09,1.58 0.2,0.2 0 0 0 0.1,0.26 0.19,0.19 0 0 0 0.26,-0.09 5.68,5.68 0 0 1 1,-1.47 0.21,0.21 0 0 0 0,-0.29 0.22,0.22 0 0 0 -0.21,0.01 z"
       fill="#f58523"
       id="path340" />
    <path
       d="m 761.2,796.65 a 0.22,0.22 0 0 0 -0.22,0 h -0.06 A 7.2,7.2 0 0 0 760,798 c -0.1,0.18 -0.2,0.36 -0.31,0.53 a 0.22,0.22 0 0 0 0.07,0.28 0.21,0.21 0 0 0 0.28,-0.07 c 0.1,-0.18 0.21,-0.36 0.31,-0.55 a 6.77,6.77 0 0 1 0.85,-1.3 0.19,0.19 0 0 0 0,-0.24 z"
       fill="#f58523"
       id="path342" />
    <path
       d="m 760,799.92 a 0.2,0.2 0 0 0 -0.15,0 0.17,0.17 0 0 0 -0.1,0.12 c -0.1,0.32 -0.21,0.64 -0.32,1 -0.16,0.48 -0.33,1 -0.47,1.49 a 0.2,0.2 0 0 0 0.14,0.24 0.2,0.2 0 0 0 0.25,-0.14 c 0.13,-0.49 0.3,-1 0.46,-1.46 0.11,-0.32 0.22,-0.64 0.32,-1 A 0.2,0.2 0 0 0 760,799.92 Z"
       fill="#f58523"
       id="path344" />
    <path
       d="m 758.27,802.15 a 0.2,0.2 0 0 0 -0.09,0.09 6.3,6.3 0 0 0 -0.49,1.27 c -0.07,0.24 -0.14,0.48 -0.23,0.71 a 0.2,0.2 0 0 0 0.37,0.14 c 0.09,-0.24 0.17,-0.49 0.24,-0.73 a 6.1,6.1 0 0 1 0.46,-1.2 0.2,0.2 0 0 0 -0.08,-0.27 0.22,0.22 0 0 0 -0.18,-0.01 z"
       fill="#f58523"
       id="path346" />
    <path
       d="m 758.19,805.14 -0.07,0.05 a 5.39,5.39 0 0 0 -0.88,1.84 v 0.11 a 0.2,0.2 0 0 0 0.13,0.25 0.19,0.19 0 0 0 0.25,-0.12 v -0.11 a 4.67,4.67 0 0 1 0.81,-1.71 0.2,0.2 0 0 0 0,-0.28 0.18,0.18 0 0 0 -0.24,-0.03 z"
       fill="#f58523"
       id="path348" />
    <path
       d="m 755.7,808.61 a 0.21,0.21 0 0 0 0.24,-0.15 15.4,15.4 0 0 1 0.71,-2.22 0.2,0.2 0 0 0 -0.11,-0.26 0.22,0.22 0 0 0 -0.16,0 0.22,0.22 0 0 0 -0.1,0.11 16.06,16.06 0 0 0 -0.73,2.27 0.21,0.21 0 0 0 0.15,0.25 z"
       fill="#f58523"
       id="path350" />
    <path
       d="m 754.64,812.94 a 0.2,0.2 0 0 0 0.23,-0.16 7.23,7.23 0 0 1 0.7,-2.19 0.21,0.21 0 0 0 -0.08,-0.28 0.19,0.19 0 0 0 -0.18,0 0.18,0.18 0 0 0 -0.09,0.08 7.73,7.73 0 0 0 -0.74,2.31 0.21,0.21 0 0 0 0.16,0.24 z"
       fill="#f58523"
       id="path352" />
    <path
       d="m 756.64,809.69 a 0.22,0.22 0 0 0 -0.1,0.09 6.76,6.76 0 0 0 -0.47,1.42 c 0,0.17 -0.08,0.34 -0.13,0.51 a 0.202608,0.202608 0 0 0 0.39,0.11 c 0,-0.18 0.09,-0.35 0.13,-0.53 a 6.49,6.49 0 0 1 0.44,-1.33 0.2,0.2 0 0 0 -0.09,-0.27 0.17,0.17 0 0 0 -0.17,0 z"
       fill="#f58523"
       id="path354" />
    <path
       d="m 755.28,813.57 h -0.06 a 0.18,0.18 0 0 0 -0.11,0.21 3.29,3.29 0 0 1 -0.22,1.42 c -0.07,0.25 -0.15,0.51 -0.2,0.77 a 0.2,0.2 0 1 0 0.39,0.07 c 0,-0.24 0.12,-0.48 0.19,-0.73 a 3.58,3.58 0 0 0 0.23,-1.59 0.19,0.19 0 0 0 -0.22,-0.15 z"
       fill="#f58523"
       id="path356" />
    <path
       d="m 754.57,817.09 a 0.2,0.2 0 0 0 -0.25,-0.14 v 0 a 0.21,0.21 0 0 0 -0.11,0.24 3.09,3.09 0 0 1 0.07,0.91 4.24,4.24 0 0 0 0,0.93 0.20396078,0.20396078 0 0 0 0.4,-0.08 3.36,3.36 0 0 1 -0.05,-0.84 3.35,3.35 0 0 0 -0.06,-1.02 z"
       fill="#f58523"
       id="path358" />
    <path
       d="m 755.79,818.79 a 0.2,0.2 0 0 0 -0.2,-0.2 h -0.09 a 0.21,0.21 0 0 0 -0.11,0.18 12.62,12.62 0 0 0 0.1,1.38 c 0,0.3 0.06,0.6 0.08,0.9 a 0.19,0.19 0 0 0 0.21,0.19 0.21,0.21 0 0 0 0.19,-0.21 c 0,-0.31 -0.05,-0.61 -0.08,-0.92 a 12.26,12.26 0 0 1 -0.1,-1.32 z"
       fill="#f58523"
       id="path360" />
    <path
       d="m 695.46,748.22 c -11.6,10.44 -19.84,50 -24,74.56 a 110,110 0 0 0 115.33,-0.22 c -4.23,-25.16 -12.15,-63.32 -22.64,-74.34 -12,-12.66 -55.73,-11.66 -68.69,0 z"
       fill="#ec1b34"
       id="path362" />
    <path
       d="m 729,783 28.42,-16.92 19.8,11.79 a 129.94,129.94 0 0 0 -7.77,-21.54 l -12,-7.16 -28.45,16.88 -28.4,-16.91 -10.5,6.25 c -3.2,5.72 -6.08,13.49 -8.61,22 l 19.11,-11.38 z"
       fill="#ec1b34"
       id="path364" />
    <path
       d="m 751,741.46 c -12.72,-3.4 -30.29,-3.05 -43,0.59 l 21,12.5 z"
       fill="#ec1b34"
       id="path366" />
    <path
       d="m 729,811.38 28.42,-16.91 27.29,16.25 c -1.17,-6.24 -2.52,-12.82 -4,-19.32 L 757.45,777.55 729,794.47 700.6,777.55 677.85,791.1 c -1.57,6.54 -3,13.16 -4.14,19.38 l 26.89,-16 z"
       fill="#ec1b34"
       id="path368" />
    <path
       d="m 786.8,822.32 -0.95,0.57 -7.06,-4.21 -21.35,-12.68 -21.35,12.71 -7.09,4.18 -7,-4.21 -21.4,-12.68 -21.35,12.71 -7.06,4.21 -0.64,-0.38 c 0,0.09 0,0.18 0,0.27 a 110,110 0 0 0 15.8,8 l 13.29,-7.91 27,16.08 h 1.38 c 0.48,0 1,0 1.43,0 l 27,-16.07 13.28,7.9 a 109.62,109.62 0 0 0 16.12,-8.23 2,2 0 0 0 -0.05,-0.26 z"
       fill="#ec1b34"
       id="path370" />
    <path
       d="m 729,766.05 28.42,-16.91 12,7.16 a 33.41,33.41 0 0 0 -5.27,-8.08 21.52,21.52 0 0 0 -6.76,-4.51 41.37,41.37 0 0 0 -6.43,-2.25 l -22,13.09 -21,-12.5 a 45.05,45.05 0 0 0 -7.42,2.81 23.2,23.2 0 0 0 -5.14,3.36 28.45,28.45 0 0 0 -5.36,7.17 l 10.5,-6.25 z"
       fill="#f399c0"
       id="path372" />
    <path
       d="m 729,794.47 28.42,-16.92 23.28,13.85 c -1.07,-4.62 -2.23,-9.19 -3.46,-13.56 L 757.44,766.05 729,783 700.6,766.05 681.49,777.43 c -1.31,4.41 -2.52,9 -3.64,13.67 l 22.75,-13.55 z"
       fill="#f399c0"
       id="path374" />
    <path
       d="m 687.31,830.8 a 108.88,108.88 0 0 0 12.28,4.2 l 1,-0.6 2.59,1.53 a 110.4,110.4 0 0 0 24.44,3.07 l -27,-16.08 z"
       fill="#f399c0"
       id="path376" />
    <path
       d="m 730.43,839 a 110.06,110.06 0 0 0 24.45,-3.05 l 2.56,-1.52 1,0.59 a 108.88,108.88 0 0 0 12.28,-4.19 l -13.28,-7.9 z"
       fill="#f399c0"
       id="path378" />
    <path
       d="m 786.18,818.68 -0.33,-1.84 c -0.35,-2 -0.72,-4 -1.12,-6.12 l -27.29,-16.25 -28.44,16.91 -28.4,-16.91 -26.89,16 c -0.54,2.83 -1,5.58 -1.5,8.2 v 0.13 c -0.22,1.26 -0.43,2.5 -0.64,3.7 l 0.64,0.38 7.06,-4.21 21.33,-12.67 21.4,12.68 7.06,4.21 7.07,-4.21 21.31,-12.68 21.35,12.71 7.06,4.21 0.95,-0.57 c -0.2,-1.22 -0.41,-2.43 -0.62,-3.67 z"
       fill="#f399c0"
       id="path380" />
    <path
       d="m 754.88,835.91 c 1.19,-0.29 2.38,-0.6 3.56,-0.93 l -1,-0.59 z"
       fill="#f399c0"
       id="path382" />
    <path
       d="m 699.59,835 q 1.78,0.5 3.6,0.93 l -2.59,-1.53 z"
       fill="#f399c0"
       id="path384" />
    <path
       d="m 769.46,702.57 a 27.87,27.87 0 0 1 2.28,-3.2 l 0.31,-0.39 0.15,-0.15 a 28.85,28.85 0 0 1 5.67,-5 c 11,-7.35 34,-6.21 38.18,-2.37 4,3.69 -5.22,27.91 -16.21,35.25 -0.36,0.24 -0.73,0.48 -1.09,0.7 a 28.86,28.86 0 0 1 -3.26,1.69 l -0.12,0.06 -0.9,0.37 -0.25,0.1 -1.12,0.41 v 0 c -0.38,0.13 -0.76,0.25 -1.15,0.36 v 0 l -1.17,0.31"
       fill="#ec1b34"
       id="path386" />
    <path
       d="m 777.48,707.05 a 17.71,17.71 0 0 1 5.56,-5.9 c 1.21,-0.8 5.09,-2.65 15.1,-2.39 2.47,0.06 4.83,0.24 6.85,0.45 -2.19,8.13 -5.89,17.42 -9.84,20.06 a 18,18 0 0 1 -6.4,2.68 c -0.23,-0.54 -0.47,-1.07 -0.73,-1.6 a 40,40 0 0 0 -10.54,-13.3 z"
       fill="#f072ab"
       opacity="0.5"
       id="path388" />
    <path
       d="m 696.57,693.09 a 27.36,27.36 0 0 0 -1.38,-3.68 L 695,689 c 0,-0.06 -0.07,-0.12 -0.1,-0.19 a 29.06,29.06 0 0 0 -4.21,-6.27 c -8.75,-9.91 -31.32,-14.7 -36.3,-12.06 -4.81,2.55 -2.1,28.32 6.65,38.23 0.29,0.33 0.58,0.65 0.88,1 a 32.86,32.86 0 0 0 2.71,2.47 l 0.11,0.08 0.77,0.59 0.21,0.16 1,0.68 v 0 c 0.34,0.23 0.68,0.43 1,0.64 v 0 l 1,0.59"
       fill="#ec1b34"
       id="path390" />
    <path
       d="m 687.67,695.37 a 17.61,17.61 0 0 0 -3.86,-7.12 c -1,-1.08 -4.25,-3.87 -14,-6.18 -2.41,-0.57 -4.74,-1 -6.74,-1.31 0,8.42 1.24,18.34 4.38,21.9 a 18,18 0 0 0 5.5,4.24 c 0.36,-0.47 0.73,-0.92 1.12,-1.37 a 40,40 0 0 1 13.6,-10.16 z"
       fill="#f072ab"
       opacity="0.5"
       id="path392" />
    <path
       d="m 724.53,762.17 c 8.56,-26.55 34.12,-44.12 63.18,-40.34 1.39,0.18 2.77,0.43 4.12,0.7 -5.38,-20.14 -25.39,-44.12 -55.9,-48.09 -33.1,-4.3 -57,14 -66.65,32.17 1.49,0.09 3,0.21 4.49,0.4 29.06,3.78 49.28,27.31 50.76,55.16 z"
       fill="#ec1b34"
       id="path394" />
    <path
       d="m 721.53,785.24 c 20.24,2.72 54.64,-26.19 63.81,-35.91 6.45,-6.84 8.13,-17.92 6.49,-26.8 -1.35,-0.27 -2.73,-0.52 -4.12,-0.7 -29.06,-3.78 -54.62,13.79 -63.18,40.34 -1.48,-27.85 -21.7,-51.38 -50.76,-55.16 -1.5,-0.19 -3,-0.31 -4.49,-0.4 -4.19,4.69 -3.4,18.52 -1.7,23.45 4.73,13.69 29.91,51.94 53.95,55.18 z"
       fill="#fefff0"
       id="path396" />
    <path
       d="m 731,759.39 a 3.1,3.1 0 0 0 -1.9,-1.45 3.39,3.39 0 0 0 -0.57,-0.13 l -1.6,-0.21 -4.64,-0.6 -1,-0.13 a 3.7,3.7 0 0 0 -0.88,0 3,3 0 0 0 -1.92,0.9 2,2 0 0 0 -0.24,2.45 l 3,5.12 a 2.49,2.49 0 0 0 0.4,0.52 3.47,3.47 0 0 0 0.42,0.34 0.87,0.87 0 0 1 0.11,0.09 4,4 0 0 0 1.3,0.49 h 0.18 a 3.26,3.26 0 0 0 2.72,-0.8 l 1.28,-1.27 v 0 l 2.93,-2.91 a 2,2 0 0 0 0.41,-2.41 z"
       fill="#171717"
       id="path398" />
    <path
       d="m 715.79,687 a 0.42,0.42 0 0 1 -0.3,-0.2 18.85,18.85 0 0 1 -1.3,-3.35 c -0.2,-0.63 -0.41,-1.29 -0.66,-1.92 a 0.33,0.33 0 0 1 0.24,-0.43 0.42,0.42 0 0 1 0.5,0.23 c 0.25,0.64 0.46,1.31 0.67,2 a 17.3,17.3 0 0 0 1.25,3.22 0.33,0.33 0 0 1 -0.18,0.46 0.42,0.42 0 0 1 -0.22,-0.01 z"
       fill="#f58523"
       id="path400" />
    <path
       d="m 720,686.88 a 0.39,0.39 0 0 1 -0.35,-0.31 l -0.15,-1.16 a 26,26 0 0 0 -0.73,-4 0.33,0.33 0 0 1 0.28,-0.41 0.39,0.39 0 0 1 0.47,0.26 27.7,27.7 0 0 1 0.75,4.09 c 0.05,0.39 0.1,0.77 0.16,1.15 a 0.36,0.36 0 0 1 -0.34,0.38 z"
       fill="#f58523"
       id="path402" />
    <path
       d="m 724.14,687.19 a 0.39,0.39 0 0 1 -0.35,-0.35 c 0,-0.51 0,-1.06 0.07,-1.61 a 9.87,9.87 0 0 0 -0.17,-3.41 0.32,0.32 0 0 1 0.27,-0.41 0.4,0.4 0 0 1 0.48,0.25 10.21,10.21 0 0 1 0.19,3.63 c 0,0.54 -0.07,1.06 -0.06,1.56 a 0.36,0.36 0 0 1 -0.38,0.34 z"
       fill="#f58523"
       id="path404" />
    <path
       d="m 729.74,687.34 a 0.38,0.38 0 0 1 -0.34,-0.3 14.53,14.53 0 0 1 -0.1,-3.28 20.16,20.16 0 0 0 0,-2.2 0.35,0.35 0 0 1 0.37,-0.35 0.37,0.37 0 0 1 0.41,0.33 21.42,21.42 0 0 1 0,2.27 13.72,13.72 0 0 0 0.09,3.14 0.34,0.34 0 0 1 -0.32,0.39 z"
       fill="#f58523"
       id="path406" />
    <path
       d="m 734.64,687.82 v 0 c -0.21,0 -0.36,-0.18 -0.33,-0.37 0.3,-1.63 0.59,-3.25 0.76,-4.85 a 0.37,0.37 0 0 1 0.43,-0.3 v 0 a 0.37,0.37 0 0 1 0.34,0.39 c -0.18,1.62 -0.47,3.24 -0.76,4.82 a 0.4,0.4 0 0 1 -0.44,0.31 z"
       fill="#f58523"
       id="path408" />
    <path
       d="m 740.43,688.61 h -0.07 a 0.35,0.35 0 0 1 -0.26,-0.44 c 0.11,-0.34 0.24,-0.7 0.37,-1 a 12.2,12.2 0 0 0 0.91,-3.77 0.35,0.35 0 0 1 0.39,-0.33 0.36,0.36 0 0 1 0.38,0.35 12.17,12.17 0 0 1 -0.94,4 l -0.37,1 a 0.36,0.36 0 0 1 -0.41,0.19 z"
       fill="#f58523"
       id="path410" />
    <path
       d="m 746.56,691.23 h -0.06 a 0.35,0.35 0 0 1 -0.27,-0.43 20,20 0 0 1 0.77,-2 12.53,12.53 0 0 0 1.11,-3.51 0.38,0.38 0 0 1 0.42,-0.3 0.35,0.35 0 0 1 0.35,0.38 13,13 0 0 1 -1.16,3.69 c -0.28,0.66 -0.55,1.29 -0.75,1.91 a 0.36,0.36 0 0 1 -0.41,0.26 z"
       fill="#f58523"
       id="path412" />
    <path
       d="m 752.75,691.37 h -0.14 a 0.33,0.33 0 0 1 -0.16,-0.47 L 753,690 a 15.66,15.66 0 0 1 2,-2.9 0.4,0.4 0 0 1 0.54,0 0.31,0.31 0 0 1 0.06,0.48 15.16,15.16 0 0 0 -1.88,2.79 l -0.52,0.89 a 0.4,0.4 0 0 1 -0.45,0.11 z"
       fill="#f58523"
       id="path414" />
    <path
       d="m 716.59,680.89 a 0.43,0.43 0 0 1 -0.31,-0.21 L 716,680 a 12.74,12.74 0 0 0 -1.13,-2 0.32,0.32 0 0 1 0.11,-0.48 0.43,0.43 0 0 1 0.54,0.12 14.28,14.28 0 0 1 1.2,2.16 l 0.3,0.62 a 0.32,0.32 0 0 1 -0.19,0.45 0.51,0.51 0 0 1 -0.24,0.02 z"
       fill="#f58523"
       id="path416" />
    <path
       d="m 722.08,680.91 a 0.39,0.39 0 0 1 -0.33,-0.28 7.9,7.9 0 0 1 -0.28,-3.06 0.36,0.36 0 0 1 0.44,-0.27 0.35,0.35 0 0 1 0.32,0.4 7.86,7.86 0 0 0 0.27,2.8 0.32,0.32 0 0 1 -0.29,0.4 z"
       fill="#f58523"
       id="path418" />
    <path
       d="m 727,681 a 0.35,0.35 0 0 1 -0.34,-0.37 v -0.52 a 6.17,6.17 0 0 0 -0.28,-3.29 0.32,0.32 0 0 1 0.2,-0.45 0.42,0.42 0 0 1 0.51,0.19 6.76,6.76 0 0 1 0.35,3.63 v 0.51 a 0.36,0.36 0 0 1 -0.41,0.3 z"
       fill="#f58523"
       id="path420" />
    <path
       d="m 733.44,682 a 0.37,0.37 0 0 1 -0.34,-0.4 14.33,14.33 0 0 0 -0.09,-3.29 0.34,0.34 0 0 1 0.35,-0.36 0.37,0.37 0 0 1 0.42,0.31 14.48,14.48 0 0 1 0.09,3.44 0.38,0.38 0 0 1 -0.43,0.3 z"
       fill="#f58523"
       id="path422" />
    <path
       d="m 739.46,682 a 0.38,0.38 0 0 1 -0.35,-0.39 l 0.07,-0.56 c 0.1,-0.89 0.2,-1.81 0.25,-2.85 a 0.39,0.39 0 0 1 0.77,0 c 0,1 -0.15,2 -0.25,2.89 l -0.06,0.56 a 0.37,0.37 0 0 1 -0.43,0.3 z"
       fill="#f58523"
       id="path424" />
    <path
       d="m 745.16,684.37 v 0 a 0.36,0.36 0 0 1 -0.28,-0.43 c 0.13,-0.41 0.28,-0.82 0.44,-1.23 a 10,10 0 0 0 0.68,-2.38 0.36,0.36 0 0 1 0.42,-0.3 v 0 a 0.36,0.36 0 0 1 0.34,0.38 10.16,10.16 0 0 1 -0.72,2.53 c -0.15,0.4 -0.3,0.8 -0.42,1.2 a 0.39,0.39 0 0 1 -0.46,0.23 z"
       fill="#f58523"
       id="path426" />
    <path
       d="m 751.72,685.34 a 0.37,0.37 0 0 1 -0.34,-0.38 7.34,7.34 0 0 1 0.42,-1.66 5.87,5.87 0 0 0 0.41,-1.69 0.35,0.35 0 0 1 0.4,-0.32 0.37,0.37 0 0 1 0.37,0.37 6.47,6.47 0 0 1 -0.43,1.86 6.44,6.44 0 0 0 -0.4,1.52 0.37,0.37 0 0 1 -0.42,0.3 z"
       fill="#f58523"
       id="path428" />
    <path
       d="m 757.85,689.37 h -0.07 a 0.35,0.35 0 0 1 -0.26,-0.43 8.26,8.26 0 0 1 1.46,-2.36 l 0.54,-0.71 a 0.41,0.41 0 0 1 0.53,-0.1 0.33,0.33 0 0 1 0.13,0.48 l -0.56,0.73 a 7.83,7.83 0 0 0 -1.36,2.17 0.36,0.36 0 0 1 -0.41,0.22 z"
       fill="#f58523"
       id="path430" />
    <path
       d="m 711.84,682.23 a 0.39,0.39 0 0 1 -0.31,-0.2 c -0.2,-0.39 -0.38,-0.82 -0.56,-1.25 a 9.38,9.38 0 0 0 -1.06,-2 0.31,0.31 0 0 1 0.09,-0.47 0.43,0.43 0 0 1 0.55,0.1 10,10 0 0 1 1.15,2.19 c 0.17,0.41 0.34,0.82 0.54,1.2 a 0.33,0.33 0 0 1 -0.19,0.45 0.38,0.38 0 0 1 -0.21,-0.02 z"
       fill="#f58523"
       id="path432" />
    <path
       d="m 714.24,691.91 a 0.38,0.38 0 0 1 -0.34,-0.29 c 0,-0.27 -0.07,-0.55 -0.1,-0.83 a 3.12,3.12 0 0 0 -0.51,-1.77 0.32,0.32 0 0 1 0.07,-0.48 0.44,0.44 0 0 1 0.55,0.08 3.64,3.64 0 0 1 0.66,2.13 c 0,0.27 0,0.53 0.1,0.78 a 0.33,0.33 0 0 1 -0.32,0.38 z"
       fill="#f58523"
       id="path434" />
    <path
       d="m 719.74,693.38 a 0.36,0.36 0 0 1 -0.34,-0.39 4.38,4.38 0 0 0 -0.25,-2.61 0.32,0.32 0 0 1 0.16,-0.46 0.42,0.42 0 0 1 0.53,0.15 4.8,4.8 0 0 1 0.33,3 0.37,0.37 0 0 1 -0.43,0.3 z"
       fill="#f58523"
       id="path436" />
    <path
       d="m 723.33,695.41 a 0.39,0.39 0 0 1 -0.34,-0.34 c 0,-0.72 -0.12,-1.45 -0.2,-2.18 -0.08,-0.73 -0.2,-1.74 -0.22,-2.62 a 0.35,0.35 0 0 1 0.37,-0.34 0.37,0.37 0 0 1 0.4,0.34 c 0,0.85 0.13,1.73 0.22,2.58 0.09,0.85 0.16,1.47 0.2,2.21 a 0.34,0.34 0 0 1 -0.36,0.35 z"
       fill="#f58523"
       id="path438" />
    <path
       d="m 721.13,701.25 a 0.38,0.38 0 0 1 -0.34,-0.31 8.55,8.55 0 0 0 -1.16,-3.6 0.32,0.32 0 0 1 0.13,-0.47 0.43,0.43 0 0 1 0.54,0.13 9.07,9.07 0 0 1 1.26,3.88 0.33,0.33 0 0 1 -0.34,0.37 z"
       fill="#f58523"
       id="path440" />
    <path
       d="m 727.28,694.19 a 0.37,0.37 0 0 1 -0.34,-0.36 v -0.74 a 9.74,9.74 0 0 0 -0.18,-3 0.34,0.34 0 0 1 0.29,-0.41 0.41,0.41 0 0 1 0.47,0.27 10.21,10.21 0 0 1 0.19,3.2 v 0.73 a 0.35,0.35 0 0 1 -0.39,0.32 z"
       fill="#f58523"
       id="path442" />
    <path
       d="m 725.56,702.41 a 0.41,0.41 0 0 1 -0.33,-0.25 14.41,14.41 0 0 1 -0.54,-2.78 v -0.13 a 0.35,0.35 0 0 1 0.35,-0.37 0.37,0.37 0 0 1 0.42,0.31 v 0.14 a 13.3,13.3 0 0 0 0.54,2.67 0.33,0.33 0 0 1 -0.26,0.42 z"
       fill="#f58523"
       id="path444" />
    <path
       d="m 730.3,696.09 a 0.39,0.39 0 0 1 -0.34,-0.37 c 0,-1.8 0.11,-3.61 0.18,-5.41 a 0.36,0.36 0 0 1 0.4,-0.32 0.37,0.37 0 0 1 0.38,0.36 c -0.07,1.81 -0.13,3.61 -0.18,5.41 a 0.37,0.37 0 0 1 -0.4,0.33 z"
       fill="#f58523"
       id="path446" />
    <path
       d="m 729.64,701.2 a 0.37,0.37 0 0 1 -0.34,-0.35 v -0.7 A 11.74,11.74 0 0 0 729,697 a 0.34,0.34 0 0 1 0.29,-0.41 0.42,0.42 0 0 1 0.47,0.27 12.45,12.45 0 0 1 0.28,3.29 v 0.7 a 0.36,0.36 0 0 1 -0.38,0.34 z"
       fill="#f58523"
       id="path448" />
    <path
       d="m 735.69,693.89 h -0.09 a 0.33,0.33 0 0 1 -0.23,-0.44 11.72,11.72 0 0 0 0.64,-3 l 0.07,-0.53 a 0.36,0.36 0 0 1 0.43,-0.29 0.37,0.37 0 0 1 0.34,0.39 l -0.07,0.53 a 12,12 0 0 1 -0.68,3.15 0.38,0.38 0 0 1 -0.41,0.19 z"
       fill="#f58523"
       id="path450" />
    <path
       d="m 734.39,701.82 a 0.37,0.37 0 0 1 -0.34,-0.39 l 0.62,-4.78 a 0.4,0.4 0 0 1 0.78,0.1 l -0.63,4.78 a 0.36,0.36 0 0 1 -0.43,0.29 z"
       fill="#f58523"
       id="path452" />
    <path
       d="m 740.67,695.81 v 0 a 0.36,0.36 0 0 1 -0.34,-0.39 7.13,7.13 0 0 1 0.74,-2.09 5.83,5.83 0 0 0 0.72,-2.1 0.36,0.36 0 0 1 0.41,-0.31 0.4,0.4 0 0 1 0.36,0.38 6.3,6.3 0 0 1 -0.77,2.32 6.41,6.41 0 0 0 -0.69,1.9 0.37,0.37 0 0 1 -0.43,0.29 z"
       fill="#f58523"
       id="path454" />
    <path
       d="m 738.81,702.05 a 0.37,0.37 0 0 1 -0.34,-0.38 13.49,13.49 0 0 1 0.43,-2.35 c 0.14,-0.61 0.29,-1.23 0.37,-1.84 a 0.37,0.37 0 0 1 0.43,-0.29 0.36,0.36 0 0 1 0.34,0.39 17.26,17.26 0 0 1 -0.38,1.9 15.18,15.18 0 0 0 -0.42,2.26 0.35,0.35 0 0 1 -0.41,0.31 z"
       fill="#f58523"
       id="path456" />
    <path
       d="m 744.51,700.48 a 0.38,0.38 0 0 1 -0.35,-0.39 6.57,6.57 0 0 1 1.21,-2.68 12,12 0 0 0 0.77,-1.32 0.38,0.38 0 0 1 0.5,-0.18 0.34,0.34 0 0 1 0.22,0.45 11.4,11.4 0 0 1 -0.81,1.4 6.11,6.11 0 0 0 -1.11,2.41 0.37,0.37 0 0 1 -0.42,0.31 z"
       fill="#f58523"
       id="path458" />
    <path
       d="m 748.7,693.39 a 0.38,0.38 0 0 1 -0.1,0 0.33,0.33 0 0 1 -0.22,-0.45 5.36,5.36 0 0 1 1.15,-1.51 c 0.21,-0.22 0.42,-0.43 0.6,-0.65 a 0.43,0.43 0 0 1 0.55,-0.07 0.33,0.33 0 0 1 0.09,0.48 c -0.2,0.24 -0.42,0.47 -0.64,0.7 a 4.7,4.7 0 0 0 -1,1.32 0.37,0.37 0 0 1 -0.43,0.18 z"
       fill="#f58523"
       id="path460" />
    <path
       d="m 747.75,703.67 h -0.08 a 0.34,0.34 0 0 1 -0.24,-0.44 14,14 0 0 1 1.26,-2.31 l 0.46,-0.75 a 0.4,0.4 0 0 1 0.52,-0.14 0.34,0.34 0 0 1 0.17,0.47 c -0.15,0.26 -0.31,0.51 -0.47,0.77 a 14,14 0 0 0 -1.21,2.2 0.36,0.36 0 0 1 -0.41,0.2 z"
       fill="#f58523"
       id="path462" />
    <path
       d="m 750.09,697.73 a 0.37,0.37 0 0 1 -0.14,0 0.32,0.32 0 0 1 -0.15,-0.47 14.88,14.88 0 0 1 2.08,-2.68 0.41,0.41 0 0 1 0.55,0 0.32,0.32 0 0 1 0,0.49 14.84,14.84 0 0 0 -2,2.56 0.39,0.39 0 0 1 -0.34,0.1 z"
       fill="#f58523"
       id="path464" />
    <path
       d="m 742.68,709.49 h -0.06 a 0.36,0.36 0 0 1 -0.27,-0.43 c 0.41,-1.35 0.89,-2.69 1.34,-4 l 0.36,-1 a 0.37,0.37 0 0 1 0.48,-0.21 0.35,0.35 0 0 1 0.26,0.44 l -0.36,1 c -0.45,1.29 -0.92,2.63 -1.33,4 a 0.37,0.37 0 0 1 -0.42,0.2 z"
       fill="#f58523"
       id="path466" />
    <path
       d="M 740.1,708.23 H 740 a 0.36,0.36 0 0 1 -0.27,-0.43 21,21 0 0 0 0.89,-3.87 0.39,0.39 0 0 1 0.77,0.08 21.15,21.15 0 0 1 -0.91,4 0.39,0.39 0 0 1 -0.38,0.22 z"
       fill="#f58523"
       id="path468" />
    <path
       d="m 723.52,710 a 0.38,0.38 0 0 1 -0.34,-0.35 c 0,-0.26 0,-0.54 0,-0.84 0,-1.09 0.1,-2.44 -0.56,-3.19 a 0.33,0.33 0 0 1 0.06,-0.49 0.44,0.44 0 0 1 0.55,0.07 c 0.84,1 0.78,2.46 0.73,3.66 0,0.29 0,0.56 0,0.8 a 0.36,0.36 0 0 1 -0.39,0.34 z"
       fill="#f58523"
       id="path470" />
    <path
       d="m 727.89,708.61 a 0.39,0.39 0 0 1 -0.34,-0.34 c 0,-0.6 0,-1.2 0,-1.81 0,-0.77 0,-1.58 -0.07,-2.36 a 0.35,0.35 0 0 1 0.36,-0.36 0.39,0.39 0 0 1 0.41,0.33 c 0.07,0.81 0.07,1.62 0.08,2.41 0,0.6 0,1.19 0,1.78 a 0.35,0.35 0 0 1 -0.37,0.35 z"
       fill="#f58523"
       id="path472" />
    <path
       d="m 731.26,708.81 a 0.37,0.37 0 0 1 -0.34,-0.39 l 0.67,-5.11 a 0.37,0.37 0 0 1 0.43,-0.3 0.38,0.38 0 0 1 0.34,0.4 l -0.67,5.11 a 0.36,0.36 0 0 1 -0.43,0.29 z"
       fill="#f58523"
       id="path474" />
    <path
       d="m 734.81,708.7 v 0 a 0.36,0.36 0 0 1 -0.31,-0.41 c 0,-0.23 0.12,-0.48 0.18,-0.74 a 5.18,5.18 0 0 0 0.21,-3 0.33,0.33 0 0 1 0.24,-0.43 0.43,0.43 0 0 1 0.5,0.23 5.62,5.62 0 0 1 -0.19,3.34 c -0.06,0.25 -0.13,0.49 -0.17,0.72 a 0.38,0.38 0 0 1 -0.46,0.29 z"
       fill="#f58523"
       id="path476" />
    <path
       d="m 737.74,714.28 a 0.37,0.37 0 0 1 -0.34,-0.39 l 0.62,-4.77 a 0.38,0.38 0 0 1 0.43,-0.3 0.37,0.37 0 0 1 0.34,0.4 l -0.62,4.77 a 0.36,0.36 0 0 1 -0.43,0.29 z"
       fill="#f58523"
       id="path478" />
    <path
       d="m 740.35,716.36 h -0.07 a 0.35,0.35 0 0 1 -0.26,-0.43 c 0.12,-0.36 0.25,-0.71 0.38,-1.07 a 10.46,10.46 0 0 0 0.78,-2.87 0.36,0.36 0 0 1 0.41,-0.31 0.38,0.38 0 0 1 0.37,0.38 11.3,11.3 0 0 1 -0.82,3 c -0.13,0.35 -0.26,0.69 -0.37,1 a 0.4,0.4 0 0 1 -0.42,0.3 z"
       fill="#f58523"
       id="path480" />
    <path
       d="m 726.28,717 a 0.37,0.37 0 0 1 -0.34,-0.35 c 0,-0.19 0,-0.39 0,-0.61 0,-1.07 0,-2.41 -0.79,-3.07 a 0.31,0.31 0 0 1 0,-0.48 0.4,0.4 0 0 1 0.54,0 c 1.11,0.88 1.09,2.39 1.07,3.61 a 5.8,5.8 0 0 0 0,0.59 0.36,0.36 0 0 1 -0.39,0.34 z"
       fill="#f58523"
       id="path482" />
    <path
       d="m 728.57,717.49 a 0.39,0.39 0 0 1 -0.35,-0.38 28.14,28.14 0 0 0 0.06,-4.46 0.35,0.35 0 0 1 0.37,-0.35 0.37,0.37 0 0 1 0.41,0.33 32,32 0 0 1 -0.06,4.55 0.37,0.37 0 0 1 -0.42,0.31 z"
       fill="#f58523"
       id="path484" />
    <path
       d="m 731.76,716.05 v 0 a 0.36,0.36 0 0 1 -0.3,-0.42 c 0,-0.2 0.1,-0.42 0.16,-0.65 a 5.76,5.76 0 0 0 0.25,-3.27 0.33,0.33 0 0 1 0.23,-0.44 0.42,0.42 0 0 1 0.5,0.22 6.12,6.12 0 0 1 -0.23,3.67 c -0.05,0.22 -0.11,0.43 -0.16,0.63 a 0.36,0.36 0 0 1 -0.45,0.26 z"
       fill="#f58523"
       id="path486" />
    <path
       d="m 733.82,719.32 a 0.35,0.35 0 0 1 -0.34,-0.39 l 0.57,-4.43 a 0.37,0.37 0 0 1 0.43,-0.29 0.35,0.35 0 0 1 0.34,0.39 l -0.57,4.43 a 0.37,0.37 0 0 1 -0.43,0.29 z"
       fill="#f58523"
       id="path488" />
    <path
       d="m 727.6,725.92 a 0.39,0.39 0 0 1 -0.34,-0.29 14.71,14.71 0 0 1 -0.18,-4.75 0.37,0.37 0 0 1 0.43,-0.29 v 0 a 0.36,0.36 0 0 1 0.34,0.39 14.05,14.05 0 0 0 0.18,4.55 0.35,0.35 0 0 1 -0.32,0.39 z"
       fill="#f58523"
       id="path490" />
    <path
       d="m 729.36,726.49 a 0.37,0.37 0 0 1 -0.35,-0.34 14.13,14.13 0 0 1 0.17,-2 9.58,9.58 0 0 0 0.14,-2.37 0.35,0.35 0 0 1 0.35,-0.37 0.39,0.39 0 0 1 0.42,0.32 10.09,10.09 0 0 1 -0.13,2.52 11.93,11.93 0 0 0 -0.17,1.87 0.36,0.36 0 0 1 -0.38,0.34 z"
       fill="#f58523"
       id="path492" />
    <path
       d="m 732.41,728.16 a 0.36,0.36 0 0 1 -0.34,-0.38 13.63,13.63 0 0 1 0.63,-2.63 l 0.18,-0.56 a 0.38,0.38 0 0 1 0.47,-0.23 0.35,0.35 0 0 1 0.28,0.43 l -0.18,0.56 a 13.12,13.12 0 0 0 -0.61,2.51 0.36,0.36 0 0 1 -0.42,0.3 z"
       fill="#f58523"
       id="path494" />
    <path
       d="m 736,722.73 a 0.37,0.37 0 0 1 -0.34,-0.35 10,10 0 0 1 0.76,-3.32 c 0.11,-0.31 0.22,-0.61 0.31,-0.92 a 0.38,0.38 0 0 1 0.48,-0.22 0.35,0.35 0 0 1 0.27,0.43 c -0.1,0.31 -0.21,0.62 -0.32,0.94 a 9.77,9.77 0 0 0 -0.73,3.11 0.35,0.35 0 0 1 -0.38,0.33 z"
       fill="#f58523"
       id="path496" />
    <path
       d="m 734.78,729.05 a 0.37,0.37 0 0 1 -0.35,-0.39 12.85,12.85 0 0 1 0.47,-2 10.76,10.76 0 0 0 0.45,-2.06 0.37,0.37 0 0 1 0.42,-0.31 0.35,0.35 0 0 1 0.36,0.38 11.63,11.63 0 0 1 -0.48,2.18 12.21,12.21 0 0 0 -0.44,1.88 0.39,0.39 0 0 1 -0.43,0.29 z"
       fill="#f58523"
       id="path498" />
    <path
       d="m 727,734.74 a 0.37,0.37 0 0 1 -0.35,-0.35 c 0,-0.34 0,-0.7 0,-1.07 a 7.74,7.74 0 0 0 -0.33,-3.35 0.33,0.33 0 0 1 0.21,-0.45 0.43,0.43 0 0 1 0.51,0.21 8,8 0 0 1 0.38,3.64 c 0,0.36 0,0.71 0,1 a 0.35,0.35 0 0 1 -0.39,0.33 z"
       fill="#f58523"
       id="path500" />
    <path
       d="m 723,719.77 a 0.37,0.37 0 0 1 -0.34,-0.33 c -0.05,-0.55 -0.1,-1.11 -0.16,-1.66 a 29.23,29.23 0 0 1 -0.22,-3.5 0.36,0.36 0 0 1 0.39,-0.33 0.36,0.36 0 0 1 0.38,0.36 28,28 0 0 0 0.22,3.42 c 0.06,0.57 0.12,1.13 0.16,1.69 a 0.35,0.35 0 0 1 -0.36,0.36 z"
       fill="#f58523"
       id="path502" />
    <path
       d="m 724.13,725.47 a 0.38,0.38 0 0 1 -0.34,-0.32 8,8 0 0 1 0,-1.11 4.37,4.37 0 0 0 -0.47,-2.51 0.32,0.32 0 0 1 0.12,-0.47 0.41,0.41 0 0 1 0.53,0.11 4.86,4.86 0 0 1 0.59,2.9 c 0,0.36 0,0.72 0,1 a 0.34,0.34 0 0 1 -0.35,0.36 z"
       fill="#f58523"
       id="path504" />
    <path
       d="m 729,735.24 v 0 a 0.38,0.38 0 0 1 -0.34,-0.4 c 0.05,-0.38 0.14,-0.79 0.22,-1.21 a 7.52,7.52 0 0 0 0.22,-3 0.34,0.34 0 0 1 0.3,-0.4 0.39,0.39 0 0 1 0.46,0.28 8.09,8.09 0 0 1 -0.21,3.27 c -0.09,0.41 -0.17,0.81 -0.22,1.18 a 0.37,0.37 0 0 1 -0.43,0.28 z"
       fill="#f58523"
       id="path506" />
    <path
       d="m 731.85,737.46 v 0 a 0.38,0.38 0 0 1 -0.34,-0.4 25.33,25.33 0 0 1 0.67,-3.07 c 0.21,-0.8 0.43,-1.62 0.57,-2.44 a 0.39,0.39 0 0 1 0.77,0.12 c -0.15,0.85 -0.37,1.68 -0.58,2.49 a 25.19,25.19 0 0 0 -0.66,3 0.37,0.37 0 0 1 -0.43,0.3 z"
       fill="#f58523"
       id="path508" />
    <path
       d="m 725.1,742.13 a 0.36,0.36 0 0 1 -0.34,-0.36 v -0.55 a 28.69,28.69 0 0 0 -0.08,-3.93 0.34,0.34 0 0 1 0.35,-0.36 0.38,0.38 0 0 1 0.42,0.32 29.8,29.8 0 0 1 0.09,4 v 0.56 a 0.35,0.35 0 0 1 -0.39,0.32 z"
       fill="#f58523"
       id="path510" />
    <path
       d="m 727.38,739.65 a 0.4,0.4 0 0 1 -0.34,-0.39 c 0.1,-0.73 0.15,-1.47 0.2,-2.18 l 0.07,-0.89 a 0.37,0.37 0 0 1 0.42,-0.31 0.38,0.38 0 0 1 0.36,0.38 l -0.07,0.88 c 0,0.73 -0.11,1.48 -0.21,2.22 a 0.36,0.36 0 0 1 -0.43,0.29 z"
       fill="#f58523"
       id="path512" />
    <path
       d="m 727.79,745.6 a 0.38,0.38 0 0 1 -0.35,-0.32 18.65,18.65 0 0 1 0.26,-4.09 0.38,0.38 0 0 1 0.44,-0.28 0.37,0.37 0 0 1 0.33,0.4 17.43,17.43 0 0 0 -0.25,3.94 0.36,0.36 0 0 1 -0.36,0.36 z"
       fill="#f58523"
       id="path514" />
    <path
       d="m 730.11,743.82 a 0.36,0.36 0 0 1 -0.34,-0.38 l 0.15,-1.6 c 0.07,-0.8 0.14,-1.6 0.24,-2.4 a 0.37,0.37 0 0 1 0.42,-0.3 v 0 a 0.38,0.38 0 0 1 0.34,0.39 c -0.1,0.8 -0.17,1.59 -0.24,2.39 -0.05,0.53 -0.09,1.07 -0.15,1.61 a 0.38,0.38 0 0 1 -0.42,0.3 z"
       fill="#f58523"
       id="path516" />
    <path
       d="m 729.24,749.49 a 0.36,0.36 0 0 1 -0.34,-0.38 11,11 0 0 1 0.77,-2.87 0.39,0.39 0 0 1 0.5,-0.2 0.34,0.34 0 0 1 0.24,0.44 10.57,10.57 0 0 0 -0.74,2.71 0.36,0.36 0 0 1 -0.42,0.3 z"
       fill="#f58523"
       id="path518" />
    <path
       d="m 725.68,749.72 a 0.36,0.36 0 0 1 -0.34,-0.38 7.42,7.42 0 0 0 -0.32,-3.25 0.32,0.32 0 0 1 0.23,-0.43 0.41,0.41 0 0 1 0.5,0.22 8.34,8.34 0 0 1 0.36,3.54 0.36,0.36 0 0 1 -0.42,0.3 z"
       fill="#f58523"
       id="path520" />
    <path
       d="m 723.72,749.7 a 0.37,0.37 0 0 1 -0.34,-0.34 10.87,10.87 0 0 0 -0.2,-1.49 c 0,-0.28 -0.1,-0.56 -0.14,-0.84 a 0.33,0.33 0 0 1 0.33,-0.37 0.4,0.4 0 0 1 0.44,0.31 c 0,0.27 0.08,0.54 0.13,0.81 a 11.78,11.78 0 0 1 0.22,1.58 0.35,0.35 0 0 1 -0.38,0.34 z"
       fill="#f58523"
       id="path522" />
    <path
       d="m 723.39,734.16 a 0.37,0.37 0 0 1 -0.34,-0.34 c 0,-0.49 0,-1 -0.07,-1.46 a 32,32 0 0 1 0,-3.79 0.36,0.36 0 0 1 0.41,-0.31 c 0.24,0 0.38,0.18 0.37,0.37 a 28.88,28.88 0 0 0 0,3.72 c 0,0.49 0,1 0.06,1.47 a 0.35,0.35 0 0 1 -0.37,0.34 z"
       fill="#f58523"
       id="path524" />
    <path
       d="m 723.05,743.83 a 0.38,0.38 0 0 1 -0.35,-0.35 v -0.89 a 13,13 0 0 0 -0.32,-3.47 0.33,0.33 0 0 1 0.28,-0.41 0.4,0.4 0 0 1 0.47,0.27 13.12,13.12 0 0 1 0.34,3.64 c 0,0.29 0,0.59 0,0.87 a 0.35,0.35 0 0 1 -0.38,0.34 z"
       fill="#f58523"
       id="path526" />
    <path
       d="m 717.63,698 a 0.38,0.38 0 0 1 -0.34,-0.31 c 0,-0.29 -0.1,-0.6 -0.17,-0.91 a 6.3,6.3 0 0 1 -0.18,-2.47 0.37,0.37 0 0 1 0.45,-0.27 0.36,0.36 0 0 1 0.31,0.41 6,6 0 0 0 0.19,2.23 c 0.06,0.32 0.13,0.64 0.17,0.95 a 0.33,0.33 0 0 1 -0.34,0.37 z"
       fill="#f58523"
       id="path528" />
    <path
       d="m 719.64,705.68 v 0 a 0.37,0.37 0 0 1 -0.34,-0.39 7.48,7.48 0 0 0 -0.12,-2.91 0.33,0.33 0 0 1 0.3,-0.4 0.41,0.41 0 0 1 0.46,0.28 8.07,8.07 0 0 1 0.13,3.14 0.37,0.37 0 0 1 -0.43,0.28 z"
       fill="#f58523"
       id="path530" />
    <path
       d="m 720.46,712.5 a 0.39,0.39 0 0 1 -0.35,-0.31 c -0.06,-0.42 -0.07,-0.85 -0.09,-1.26 a 8,8 0 0 0 -0.17,-1.64 0.33,0.33 0 0 1 0.29,-0.4 0.4,0.4 0 0 1 0.47,0.28 9.67,9.67 0 0 1 0.19,1.76 11.69,11.69 0 0 0 0.08,1.19 0.34,0.34 0 0 1 -0.33,0.38 z"
       fill="#f58523"
       id="path532" />
    <path
       d="m 721.46,727.9 a 0.38,0.38 0 0 1 -0.34,-0.37 c 0,-0.24 0,-0.5 0,-0.76 a 5.4,5.4 0 0 0 -0.2,-2.7 0.33,0.33 0 0 1 0.19,-0.45 0.43,0.43 0 0 1 0.52,0.2 5.85,5.85 0 0 1 0.27,3 c 0,0.26 -0.05,0.5 -0.06,0.74 a 0.36,0.36 0 0 1 -0.4,0.32 z"
       fill="#f58523"
       id="path534" />
    <path
       d="m 730.68,776.18 a 7.65,7.65 0 0 1 -1.38,-0.32 8.48,8.48 0 0 1 -5.53,-9.75 0.58,0.58 0 0 1 0.64,-0.47 0.56,0.56 0 0 1 0.47,0.64 7.39,7.39 0 0 0 4.77,8.51 5.37,5.37 0 0 0 6.69,-2.77 0.57,0.57 0 1 1 1,0.52 6.39,6.39 0 0 1 -6.66,3.64 z"
       fill="#171717"
       id="path536" />
    <path
       d="m 715.73,774.23 a 6.39,6.39 0 0 1 -5.52,-5.22 0.58,0.58 0 0 1 0.44,-0.68 0.57,0.57 0 0 1 0.67,0.44 5.36,5.36 0 0 0 5.76,4.38 7.38,7.38 0 0 0 6.79,-7 0.55,0.55 0 0 1 0.62,-0.5 0.56,0.56 0 0 1 0.5,0.62 8.49,8.49 0 0 1 -7.84,8 7.41,7.41 0 0 1 -1.42,-0.04 z"
       fill="#171717"
       id="path538" />
    <path
       d="m 743.29,744.72 c 6.36,5.39 16.4,-1 17.12,-6.12 -5.68,3.58 -9.94,7.63 -16.61,5.39 0,0.01 -1.05,0.26 -0.51,0.73 z"
       fill="#171717"
       id="path540" />
    <path
       d="m 747.7,753.55 v 0 c -0.38,0 -0.69,-0.11 -0.7,-0.3 l -0.34,-7 c 0,-0.18 0.29,-0.35 0.67,-0.37 v 0 c 0.38,0 0.7,0.12 0.71,0.3 l 0.33,7 c 0,0.18 -0.29,0.34 -0.67,0.36 z m 6,-1.25 v 0 c -0.37,0.1 -0.7,0 -0.75,-0.14 l -1.78,-6.77 c 0,-0.17 0.22,-0.39 0.58,-0.49 v 0 c 0.37,-0.1 0.71,0 0.76,0.14 l 1.78,6.77 c 0,0.17 -0.22,0.39 -0.59,0.49 z m 6.2,-2.54 v 0 c -0.32,0.21 -0.66,0.26 -0.76,0.11 L 755.29,744 c -0.1,-0.15 0.08,-0.44 0.4,-0.65 v 0 c 0.32,-0.21 0.66,-0.25 0.76,-0.11 l 3.82,5.86 c 0.11,0.15 -0.07,0.44 -0.39,0.65 z"
       fill="#171717"
       fill-rule="evenodd"
       id="path542" />
    <path
       d="m 711.09,740.54 c -7.52,3.58 -15.6,-5.15 -15,-10.3 4.58,4.92 7.66,9.91 14.68,9.46 0.02,0 0.96,0.52 0.32,0.84 z"
       fill="#171717"
       id="path544" />
    <path
       d="m 704.57,747.94 c -0.36,-0.11 -0.61,-0.35 -0.55,-0.52 l 2.11,-6.67 c 0,-0.17 0.39,-0.22 0.76,-0.11 v 0 c 0.36,0.12 0.61,0.35 0.56,0.53 l -2.12,6.67 c -0.06,0.17 -0.4,0.22 -0.76,0.1 z m -5.46,-2.74 c -0.33,-0.18 -0.53,-0.47 -0.44,-0.62 l 3.45,-6.09 c 0.09,-0.16 0.43,-0.13 0.77,0.06 v 0 c 0.33,0.18 0.52,0.47 0.43,0.62 l -3.45,6.09 c -0.09,0.16 -0.43,0.13 -0.76,-0.06 z m -5.34,-4 c -0.25,-0.29 -0.35,-0.62 -0.21,-0.74 l 5.19,-4.68 c 0.13,-0.12 0.45,0 0.7,0.3 v 0 c 0.26,0.28 0.36,0.61 0.22,0.73 l -5.2,4.68 c -0.13,0.12 -0.45,0 -0.7,-0.29 z"
       fill="#171717"
       fill-rule="evenodd"
       id="path546" />
    <ellipse
       cx="750.06"
       cy="764.72998"
       rx="5.8200002"
       ry="7.4899998"
       transform="matrix(0.13,-0.99,0.99,0.13,-105.01,1409.91)"
       fill="#ffb0d2"
       id="ellipse548" />
    <ellipse
       cx="699.44"
       cy="758.15002"
       rx="5.8200002"
       ry="7.4899998"
       transform="rotate(-82.59,699.45218,758.1463)"
       fill="#ffb0d2"
       id="ellipse550" />
    <path
       d="m 756.72,684.32 c 2.42,-0.1 4.59,-0.29 7.31,-0.48 l 1,-8 c -2.72,0.24 -5,0.46 -7.42,0.57 a 116.07,116.07 0 0 1 -21,-0.76 111.26,111.26 0 0 1 -13.5,-2.65 c -1.14,-0.29 -2.41,-0.62 -3.55,-1 -3.45,-1 -6.81,-2.13 -10.66,-3.52 l -1,8 a 134.79,134.79 0 0 0 20.85,5.76 c 2.29,0.44 4.61,0.8 6.9,1.1 a 124.82,124.82 0 0 0 21.07,0.98 z"
       fill="#584e8a"
       id="path552" />
    <path
       d="m 690.31,675.58 a 5.31,5.31 0 0 0 -0.33,0.83 6.45,6.45 0 0 0 -0.2,0.87 6.7,6.7 0 0 0 0,1.79 7.74,7.74 0 0 0 1.63,3.84 8.09,8.09 0 0 0 1.25,1.23 9,9 0 0 0 0.74,0.52 c 0.47,0.25 0.93,0.48 1.4,0.71 l 0.66,0.34 v 0 c 17,8.74 32.54,13.12 49.16,13.43 0.83,0 1.66,0 2.5,0 a 111.33,111.33 0 0 0 12.33,-0.77 c 1.28,-0.15 2.59,-0.32 3.9,-0.52 2.21,-0.32 4.43,-0.7 6.7,-1.13 q 3.08,-0.6 6.27,-1.35 a 7.86,7.86 0 0 0 2.45,-1.24 6.94,6.94 0 0 0 2.85,-6.75 6.1,6.1 0 0 0 -1.82,-3.27 5.79,5.79 0 0 0 -0.72,-0.59 c -0.08,0 -0.16,-0.12 -0.24,-0.16 v 0 a 5.68,5.68 0 0 0 -2.05,-0.81 2,2 0 0 0 -0.23,0 5.26,5.26 0 0 0 -0.89,-0.08 h -0.07 a 5.49,5.49 0 0 0 -0.7,0 l -0.42,0.07 c -3.53,0.53 -7,0.95 -10.35,1.25 -2.48,0.22 -4.92,0.38 -7.34,0.48 a 124.34,124.34 0 0 1 -21.07,-0.9 c -2.3,-0.3 -4.58,-0.66 -6.86,-1.09 a 133.82,133.82 0 0 1 -20.73,-5.74 c -3.18,-1.15 -6.4,-2.43 -9.69,-3.85 a 6.09,6.09 0 0 0 -1.07,-0.42 5.8,5.8 0 0 0 -1.08,-0.18 v 0 a 5.63,5.63 0 0 0 -1.79,0.11 6.12,6.12 0 0 0 -4.19,3.38 z"
       fill="#171717"
       id="path554" />
    <path
       d="m 723.12,673 a 113.19,113.19 0 0 0 13.58,2.62 115.75,115.75 0 0 0 20.95,0.75 c 2.43,-0.11 4.7,-0.33 7.42,-0.57 l 0.24,-1.87 a 28.09,28.09 0 0 0 -4.77,-19.73 25,25 0 0 0 -1.71,-2.24 l -0.21,-0.25 c -0.24,-0.28 -0.46,-0.54 -0.71,-0.8 l -0.31,-0.32 -0.68,-0.68 -0.37,-0.34 -0.67,-0.6 -0.42,-0.36 c -0.21,-0.18 -0.43,-0.36 -0.66,-0.53 l -0.46,-0.35 -0.67,-0.49 -0.2,-0.14 -0.29,-0.21 -0.69,-0.44 c -0.17,-0.12 -0.34,-0.22 -0.51,-0.32 l -0.71,-0.41 -0.54,-0.31 -0.73,-0.41 -0.55,-0.27 c -0.24,-0.11 -0.49,-0.23 -0.74,-0.33 l -0.58,-0.25 -0.77,-0.3 -0.58,-0.22 -0.82,-0.27 -0.58,-0.17 c -0.28,-0.09 -0.57,-0.16 -0.86,-0.23 -0.29,-0.07 -0.37,-0.11 -0.56,-0.15 -0.19,-0.04 -0.65,-0.15 -1,-0.21 l -0.48,-0.1 c -0.49,-0.09 -1.1,-0.19 -1.6,-0.26 a 28.36,28.36 0 0 0 -31.76,24.38 l -0.24,1.87 h 0.13 c 3.59,1.35 7.15,2.52 10.59,3.51 1.17,0.39 2.4,0.71 3.52,1 z"
       fill="#171717"
       id="path556" />
  </g>
</svg>
