<?xml version="1.0" encoding="UTF-8" standalone="no"?>
<svg
   xmlns:dc="http://purl.org/dc/elements/1.1/"
   xmlns:cc="http://creativecommons.org/ns#"
   xmlns:rdf="http://www.w3.org/1999/02/22-rdf-syntax-ns#"
   xmlns:svg="http://www.w3.org/2000/svg"
   xmlns="http://www.w3.org/2000/svg"
   xmlns:sodipodi="http://sodipodi.sourceforge.net/DTD/sodipodi-0.dtd"
   xmlns:inkscape="http://www.inkscape.org/namespaces/inkscape"
   id="cute_critters"
   data-name="cute critters"
   viewBox="0 0 220 220"
   version="1.1"
   sodipodi:docname="koala.svg"
   width="220"
   height="220"
   inkscape:version="1.0.2 (e86c870879, 2021-01-15, custom)">
  <metadata
     id="metadata1721">
    <rdf:RDF>
      <cc:Work
         rdf:about="">
        <dc:format>image/svg+xml</dc:format>
        <dc:type
           rdf:resource="http://purl.org/dc/dcmitype/StillImage" />
      </cc:Work>
    </rdf:RDF>
  </metadata>
  <defs
     id="defs1719" />
  <sodipodi:namedview
     pagecolor="#ffffff"
     bordercolor="#666666"
     borderopacity="1"
     objecttolerance="10"
     gridtolerance="10"
     guidetolerance="10"
     inkscape:pageopacity="0"
     inkscape:pageshadow="2"
     inkscape:window-width="855"
     inkscape:window-height="480"
     id="namedview1717"
     showgrid="false"
     inkscape:zoom="0.88888889"
     inkscape:cx="-171"
     inkscape:cy="390"
     inkscape:window-x="0"
     inkscape:window-y="0"
     inkscape:window-maximized="0"
     inkscape:current-layer="cute_critters" />
  <g
     id="koala"
     transform="translate(-621,-60)">
    <circle
       cx="731"
       cy="170"
       r="110"
       fill="#019678"
       id="circle1621" />
    <path
       d="m 785.48,238.41 a 6.81,6.81 0 0 1 -0.14,-13.61 c -3.3,-11 -7.12,-21 -11.41,-27.55 a 6.71,6.71 0 0 1 -2.07,0.35 6.8,6.8 0 0 1 -6.81,-6.81 6.55,6.55 0 0 1 0.27,-1.78 c -7.37,-3.88 -18.93,-5.82 -30.85,-6 a 6.83,6.83 0 0 1 -3.47,1 6.72,6.72 0 0 1 -3.3,-0.88 c -3.46,0.15 -6.9,0.43 -10.21,0.87 a 6.88,6.88 0 1 1 -2,0.29 c -7.3,1.11 -13.86,3 -18.62,5.45 a 7.32,7.32 0 0 1 0.1,1 6.8,6.8 0 0 1 -6.81,6.81 6.93,6.93 0 0 1 -1.72,-0.24 c -4.6,6.52 -8.63,16.47 -12,27.44 h 0.15 a 6.81,6.81 0 1 1 -3.7,12.51 c -2,7.78 -3.75,15.58 -5.16,22.61 0.91,0.64 1.83,1.28 2.76,1.9 a 6.69,6.69 0 0 1 -0.67,-2.32 c 0,-0.23 0,-0.46 0,-0.69 0,-0.23 0,-0.47 0,-0.7 a 6.81,6.81 0 1 1 6.86,7.5 c 2.42,1.38 4.88,2.68 7.41,3.87 a 6.79,6.79 0 0 1 12.91,2.97 6.54,6.54 0 0 1 -0.36,2.08 109.78,109.78 0 0 0 18.81,4.4 6.8,6.8 0 1 1 2.31,0.29 q 5.07,0.61 10.27,0.75 a 6.61,6.61 0 0 1 6,0 q 5.21,-0.14 10.27,-0.75 a 6.82,6.82 0 1 1 2.31,-0.29 109.78,109.78 0 0 0 18.81,-4.4 6.54,6.54 0 0 1 -0.36,-2.08 6.79,6.79 0 0 1 12.94,-2.93 c 2.53,-1.19 5,-2.49 7.41,-3.87 a 6.87,6.87 0 1 1 6.16,-3.77 c 0.8,-0.53 1.58,-1.08 2.37,-1.62 -1.43,-7.14 -3.13,-15 -5.09,-22.72 a 6.73,6.73 0 0 1 -3.37,0.92 z m -13.62,-27.22 a 6.81,6.81 0 0 1 0.7,13.58 c -0.23,0 -0.46,0 -0.7,0 -0.24,0 -0.47,0 -0.7,0 a 6.81,6.81 0 0 1 0.7,-13.58 z m -13.62,-13.6 a 6.81,6.81 0 1 1 -6.81,6.81 6.8,6.8 0 0 1 6.81,-6.81 z m 0,27.2 a 6.81,6.81 0 1 1 -6.81,6.81 6.81,6.81 0 0 1 6.81,-6.81 z m -12.92,0 c -0.23,0 -0.47,0 -0.7,0 -0.23,0 -0.47,0 -0.7,0 a 6.81,6.81 0 1 1 1.4,0 z m -0.7,-40.78 a 6.81,6.81 0 1 1 -6.81,6.8 6.81,6.81 0 0 1 6.81,-6.81 z m -20.39,19.69 a 6.82,6.82 0 1 1 0,1.39 6.06,6.06 0 0 1 0,-1.39 z m 13.58,27.9 a 6.81,6.81 0 0 1 -13.58,0.69 6.06,6.06 0 0 1 0,-1.39 6.81,6.81 0 0 1 13.58,0.7 z m -20.43,-20.41 a 6.81,6.81 0 0 1 0.7,13.58 c -0.23,0 -0.46,0 -0.7,0 -0.24,0 -0.47,0 -0.69,0 a 6.81,6.81 0 0 1 0.69,-13.58 z m -13.62,-13.6 a 6.81,6.81 0 1 1 -6.76,6.81 6.8,6.8 0 0 1 6.76,-6.81 z m 6.81,34 a 6.81,6.81 0 1 1 -6.81,-6.81 6.81,6.81 0 0 1 6.81,6.82 z m -20.43,-20.41 a 6.81,6.81 0 0 1 0.7,13.58 c -0.23,0 -0.46,0 -0.7,0 -0.24,0 -0.47,0 -0.69,0 a 6.81,6.81 0 0 1 0.69,-13.58 z m 0,40.82 a 6.81,6.81 0 1 1 6.86,-6.8 6.81,6.81 0 0 1 -6.86,6.8 z m 13.62,13.6 a 6.81,6.81 0 1 1 6.81,-6.81 6.81,6.81 0 0 1 -6.81,6.82 z M 717.38,252 a 6.81,6.81 0 1 1 6.81,-6.81 6.81,6.81 0 0 1 -6.81,6.81 z M 731,265.61 a 6.8,6.8 0 0 1 -6.77,-6.12 6.06,6.06 0 0 1 0,-1.39 6.81,6.81 0 1 1 6.77,7.51 z M 744.62,252 a 6.81,6.81 0 1 1 6.81,-6.81 6.81,6.81 0 0 1 -6.81,6.81 z m 13.62,13.6 a 6.81,6.81 0 1 1 6.81,-6.81 6.81,6.81 0 0 1 -6.81,6.82 z M 771.86,252 a 6.81,6.81 0 1 1 6.81,-6.81 6.81,6.81 0 0 1 -6.81,6.81 z"
       fill="#fbae17"
       id="path1623" />
    <path
       d="m 771.86,197.6 a 6.71,6.71 0 0 0 2.07,-0.35 27.44,27.44 0 0 0 -4.08,-5.11 20.42,20.42 0 0 0 -4.53,-3.13 6.55,6.55 0 0 0 -0.27,1.78 6.8,6.8 0 0 0 6.81,6.81 z"
       fill="#fdffe9"
       id="path1625" />
    <path
       d="m 744.62,211.19 a 6.81,6.81 0 0 0 -0.7,13.58 c 0.23,0 0.46,0 0.7,0 0.24,0 0.47,0 0.7,0 a 6.81,6.81 0 0 0 -0.7,-13.58 z"
       fill="#fdffe9"
       id="path1627" />
    <path
       d="m 771.86,238.39 a 6.81,6.81 0 1 0 6.81,6.81 6.81,6.81 0 0 0 -6.81,-6.81 z"
       fill="#fdffe9"
       id="path1629" />
    <path
       d="m 751.43,272.4 a 6.81,6.81 0 1 0 -7.14,6.77 c 0.77,-0.09 1.54,-0.18 2.31,-0.29 a 6.79,6.79 0 0 0 4.83,-6.48 z"
       fill="#fdffe9"
       id="path1631" />
    <path
       d="m 710.57,190.79 a 6.81,6.81 0 1 0 6.92,-6.79 l -2,0.29 a 6.79,6.79 0 0 0 -4.92,6.5 z"
       fill="#fdffe9"
       id="path1633" />
    <path
       d="m 689.45,224.77 c 0.22,0 0.46,0 0.69,0 0.23,0 0.47,0 0.7,0 a 6.82,6.82 0 1 0 -1.39,0 z"
       fill="#fdffe9"
       id="path1635" />
    <path
       d="m 717.38,238.39 a 6.81,6.81 0 1 0 6.81,6.81 6.81,6.81 0 0 0 -6.81,-6.81 z"
       fill="#fdffe9"
       id="path1637" />
    <path
       d="m 690.14,265.59 a 6.77,6.77 0 0 0 -6.12,3.88 109.68,109.68 0 0 0 12.57,5 6.54,6.54 0 0 0 0.36,-2.08 6.81,6.81 0 0 0 -6.81,-6.8 z"
       fill="#fdffe9"
       id="path1639" />
    <path
       d="m 744.62,197.6 a 6.81,6.81 0 1 0 -6.81,-6.81 6.8,6.8 0 0 0 6.81,6.81 z"
       fill="#fdffe9"
       id="path1641" />
    <path
       d="m 771.16,224.77 c 0.23,0 0.46,0 0.7,0 0.24,0 0.47,0 0.7,0 a 6.81,6.81 0 1 0 -1.4,0 z"
       fill="#fdffe9"
       id="path1643" />
    <path
       d="m 744.62,238.39 a 6.81,6.81 0 1 0 6.81,6.81 6.81,6.81 0 0 0 -6.81,-6.81 z"
       fill="#fdffe9"
       id="path1645" />
    <path
       d="m 771.86,265.59 a 6.81,6.81 0 0 0 -6.81,6.81 6.54,6.54 0 0 0 0.36,2.08 109.68,109.68 0 0 0 12.57,-5 6.77,6.77 0 0 0 -6.12,-3.89 z"
       fill="#fdffe9"
       id="path1647" />
    <path
       d="m 697,190.79 a 7.32,7.32 0 0 0 -0.1,-1 22.93,22.93 0 0 0 -3.76,2.4 25.47,25.47 0 0 0 -4.67,5.22 6.93,6.93 0 0 0 1.72,0.24 6.8,6.8 0 0 0 6.81,-6.86 z"
       fill="#fdffe9"
       id="path1649" />
    <path
       d="m 716.69,224.77 c 0.22,0 0.46,0 0.69,0 0.23,0 0.47,0 0.7,0 a 6.82,6.82 0 1 0 -1.39,0 z"
       fill="#fdffe9"
       id="path1651" />
    <path
       d="m 690.14,238.39 a 6.81,6.81 0 1 0 6.86,6.81 6.81,6.81 0 0 0 -6.86,-6.81 z"
       fill="#fdffe9"
       id="path1653" />
    <path
       d="m 724.19,272.4 a 6.81,6.81 0 1 0 -8.79,6.48 c 0.77,0.11 1.54,0.2 2.31,0.29 a 6.79,6.79 0 0 0 6.48,-6.77 z"
       fill="#fdffe9"
       id="path1655" />
    <path
       d="m 778.67,231.6 a 6.81,6.81 0 0 0 6.81,6.81 6.73,6.73 0 0 0 3.35,-0.92 c -1.09,-4.29 -2.25,-8.56 -3.49,-12.69 a 6.8,6.8 0 0 0 -6.67,6.8 z"
       fill="#fdffe9"
       id="path1657" />
    <path
       d="m 734.47,183 q -3.39,0 -6.77,0.1 a 6.72,6.72 0 0 0 3.3,0.88 6.83,6.83 0 0 0 3.47,-0.98 z"
       fill="#fdffe9"
       id="path1659" />
    <path
       d="m 758.24,211.21 a 6.81,6.81 0 1 0 -6.81,-6.81 6.81,6.81 0 0 0 6.81,6.81 z"
       fill="#fdffe9"
       id="path1661" />
    <path
       d="m 731,224.79 a 6.8,6.8 0 0 0 -6.77,6.11 6.06,6.06 0 0 0 0,1.39 6.81,6.81 0 1 0 6.77,-7.5 z"
       fill="#fdffe9"
       id="path1663" />
    <path
       d="m 758.24,252 a 6.81,6.81 0 1 0 6.81,6.81 6.81,6.81 0 0 0 -6.81,-6.81 z"
       fill="#fdffe9"
       id="path1665" />
    <path
       d="m 728,279.92 c 1,0 2,0.08 3,0.08 1,0 2,-0.05 3,-0.08 a 6.61,6.61 0 0 0 -6,0 z"
       fill="#fdffe9"
       id="path1667" />
    <path
       d="m 703.76,211.21 a 6.81,6.81 0 1 0 -6.76,-6.81 6.81,6.81 0 0 0 6.76,6.81 z"
       fill="#fdffe9"
       id="path1669" />
    <path
       d="m 683.33,231.6 a 6.81,6.81 0 0 0 -6.81,-6.81 h -0.15 c -1.27,4.07 -2.45,8.28 -3.55,12.5 a 6.79,6.79 0 0 0 10.51,-5.7 z"
       fill="#fdffe9"
       id="path1671" />
    <path
       d="m 703.76,252 a 6.81,6.81 0 1 0 6.81,6.81 6.81,6.81 0 0 0 -6.81,-6.81 z"
       fill="#fdffe9"
       id="path1673" />
    <path
       d="m 785.48,252 a 6.81,6.81 0 0 0 -0.09,13.61 c 2.09,-1.2 4.15,-2.45 6.16,-3.77 A 6.76,6.76 0 0 0 785.48,252 Z"
       fill="#fdffe9"
       id="path1675" />
    <path
       d="m 731,211.21 a 6.81,6.81 0 1 0 -6.77,-7.51 6.06,6.06 0 0 0 0,1.39 6.8,6.8 0 0 0 6.77,6.12 z"
       fill="#fdffe9"
       id="path1677" />
    <path
       d="m 758.24,238.41 a 6.81,6.81 0 1 0 -6.81,-6.81 6.81,6.81 0 0 0 6.81,6.81 z"
       fill="#fdffe9"
       id="path1679" />
    <path
       d="m 731,252 a 6.8,6.8 0 0 0 -6.77,6.11 6.06,6.06 0 0 0 0,1.39 6.81,6.81 0 1 0 6.77,-7.5 z"
       fill="#fdffe9"
       id="path1681" />
    <path
       d="m 703.76,224.79 a 6.81,6.81 0 1 0 6.81,6.81 6.81,6.81 0 0 0 -6.81,-6.81 z"
       fill="#fdffe9"
       id="path1683" />
    <path
       d="m 683.33,258.8 a 6.81,6.81 0 0 0 -13.58,-0.7 c 0,0.23 0,0.46 0,0.7 0,0.24 0,0.46 0,0.69 a 6.69,6.69 0 0 0 0.67,2.32 c 2,1.33 4.09,2.59 6.19,3.79 a 6.8,6.8 0 0 0 6.72,-6.8 z"
       fill="#fdffe9"
       id="path1685" />
    <path
       d="m 685.46,101.46 c 0.35,0.66 0.67,1.34 1,2 -0.33,-0.66 -0.65,-1.34 -1,-2 z"
       fill="#e97069"
       id="path1687" />
    <path
       d="m 750.51,131.45 c 25.39,-28.7 59.7,-5.8 66.38,9.58 1.08,2.48 -6.2,8.9 -6.2,8.9 0,0 2.15,8.55 1,11.08 -0.74,1.57 -8.07,3.49 -8.07,3.49 0,0 -2.4,8.28 -4.81,8.79 -13.12,2.75 -49.29,-5.48 -48.08,-23.72 1.21,-18.24 -25.62,10.59 -0.22,-18.12 z"
       fill="#adafb3"
       id="path1689" />
    <path
       d="m 760.49,150.11 c 0.74,8.41 9.7,14.5 20,13.61 10.3,-0.89 18.09,-8.44 17.36,-16.85 -0.73,-8.41 -9.69,-14.5 -20,-13.61 -10.31,0.89 -18.09,8.44 -17.36,16.85 z"
       fill="#fdffe9"
       id="path1691" />
    <path
       d="m 712.28,134.83 c -20.38,-32.46 -58,-15.45 -67,-1.37 -1.48,2.29 4.66,9.8 4.66,9.8 0,0 -3.76,8.19 -2.74,10.77 0.8,2.05 7.38,4.76 7.38,4.76 0,0 1.32,8 3.32,9.45 10.73,8 49.52,2.62 51.31,-15.56 1.79,-18.18 23.46,14.61 3.07,-17.85 z"
       fill="#adafb3"
       id="path1693" />
    <path
       d="m 699.39,151.61 c -2.09,8.18 -11.92,12.73 -22,10.17 -10.08,-2.56 -16.39,-11.28 -14.34,-19.46 2.05,-8.18 11.91,-12.73 22,-10.16 10.09,2.57 16.43,11.27 14.34,19.45 z"
       fill="#fdffe9"
       id="path1695" />
    <path
       d="m 676.05,163.54 c -6.07,26.65 16,48.24 44.3,53.8 28.3,5.56 58,-7.51 64.07,-34.16 6.07,-26.65 -15.31,-56.68 -43.59,-62.18 -28.28,-5.5 -58.72,15.88 -64.78,42.54 z"
       fill="#b7b9bd"
       id="path1697" />
    <path
       d="m 738.09,120.88 c -3.89,-1.39 -7.82,1.32 -8,4.32 -0.88,0 -7.17,-0.53 -9.94,-3.49 -2.77,-2.96 -4.35,-5.66 -5.59,-5.51 1,-1.34 3.4,-2.23 4.93,-1.22 a 10.49,10.49 0 0 1 -4,-6 c -0.43,-2 -2.17,-5.54 -4.72,-5.06 0.75,-2.2 9.34,-3.71 17.25,2.86 a 7.43,7.43 0 0 1 -1.07,-5 17.74,17.74 0 0 1 6.7,4 c 3,3.01 5.35,8.82 4.44,15.1 z"
       fill="#adafb3"
       fill-rule="evenodd"
       id="path1699" />
    <path
       d="m 741.69,153 c 0.23,4.39 1.86,11.51 7.69,10.84 4.82,-0.55 8.29,-5.79 8.31,-10.4 a 1.0254389,1.0254389 0 0 0 -2.05,-0.06 c 0,3.43 -2.28,7.18 -5.62,8.28 -4.84,1.6 -6.11,-5.32 -6.29,-8.6 -0.07,-1.31 -2.11,-1.38 -2,-0.06 z"
       fill="#171717"
       id="path1701" />
    <path
       d="m 719.68,153 c -0.23,4.39 -1.86,11.51 -7.69,10.84 -4.82,-0.55 -8.28,-5.79 -8.3,-10.4 a 1.0004499,1.0004499 0 0 1 2,-0.06 c 0,3.43 2.28,7.18 5.62,8.28 4.84,1.6 6.12,-5.32 6.29,-8.6 0.07,-1.31 2.11,-1.38 2,-0.06 z"
       fill="#171717"
       id="path1703" />
    <ellipse
       cx="757.90997"
       cy="179.75999"
       rx="7.9400001"
       ry="6.1700001"
       fill="#ffb0d2"
       id="ellipse1705" />
    <ellipse
       cx="703.78998"
       cy="179.75999"
       rx="7.9400001"
       ry="6.1700001"
       fill="#ffb0d2"
       id="ellipse1707" />
    <path
       d="m 731.36,204.33 a 14.45,14.45 0 0 1 -7.79,-2.26 c -4.2,-2.72 -6.26,-7.43 -5.64,-12.93 a 1.0065908,1.0065908 0 0 1 2,0.23 c -0.54,4.78 1.15,8.69 4.74,11 a 12.33,12.33 0 0 0 12.71,0.35 c 3.69,-2.17 5.51,-6.23 5.14,-11.41 a 1,1 0 0 1 0.93,-1.07 1,1 0 0 1 1.07,0.92 c 0.42,6 -1.75,10.7 -6.12,13.28 a 13.81,13.81 0 0 1 -7.04,1.89 z"
       fill="#171717"
       id="path1709" />
    <path
       d="m 722.08,180.75 c -0.5,6.6 3.1,7.94 8.5,8.35 5.4,0.41 10.55,-0.27 11,-6.87 0.45,-6.6 -3.85,-16.61 -9.24,-17 -5.39,-0.39 -9.76,8.93 -10.26,15.52 z"
       fill="#171717"
       id="path1711" />
    <path
       d="m 731.15,203.26 v 0 a 1,1 0 0 1 -1,-1 L 730.4,188 a 1,1 0 0 1 2,0 l -0.25,14.25 a 1,1 0 0 1 -1,1.01 z"
       fill="#171717"
       id="path1713" />
  </g>
</svg>
