<?xml version="1.0" encoding="UTF-8" standalone="no"?>
<svg
   xmlns:dc="http://purl.org/dc/elements/1.1/"
   xmlns:cc="http://creativecommons.org/ns#"
   xmlns:rdf="http://www.w3.org/1999/02/22-rdf-syntax-ns#"
   xmlns:svg="http://www.w3.org/2000/svg"
   xmlns="http://www.w3.org/2000/svg"
   xmlns:sodipodi="http://sodipodi.sourceforge.net/DTD/sodipodi-0.dtd"
   xmlns:inkscape="http://www.inkscape.org/namespaces/inkscape"
   id="cute_critters"
   data-name="cute critters"
   viewBox="0 0 221 221"
   version="1.1"
   sodipodi:docname="lion.svg"
   width="221"
   height="221"
   inkscape:version="1.0.2 (e86c870879, 2021-01-15, custom)">
  <metadata
     id="metadata2149">
    <rdf:RDF>
      <cc:Work
         rdf:about="">
        <dc:format>image/svg+xml</dc:format>
        <dc:type
           rdf:resource="http://purl.org/dc/dcmitype/StillImage" />
      </cc:Work>
    </rdf:RDF>
  </metadata>
  <defs
     id="defs2147" />
  <sodipodi:namedview
     pagecolor="#ffffff"
     bordercolor="#666666"
     borderopacity="1"
     objecttolerance="10"
     gridtolerance="10"
     guidetolerance="10"
     inkscape:pageopacity="0"
     inkscape:pageshadow="2"
     inkscape:window-width="855"
     inkscape:window-height="480"
     id="namedview2145"
     showgrid="false"
     inkscape:zoom="0.88888889"
     inkscape:cx="391.5"
     inkscape:cy="111.5"
     inkscape:window-x="0"
     inkscape:window-y="0"
     inkscape:window-maximized="0"
     inkscape:current-layer="cute_critters" />
  <g
     id="lion"
     transform="translate(-58.5,-338.5)">
    <circle
       cx="169"
       cy="449"
       r="110"
       fill="#019678"
       id="circle2043" />
    <path
       d="M 169,559.5 A 110.5,110.5 0 1 1 279.5,449 110.63,110.63 0 0 1 169,559.5 Z m 0,-220 A 109.5,109.5 0 1 0 278.5,449 109.62,109.62 0 0 0 169,339.5 Z"
       fill="#ffffff"
       id="path2045" />
    <path
       d="m 167.9,487.69 14.55,8.65 14.55,-8.65 10.38,6.18 a 21.09,21.09 0 0 0 -2.44,-2.76 c -3.54,-3.26 -9.78,-5.42 -17.14,-6.6 l -5.34,3.18 -7.12,-4.24 a 105.92,105.92 0 0 0 -16.51,1 l -5.46,3.26 -2.8,-1.71 a 47.57,47.57 0 0 0 -9.15,3.21 l 11.94,7.1 z"
       fill="#fdffe9"
       id="path2047" />
    <path
       d="m 138.81,516.78 14.55,8.65 14.54,-8.65 14.55,8.65 14.55,-8.65 14.55,8.65 7.73,-4.6 c -0.77,-2.48 -1.56,-4.9 -2.38,-7.24 l -5.35,3.19 -14.55,-8.66 -14.54,8.66 -14.55,-8.66 -14.54,8.66 -14.55,-8.66 -14.54,8.66 -0.17,-0.1 c -0.77,2.38 -1.52,4.83 -2.22,7.33 l 2.39,1.42 z"
       fill="#fdffe9"
       id="path2049" />
    <path
       d="m 138.81,531.32 14.55,8.68 14.54,-8.66 14.55,8.66 14.55,-8.68 14.54,8.68 11.21,-6.68 c -0.64,-2.49 -1.31,-5 -2,-7.46 l -9.2,5.48 -14.55,-8.68 -14.54,8.66 -14.55,-8.66 -14.54,8.66 -14.55,-8.66 -14.54,8.66 -3.76,-2.24 c -0.65,2.52 -1.27,5 -1.85,7.56 l 5.61,3.34 z"
       fill="#fdffe9"
       id="path2051" />
    <path
       d="M 156.87,558.32 A 110.39,110.39 0 0 0 169,559 c 3.46,0 6.87,-0.18 10.25,-0.49 l -11.35,-6.76 z"
       fill="#fdffe9"
       id="path2053" />
    <path
       d="m 135.43,553.76 a 108.89,108.89 0 0 0 12,3.11 l -8.59,-5.12 z"
       fill="#fdffe9"
       id="path2055" />
    <path
       d="m 224,538.43 -12.49,7.44 -14.51,-8.66 -14.54,8.66 -14.55,-8.66 -14.54,8.66 -14.55,-8.66 -14.54,8.66 -6.77,-4 c -0.29,1.32 -0.57,2.64 -0.83,3.94 a 110.05,110.05 0 0 0 12.57,5.78 l 9.57,-5.69 14.55,8.65 14.54,-8.65 14.55,8.65 14.54,-8.68 10.45,6.21 a 110,110 0 0 0 17.8,-8.54 Q 224.65,541 224,538.43 Z"
       fill="#fdffe9"
       id="path2057" />
    <path
       d="m 187.46,557.43 a 110.48,110.48 0 0 0 13.67,-3.21 L 197,551.75 Z"
       fill="#fdffe9"
       id="path2059" />
    <path
       d="m 153.36,510.89 14.54,-8.66 14.55,8.66 14.55,-8.66 14.55,8.66 3.56,-2.12 c -1,-2.45 -1.94,-4.77 -3,-6.89 l -0.59,0.35 -14.52,-8.66 -14.54,8.66 -14.55,-8.66 -14.54,8.66 -14.55,-8.66 -6.16,3.67 a 67.58,67.58 0 0 0 -6,12.22 l 12.14,-7.23 z"
       fill="#fdffe9"
       id="path2061" />
    <path
       d="m 175.33,483.45 -3.38,-2 a 89.27,89.27 0 0 1 18.42,1.55 l -2.58,1.54 -5.34,3.18 z"
       fill="#ec1b34"
       id="path2063" />
    <path
       d="m 153.36,487.69 5.46,-3.26 4.2,-2.5 a 81.34,81.34 0 0 0 -14.75,2.73 l 2.3,1.37 z"
       fill="#ec1b34"
       id="path2065" />
    <path
       d="m 138.81,493.57 14.55,8.66 14.54,-8.66 14.55,8.66 14.55,-8.66 14.55,8.66 0.59,-0.35 0.73,-0.43 a 65.73,65.73 0 0 0 -3.24,-6.25 l -2.25,-1.33 -10.38,-6.18 -14.54,8.65 -14.55,-8.65 -14.54,8.65 -11.94,-7.1 -1.75,-1.05 a 19,19 0 0 0 -2.46,1.7 28.8,28.8 0 0 0 -6.38,8.43 l 1.82,-1.08 z"
       fill="#ec1b34"
       id="path2067" />
    <path
       d="m 124.27,516.78 14.54,-8.66 14.55,8.66 14.54,-8.66 14.55,8.66 14.55,-8.66 14.55,8.66 5.35,-3.19 0.57,-0.34 c -0.56,-1.66 -1.14,-3.29 -1.73,-4.86 l -0.63,0.38 -3.56,2.12 -14.55,-8.66 -14.54,8.66 -14.55,-8.66 -14.54,8.66 -14.55,-8.66 -12.14,7.23 -1,0.58 c -0.74,2 -1.45,4.15 -2.13,6.32 l 0.53,0.32 z"
       fill="#ec1b34"
       id="path2069" />
    <path
       d="m 124.27,531.32 14.54,-8.66 14.55,8.66 14.54,-8.66 14.55,8.66 14.55,-8.66 14.55,8.66 9.2,-5.48 0.48,-0.28 q -0.71,-2.53 -1.45,-5 l -0.5,0.3 -7.73,4.6 -14.55,-8.68 -14.54,8.65 -14.55,-8.65 -14.54,8.65 -14.55,-8.65 -14.54,8.65 -2.4,-1.43 -0.48,-0.28 c -0.46,1.69 -0.9,3.38 -1.33,5.09 l 0.44,0.26 z"
       fill="#ec1b34"
       id="path2071" />
    <path
       d="m 223.2,533 -0.45,0.26 L 211.54,540 197,531.32 182.45,540 167.9,531.34 153.36,540 l -14.55,-8.66 -14.54,8.66 -5.61,-3.34 -0.4,-0.24 c -0.4,1.76 -0.78,3.49 -1.14,5.21 l 0.38,0.23 6.77,4 14.54,-8.66 14.55,8.66 14.54,-8.66 14.55,8.66 14.55,-8.65 14.55,8.66 12.45,-7.44 0.42,-0.25 q -0.57,-2.56 -1.22,-5.18 z"
       fill="#ec1b34"
       id="path2073" />
    <path
       d="m 182.45,554.52 -14.55,-8.65 -14.54,8.65 -14.55,-8.65 -9.57,5.69 c 2,0.79 4.1,1.53 6.19,2.2 l 3.38,-2 8.59,5.12 q 4.66,0.93 9.47,1.45 l 11,-6.57 11.35,6.76 c 2.77,-0.26 5.5,-0.62 8.21,-1.08 l 9.53,-5.68 4.14,2.47 q 3.19,-1 6.31,-2.14 L 197,545.87 Z"
       fill="#ec1b34"
       id="path2075" />
    <path
       d="m 245.86,453 a 18.43,18.43 0 0 0 -3.86,-7.26 15.51,15.51 0 0 0 -9.45,-4.86 15.45,15.45 0 0 0 8,-7.05 18.19,18.19 0 0 0 1.94,-8 15.4,15.4 0 0 0 -0.47,-4.52 27.65,27.65 0 0 0 -1.45,-4.53 21.83,21.83 0 0 0 -5.53,-7.14 17.58,17.58 0 0 0 -7.22,-3.4 14.9,14.9 0 0 0 -10.19,1.94 17,17 0 0 0 2.37,-10.53 18.88,18.88 0 0 0 -2.75,-7.67 20.94,20.94 0 0 0 -6.3,-6.21 20.33,20.33 0 0 0 -8.17,-2.67 17.53,17.53 0 0 0 -7.66,1.28 16.07,16.07 0 0 0 -7.45,7.26 17.07,17.07 0 0 0 -3.18,-10.21 16.22,16.22 0 0 0 -6,-5.15 17.07,17.07 0 0 0 -8.23,-2 16.9,16.9 0 0 0 -8.21,1.89 15.59,15.59 0 0 0 -6,5.1 16.15,16.15 0 0 0 -2.89,6.94 18,18 0 0 0 -0.2,3.21 18,18 0 0 0 -1.65,-2.66 15.39,15.39 0 0 0 -5.83,-4.76 17.42,17.42 0 0 0 -7.68,-1.53 19.49,19.49 0 0 0 -8.1,2.46 23.09,23.09 0 0 0 -3.48,2.64 14.53,14.53 0 0 0 -2.78,3.28 18,18 0 0 0 -2.81,7.52 17.38,17.38 0 0 0 2.19,10.6 15.44,15.44 0 0 0 -10.07,-2.5 17.16,17.16 0 0 0 -7.28,2.9 21,21 0 0 0 -5.8,6.7 21.94,21.94 0 0 0 -2.29,8.7 18.61,18.61 0 0 0 1.53,8.09 16.1,16.1 0 0 0 7.51,7.72 15,15 0 0 0 -9.71,4 18.69,18.69 0 0 0 -4.27,6.92 20.8,20.8 0 0 0 2.24,17.74 18.71,18.71 0 0 0 5.86,5.64 15,15 0 0 0 9.06,1.71 11.59,11.59 0 0 0 1.29,-0.22 16.18,16.18 0 0 0 -5.35,9.32 18.63,18.63 0 0 0 0.52,8.23 22,22 0 0 0 4.43,7.91 20.81,20.81 0 0 0 7.23,5 17.12,17.12 0 0 0 7.77,1 15.46,15.46 0 0 0 9.13,-4.9 17.32,17.32 0 0 0 0.49,10.81 18,18 0 0 0 4.57,6.58 14.44,14.44 0 0 0 3.5,2.5 23.65,23.65 0 0 0 4.06,1.71 19.31,19.31 0 0 0 7.66,0.48 l 0.83,-0.12 a 17.38,17.38 0 0 0 7,-3.35 15.33,15.33 0 0 0 4.49,-6.08 16.41,16.41 0 0 0 0.94,-3 18.23,18.23 0 0 0 1,3.06 16,16 0 0 0 4.52,6 15.61,15.61 0 0 0 7.05,3.46 19.43,19.43 0 0 0 6.08,0.31 13.26,13.26 0 0 0 2.32,-0.5 17.28,17.28 0 0 0 7.49,-4 16.4,16.4 0 0 0 4.56,-6.48 17.09,17.09 0 0 0 0.56,-10.69 16.19,16.19 0 0 0 9.06,5.2 16.84,16.84 0 0 0 4.49,0 19.75,19.75 0 0 0 3.24,-0.7 20.36,20.36 0 0 0 7.28,-4.66 21.08,21.08 0 0 0 4.52,-7.52 18.89,18.89 0 0 0 0.76,-8.11 16.88,16.88 0 0 0 -4.94,-9.63 15,15 0 0 0 6.13,0.51 15.4,15.4 0 0 0 4.24,-1.17 17.62,17.62 0 0 0 6.14,-5.11 21.91,21.91 0 0 0 3.59,-8.32 26.26,26.26 0 0 0 0.27,-4.68 15.57,15.57 0 0 0 -0.66,-4.43 z"
       fill="#fbae17"
       id="path2077" />
    <path
       d="m 200.41,388.49 c -12.87,0 -12.89,20 0,20 12.89,0 12.89,-20 0,-20 z"
       fill="#ffc657"
       id="path2079" />
    <path
       d="m 223.81,434.28 c 12.87,0 12.89,-20 0,-20 -12.89,0 -12.89,20 0,20 z"
       fill="#ffc657"
       id="path2081" />
    <path
       d="m 228.66,448.94 c -12.87,0 -12.89,20 0,20 12.89,0 12.89,-20 0,-20 z"
       fill="#ffc657"
       id="path2083" />
    <path
       d="m 211.93,480.27 c -12.87,0 -12.89,20 0,20 12.89,0 12.89,-20 0,-20 z"
       fill="#ffc657"
       id="path2085" />
    <path
       d="m 183.29,492.93 c -12.87,0 -12.89,20 0,20 12.89,0 12.89,-20 0,-20 z"
       fill="#ffc657"
       id="path2087" />
    <path
       d="m 150.67,494 c -12.87,0 -12.89,20 0,20 12.89,0 12.89,-20 0,-20 z"
       fill="#ffc657"
       id="path2089" />
    <path
       d="m 123.8,476.72 c -12.87,0 -12.89,20 0,20 12.89,0 12.89,-20 0,-20 z"
       fill="#ffc657"
       id="path2091" />
    <path
       d="m 109.34,445.78 c -12.87,0 -12.89,20 0,20 12.89,0 12.89,-20 0,-20 z"
       fill="#ffc657"
       id="path2093" />
    <path
       d="m 114.72,432.35 c 12.87,0 12.89,-20 0,-20 -12.89,0 -12.89,20 0,20 z"
       fill="#ffc657"
       id="path2095" />
    <path
       d="m 137.34,387.84 c -12.87,0 -12.89,20 0,20 12.89,0 12.89,-20 0,-20 z"
       fill="#ffc657"
       id="path2097" />
    <path
       d="m 169.15,380.32 c -12.87,0 -12.89,20 0,20 12.89,0 12.85,-20 0,-20 z"
       fill="#ffc657"
       id="path2099" />
    <circle
       cx="204.78999"
       cy="412.20999"
       r="11.93"
       fill="#ec1b34"
       id="circle2101" />
    <circle
       cx="204.78999"
       cy="412.20999"
       r="7.02"
       fill="#f58523"
       id="circle2103" />
    <circle
       cx="133.21001"
       cy="412.20999"
       r="11.93"
       fill="#ec1b34"
       id="circle2105" />
    <circle
       cx="133.21001"
       cy="412.20999"
       r="7.02"
       fill="#f58523"
       id="circle2107" />
    <ellipse
       cx="169"
       cy="449.14001"
       rx="47.720001"
       ry="44.689999"
       fill="#ec1b34"
       id="ellipse2109" />
    <path
       d="m 161.67,406.07 a 6.51,6.51 0 0 1 -0.31,0.77 1.19,1.19 0 0 1 -0.09,0.15 c 0,0 0,0 -0.05,0 l -0.15,1.5 h 0.35 a 0.46,0.46 0 0 1 0.38,0.3 2.49,2.49 0 0 1 0.19,1.35 1.58,1.58 0 0 1 -0.29,0.81 c 0,0 0,0.09 -0.07,0.14 a 1.36,1.36 0 0 1 -0.38,0.57 c -0.11,0.08 -0.16,0.27 -0.26,0.45 a 0.57,0.57 0 0 0 -0.26,-0.27 l -0.33,3.18 a 1.57,1.57 0 0 1 0,0.42 4.62,4.62 0 0 1 -0.22,1.4 l -0.56,5.48 a 0.68,0.68 0 0 0 0,0.14 c 0,0.16 0,0.32 0,0.48 a 4.39,4.39 0 0 1 -0.22,1.31 0.67,0.67 0 0 0 -0.06,0.12 l -0.26,2.54 c 0,-0.2 0.06,-0.39 0.1,-0.59 a 3.21,3.21 0 0 1 0.26,-0.67 c 0.08,-0.16 0.31,-0.1 0.4,0.1 a 3.25,3.25 0 0 1 0.23,1 6.06,6.06 0 0 0 0,0.74 2.09,2.09 0 0 1 -0.07,0.39 1.39,1.39 0 0 1 -0.14,0.54 1,1 0 0 1 -0.2,0.32 c -0.21,0.2 -0.47,0.08 -0.55,-0.26 a 3.26,3.26 0 0 1 -0.11,-0.83 3.42,3.42 0 0 1 0,-0.45 l -0.46,4.49 v 0 a 0.54,0.54 0 0 1 0.05,0.11 h -0.05 v -0.05 l -0.34,3.31 a 4.6,4.6 0 0 1 0,0.64 c 0,0.34 -0.1,0.69 -0.15,1 v 0 l -0.71,6.94 a 2.62,2.62 0 0 1 0,0.28 1,1 0 0 1 0,0.1 l -0.35,3.43 h 1.59 a 4,4 0 0 1 -0.2,-1.19 7.5,7.5 0 0 1 0.11,-0.81 c 0,-0.07 0,-0.13 0,-0.23 h 0.09 c 0.35,-0.1 0.5,0 0.64,0.36 a 5.44,5.44 0 0 1 0.25,0.9 8,8 0 0 1 0.09,1 h 4.4 a 0.28,0.28 0 0 1 0.29,-0.09 c 0,0 0.07,0.05 0.1,0.09 h 1 c -0.14,-0.36 -0.26,-0.73 -0.39,-1.1 a 0.77,0.77 0 0 1 0,-0.15 c 0,-0.18 0,-0.36 0,-0.57 0,-0.21 0.23,-0.31 0.44,-0.35 a 0.23,0.23 0 0 1 0.2,0.05 3.12,3.12 0 0 1 1,1.95 1,1 0 0 1 0,0.17 h 1.45 a 1.79,1.79 0 0 1 0.22,-0.82 c 0.16,-0.25 0.35,-0.41 0.63,-0.35 h 0.06 c 0,-0.25 0,-0.36 0.18,-0.38 a 0.12,0.12 0 0 1 0.15,0.14 3.61,3.61 0 0 1 -0.1,0.38 c 0,0 0.07,0.06 0.13,0.08 a 0.62,0.62 0 0 1 0.41,0.61 c 0,0.13 0,0.25 0,0.37 h 1.37 a 0.19,0.19 0 0 1 0,-0.08 c 0,-0.11 0.08,-0.15 0.21,-0.13 l 0.06,-0.15 a 0.37,0.37 0 0 1 0.33,0.21 1,1 0 0 1 0.07,0.15 h 0.92 a 6.66,6.66 0 0 1 -0.06,-2.09 0.22,0.22 0 0 1 0.11,-0.19 c 0.2,-0.14 0.22,-0.17 0.43,-0.15 h 0.07 a 3.54,3.54 0 0 1 0.45,1.25 2.6,2.6 0 0 1 0,0.56 q 0,0.31 0,0.63 h 1.48 a 0.53,0.53 0 0 0 0,-0.12 v -0.07 c 0.28,-0.06 0.31,0 0.44,0.19 h 0.88 a 1.47,1.47 0 0 1 -0.13,-0.66 c 0,-0.15 0,-0.3 0,-0.46 a 5.24,5.24 0 0 1 0.21,-1.48 0.35,0.35 0 0 1 0.45,-0.29 h 0.15 a 0.3,0.3 0 0 1 0.22,0.29 c 0,0.24 0.06,0.47 0.09,0.77 0.03,0.3 0,0.54 0,0.84 a 4,4 0 0 1 -0.09,0.68 0.81,0.81 0 0 1 -0.11,0.27 h 0.7 c 0,-0.12 0.1,-0.25 0.15,-0.37 a 0.18,0.18 0 0 1 0.18,-0.08 c 0.13,0.06 0.21,0 0.3,-0.14 l 0.21,0.16 c 0,0 0.07,0.05 0.09,0 0.02,-0.05 0.13,0 0.13,0.06 0,0.06 -0.07,0.08 -0.12,0.14 -0.05,0.06 0,0.13 0.07,0.19 h 1.56 c 0,0 0,0 0,-0.06 a 2.94,2.94 0 0 1 -0.16,-1.26 q 0,-0.36 0.12,-0.72 l -1.84,-12.57 a 1,1 0 0 1 -0.59,-0.5 7.61,7.61 0 0 1 -0.6,-1.57 0.8,0.8 0 0 1 0,-0.15 v -0.56 c 0.14,-0.1 0.22,-0.32 0.44,-0.35 a 0.18,0.18 0 0 1 0.2,0.05 c 0.07,0.06 0.1,0.15 0.16,0.21 l -1.94,-13.23 a 3.14,3.14 0 0 1 -0.12,0.51 1.68,1.68 0 0 1 -0.16,0.33 0.35,0.35 0 0 1 -0.65,-0.06 2.82,2.82 0 0 1 -0.24,-1.88 1.56,1.56 0 0 0 0.08,-0.42 1.54,1.54 0 0 1 0.19,-0.57 c 0,-0.05 0.06,-0.13 0.14,-0.06 0.08,0.07 0.06,0 0.09,0 a 0.37,0.37 0 0 1 0.35,0 l -1.44,-9.86 -0.45,-0.06 c 0,0 0,0 0,0 a 3.45,3.45 0 0 1 0.2,0.62 c 0.08,0.31 0.15,0.63 0.23,0.94 0,0 0,0.1 0,0.12 -0.1,0.22 0,0.44 0,0.66 a 0.81,0.81 0 0 1 -0.42,0.64 1.25,1.25 0 0 1 -0.55,-1.11 c 0,-0.44 0,-0.89 0,-1.33 a 2.22,2.22 0 0 1 0.09,-0.63 l -1.27,-0.09 c 0,0.15 0,0.3 0,0.45 a 1.38,1.38 0 0 1 -0.16,0.47 c -0.07,0.16 -0.15,0.19 -0.29,0.1 a 1,1 0 0 1 -0.45,-0.57 5.08,5.08 0 0 1 -0.15,-0.52 c -0.61,0 -1.23,0 -1.85,0 a 0.58,0.58 0 0 1 -0.08,0.18 3.44,3.44 0 0 1 -0.44,0.41 0.91,0.91 0 0 1 -0.51,-0.56 v 0 q -1,0 -2.1,0.06 a 0.41,0.41 0 0 1 0.16,0.42 v 0 l 0.12,1 a 1.77,1.77 0 0 1 -0.2,1.24 2.11,2.11 0 0 1 -0.35,0.38 c -0.15,0.12 -0.35,0 -0.45,-0.16 a 1.46,1.46 0 0 1 -0.1,-0.34 2.13,2.13 0 0 1 0.13,-1.09 c 0.14,-0.38 0.25,-0.77 0.37,-1.16 0,-0.11 0.09,-0.22 0.14,-0.34 l -1.58,0.11 a 1.09,1.09 0 0 1 -0.08,0.69 c -0.13,0.24 -0.26,0.48 -0.52,0.56 a 0.26,0.26 0 0 1 -0.3,-0.09 1,1 0 0 1 -0.25,-0.61 c 0,-0.11 0,-0.22 0,-0.33 0,-0.11 0,-0.07 0,-0.11 -0.57,0.07 -1.14,0.13 -1.7,0.21 a 3.16,3.16 0 0 1 0,0.32 3.44,3.44 0 0 1 -0.1,0.87 z M 161.31,422 a 0.35,0.35 0 0 1 0.46,0.28 c 0,0.13 0.09,0.27 0.11,0.41 a 4.79,4.79 0 0 1 0,1.51 4.84,4.84 0 0 1 -0.25,0.73 0.61,0.61 0 0 1 -0.36,0.33 c -0.11,0.05 -0.17,0 -0.24,-0.11 a 2.13,2.13 0 0 1 -0.15,-1.53 c 0.06,-0.3 0.1,-0.6 0.18,-0.89 a 6.94,6.94 0 0 1 0.25,-0.73 z m 1.57,3.62 0.21,0.16 c 0,0 0.06,0 0.09,0 0.03,0 0.13,0 0.13,0.07 0,0.07 -0.07,0.08 -0.12,0.14 a 0.89,0.89 0 0 0 0.09,0.24 1.41,1.41 0 0 1 0.16,0.55 c 0,0.21 0.08,0.42 0.09,0.63 a 1.79,1.79 0 0 1 0,0.46 2.3,2.3 0 0 1 -0.34,1 c -0.16,0.21 -0.31,0.25 -0.49,0.06 a 1.44,1.44 0 0 1 -0.32,-0.48 2.91,2.91 0 0 1 -0.22,-1 6.27,6.27 0 0 1 0,-0.87 3,3 0 0 1 0.25,-0.71 0.18,0.18 0 0 1 0.18,-0.08 c 0.12,0.05 0.19,-0.02 0.29,-0.15 z m 0,-2.75 a 10.32,10.32 0 0 1 0.17,-1.17 c 0.14,0.11 0.2,-0.13 0.32,-0.05 0.1,-0.17 0.25,-0.1 0.38,-0.11 h 0.1 l 0.1,0.24 a 1.52,1.52 0 0 0 0.06,0.2 3,3 0 0 1 0.19,1.54 5.4,5.4 0 0 1 -0.18,0.89 1.52,1.52 0 0 1 -0.31,0.49 0.15,0.15 0 0 1 -0.16,0 0.71,0.71 0 0 1 -0.46,-0.41 1.8,1.8 0 0 1 -0.19,-0.62 5.78,5.78 0 0 1 -0.06,-0.98 z m -0.64,7 a 3,3 0 0 1 0.36,1.38 2,2 0 0 0 0,0.34 2.34,2.34 0 0 1 -0.23,1.23 0.54,0.54 0 0 1 -0.15,0.18 c -0.13,0.1 -0.2,0.08 -0.31,-0.05 a 1.39,1.39 0 0 1 -0.4,-0.89 c 0,-0.17 -0.05,-0.35 -0.07,-0.51 a 9.43,9.43 0 0 1 0.15,-1.52 c 0,-0.1 0.07,-0.23 0.13,-0.26 a 0.77,0.77 0 0 1 0.37,0 c 0,0 0.08,0.09 0.11,0.15 z M 160.88,415 c 0,0 0.05,0 0.05,0.06 0,0.06 0,0.06 -0.05,0.06 -0.05,0 0,0 -0.07,-0.06 -0.07,-0.06 0.06,-0.06 0.07,-0.06 z m -0.76,6.47 a 2,2 0 0 1 -0.19,-0.62 5.78,5.78 0 0 1 0,-1 9.93,9.93 0 0 1 0.16,-1.17 c 0.14,0.11 0.21,-0.13 0.33,-0.05 0.09,-0.17 0.24,-0.1 0.37,-0.11 h 0.11 l 0.09,0.24 a 1.52,1.52 0 0 1 0.06,0.2 3,3 0 0 1 0.19,1.54 4.53,4.53 0 0 1 -0.18,0.89 1.52,1.52 0 0 1 -0.31,0.49 c 0,0 -0.11,0 -0.16,0 a 0.74,0.74 0 0 1 -0.47,-0.39 z m -0.18,24.9 c 0,0 -0.05,0 -0.05,-0.05 0,-0.05 0,0 0,-0.08 0,-0.08 0.05,0 0.05,0.05 0,0.05 0.06,0.07 0,0.1 z m 0,-3.41 a 0.65,0.65 0 0 1 -0.15,0.18 c -0.13,0.1 -0.2,0.08 -0.31,-0.05 a 1.34,1.34 0 0 1 -0.4,-0.89 c 0,-0.18 -0.05,-0.35 -0.07,-0.51 a 9.56,9.56 0 0 1 0.15,-1.53 c 0,-0.09 0.06,-0.22 0.13,-0.25 a 0.92,0.92 0 0 1 0.37,-0.05 c 0,0 0.09,0.09 0.12,0.14 a 3,3 0 0 1 0.36,1.39 c 0,0.11 0,0.22 0,0.33 a 2.28,2.28 0 0 1 -0.2,1.28 z m 0.56,-4.89 a 1.85,1.85 0 0 1 -0.2,0.6 c -0.07,0.17 -0.17,0.18 -0.31,0.09 a 1,1 0 0 1 -0.42,-0.48 3.72,3.72 0 0 1 -0.32,-1.56 4.56,4.56 0 0 1 0,-0.64 c 0.06,-0.45 0.21,-0.58 0.62,-0.57 a 5.33,5.33 0 0 1 0.52,1.14 3.8,3.8 0 0 1 0.11,1.44 z m 0,-4.81 a 0.16,0.16 0 0 1 -0.25,0.11 1.12,1.12 0 0 1 -0.57,-0.65 3.23,3.23 0 0 1 -0.21,-0.93 c 0,-0.3 -0.09,-0.6 -0.13,-0.91 v -0.09 c 0,-0.34 0,-0.48 0.29,-0.6 a 1.71,1.71 0 0 1 0.18,-0.07 2.73,2.73 0 0 1 0.62,0.91 3.19,3.19 0 0 1 0.25,1.56 5,5 0 0 1 -0.21,0.69 z m 1.29,13.11 a 1,1 0 0 1 -0.23,0.51 0.24,0.24 0 0 1 -0.27,0.08 0.53,0.53 0 0 1 -0.34,-0.3 2.89,2.89 0 0 1 -0.3,-1.3 c 0,-0.45 0.09,-0.9 0.14,-1.35 a 0.31,0.31 0 0 1 0.32,-0.29 h 0.08 a 0.33,0.33 0 0 1 0.42,0.21 4,4 0 0 1 0.27,1.19 v 0.28 0 c -0.04,0.33 -0.07,0.66 -0.12,0.99 z m -0.2,-9.3 a 6.59,6.59 0 0 1 -0.06,-2.17 0.22,0.22 0 0 1 0.1,-0.19 c 0.21,-0.15 0.22,-0.18 0.44,-0.15 h 0.06 a 3.27,3.27 0 0 1 0.46,1.24 3.63,3.63 0 0 1 0,0.57 3.32,3.32 0 0 1 -0.15,1.13 v 0.07 c -0.12,0.28 -0.28,0.32 -0.5,0.15 a 1.19,1.19 0 0 1 -0.38,-0.63 z m 0.76,4.91 a 1.62,1.62 0 0 1 -0.22,-0.41 3.76,3.76 0 0 1 -0.14,-1.34 c 0,-0.33 0.08,-0.66 0.15,-1 a 0.52,0.52 0 0 1 0.64,-0.43 0.26,0.26 0 0 1 0.13,0.08 3.3,3.3 0 0 1 0.19,0.43 4.17,4.17 0 0 1 0.09,0.51 c 0,0.16 0,0.32 0,0.48 a 4.09,4.09 0 0 1 -0.22,1.31 1.44,1.44 0 0 1 -0.16,0.33 c -0.15,0.25 -0.33,0.26 -0.49,0.06 z m 1.6,4.15 c -0.06,0.12 -0.22,0.11 -0.35,0 a 2,2 0 0 1 -0.38,-0.59 6.28,6.28 0 0 1 -0.29,-1.42 A 6.38,6.38 0 0 1 163,443 c 0.26,-0.14 0.37,-0.13 0.53,0.14 0.16,0.27 0.26,0.55 0.39,0.84 a 4.08,4.08 0 0 1 0.26,1.21 1.6,1.6 0 0 1 -0.26,0.96 z m 0.06,-11.84 c 0,0 0,-0.06 0,-0.07 -0.22,-0.29 -0.15,-0.65 -0.21,-1 a 4.32,4.32 0 0 1 0.05,-1.24 h 0.11 c 0.08,0 0.18,-0.1 0.24,-0.07 a 0.67,0.67 0 0 1 0.22,0.25 4.81,4.81 0 0 1 0.5,1.28 4.2,4.2 0 0 1 0.1,0.93 0.78,0.78 0 0 1 -0.37,0.73 1,1 0 0 1 -0.65,-0.79 z M 165,425.9 c 0,0 0.06,-0.07 0.1,-0.1 0.04,-0.03 0.21,-0.06 0.32,0.07 a 3.81,3.81 0 0 1 0.85,1.8 6.18,6.18 0 0 1 0.07,0.62 c 0,0.14 0,0.29 -0.07,0.44 a 0.23,0.23 0 0 1 -0.28,0.22 0.83,0.83 0 0 1 -0.57,-0.4 3.92,3.92 0 0 1 -0.68,-2.16 c 0.02,-0.21 0.04,-0.39 0.26,-0.49 z m 0,-6.36 v -0.36 a 3.45,3.45 0 0 1 0.31,-1.14 0.22,0.22 0 0 1 0.25,-0.16 2.47,2.47 0 0 1 0.36,0.11 c 0,0 0,0.09 0.06,0.14 0,0.24 0.08,0.47 0.11,0.7 0.03,0.23 0,0.7 0,1 a 2.86,2.86 0 0 1 -0.13,0.72 1.57,1.57 0 0 1 -0.34,0.47 c -0.14,0.15 -0.33,0 -0.43,-0.22 A 2.84,2.84 0 0 1 165,419.54 Z m 2,2.62 a 0.29,0.29 0 0 1 0.15,0.12 c 0.09,0.22 0.18,0.45 0.26,0.68 a 0.87,0.87 0 0 1 0.05,0.22 3.09,3.09 0 0 0 0,0.53 3.46,3.46 0 0 1 -0.21,1.47 c -0.08,0.28 -0.43,0.44 -0.7,0.06 a 1,1 0 0 1 -0.23,-0.65 0.38,0.38 0 0 0 0,-0.1 2.07,2.07 0 0 1 -0.07,-0.86 c 0,-0.31 0,-0.63 0.06,-0.94 a 0.45,0.45 0 0 1 0.23,-0.41 c 0,0 0,0 0.05,0 0.05,0 0.27,-0.15 0.41,-0.12 z m 0,-7.15 a 0.59,0.59 0 0 1 0,-0.13 h 0.06 v 0.14 z m 2.56,3.72 c 0,0.11 0,0.22 0,0.34 0,0.38 0,0.75 0,1.13 a 2.86,2.86 0 0 1 -0.22,1 c -0.06,0.16 -0.12,0.31 -0.19,0.47 l -0.09,0.17 c -0.18,0.24 -0.39,0.25 -0.56,0 a 2.26,2.26 0 0 1 -0.22,-0.47 2.4,2.4 0 0 1 0,-1.65 c 0.09,-0.25 0.16,-0.51 0.23,-0.77 a 0.26,0.26 0 0 1 0.21,-0.23 c 0.2,0 0.4,-0.18 0.61,-0.05 0.07,-0.11 0.06,-0.25 0.19,-0.23 0.13,0.02 0.09,0.08 0.08,0.09 a 1.32,1.32 0 0 1 -0.08,0.2 z m 0.11,3 c -0.09,-0.1 -0.09,-0.1 0,-0.26 0.03,0.12 0.03,0.12 -0.04,0.25 z M 168.4,417 c 0,0.17 -0.09,0.33 -0.11,0.49 a 1.16,1.16 0 0 1 -0.4,0.64 c -0.08,0.08 -0.16,0.06 -0.24,0 a 1.14,1.14 0 0 1 -0.27,-0.76 1.31,1.31 0 0 1 0,-0.28 3.11,3.11 0 0 1 0.25,-1.52 1.48,1.48 0 0 1 0.23,-0.38 0.18,0.18 0 0 1 0.09,-0.06 0.42,0.42 0 0 1 0.57,0.42 5.5,5.5 0 0 1 -0.12,1.45 z m -2.69,22.5 a 5.16,5.16 0 0 1 -0.31,0.77 1.09,1.09 0 0 1 -0.08,0.15 c -0.12,0.16 -0.21,0.17 -0.37,0.07 a 1.55,1.55 0 0 1 -0.57,-0.94 4.21,4.21 0 0 1 -0.15,-1.22 2.78,2.78 0 0 1 0.15,-0.95 0.23,0.23 0 0 1 0.12,-0.1 1.78,1.78 0 0 1 0.29,-0.12 1.92,1.92 0 0 1 0.41,-0.05 c 0.25,0 0.34,0.23 0.44,0.44 a 3.32,3.32 0 0 1 0.21,1.17 3.36,3.36 0 0 1 -0.14,0.78 z m 0.22,-6.72 a 3.35,3.35 0 0 1 -0.32,-1.45 1.11,1.11 0 0 0 0,-0.17 l -0.09,-0.52 v 0 -0.18 c 0,-0.18 0,-0.21 0.18,-0.26 0.18,-0.05 0.11,-0.16 0.24,-0.12 a 0.28,0.28 0 0 1 0.17,0.07 2.81,2.81 0 0 1 0.56,1 c 0.07,0.26 0.13,0.51 0.19,0.77 a 0.75,0.75 0 0 1 0,0.15 c 0,0.2 0,0.39 0,0.59 a 1.15,1.15 0 0 1 -0.19,0.59 c 0,0.07 -0.1,0.07 -0.18,0.06 a 0.79,0.79 0 0 1 -0.56,-0.53 z m 1.62,11.06 a 2,2 0 0 1 -0.2,0.59 c -0.08,0.17 -0.17,0.19 -0.32,0.1 a 1.08,1.08 0 0 1 -0.41,-0.48 3.61,3.61 0 0 1 -0.32,-1.56 3.42,3.42 0 0 1 0,-0.64 c 0.07,-0.45 0.22,-0.58 0.62,-0.57 a 4.35,4.35 0 0 1 0.52,1.14 4,4 0 0 1 0.11,1.42 z m 0,-6.6 a 0.79,0.79 0 0 1 -0.14,0.17 c -0.13,0.11 -0.2,0.08 -0.3,-0.06 a 2.79,2.79 0 0 1 -0.44,-1.58 5.2,5.2 0 0 1 0.11,-1.52 h 0.06 c 0.24,-0.07 0.27,-0.05 0.4,0.21 a 10.4,10.4 0 0 1 0.48,1.65 2.75,2.75 0 0 1 -0.17,1.13 z m 0.1,-8.58 a 4.43,4.43 0 0 1 0,-1.26 0.5,0.5 0 0 0 0,-0.17 2.74,2.74 0 0 1 0.16,-1.06 0.44,0.44 0 0 1 0.41,0.3 1.9,1.9 0 0 1 0.21,0.88 0.87,0.87 0 0 0 0,0.22 l 0.15,0.56 c 0,0 0,0.06 0,0.08 a 1.52,1.52 0 0 0 -0.07,0.67 0.82,0.82 0 0 1 -0.21,0.45 c -0.11,0.14 -0.25,0.11 -0.39,0 a 1.1,1.1 0 0 1 -0.26,-0.67 z m 0.72,5.2 a 3.7,3.7 0 0 1 -0.24,-1.25 c 0,-0.34 0,-0.68 0,-1 a 0.29,0.29 0 0 1 0,-0.13 c 0,-0.11 0.09,-0.15 0.21,-0.13 l 0.06,-0.14 a 0.36,0.36 0 0 1 0.34,0.2 3.86,3.86 0 0 1 0.55,1.44 4,4 0 0 1 0,1 1.58,1.58 0 0 1 -0.15,0.48 c -0.08,0.16 -0.16,0.18 -0.3,0.1 a 1.06,1.06 0 0 1 -0.47,-0.57 z m 0.47,3.54 a 2.14,2.14 0 0 0 0.07,-0.43 1.49,1.49 0 0 1 0.19,-0.56 c 0,-0.06 0.06,-0.14 0.14,-0.06 0.08,0.08 0.06,0 0.09,0 a 0.56,0.56 0 0 1 0.49,0 c 0.06,0 0.11,0.16 0.12,0.26 0.06,0.34 0.1,0.68 0.15,1 a 4.56,4.56 0 0 1 -0.2,1.38 1.48,1.48 0 0 1 -0.17,0.33 0.35,0.35 0 0 1 -0.64,-0.06 2.71,2.71 0 0 1 -0.24,-1.86 z m 1.37,5.66 a 1.45,1.45 0 0 1 -0.13,0.72 1,1 0 0 1 -0.34,0.39 c -0.1,0.07 -0.23,0 -0.32,-0.1 a 1,1 0 0 1 -0.27,-0.55 2.45,2.45 0 0 0 -0.08,-0.37 2.29,2.29 0 0 1 -0.17,-0.87 0.16,0.16 0 0 1 0,-0.12 c 0.2,-0.19 0.08,-0.48 0.17,-0.71 a 2.83,2.83 0 0 0 0.06,-0.42 c 0,0 0,-0.07 0,-0.08 0,-0.01 0.15,-0.21 0.13,-0.38 -0.02,-0.17 0.16,-0.17 0.24,-0.05 a 0.56,0.56 0 0 0 0.36,0.25 0.17,0.17 0 0 1 0.09,0.11 c 0.1,0.56 0.18,1.13 0.28,1.69 v 0 a 3.84,3.84 0 0 0 -0.02,0.49 z m 0.58,-10.57 a 2.64,2.64 0 0 1 0.12,-0.78 c 0.26,-0.07 0.38,0 0.49,0.24 a 3.45,3.45 0 0 1 0.2,0.62 c 0.08,0.31 0.15,0.63 0.23,0.94 0,0 0,0.1 0,0.12 -0.1,0.22 0,0.44 0,0.66 a 0.82,0.82 0 0 1 -0.42,0.64 1.26,1.26 0 0 1 -0.55,-1.11 c -0.04,-0.44 -0.05,-0.89 -0.07,-1.33 z m 1.36,11.94 a 0.83,0.83 0 0 1 -0.21,0.44 c -0.11,0.14 -0.25,0.12 -0.39,0 a 1.07,1.07 0 0 1 -0.28,-0.65 4.36,4.36 0 0 1 0,-1.25 0.56,0.56 0 0 0 0,-0.18 2.51,2.51 0 0 1 0.16,-1 0.44,0.44 0 0 1 0.41,0.3 1.9,1.9 0 0 1 0.21,0.88 1,1 0 0 0 0,0.22 c 0.05,0.18 0.1,0.37 0.14,0.56 a 0.09,0.09 0 0 1 0,0.07 1.57,1.57 0 0 0 -0.04,0.61 z m 0.33,-4.92 a 1.43,1.43 0 0 1 -0.16,0.48 c -0.07,0.16 -0.15,0.18 -0.29,0.09 a 1,1 0 0 1 -0.45,-0.57 3.7,3.7 0 0 1 -0.24,-1.25 c 0,-0.34 0,-0.68 0,-1 a 0.28,0.28 0 0 1 0,-0.13 c 0,-0.11 0.09,-0.15 0.21,-0.13 l 0.06,-0.15 a 0.39,0.39 0 0 1 0.34,0.21 3.87,3.87 0 0 1 0.55,1.43 4,4 0 0 1 -0.02,1.02 z m 0.21,-6.93 a 3.65,3.65 0 0 1 -0.27,-1.26 4.07,4.07 0 0 1 0.1,-1.55 v -0.06 c 0.29,-0.07 0.31,0 0.46,0.21 a 6.52,6.52 0 0 1 0.44,1.4 0.81,0.81 0 0 1 0,0.44 2.09,2.09 0 0 0 0,0.5 0.81,0.81 0 0 1 -0.22,0.58 c 0,0 -0.11,0.09 -0.15,0.08 a 0.66,0.66 0 0 1 -0.36,-0.34 z m 0.53,11.5 c 0,0 0,0 -0.06,-0.06 l 0.14,-0.16 c 0.03,0.14 0,0.22 -0.08,0.22 z m 0.57,0.43 v -0.05 c 0,0 0,-0.06 0,-0.12 0,-0.06 0.07,0.07 0.06,0.09 -0.01,0.02 -0.05,0.05 -0.06,0.08 z m 0.49,-2.31 a 0.79,0.79 0 0 1 -0.42,0.63 1.21,1.21 0 0 1 -0.55,-1.1 c 0,-0.45 0,-0.89 -0.05,-1.34 a 2.63,2.63 0 0 1 0.12,-0.77 c 0.26,-0.07 0.38,0 0.49,0.24 a 3.21,3.21 0 0 1 0.2,0.62 c 0.08,0.31 0.15,0.63 0.22,0.94 0,0 0,0.09 0,0.12 -0.07,0.21 0.02,0.46 -0.01,0.66 z m 0.18,-5.63 a 1.72,1.72 0 0 1 -0.2,0.59 c -0.08,0.17 -0.17,0.19 -0.31,0.1 a 1.1,1.1 0 0 1 -0.42,-0.48 3.76,3.76 0 0 1 -0.32,-1.56 3.42,3.42 0 0 1 0,-0.64 c 0.07,-0.45 0.22,-0.58 0.63,-0.57 a 4.68,4.68 0 0 1 0.51,1.14 4,4 0 0 1 0.11,1.42 z m -0.45,-4 0.05,-0.05 a 0.54,0.54 0 0 1 0.05,0.11 c 0,0 0,0 -0.05,0 A 0.26,0.26 0 0 1 174,432.57 Z m 0.77,0.05 a 7.38,7.38 0 0 0 -0.13,-0.91 v -0.09 c 0,-0.34 0,-0.48 0.29,-0.6 a 1.71,1.71 0 0 1 0.18,-0.07 2.73,2.73 0 0 1 0.62,0.91 3.08,3.08 0 0 1 0.25,1.56 5,5 0 0 1 -0.15,0.67 0.16,0.16 0 0 1 -0.25,0.11 1.12,1.12 0 0 1 -0.57,-0.65 3.23,3.23 0 0 1 -0.24,-0.93 z m 1.64,10.59 a 3.8,3.8 0 0 1 -0.18,0.89 1.29,1.29 0 0 1 -0.31,0.49 0.14,0.14 0 0 1 -0.15,0 0.73,0.73 0 0 1 -0.47,-0.41 2,2 0 0 1 -0.18,-0.62 5,5 0 0 1 0,-1 10.32,10.32 0 0 1 0.17,-1.17 c 0.14,0.11 0.2,-0.13 0.32,0 0.1,-0.17 0.24,-0.1 0.37,-0.11 h 0.11 l 0.1,0.24 c 0,0.07 0,0.14 0,0.2 a 2.88,2.88 0 0 1 0.22,1.49 z m 0.64,-3.27 a 2.43,2.43 0 0 1 -0.18,0.4 c -0.08,0.13 -0.16,0.12 -0.27,0 a 1.75,1.75 0 0 1 -0.49,-1 c -0.08,-0.53 -0.13,-1.06 -0.19,-1.58 0,-0.15 0,-0.31 0,-0.52 0.13,0 0.26,0 0.32,0 a 1.33,1.33 0 0 1 0.3,0.43 3.88,3.88 0 0 1 0.11,0.49 0.16,0.16 0 0 0 0.05,0.1 1.38,1.38 0 0 1 0.35,1 2.28,2.28 0 0 1 0,0.68 z m 1.73,4.56 a 1.46,1.46 0 0 1 -0.17,0.33 c -0.16,0.21 -0.33,0.22 -0.49,0 a 1.25,1.25 0 0 1 -0.22,-0.41 3.52,3.52 0 0 1 -0.14,-1.34 8.26,8.26 0 0 1 0.14,-1 0.53,0.53 0 0 1 0.64,-0.42 0.17,0.17 0 0 1 0.13,0.08 2.35,2.35 0 0 1 0.19,0.43 2.75,2.75 0 0 1 0.09,0.5 c 0,0.16 0,0.33 0,0.49 a 4.32,4.32 0 0 1 -0.17,1.34 z m -0.54,-5.27 a 9,9 0 0 1 0.18,-0.9 6.52,6.52 0 0 1 0.29,-0.73 0.35,0.35 0 0 1 0.45,0.28 2.17,2.17 0 0 1 0.11,0.42 4.44,4.44 0 0 1 0,1.5 5.85,5.85 0 0 1 -0.25,0.74 0.62,0.62 0 0 1 -0.36,0.32 c -0.11,0.05 -0.17,0 -0.24,-0.11 a 2,2 0 0 1 -0.18,-1.52 z m -0.49,-4.8 a 4.14,4.14 0 0 1 0.25,1.22 1.6,1.6 0 0 1 -0.24,0.94 c -0.06,0.12 -0.22,0.1 -0.35,0 a 2,2 0 0 1 -0.38,-0.6 5.6,5.6 0 0 1 -0.29,-1.42 5.49,5.49 0 0 1 0.09,-1.08 c 0.26,-0.14 0.37,-0.12 0.53,0.15 0.16,0.27 0.26,0.51 0.39,0.79 z m -1,-9 c 0.13,-0.09 0.22,-0.07 0.33,0.06 a 3.81,3.81 0 0 1 0.85,1.8 6.2,6.2 0 0 1 0.06,0.62 c 0,0.15 0,0.3 -0.07,0.45 a 0.23,0.23 0 0 1 -0.28,0.21 0.81,0.81 0 0 1 -0.56,-0.4 3.92,3.92 0 0 1 -0.69,-2.15 c 0,-0.21 0,-0.44 0.26,-0.5 0,0 0.02,-0.06 0.06,-0.08 z m -1.29,-5.95 c 0.13,0.1 0.2,-0.13 0.32,-0.05 0.1,-0.17 0.24,-0.1 0.37,-0.11 h 0.11 a 2.44,2.44 0 0 0 0.1,0.24 c 0,0.06 0,0.13 0,0.19 a 3,3 0 0 1 0.19,1.55 4.53,4.53 0 0 1 -0.18,0.89 1.37,1.37 0 0 1 -0.31,0.49 c 0,0 -0.11,0 -0.16,0 a 0.74,0.74 0 0 1 -0.46,-0.41 2.12,2.12 0 0 1 -0.18,-0.62 5,5 0 0 1 0,-1 10,10 0 0 1 0.16,-1.16 z m -0.14,7.12 a 3,3 0 0 1 0.23,1 6.06,6.06 0 0 0 0,0.74 3.59,3.59 0 0 1 -0.06,0.39 1.86,1.86 0 0 1 -0.14,0.54 1.18,1.18 0 0 1 -0.21,0.32 c -0.21,0.2 -0.47,0.08 -0.55,-0.26 a 3.26,3.26 0 0 1 -0.11,-0.83 7.11,7.11 0 0 1 0.17,-1.32 3.21,3.21 0 0 1 0.26,-0.67 c 0.08,-0.16 0.29,-0.1 0.37,0.1 z m -0.22,-2.81 a 4.39,4.39 0 0 1 -0.22,1.31 1.71,1.71 0 0 1 -0.17,0.33 c -0.16,0.21 -0.33,0.22 -0.49,0 a 1.25,1.25 0 0 1 -0.22,-0.41 3.52,3.52 0 0 1 -0.14,-1.34 8,8 0 0 1 0.14,-1 0.54,0.54 0 0 1 0.64,-0.43 0.2,0.2 0 0 1 0.13,0.08 2.17,2.17 0 0 1 0.19,0.44 2.75,2.75 0 0 1 0.09,0.5 c -0.06,0.21 -0.01,0.37 0.01,0.53 z m -1.59,-13.07 a 2.29,2.29 0 0 1 0.08,-0.41 3.4,3.4 0 0 0 0.3,-0.22 0.34,0.34 0 0 1 0.52,0.1 5,5 0 0 1 0.36,0.73 3,3 0 0 1 0.23,1.19 c 0,0.15 0,0.31 0,0.46 a 1.07,1.07 0 0 1 -0.11,0.54 c -0.11,0.21 -0.21,0.26 -0.4,0.16 a 1.3,1.3 0 0 1 -0.57,-0.59 c -0.06,-0.12 -0.11,-0.23 -0.17,-0.34 a 0.8,0.8 0 0 1 -0.12,-0.43 0.37,0.37 0 0 0 0,-0.15 2.6,2.6 0 0 1 -0.16,-1.03 z m -0.18,4.92 c 0,-0.17 0,-0.34 0,-0.51 a 1.55,1.55 0 0 1 0.05,-0.23 c 0,-0.1 0,-0.2 0.08,-0.3 a 0.28,0.28 0 0 0 0.32,-0.06 c 0.18,-0.15 0.32,-0.07 0.41,0.16 a 5.29,5.29 0 0 1 0.33,1.49 2.06,2.06 0 0 1 0,0.35 3.8,3.8 0 0 1 -0.18,0.95 c -0.15,0.36 -0.41,0.42 -0.66,0.15 a 1.68,1.68 0 0 1 -0.35,-0.75 2.93,2.93 0 0 1 -0.04,-1.24 z M 173.13,427 v 0 c 0,0.33 -0.07,0.66 -0.11,1 a 1,1 0 0 1 -0.24,0.51 0.22,0.22 0 0 1 -0.26,0.07 0.49,0.49 0 0 1 -0.34,-0.29 2.67,2.67 0 0 1 -0.3,-1.3 c 0,-0.45 0.09,-0.9 0.14,-1.35 a 0.31,0.31 0 0 1 0.31,-0.3 h 0.09 a 0.33,0.33 0 0 1 0.42,0.21 3.67,3.67 0 0 1 0.26,1.19 z m -0.48,-6.62 0.07,0.14 0.12,-0.08 c 0,0 0,0.12 0,0.12 0,0 -0.07,0.19 0,0.29 a 4.87,4.87 0 0 1 0.09,1.32 2.21,2.21 0 0 1 -0.3,1.05 0.91,0.91 0 0 1 -0.11,0.16 c -0.16,0.2 -0.27,0.21 -0.42,0 a 1.52,1.52 0 0 1 -0.33,-0.8 3.87,3.87 0 0 1 0,-1 c 0.05,-0.26 0.08,-0.53 0.14,-0.8 a 1,1 0 0 1 0.25,-0.55 h 0.22 c 0.15,-0.01 0.18,0 0.27,0.19 z M 171.36,408 a 2.54,2.54 0 0 1 0.16,-1.05 0.46,0.46 0 0 1 0.41,0.3 2,2 0 0 1 0.2,0.88 0.87,0.87 0 0 0 0.05,0.22 l 0.15,0.56 a 0.08,0.08 0 0 1 0,0.07 2,2 0 0 0 -0.07,0.68 0.72,0.72 0 0 1 -0.2,0.44 c -0.12,0.15 -0.26,0.12 -0.39,0 a 1,1 0 0 1 -0.28,-0.66 4.36,4.36 0 0 1 0,-1.25 1.08,1.08 0 0 0 -0.03,-0.19 z m 0.07,3.54 h 0.06 c 0.24,-0.07 0.27,-0.05 0.4,0.21 a 10.4,10.4 0 0 1 0.48,1.65 2.75,2.75 0 0 1 -0.17,1.14 0.79,0.79 0 0 1 -0.14,0.17 c -0.12,0.11 -0.2,0.08 -0.3,-0.06 a 2.79,2.79 0 0 1 -0.44,-1.58 5.2,5.2 0 0 1 0.11,-1.58 z m -0.75,5.91 c 0.2,-0.19 0.08,-0.48 0.17,-0.71 a 2.79,2.79 0 0 0 0.06,-0.43 c 0,0 0,-0.06 0,-0.07 a 0.34,0.34 0 0 0 0.13,-0.38 c 0,-0.12 0.16,-0.17 0.25,-0.05 a 0.52,0.52 0 0 0 0.35,0.25 0.17,0.17 0 0 1 0.09,0.11 c 0.1,0.56 0.19,1.13 0.28,1.69 v 0 a 3.84,3.84 0 0 0 0,0.48 1.45,1.45 0 0 1 -0.13,0.72 0.84,0.84 0 0 1 -0.34,0.38 c -0.1,0.08 -0.23,0 -0.32,-0.09 a 1,1 0 0 1 -0.27,-0.55 1.17,1.17 0 0 0 -0.08,-0.37 2.32,2.32 0 0 1 -0.17,-0.87 0.16,0.16 0 0 1 -0.02,-0.16 z m -0.12,10.06 a 3.43,3.43 0 0 1 0.45,1.24 2.73,2.73 0 0 1 0,0.57 3.58,3.58 0 0 1 -0.14,1.13 v 0.07 c -0.13,0.28 -0.29,0.32 -0.5,0.15 A 1.19,1.19 0 0 1 170,430 a 6.34,6.34 0 0 1 -0.07,-2.17 0.22,0.22 0 0 1 0.1,-0.19 c 0.21,-0.15 0.23,-0.18 0.44,-0.15 z m -0.1,-2.64 a 2.16,2.16 0 0 1 -0.23,1.23 0.52,0.52 0 0 1 -0.14,0.19 c -0.13,0.09 -0.2,0.07 -0.31,-0.05 a 1.36,1.36 0 0 1 -0.4,-0.89 c 0,-0.18 0,-0.36 -0.07,-0.52 a 9.43,9.43 0 0 1 0.15,-1.52 c 0,-0.09 0.06,-0.22 0.13,-0.25 A 0.92,0.92 0 0 1 170,423 c 0,0 0.09,0.09 0.12,0.14 a 3.12,3.12 0 0 1 0.36,1.39 c -0.04,0.07 -0.03,0.18 -0.02,0.29 z m -1,-13.35 h 0.4 c 0.2,0 0.26,0.08 0.32,0.31 a 1.55,1.55 0 0 1 0,0.31 4.94,4.94 0 0 1 -0.08,1.27 5.41,5.41 0 0 1 -0.28,0.8 1,1 0 0 1 -0.3,0.33 c -0.15,0.11 -0.33,0 -0.44,-0.16 a 2,2 0 0 1 -0.17,-0.69 c 0,-0.15 0,-0.3 0,-0.46 0,-0.16 0,-0.42 0.05,-0.63 a 2,2 0 0 1 0.51,-1.13 z m -0.88,-5.8 a 0.25,0.25 0 0 1 0.2,-0.06 c 0.05,0 0.11,0.11 0.11,0.18 a 1.76,1.76 0 0 1 -0.06,0.41 l -0.23,-0.2 a 0.31,0.31 0 0 1 -0.01,-0.38 z m -0.43,0.82 a 0.41,0.41 0 0 1 0.42,-0.21 3,3 0 0 1 0.57,0.16 0.25,0.25 0 0 1 0.18,0.23 2,2 0 0 1 0,0.73 0.39,0.39 0 0 0 0,0.15 0.8,0.8 0 0 1 0,0.15 3.76,3.76 0 0 1 -0.46,1.59 1,1 0 0 1 -0.36,0.29 c -0.08,0.06 -0.22,0 -0.29,-0.15 a 2.67,2.67 0 0 1 -0.38,-1 c 0,-0.26 -0.06,-0.51 -0.09,-0.77 a 2.43,2.43 0 0 1 0.42,-1.22 z m -0.47,3.23 c 0.13,0.14 0,0.25 0,0.41 l -0.19,-0.11 v -0.26 c 0.03,-0.11 0.11,-0.19 0.2,-0.09 z m -1,1 c 0,-0.11 0.06,-0.21 0.08,-0.32 0.02,-0.11 0.14,-0.34 0.35,-0.34 a 1.08,1.08 0 0 1 0.46,0.07 0.41,0.41 0 0 1 0.23,0.31 c 0.06,0.33 0.11,0.66 0.16,1 0.05,0.34 -0.05,0.49 -0.08,0.74 -0.03,0.25 -0.08,0.29 -0.11,0.44 a 1.08,1.08 0 0 1 -0.36,0.63 c -0.12,0.12 -0.18,0.11 -0.31,0 a 1.59,1.59 0 0 1 -0.37,-0.66 2.42,2.42 0 0 1 -0.15,-0.93 0.55,0.55 0 0 0 0,-0.18 c 0,0 0,-0.06 0,-0.09 z m -1.18,4.16 a 2.85,2.85 0 0 1 0.2,-0.51 0.64,0.64 0 0 1 0.24,-0.22 1.16,1.16 0 0 1 0.27,-0.11 c 0,0 0.05,0.08 0.08,0.08 0.31,0.05 0.31,0.34 0.31,0.59 a 5.44,5.44 0 0 1 -0.22,1.61 c 0,0.12 -0.08,0.23 -0.11,0.34 a 1,1 0 0 1 -0.45,0.55 c -0.12,0.09 -0.22,0 -0.31,-0.11 a 1.21,1.21 0 0 1 -0.19,-0.67 5,5 0 0 1 0.16,-1.58 z M 165.1,407 h 0.05 c 0,0.08 0,0.14 -0.12,0.13 v -0.06 z m -1.13,0 c 0,-0.14 0,-0.27 0.07,-0.4 a 0.29,0.29 0 0 1 0.45,-0.17 1.06,1.06 0 0 1 0.31,0.58 9.42,9.42 0 0 1 0.23,1.2 3.42,3.42 0 0 1 -0.05,0.84 0.72,0.72 0 0 1 -0.32,0.49 0.15,0.15 0 0 1 -0.22,0 1.9,1.9 0 0 1 -0.26,-0.37 3.65,3.65 0 0 1 -0.23,-1 c 0,-0.16 0,-0.32 0,-0.48 a 1.57,1.57 0 0 1 0.05,-0.63 z m -0.3,3.6 a 0.39,0.39 0 0 1 0.32,-0.33 4.21,4.21 0 0 1 0.5,0 c 0.09,0 0.15,0.06 0.19,0.16 a 2.67,2.67 0 0 1 0.28,1.42 2.9,2.9 0 0 1 -0.48,1.63 c -0.12,0.2 -0.24,0.22 -0.44,0.1 a 1,1 0 0 1 -0.33,-0.49 2.65,2.65 0 0 1 -0.21,-1.45 8.7,8.7 0 0 1 0.17,-0.98 z m 0.09,6.34 h 0.15 a 0.32,0.32 0 0 1 0.22,0.29 c 0,0.23 0.05,0.47 0.09,0.77 0.04,0.3 0,0.54 0,0.84 a 5.52,5.52 0 0 1 -0.09,0.68 1,1 0 0 1 -0.34,0.54 c -0.17,0.15 -0.37,0.06 -0.47,-0.19 a 1.7,1.7 0 0 1 -0.16,-0.74 3.55,3.55 0 0 0 0,-0.46 4.91,4.91 0 0 1 0.21,-1.48 0.35,0.35 0 0 1 0.39,-0.19 z m -1,-9.33 c 0.11,-0.07 0.18,0.06 0.25,0.17 -0.13,0.17 -0.13,0.17 -0.33,0.08 0.02,-0.02 0.03,-0.16 0.08,-0.19 z m -0.61,6.24 0.4,-0.15 v 0 c 0.24,-0.07 0.35,0 0.45,0.25 a 3.13,3.13 0 0 1 0.16,2 3.33,3.33 0 0 1 -0.26,0.79 1.37,1.37 0 0 1 -0.17,0.23 c -0.12,0.14 -0.23,0.15 -0.35,0 a 1.14,1.14 0 0 1 -0.26,-0.35 2.61,2.61 0 0 1 -0.3,-1.14 3.19,3.19 0 0 1 0.19,-1.3 c 0.08,-0.06 0.1,-0.18 0.14,-0.27 z"
       fill="#fbae17"
       id="path2111" />
    <path
       d="m 157.08,447.54 c 0,8.78 5.34,15.89 11.92,15.89 6.58,0 11.92,-7.11 11.92,-15.89"
       fill="#171717"
       id="path2113" />
    <path
       d="m 181.82,474.74 a 11.87,11.87 0 0 1 -2.27,-0.22 c -5.43,-1 -11.16,-6 -10.92,-14.5 a 1,1 0 0 1 0.94,-0.9 0.93,0.93 0 0 1 0.89,0.95 c -0.21,7.44 4.74,11.77 9.42,12.65 a 8.69,8.69 0 0 0 10.17,-5.84 0.92,0.92 0 0 1 1.73,0.62 10.34,10.34 0 0 1 -9.96,7.24 z"
       fill="#171717"
       id="path2115" />
    <path
       d="m 157.43,474.74 a 10.36,10.36 0 0 1 -10,-7.24 0.92,0.92 0 0 1 1.73,-0.62 8.69,8.69 0 0 0 10.17,5.84 c 4.69,-0.88 9.64,-5.21 9.43,-12.65 a 0.92,0.92 0 1 1 1.83,-0.05 c 0.24,8.51 -5.49,13.48 -10.92,14.5 a 12,12 0 0 1 -2.24,0.22 z"
       fill="#171717"
       id="path2117" />
    <ellipse
       cx="197.13"
       cy="455.10999"
       rx="8.25"
       ry="6.4200001"
       fill="#f072ab"
       id="ellipse2119" />
    <path
       d="m 181.83,464.14 a 1.035,1.035 0 0 0 0,-2.07 1.035,1.035 0 0 0 0,2.07 z"
       fill="#fbae17"
       id="path2121" />
    <path
       d="m 185.79,466.54 a 1.03,1.03 0 0 0 0,-2.06 1.03,1.03 0 0 0 0,2.06 z"
       fill="#fbae17"
       id="path2123" />
    <path
       d="m 178.45,466.54 a 1.03,1.03 0 0 0 0,-2.06 1.03,1.03 0 0 0 0,2.06 z"
       fill="#fbae17"
       id="path2125" />
    <path
       d="m 181.83,469.06 a 1.03,1.03 0 0 0 0,-2.06 1.03,1.03 0 0 0 0,2.06 z"
       fill="#fbae17"
       id="path2127" />
    <ellipse
       cx="140.87"
       cy="455.10999"
       rx="8.25"
       ry="6.4200001"
       fill="#f072ab"
       id="ellipse2129" />
    <path
       d="m 156.16,464.14 a 1.035,1.035 0 0 0 0,-2.07 1.035,1.035 0 0 0 0,2.07 z"
       fill="#fbae17"
       id="path2131" />
    <path
       d="m 152.21,466.54 a 1.03,1.03 0 0 0 0,-2.06 1.03,1.03 0 0 0 0,2.06 z"
       fill="#fbae17"
       id="path2133" />
    <path
       d="m 159.54,466.54 a 1.03,1.03 0 0 0 0,-2.06 1.03,1.03 0 0 0 0,2.06 z"
       fill="#fbae17"
       id="path2135" />
    <path
       d="m 156.16,469.06 a 1.03,1.03 0 0 0 0,-2.06 1.03,1.03 0 0 0 0,2.06 z"
       fill="#fbae17"
       id="path2137" />
    <path
       d="m 186.13,443.3 a 7.29,7.29 0 0 1 1.4,-6.85 8.88,8.88 0 0 1 13.7,0 7.26,7.26 0 0 1 1.4,6.85 c -3.05,-8.55 -13.46,-8.56 -16.5,0 z"
       fill="#171717"
       id="path2139" />
    <path
       d="m 153.13,443.3 c -3,-8.56 -13.46,-8.55 -16.5,0 a 7.28,7.28 0 0 1 1.39,-6.85 8.89,8.89 0 0 1 13.71,0 7.31,7.31 0 0 1 1.4,6.85 z"
       fill="#171717"
       id="path2141" />
  </g>
</svg>
