<?xml version="1.0" encoding="UTF-8" standalone="no"?>
<svg
   xmlns:dc="http://purl.org/dc/elements/1.1/"
   xmlns:cc="http://creativecommons.org/ns#"
   xmlns:rdf="http://www.w3.org/1999/02/22-rdf-syntax-ns#"
   xmlns:svg="http://www.w3.org/2000/svg"
   xmlns="http://www.w3.org/2000/svg"
   xmlns:sodipodi="http://sodipodi.sourceforge.net/DTD/sodipodi-0.dtd"
   xmlns:inkscape="http://www.inkscape.org/namespaces/inkscape"
   id="cute_critters"
   data-name="cute critters"
   viewBox="0 0 221 221"
   version="1.1"
   sodipodi:docname="monkey.svg"
   width="221"
   height="221"
   inkscape:version="1.0.2 (e86c870879, 2021-01-15, custom)">
  <metadata
     id="metadata2465">
    <rdf:RDF>
      <cc:Work
         rdf:about="">
        <dc:format>image/svg+xml</dc:format>
        <dc:type
           rdf:resource="http://purl.org/dc/dcmitype/StillImage" />
      </cc:Work>
    </rdf:RDF>
  </metadata>
  <defs
     id="defs2463" />
  <sodipodi:namedview
     pagecolor="#ffffff"
     bordercolor="#666666"
     borderopacity="1"
     objecttolerance="10"
     gridtolerance="10"
     guidetolerance="10"
     inkscape:pageopacity="0"
     inkscape:pageshadow="2"
     inkscape:window-width="855"
     inkscape:window-height="480"
     id="namedview2461"
     showgrid="false"
     inkscape:zoom="0.88888889"
     inkscape:cx="111.5"
     inkscape:cy="-168.5"
     inkscape:window-x="0"
     inkscape:window-y="0"
     inkscape:window-maximized="0"
     inkscape:current-layer="cute_critters" />
  <g
     id="monkey"
     transform="translate(-338.5,-618.5)">
    <path
       d="M 339,729 A 110,110 0 1 0 449,619 110,110 0 0 0 339,729"
       fill="#3ac9a5"
       id="path2385" />
    <path
       d="M 449,839.5 A 110.5,110.5 0 1 1 559.5,729 110.63,110.63 0 0 1 449,839.5 Z m 0,-220 A 109.5,109.5 0 1 0 558.5,729 109.62,109.62 0 0 0 449,619.5 Z"
       fill="#ffffff"
       id="path2387" />
    <path
       d="m 389.11,783.93 c 8.23,-25.24 39.89,-43.49 59.89,-43.49 22,0 51.67,18.25 59.89,43.49 a 62.81,62.81 0 0 1 0.66,36.89 109.95,109.95 0 0 1 -121.1,0 62.84,62.84 0 0 1 0.66,-36.9 z"
       fill="#492d2c"
       id="path2389" />
    <path
       d="m 493.1,814.3 c 7.67,-0.8 26.52,-18 29,-25.85 a 20,20 0 0 0 -4.46,-19.63 v 0 a 19.77,19.77 0 0 0 -8.57,-5.4 6.52,6.52 0 0 1 3.93,-12.42 32.61,32.61 0 0 1 12.19,7 c -0.13,1.83 -0.81,6.09 -4.14,8.91 3.33,-2.81 4,-7.08 4.14,-8.91 a 33,33 0 0 1 9.36,34.37 c -4.13,13.1 -27.72,33.82 -40.63,35 A 17.07,17.07 0 0 0 493.1,814.3 Z"
       fill="#492d2c"
       id="path2391" />
    <path
       d="m 508.07,819.59 -2,3.46 a 109.24,109.24 0 0 1 -28.88,12.3 L 467.9,819.59 488,785.48 Z"
       fill="#584e8a"
       id="path2393" />
    <path
       d="m 471.27,745.58 a 75.22,75.22 0 0 1 27.89,20.91 l -11.19,19 -20.11,-34.12 z"
       fill="#fbae17"
       id="path2395" />
    <path
       d="m 509.86,819.59 c -0.11,0.41 -0.2,0.83 -0.31,1.23 l -0.55,0.35 -0.93,-1.58 2.87,-4.87 c -0.3,1.65 -0.66,3.28 -1.08,4.87 z"
       fill="#584e8a"
       id="path2397" />
    <path
       d="M 397.53,768.46 A 78.29,78.29 0 0 1 425,746.8 l 2.69,4.56 -20.11,34.12 z"
       fill="#fbae17"
       id="path2399" />
    <path
       d="m 407.55,785.48 20.11,34.11 -8.93,15.16 a 109.91,109.91 0 0 1 -30.28,-13.92 c -0.11,-0.41 -0.2,-0.83 -0.31,-1.24 -0.11,-0.41 -0.13,-0.55 -0.2,-0.82 z"
       fill="#584e8a"
       id="path2401" />
    <path
       d="m 427.66,751.36 4.46,-7.58 a 45.29,45.29 0 0 1 30.51,-1.3 l 5.23,8.88 -20.1,34.12 z"
       fill="#fbae17"
       id="path2403" />
    <path
       d="m 467.86,819.59 -11.27,19.14 c -2.51,0.17 -5,0.27 -7.59,0.27 -3.44,0 -6.84,-0.18 -10.2,-0.49 l -11.14,-18.92 20.1,-34.11 z"
       fill="#019678"
       id="path2405" />
    <path
       d="m 389.11,783.93 a 51.24,51.24 0 0 1 8.42,-15.47 l 10,17 -19.61,33.29 a 62.22,62.22 0 0 1 1.17,-34.84 z"
       fill="#ec1b34"
       id="path2407" />
    <polygon
       points="407.55,785.48 427.66,751.36 447.76,785.48 427.66,819.59 "
       fill="#ec1b34"
       id="polygon2409" />
    <polygon
       points="447.76,785.48 467.86,751.36 487.97,785.48 467.86,819.59 "
       fill="#ec1b34"
       id="polygon2411" />
    <path
       d="m 508.89,783.93 a 61.93,61.93 0 0 1 2.05,30.79 l -2.87,4.87 -20.07,-34.11 11.19,-19 a 54.71,54.71 0 0 1 9.7,17.45 z"
       fill="#ec1b34"
       id="path2413" />
    <path
       d="m 432.12,743.78 -4.46,7.58 -2.66,-4.56 a 74.81,74.81 0 0 1 7.12,-3.02 z"
       fill="#ec1b34"
       id="path2415" />
    <path
       d="m 471.27,745.58 -3.41,5.78 -5.23,-8.88 a 66.91,66.91 0 0 1 8.64,3.1 z"
       fill="#ec1b34"
       id="path2417" />
    <path
       d="m 418.73,834.75 8.93,-15.16 11.14,18.92 a 109,109 0 0 1 -20.07,-3.76 z"
       fill="#fbae17"
       id="path2419" />
    <path
       d="m 456.59,838.73 11.27,-19.14 9.29,15.76 a 109,109 0 0 1 -20.56,3.38 z"
       fill="#fbae17"
       id="path2421" />
    <path
       d="m 506,823.05 2,-3.46 0.93,1.58 c -0.93,0.64 -1.93,1.27 -2.93,1.88 z"
       fill="#ec1b34"
       id="path2423" />
    <path
       d="m 384.23,723.41 c 4.29,45.4 43.86,49.92 71.07,47.06 27.21,-2.86 63.4,-16.8 59.73,-60.81 -2.29,-27.48 -10,-49.15 -70.62,-42.77 -58.24,6.11 -62.78,29.11 -60.18,56.52 z"
       fill="#492d2c"
       id="path2425" />
    <path
       d="m 519.28,673.49 c -10.35,-0.36 -19,7.48 -19.37,17.52 a 18.42,18.42 0 0 0 16.59,18.68 c 0.5,0.06 1,0.09 1.54,0.11 10.35,0.36 19,-7.49 19.37,-17.51 A 18.43,18.43 0 0 0 520.82,673.6 c -0.51,-0.06 -1.02,-0.09 -1.54,-0.11 z"
       fill="#492d2c"
       id="path2427" />
    <path
       d="m 519.75,683 a 9,9 0 0 1 8.16,8.93 c -0.16,4.78 -4.44,8.53 -9.55,8.35 -0.26,0 -0.53,0 -0.79,-0.06 a 8.94,8.94 0 0 1 -8.16,-8.92 c 0.16,-4.78 4.44,-8.53 9.55,-8.35 0.26,0 0.53,0 0.79,0 z"
       fill="#f072ab"
       id="path2429" />
    <path
       d="m 377.4,686.89 c -10.35,-0.35 -19,7.49 -19.36,17.52 a 18.41,18.41 0 0 0 16.59,18.69 q 0.75,0.09 1.53,0.12 c 10.36,0.35 19,-7.49 19.37,-17.52 A 18.41,18.41 0 0 0 378.94,687 c -0.5,0 -1.02,-0.09 -1.54,-0.11 z"
       fill="#492d2c"
       id="path2431" />
    <path
       d="m 377.87,696.44 a 9,9 0 0 1 8.17,8.93 8.39,8.39 0 0 1 -2.81,5.94 9.51,9.51 0 0 1 -6.74,2.41 l -0.79,-0.05 a 9,9 0 0 1 -8.17,-8.93 8.35,8.35 0 0 1 2.81,-5.94 9.49,9.49 0 0 1 6.74,-2.41 7,7 0 0 1 0.79,0.05 z"
       fill="#f072ab"
       id="path2433" />
    <path
       d="m 432.85,652.77 c -0.11,1.82 1,6.27 5.82,10.73 2.14,2 1.92,1.54 2.76,2.56 a 12.5,12.5 0 0 0 3.05,2.62 6.69,6.69 0 0 0 3.45,1.36 26.12,26.12 0 0 0 0.21,-4.42 8.09,8.09 0 0 0 -1.43,-4.31 11.41,11.41 0 0 0 -3.69,-3.1 c -1.21,-0.72 -8.26,-2.59 -10.17,-5.44"
       fill="#492d2c"
       id="path2435" />
    <path
       d="m 427.88,658.17 c -0.12,1.82 2,9.79 5.44,10.69 0.51,1.29 2.6,0.48 3.44,1.49 a 12.32,12.32 0 0 0 3.05,2.63 10.54,10.54 0 0 0 4.37,1.5 10.57,10.57 0 0 0 -0.72,-4.57 c -0.5,-1.29 -1.33,-4.86 -5.09,-6.07 -5.46,-1.76 -7.8,-2.9 -10.49,-5.67"
       fill="#492d2c"
       id="path2437" />
    <ellipse
       cx="473.20001"
       cy="705"
       rx="28.629999"
       ry="26.84"
       transform="rotate(-6,473.33392,705.19522)"
       fill="#fdffe9"
       id="ellipse2439" />
    <ellipse
       cx="423.98001"
       cy="708.29999"
       rx="28.629999"
       ry="26.84"
       transform="rotate(-6,424.0808,708.54537)"
       fill="#fdffe9"
       id="ellipse2441" />
    <ellipse
       cx="450.03"
       cy="734.34998"
       rx="30"
       ry="22.42"
       transform="rotate(-6,450.17223,734.59504)"
       fill="#fdffe9"
       id="ellipse2443" />
    <path
       d="m 433.69,710 a 7.85,7.85 0 0 0 -2.69,-7.5 10.78,10.78 0 0 0 -15.58,1.63 7.84,7.84 0 0 0 -1.09,7.87 10.14,10.14 0 0 1 3.51,-5.66 10.51,10.51 0 0 1 11.26,-1.19 10.1,10.1 0 0 1 4.59,4.85 z"
       fill="#171717"
       id="path2445" />
    <path
       d="m 463.86,706.79 a 10.14,10.14 0 0 1 3.51,-5.66 10.49,10.49 0 0 1 11.26,-1.13 10.07,10.07 0 0 1 4.61,4.8 7.82,7.82 0 0 0 -2.7,-7.46 10.77,10.77 0 0 0 -15.54,1.59 7.84,7.84 0 0 0 -1.14,7.86 z"
       fill="#171717"
       id="path2447" />
    <path
       d="m 458.51,714.56 c 4.31,3.49 -3,10.41 -7.93,10.93 -4.93,0.52 -13.52,-4.73 -10,-9 2.81,-3.55 14.42,-4.77 17.93,-1.93 z"
       fill="#171717"
       id="path2449" />
    <path
       d="m 452.53,744.1 c 8.78,-0.92 15.3,-7.49 14.55,-14.64 a 1.33,1.33 0 1 0 -2.64,0.28 c 0.6,5.69 -4.87,11 -12.19,11.72 -7.32,0.72 -13.75,-3.24 -14.35,-8.93 a 1.33,1.33 0 0 0 -2.64,0.28 c 0.74,7.19 8.5,12.19 17.27,11.29 z"
       fill="#171717"
       id="path2451" />
    <path
       d="m 452.5,743.82 a 1.54,1.54 0 0 0 1.27,-1.75 l -1.85,-17.59 a 1.45,1.45 0 1 0 -2.87,0.31 l 1.85,17.58 a 1.54,1.54 0 0 0 1.6,1.45 z"
       fill="#171717"
       id="path2453" />
    <ellipse
       cx="421.63"
       cy="721.75"
       rx="8.3299999"
       ry="6.48"
       transform="rotate(-6,421.7539,721.91257)"
       fill="#ffa7ca"
       id="ellipse2455" />
    <ellipse
       cx="478.10999"
       cy="715.81"
       rx="8.3299999"
       ry="6.48"
       transform="rotate(-6,478.22204,715.97485)"
       fill="#ffa7ca"
       id="ellipse2457" />
  </g>
</svg>
