<?xml version="1.0" encoding="UTF-8" standalone="no"?>
<svg
   xmlns:dc="http://purl.org/dc/elements/1.1/"
   xmlns:cc="http://creativecommons.org/ns#"
   xmlns:rdf="http://www.w3.org/1999/02/22-rdf-syntax-ns#"
   xmlns:svg="http://www.w3.org/2000/svg"
   xmlns="http://www.w3.org/2000/svg"
   xmlns:sodipodi="http://sodipodi.sourceforge.net/DTD/sodipodi-0.dtd"
   xmlns:inkscape="http://www.inkscape.org/namespaces/inkscape"
   id="cute_critters"
   data-name="cute critters"
   viewBox="0 0 221 221"
   version="1.1"
   sodipodi:docname="panda_bear.svg"
   width="221"
   height="221"
   inkscape:version="1.0.2 (e86c870879, 2021-01-15, custom)">
  <metadata
     id="metadata2872">
    <rdf:RDF>
      <cc:Work
         rdf:about="">
        <dc:format>image/svg+xml</dc:format>
        <dc:type
           rdf:resource="http://purl.org/dc/dcmitype/StillImage" />
      </cc:Work>
    </rdf:RDF>
  </metadata>
  <defs
     id="defs2870" />
  <sodipodi:namedview
     pagecolor="#ffffff"
     bordercolor="#666666"
     borderopacity="1"
     objecttolerance="10"
     gridtolerance="10"
     guidetolerance="10"
     inkscape:pageopacity="0"
     inkscape:pageshadow="2"
     inkscape:window-width="855"
     inkscape:window-height="480"
     id="namedview2868"
     showgrid="false"
     inkscape:zoom="0.88888889"
     inkscape:cx="389.5"
     inkscape:cy="-169.5"
     inkscape:window-x="0"
     inkscape:window-y="0"
     inkscape:window-maximized="0"
     inkscape:current-layer="cute_critters" />
  <g
     id="panda_bear"
     data-name="panda bear"
     transform="translate(-60.5,-619.5)">
    <circle
       cx="171"
       cy="730"
       r="110"
       fill="#019678"
       id="circle2802" />
    <path
       d="m 127.6,766 c -13.1,7.74 -23.94,28.35 -28.46,47.24 a 109.88,109.88 0 0 0 144.44,-0.62 c -3.8,-17.75 -13.83,-36.27 -22,-44.62 -14.04,-14.39 -70.99,-15.59 -93.98,-2 z"
       fill="#171717"
       id="path2804" />
    <path
       d="m 238.39,796 -5.7,9.68 6.31,10.71 c 1.55,-1.22 3.08,-2.47 4.56,-3.77 A 101.29,101.29 0 0 0 238.39,796 Z"
       fill="#171717"
       id="path2806" />
    <path
       d="m 128.59,765.46 3.58,6.08 6,-10.08 a 53.44,53.44 0 0 0 -9.58,4 z"
       fill="#171717"
       id="path2808" />
    <path
       d="m 205.88,760.16 6.71,11.38 4.19,-7.12 a 48.4,48.4 0 0 0 -10.9,-4.26 z"
       fill="#171717"
       id="path2810" />
    <path
       d="m 172.5,840 -0.12,-0.2 -0.11,0.2 z"
       fill="#171717"
       id="path2812" />
    <path
       d="m 192.48,805.66 16.29,27.64 a 108.72,108.72 0 0 0 10.17,-4.3 l 13.75,-23.34 -20.1,-34.12 z"
       fill="#171717"
       id="path2814" />
    <path
       d="m 99.14,813.24 c 1.86,1.61 3.78,3.13 5.75,4.61 l 7.18,-12.19 -6.54,-11.11 a 107.48,107.48 0 0 0 -6.39,18.69 z"
       fill="#171717"
       id="path2816" />
    <path
       d="m 163.74,756.87 8.64,14.67 8.8,-14.93 a 153.89,153.89 0 0 0 -17.44,0.26 z"
       fill="#171717"
       id="path2818" />
    <polygon
       points="192.48,805.66 172.38,771.54 152.28,805.66 172.38,839.77 "
       fill="#171717"
       id="polygon2820" />
    <path
       d="m 112.07,805.66 14.79,25.09 q 4.23,1.86 8.65,3.36 l 16.77,-28.45 -20.11,-34.12 z"
       fill="#171717"
       id="path2822" />
    <path
       d="M 239,816.39 232.67,805.66 218.94,829 A 109.92,109.92 0 0 0 239,816.39 Z"
       fill="#fbae17"
       id="path2824" />
    <path
       d="m 172.5,840 a 109.54,109.54 0 0 0 36.27,-6.67 l -16.29,-27.64 -20.1,34.11 z"
       fill="#fbae17"
       id="path2826" />
    <path
       d="M 135.51,834.11 A 109.4,109.4 0 0 0 171,840 h 1.27 l 0.11,-0.2 -20.1,-34.11 z"
       fill="#fbae17"
       id="path2828" />
    <path
       d="m 126.86,830.75 -14.79,-25.09 -7.18,12.19 a 109.93,109.93 0 0 0 21.97,12.9 z"
       fill="#fbae17"
       id="path2830" />
    <path
       d="m 221.6,768 a 21.66,21.66 0 0 0 -4.82,-3.58 l -4.19,7.12 20.1,34.12 5.7,-9.68 C 233.65,784.22 227.19,773.72 221.6,768 Z"
       fill="#fbae17"
       id="path2832" />
    <path
       d="m 181.18,756.61 -8.8,14.93 20.1,34.12 20.11,-34.12 -6.71,-11.38 a 114,114 0 0 0 -24.7,-3.55 z"
       fill="#fbae17"
       id="path2834" />
    <path
       d="m 163.74,756.87 a 111.91,111.91 0 0 0 -25.62,4.59 l -6,10.08 20.11,34.12 20.1,-34.12 z"
       fill="#fbae17"
       id="path2836" />
    <path
       d="m 127.6,766 c -8.79,5.19 -16.55,16.18 -22.07,28.55 l 6.54,11.11 20.1,-34.12 -3.58,-6.08 c -0.33,0.18 -0.67,0.35 -0.99,0.54 z"
       fill="#fbae17"
       id="path2838" />
    <path
       d="m 210.14,690.83 a 28.27,28.27 0 0 1 1.71,-13.18 18.05,18.05 0 0 1 8.86,-9.65 15.13,15.13 0 0 1 15.83,25.5 c -5.13,4.16 -12.25,4.52 -18.85,4.69 z"
       fill="#171717"
       id="path2840" />
    <path
       d="m 131.86,692.83 a 28.27,28.27 0 0 0 -1.71,-13.18 18.05,18.05 0 0 0 -8.86,-9.65 15.13,15.13 0 0 0 -15.83,25.5 c 5.13,4.16 12.25,4.52 18.85,4.69 z"
       fill="#171717"
       id="path2842" />
    <path
       d="m 236,721.63 c 0,29.25 -1,55 -65,55 -60,0 -65,-25.72 -65,-55 0,-29.28 29.1,-53 65,-53 35.9,0 65,23.75 65,53 z"
       fill="#fdffe9"
       id="path2844" />
    <path
       d="m 158.14,704.48 c 2.82,3.88 3,9.3 1.14,13.72 a 22.44,22.44 0 0 1 -9.7,10.3 31.48,31.48 0 0 1 -17.83,4.07 c -4.43,-0.32 -9.26,-2 -11.29,-5.92 a 10.87,10.87 0 0 1 0.17,-9.27 26.77,26.77 0 0 1 5.75,-7.61 c 4.32,-4.35 9.23,-8.43 15.14,-10 5.91,-1.57 13.01,-0.25 16.62,4.71 z"
       fill="#766e7a"
       id="path2846" />
    <path
       d="m 183.86,704.48 c -2.82,3.88 -3,9.3 -1.14,13.72 a 22.44,22.44 0 0 0 9.7,10.3 31.48,31.48 0 0 0 17.83,4.07 c 4.43,-0.32 9.26,-2 11.29,-5.92 a 10.87,10.87 0 0 0 -0.17,-9.27 26.77,26.77 0 0 0 -5.75,-7.61 c -4.32,-4.35 -9.23,-8.43 -15.14,-10 -5.91,-1.57 -13.01,-0.25 -16.62,4.71 z"
       fill="#766e7a"
       id="path2848" />
    <path
       d="m 219.06,739.2 a 16.68,16.68 0 0 0 -13.13,-0.12 c -2.11,0.89 -4.22,2.55 -4.38,4.84 a 4.87,4.87 0 0 0 1.79,3.88 9.3,9.3 0 0 0 4,1.88 18.06,18.06 0 0 0 11.4,-0.92 c 2.2,-1 4.45,-2.8 4.28,-5.19 -0.18,-2.06 -2.08,-3.57 -3.96,-4.37 z"
       fill="#f399c0"
       id="path2850" />
    <path
       d="m 136.52,739.2 a 16.68,16.68 0 0 0 -13.13,-0.12 c -2.11,0.89 -4.22,2.55 -4.38,4.84 a 4.89,4.89 0 0 0 1.78,3.88 9.41,9.41 0 0 0 4,1.88 18.09,18.09 0 0 0 11.41,-0.92 c 2.2,-1 4.45,-2.8 4.28,-5.19 -0.18,-2.06 -2.08,-3.57 -3.96,-4.37 z"
       fill="#f399c0"
       id="path2852" />
    <path
       d="m 192.46,715.77 c -0.53,0.51 0.55,0.72 0.55,0.72 6.71,-2.63 11.29,1.27 17.3,4.63 -1.01,-5.21 -11.63,-11.18 -17.85,-5.35 z"
       fill="#171717"
       id="path2854" />
    <path
       d="m 149.52,715.82 c -6.18,-5.86 -16.81,0 -17.85,5.25 6,-3.32 10.61,-7.2 17.3,-4.54 0.03,0 1.08,-0.2 0.55,-0.71 z"
       fill="#171717"
       id="path2856" />
    <path
       d="m 179.23,735.71 a 4,4 0 0 0 -2.74,-1.52 6.48,6.48 0 0 0 -0.77,-0.07 h -2.11 l -6.15,0.09 h -1.27 a 4.83,4.83 0 0 0 -1.15,0.16 3.9,3.9 0 0 0 -2.32,1.53 2.67,2.67 0 0 0 0.14,3.24 l 4.87,6.08 a 3.16,3.16 0 0 0 0.62,0.59 3.37,3.37 0 0 0 0.61,0.36 l 0.16,0.1 a 5.2,5.2 0 0 0 1.78,0.39 h 0.24 a 4.29,4.29 0 0 0 3.38,-1.56 l 1.42,-1.89 v 0 l 3.25,-4.33 a 2.66,2.66 0 0 0 0.04,-3.17 z"
       fill="#171717"
       id="path2858" />
    <path
       d="m 181,757.57 a 10.7,10.7 0 0 1 -1.85,-0.14 c -4.41,-0.76 -9.12,-4.72 -9,-11.63 a 0.78,0.78 0 0 1 0.75,-0.73 0.75,0.75 0 0 1 0.74,0.75 c -0.08,6 4,9.49 7.79,10.14 a 7,7 0 0 0 8.17,-4.86 0.7447315,0.7447315 0 0 1 1.41,0.48 8.37,8.37 0 0 1 -8.01,5.99 z"
       fill="#171717"
       id="path2860" />
    <path
       d="m 161.21,757.88 a 8.39,8.39 0 0 1 -8.16,-5.75 0.7420411,0.7420411 0 0 1 1.39,-0.52 7.05,7.05 0 0 0 8.32,4.61 c 3.78,-0.77 7.74,-4.35 7.48,-10.38 a 0.74,0.74 0 0 1 0.71,-0.77 0.72,0.72 0 0 1 0.77,0.71 c 0.3,6.9 -4.28,11 -8.67,11.89 a 9.89,9.89 0 0 1 -1.84,0.21 z"
       fill="#171717"
       id="path2862" />
    <path
       d="M 171,840.5 A 110.5,110.5 0 1 1 281.5,730 110.63,110.63 0 0 1 171,840.5 Z m 0,-220 A 109.5,109.5 0 1 0 280.5,730 109.62,109.62 0 0 0 171,620.5 Z"
       fill="#ffffff"
       id="path2864" />
  </g>
</svg>
