<?xml version="1.0" encoding="UTF-8" standalone="no"?>
<svg
   xmlns:dc="http://purl.org/dc/elements/1.1/"
   xmlns:cc="http://creativecommons.org/ns#"
   xmlns:rdf="http://www.w3.org/1999/02/22-rdf-syntax-ns#"
   xmlns:svg="http://www.w3.org/2000/svg"
   xmlns="http://www.w3.org/2000/svg"
   xmlns:sodipodi="http://sodipodi.sourceforge.net/DTD/sodipodi-0.dtd"
   xmlns:inkscape="http://www.inkscape.org/namespaces/inkscape"
   id="cute_critters"
   data-name="cute critters"
   viewBox="0 0 220 220"
   version="1.1"
   sodipodi:docname="yak.svg"
   width="220"
   height="220"
   inkscape:version="1.0.2 (e86c870879, 2021-01-15, custom)">
  <metadata
     id="metadata4718">
    <rdf:RDF>
      <cc:Work
         rdf:about="">
        <dc:format>image/svg+xml</dc:format>
        <dc:type
           rdf:resource="http://purl.org/dc/dcmitype/StillImage" />
      </cc:Work>
    </rdf:RDF>
  </metadata>
  <defs
     id="defs4716" />
  <sodipodi:namedview
     pagecolor="#ffffff"
     bordercolor="#666666"
     borderopacity="1"
     objecttolerance="10"
     gridtolerance="10"
     guidetolerance="10"
     inkscape:pageopacity="0"
     inkscape:pageshadow="2"
     inkscape:window-width="855"
     inkscape:window-height="480"
     id="namedview4714"
     showgrid="false"
     inkscape:zoom="0.88888889"
     inkscape:cx="109"
     inkscape:cy="-170"
     inkscape:window-x="0"
     inkscape:window-y="0"
     inkscape:window-maximized="0"
     inkscape:current-layer="cute_critters" />
  <g
     id="yak"
     transform="translate(-341,-620)">
    <circle
       cx="451"
       cy="730"
       r="110"
       fill="#ffbd17"
       id="circle4456" />
    <path
       d="m 423,836.37 c 0,-0.11 0,-0.21 0,-0.31 a 13.64,13.64 0 0 1 -1.57,-0.1 z"
       fill="#c6bcb6"
       id="path4458" />
    <path
       d="m 416.94,834.61 a 14.59,14.59 0 0 1 -7.94,-13.09 14.79,14.79 0 0 1 -2.93,8.87 107.22,107.22 0 0 0 10.87,4.22 z"
       fill="#c6bcb6"
       id="path4460" />
    <path
       d="m 437,821.52 a 14.28,14.28 0 0 1 -14,14.54 c 0,0.1 0,0.21 0,0.32 a 110.33,110.33 0 0 0 27.47,3.62 15,15 0 0 0 0.53,-3.93 14.28,14.28 0 0 1 -14,-14.55 z"
       fill="#c6bcb6"
       id="path4462" />
    <path
       d="m 451,836.06 a 15,15 0 0 0 0.53,3.93 110.33,110.33 0 0 0 27.47,-3.61 c 0,-0.11 0,-0.22 0,-0.32 a 14.28,14.28 0 0 1 -14,-14.54 14.28,14.28 0 0 1 -14,14.54 z"
       fill="#c6bcb6"
       id="path4464" />
    <path
       d="m 485.06,834.61 a 109.58,109.58 0 0 0 10.87,-4.21 14.85,14.85 0 0 1 -2.93,-8.88 14.59,14.59 0 0 1 -7.94,13.09 z"
       fill="#c6bcb6"
       id="path4466" />
    <path
       d="m 480.59,836 a 13.85,13.85 0 0 1 -1.59,0.1 c 0,0.1 0,0.2 0,0.31 z"
       fill="#c6bcb6"
       id="path4468" />
    <path
       d="m 387.1,819.51 0.45,0.31 A 14.6,14.6 0 0 0 395,807 a 13.53,13.53 0 0 1 -4.64,-0.84 c -1.28,4.52 -2.36,9.01 -3.26,13.35 z"
       fill="#c6bcb6"
       id="path4470" />
    <path
       d="m 409,792.43 a 14.28,14.28 0 0 1 -14,14.57 14,14 0 1 0 28,0 14.28,14.28 0 0 1 -14,-14.57 z"
       fill="#c6bcb6"
       id="path4472" />
    <path
       d="m 451,807 a 14.28,14.28 0 0 1 -14,-14.55 14.28,14.28 0 0 1 -14,14.55 14,14 0 1 0 28,0 z"
       fill="#c6bcb6"
       id="path4474" />
    <path
       d="m 465,792.43 a 14.28,14.28 0 0 1 -14,14.57 14,14 0 1 0 28,0 14.28,14.28 0 0 1 -14,-14.57 z"
       fill="#c6bcb6"
       id="path4476" />
    <path
       d="m 493,792.43 a 14.28,14.28 0 0 1 -14,14.57 14,14 0 1 0 28,0 14.28,14.28 0 0 1 -14,-14.57 z"
       fill="#c6bcb6"
       id="path4478" />
    <path
       d="M 511.26,806.29 A 13.72,13.72 0 0 1 507,807 a 14.6,14.6 0 0 0 7.45,12.84 l 0.22,-0.15 c -0.92,-4.37 -2.09,-8.86 -3.41,-13.4 z"
       fill="#c6bcb6"
       id="path4480" />
    <path
       d="m 423,777.89 a 14.28,14.28 0 0 1 -14,-14.53 14.55,14.55 0 0 1 -8.66,13.43 c -1.1,2.83 -2.2,5.73 -3.27,8.69 a 13.87,13.87 0 0 0 11.93,6.95 14.27,14.27 0 0 0 14,-14.54 z"
       fill="#c6bcb6"
       id="path4482" />
    <path
       d="m 451,777.89 a 14.28,14.28 0 0 1 -14,-14.53 14.28,14.28 0 0 1 -14,14.53 14,14 0 1 0 28,0 z"
       fill="#c6bcb6"
       id="path4484" />
    <path
       d="m 465,763.36 a 14.28,14.28 0 0 1 -14,14.53 14,14 0 1 0 28,0 14.28,14.28 0 0 1 -14,-14.53 z"
       fill="#c6bcb6"
       id="path4486" />
    <path
       d="m 479,777.89 a 14.27,14.27 0 0 0 14,14.54 13.82,13.82 0 0 0 11.52,-6.29 c -1.24,-3.34 -2.51,-6.62 -3.78,-9.79 a 14.6,14.6 0 0 1 -7.74,-13 14.28,14.28 0 0 1 -14,14.54 z"
       fill="#c6bcb6"
       id="path4488" />
    <path
       d="m 423,748.81 a 13.63,13.63 0 0 1 -9.12,-3.52 c -2,4.15 -4.79,10.33 -7.93,17.71 a 13.4,13.4 0 0 0 3.05,0.36 c 7.73,0 14,-6.52 14,-14.55 z"
       fill="#c6bcb6"
       id="path4490" />
    <path
       d="m 437,763.36 c 7.73,0 14,-6.52 14,-14.55 a 14,14 0 0 1 -13,-9.1 h -2 a 14,14 0 0 1 -13,9.11 c 0,8.02 6.27,14.54 14,14.54 z"
       fill="#c6bcb6"
       id="path4492" />
    <path
       d="m 465,763.36 c 7.73,0 14,-6.52 14,-14.55 a 14,14 0 0 1 -12.92,-8.92 h -2.16 A 14,14 0 0 1 451,748.81 c 0,8.03 6.27,14.55 14,14.55 z"
       fill="#c6bcb6"
       id="path4494" />
    <path
       d="m 493,763.36 a 12.47,12.47 0 0 0 2.22,-0.21 c -3.1,-7.12 -5.9,-13.12 -7.87,-17.22 a 13.62,13.62 0 0 1 -8.35,2.88 c 0,8.03 6.27,14.55 14,14.55 z"
       fill="#c6bcb6"
       id="path4496" />
    <path
       d="m 423,836.38 c 0,-0.11 0,-0.22 0,-0.32 0,0.1 0,0.2 0,0.31 z"
       fill="#fdffe9"
       id="path4498" />
    <path
       d="m 451,840 h 0.53 A 15,15 0 0 1 451,836.07 15,15 0 0 1 450.47,840 Z"
       fill="#fdffe9"
       id="path4500" />
    <path
       d="m 479,836.37 c 0,-0.11 0,-0.21 0,-0.31 0,0.1 0,0.21 0,0.32 z"
       fill="#fdffe9"
       id="path4502" />
    <path
       d="m 395,807 a 14.6,14.6 0 0 1 -7.45,12.84 110.55,110.55 0 0 0 18.52,10.57 A 14.79,14.79 0 0 0 409,821.54 14.28,14.28 0 0 1 395,807 Z"
       fill="#fdffe9"
       id="path4504" />
    <path
       d="m 423,807 a 14.28,14.28 0 0 1 -14,14.54 14.59,14.59 0 0 0 7.94,13.09 c 1.48,0.48 3,0.93 4.49,1.35 a 13.64,13.64 0 0 0 1.57,0.1 14.28,14.28 0 0 0 14,-14.54 A 14.28,14.28 0 0 1 423,807 Z"
       fill="#fdffe9"
       id="path4506" />
    <path
       d="m 451,807 a 14.28,14.28 0 0 1 -14,14.54 14,14 0 1 0 28,0 A 14.28,14.28 0 0 1 451,807 Z"
       fill="#fdffe9"
       id="path4508" />
    <path
       d="m 479,807 a 14.28,14.28 0 0 1 -14,14.54 14.28,14.28 0 0 0 14,14.54 13.85,13.85 0 0 0 1.59,-0.1 q 2.25,-0.63 4.47,-1.35 A 14.59,14.59 0 0 0 493,821.52 14.28,14.28 0 0 1 479,807 Z"
       fill="#fdffe9"
       id="path4510" />
    <path
       d="m 507,807 a 14.28,14.28 0 0 1 -14,14.54 14.85,14.85 0 0 0 2.93,8.88 110.6,110.6 0 0 0 18.52,-10.58 A 14.6,14.6 0 0 1 507,807 Z"
       fill="#fdffe9"
       id="path4512" />
    <path
       d="m 409,792.43 a 13.87,13.87 0 0 1 -11.93,-6.95 c -2.45,6.76 -4.77,13.77 -6.71,20.66 A 13.53,13.53 0 0 0 395,807 14.28,14.28 0 0 0 409,792.43 Z"
       fill="#fdffe9"
       id="path4514" />
    <path
       d="m 423,807 a 14.28,14.28 0 0 0 14,-14.55 14.27,14.27 0 0 1 -14,-14.54 14.27,14.27 0 0 1 -14,14.54 14.28,14.28 0 0 0 14,14.55 z"
       fill="#fdffe9"
       id="path4516" />
    <path
       d="m 451,777.89 a 14.27,14.27 0 0 1 -14,14.54 14,14 0 1 0 28,0 14.27,14.27 0 0 1 -14,-14.54 z"
       fill="#fdffe9"
       id="path4518" />
    <path
       d="m 465,792.43 a 14,14 0 1 0 28,0 14.27,14.27 0 0 1 -14,-14.54 14.27,14.27 0 0 1 -14,14.54 z"
       fill="#fdffe9"
       id="path4520" />
    <path
       d="m 507,807 a 13.72,13.72 0 0 0 4.26,-0.69 c -2,-6.73 -4.29,-13.56 -6.74,-20.15 A 13.82,13.82 0 0 1 493,792.43 14.28,14.28 0 0 0 507,807 Z"
       fill="#fdffe9"
       id="path4522" />
    <path
       d="M 400.34,776.79 A 14.55,14.55 0 0 0 409,763.36 13.4,13.4 0 0 1 406,763 c -1.85,4.25 -3.76,8.9 -5.66,13.79 z"
       fill="#fdffe9"
       id="path4524" />
    <path
       d="m 437,763.36 c -7.73,0 -14,-6.52 -14,-14.55 0,8 -6.27,14.55 -14,14.55 a 14,14 0 1 0 28,0 z"
       fill="#fdffe9"
       id="path4526" />
    <path
       d="m 451,777.89 a 14.28,14.28 0 0 0 14,-14.53 c -7.73,0 -14,-6.52 -14,-14.55 0,8 -6.27,14.55 -14,14.55 a 14.28,14.28 0 0 0 14,14.53 z"
       fill="#fdffe9"
       id="path4528" />
    <path
       d="m 479,777.89 a 14.28,14.28 0 0 0 14,-14.53 c -7.73,0 -14,-6.52 -14,-14.55 0,8 -6.27,14.55 -14,14.55 a 14.28,14.28 0 0 0 14,14.53 z"
       fill="#fdffe9"
       id="path4530" />
    <path
       d="m 500.74,776.35 c -1.87,-4.68 -3.74,-9.12 -5.52,-13.2 a 12.47,12.47 0 0 1 -2.22,0.21 14.6,14.6 0 0 0 7.74,12.99 z"
       fill="#fdffe9"
       id="path4532" />
    <path
       d="m 436,739.7 -19.35,-0.12 c 0,0 -1.05,2.09 -2.75,5.71 a 13.63,13.63 0 0 0 9.12,3.52 14,14 0 0 0 12.98,-9.11 z"
       fill="#fdffe9"
       id="path4534" />
    <path
       d="m 463.92,739.87 -25.9,-0.16 a 13.81,13.81 0 0 0 25.9,0.16 z"
       fill="#fdffe9"
       id="path4536" />
    <path
       d="m 484.44,740 -18.36,-0.11 a 14,14 0 0 0 12.92,8.92 13.62,13.62 0 0 0 8.35,-2.88 c -1.8,-3.76 -2.91,-5.93 -2.91,-5.93 z"
       fill="#fdffe9"
       id="path4538" />
    <path
       d="m 417.18,697.27 c -9.44,-0.3 -19.36,-1.27 -28.21,1.64 -8.85,2.91 -18.08,7.36 -22.76,15.58 -1.16,2 -2,4.62 -0.81,6.62 1,1.71 3.2,2.31 5.17,2.64 a 46.21,46.21 0 0 0 43.72,-17.64 z"
       fill="#6b4241"
       id="path4540" />
    <path
       d="m 377.58,724.33 a 39.33,39.33 0 0 1 -6.35,-0.52 c -2,-0.34 -2.38,-0.74 -2.41,-0.78 a 4.63,4.63 0 0 1 0.87,-2.56 c 3.35,-5.88 9.35,-8.74 20.52,-9.76 7.79,-0.71 20.48,-2.48 20.48,-2.48 a 42.38,42.38 0 0 1 -33.1,16.1 z"
       fill="#855351"
       id="path4542" />
    <path
       d="m 484.82,697.27 c 9.44,-0.3 19.36,-1.27 28.21,1.64 8.85,2.91 18.08,7.36 22.76,15.58 1.16,2 2,4.62 0.81,6.62 -1,1.71 -3.2,2.31 -5.17,2.64 a 46.21,46.21 0 0 1 -43.72,-17.64 z"
       fill="#6b4241"
       id="path4544" />
    <path
       d="m 524.42,724.33 a 39.33,39.33 0 0 0 6.35,-0.52 c 2,-0.34 2.38,-0.74 2.41,-0.78 a 4.63,4.63 0 0 0 -0.87,-2.56 c -3.35,-5.88 -9.35,-8.74 -20.52,-9.76 -7.79,-0.71 -20.48,-2.48 -20.48,-2.48 a 42.38,42.38 0 0 0 33.1,16.1 z"
       fill="#855351"
       id="path4546" />
    <path
       d="M 448.67,788.87 C 501,790 527,668 449.24,669.37 373,670.72 399,790 448.67,788.87 Z"
       fill="#6b4241"
       id="path4548" />
    <path
       d="m 435.58,705.62 a 0.37,0.37 0 0 1 -0.31,-0.17 20.81,20.81 0 0 1 -1.61,-3.33 c -0.27,-0.64 -0.54,-1.3 -0.84,-1.93 a 0.35,0.35 0 0 1 0.17,-0.48 0.36,0.36 0 0 1 0.49,0.16 c 0.31,0.65 0.59,1.32 0.86,2 a 20.29,20.29 0 0 0 1.55,3.22 0.37,0.37 0 0 1 -0.31,0.56 z"
       fill="#945c5a"
       id="path4550" />
    <path
       d="m 439.49,704.89 a 0.36,0.36 0 0 1 -0.35,-0.27 c -0.1,-0.4 -0.19,-0.8 -0.29,-1.2 a 30.42,30.42 0 0 0 -1.16,-4.1 0.37,0.37 0 0 1 0.69,-0.26 32.83,32.83 0 0 1 1.19,4.2 c 0.09,0.39 0.18,0.79 0.28,1.18 a 0.35,0.35 0 0 1 -0.27,0.44 z"
       fill="#945c5a"
       id="path4552" />
    <path
       d="m 443.4,704.66 a 0.37,0.37 0 0 1 -0.36,-0.32 c -0.07,-0.54 -0.1,-1.11 -0.14,-1.7 a 11.48,11.48 0 0 0 -0.56,-3.55 0.36,0.36 0 0 1 0.2,-0.47 0.37,0.37 0 0 1 0.48,0.2 12,12 0 0 1 0.61,3.78 c 0,0.57 0.07,1.13 0.13,1.65 a 0.36,0.36 0 0 1 -0.31,0.41 z"
       fill="#945c5a"
       id="path4554" />
    <path
       d="m 448.65,704.06 a 0.36,0.36 0 0 1 -0.35,-0.27 18,18 0 0 1 -0.49,-3.43 22.71,22.71 0 0 0 -0.24,-2.3 0.36,0.36 0 0 1 0.3,-0.42 0.35,0.35 0 0 1 0.42,0.29 c 0.14,0.8 0.2,1.61 0.26,2.38 a 16.41,16.41 0 0 0 0.46,3.29 0.37,0.37 0 0 1 -0.26,0.45 z"
       fill="#945c5a"
       id="path4556" />
    <path
       d="m 453.29,703.91 v 0 a 0.33,0.33 0 0 1 -0.35,-0.34 c 0.08,-1.76 0.16,-3.5 0.13,-5.2 a 0.37,0.37 0 0 1 0.36,-0.37 v 0 a 0.36,0.36 0 0 1 0.36,0.36 c 0,1.72 -0.05,3.47 -0.12,5.16 a 0.42,0.42 0 0 1 -0.38,0.39 z"
       fill="#945c5a"
       id="path4558" />
    <path
       d="m 458.79,704 h -0.06 a 0.36,0.36 0 0 1 -0.3,-0.42 c 0.07,-0.38 0.14,-0.77 0.22,-1.16 a 14,14 0 0 0 0.4,-4.07 0.37,0.37 0 1 1 0.73,-0.08 15,15 0 0 1 -0.41,4.29 c -0.08,0.39 -0.15,0.77 -0.22,1.14 a 0.37,0.37 0 0 1 -0.36,0.3 z"
       fill="#945c5a"
       id="path4560" />
    <path
       d="m 464.83,705.88 h -0.05 a 0.37,0.37 0 0 1 -0.31,-0.41 c 0.12,-0.71 0.31,-1.46 0.49,-2.17 a 15,15 0 0 0 0.62,-3.83 0.35,0.35 0 0 1 0.35,-0.37 0.35,0.35 0 0 1 0.38,0.35 15.18,15.18 0 0 1 -0.64,4 c -0.19,0.74 -0.36,1.43 -0.47,2.11 a 0.38,0.38 0 0 1 -0.37,0.32 z"
       fill="#945c5a"
       id="path4562" />
    <path
       d="m 470.64,705.19 a 0.28,0.28 0 0 1 -0.13,0 0.35,0.35 0 0 1 -0.21,-0.47 c 0.13,-0.32 0.25,-0.66 0.37,-1 a 17.6,17.6 0 0 1 1.5,-3.31 0.37,0.37 0 0 1 0.5,-0.12 0.36,0.36 0 0 1 0.12,0.5 16.88,16.88 0 0 0 -1.43,3.18 c -0.13,0.34 -0.25,0.68 -0.38,1 a 0.38,0.38 0 0 1 -0.34,0.22 z"
       fill="#945c5a"
       id="path4564" />
    <path
       d="m 435.59,699.07 a 0.38,0.38 0 0 1 -0.31,-0.18 l -0.36,-0.62 a 14.78,14.78 0 0 0 -1.31,-2 0.36235342,0.36235342 0 1 1 0.56,-0.46 13.91,13.91 0 0 1 1.38,2.11 l 0.36,0.61 a 0.36,0.36 0 0 1 -0.13,0.5 0.41,0.41 0 0 1 -0.19,0.04 z"
       fill="#945c5a"
       id="path4566" />
    <path
       d="m 440.72,698.35 a 0.36,0.36 0 0 1 -0.34,-0.25 9.55,9.55 0 0 1 -0.63,-3.16 0.37,0.37 0 0 1 0.74,0 8.92,8.92 0 0 0 0.58,2.91 0.36,0.36 0 0 1 -0.23,0.46 z"
       fill="#945c5a"
       id="path4568" />
    <path
       d="M 445.37,697.75 A 0.37,0.37 0 0 1 445,697.4 v -0.54 a 7.27,7.27 0 0 0 -0.65,-3.42 0.34,0.34 0 0 1 0.13,-0.49 0.36,0.36 0 0 1 0.5,0.12 7.83,7.83 0 0 1 0.75,3.76 v 0.54 a 0.36,0.36 0 0 1 -0.35,0.38 z"
       fill="#945c5a"
       id="path4570" />
    <path
       d="m 451.47,698 a 0.36,0.36 0 0 1 -0.36,-0.36 16.13,16.13 0 0 0 -0.48,-3.44 0.37,0.37 0 0 1 0.28,-0.44 0.36,0.36 0 0 1 0.44,0.28 17.38,17.38 0 0 1 0.49,3.6 0.36,0.36 0 0 1 -0.37,0.36 z"
       fill="#945c5a"
       id="path4572" />
    <path
       d="m 457.09,697.16 a 0.36,0.36 0 0 1 -0.36,-0.36 v -0.6 c 0,-1 0,-1.93 -0.11,-3 a 0.37,0.37 0 0 1 0.34,-0.39 0.35,0.35 0 0 1 0.39,0.34 c 0.08,1.11 0.1,2.1 0.11,3.06 v 0.6 a 0.37,0.37 0 0 1 -0.36,0.37 z"
       fill="#945c5a"
       id="path4574" />
    <path
       d="m 462.71,698.87 h -0.06 a 0.35,0.35 0 0 1 -0.3,-0.41 c 0.07,-0.45 0.16,-0.9 0.26,-1.35 a 11.68,11.68 0 0 0 0.35,-2.59 0.37,0.37 0 0 1 0.36,-0.37 v 0 a 0.36,0.36 0 0 1 0.36,0.35 11.68,11.68 0 0 1 -0.37,2.76 c -0.09,0.44 -0.18,0.88 -0.25,1.31 a 0.37,0.37 0 0 1 -0.35,0.3 z"
       fill="#945c5a"
       id="path4576" />
    <path
       d="m 469,699 a 0.36,0.36 0 0 1 -0.36,-0.36 8,8 0 0 1 0.2,-1.79 7.18,7.18 0 0 0 0.16,-1.85 0.38,0.38 0 0 1 0.34,-0.4 0.36,0.36 0 0 1 0.39,0.34 7.46,7.46 0 0 1 -0.18,2 7.81,7.81 0 0 0 -0.19,1.65 0.37,0.37 0 0 1 -0.36,0.37 z"
       fill="#945c5a"
       id="path4578" />
    <path
       d="m 475.16,702.41 h -0.06 a 0.36,0.36 0 0 1 -0.3,-0.42 9.42,9.42 0 0 1 1.08,-2.67 c 0.15,-0.28 0.29,-0.55 0.42,-0.82 a 0.37,0.37 0 0 1 0.49,-0.17 0.36,0.36 0 0 1 0.17,0.48 c -0.13,0.28 -0.28,0.56 -0.43,0.85 a 8.65,8.65 0 0 0 -1,2.45 0.37,0.37 0 0 1 -0.37,0.3 z"
       fill="#945c5a"
       id="path4580" />
    <path
       d="M 431.31,701.12 A 0.37,0.37 0 0 1 431,701 c -0.24,-0.39 -0.45,-0.81 -0.67,-1.23 a 9.94,9.94 0 0 0 -1.24,-2 0.36,0.36 0 0 1 0,-0.51 0.37,0.37 0 0 1 0.52,0 10.5,10.5 0 0 1 1.34,2.15 c 0.21,0.4 0.42,0.81 0.65,1.18 a 0.37,0.37 0 0 1 -0.12,0.5 0.46,0.46 0 0 1 -0.17,0.03 z"
       fill="#945c5a"
       id="path4582" />
    <path
       d="m 434.72,711 a 0.35,0.35 0 0 1 -0.35,-0.26 c -0.08,-0.27 -0.14,-0.57 -0.2,-0.86 a 3.43,3.43 0 0 0 -0.69,-1.78 0.37,0.37 0 0 1 0,-0.52 0.35,0.35 0 0 1 0.51,0 4.11,4.11 0 0 1 0.88,2.14 c 0.05,0.27 0.11,0.54 0.18,0.8 a 0.36,0.36 0 0 1 -0.25,0.45 z"
       fill="#945c5a"
       id="path4584" />
    <path
       d="m 440,711.75 a 0.37,0.37 0 0 1 -0.37,-0.36 5.06,5.06 0 0 0 -0.53,-2.71 0.35,0.35 0 0 1 0.09,-0.5 0.37,0.37 0 0 1 0.51,0.08 5.57,5.57 0 0 1 0.67,3.12 0.37,0.37 0 0 1 -0.36,0.37 z"
       fill="#945c5a"
       id="path4586" />
    <path
       d="m 443.63,713.39 a 0.37,0.37 0 0 1 -0.36,-0.3 c -0.12,-0.76 -0.29,-1.51 -0.45,-2.27 -0.16,-0.76 -0.39,-1.8 -0.52,-2.72 a 0.37,0.37 0 0 1 0.31,-0.41 0.37,0.37 0 0 1 0.42,0.31 c 0.12,0.89 0.32,1.8 0.51,2.67 0.19,0.87 0.33,1.53 0.45,2.3 a 0.36,0.36 0 0 1 -0.3,0.42 z"
       fill="#945c5a"
       id="path4588" />
    <path
       d="m 442.28,719.82 a 0.38,0.38 0 0 1 -0.36,-0.28 9.5,9.5 0 0 0 -1.51,-3.62 0.36,0.36 0 0 1 0.06,-0.51 0.37,0.37 0 0 1 0.52,0.06 10.19,10.19 0 0 1 1.64,3.9 0.36,0.36 0 0 1 -0.27,0.44 z"
       fill="#945c5a"
       id="path4590" />
    <path
       d="m 447.18,711.58 a 0.37,0.37 0 0 1 -0.37,-0.33 l -0.06,-0.78 a 11.46,11.46 0 0 0 -0.52,-3.13 0.37,0.37 0 1 1 0.69,-0.25 11.92,11.92 0 0 1 0.56,3.33 l 0.06,0.76 a 0.37,0.37 0 0 1 -0.33,0.4 z"
       fill="#945c5a"
       id="path4592" />
    <path
       d="m 446.55,720.43 a 0.36,0.36 0 0 1 -0.33,-0.22 14.91,14.91 0 0 1 -0.84,-2.84 v -0.13 a 0.37,0.37 0 0 1 0.28,-0.44 0.37,0.37 0 0 1 0.44,0.28 v 0.13 a 15.14,15.14 0 0 0 0.8,2.71 0.37,0.37 0 0 1 -0.19,0.48 z"
       fill="#945c5a"
       id="path4594" />
    <path
       d="m 450.23,713.16 a 0.37,0.37 0 0 1 -0.37,-0.33 c -0.16,-1.9 -0.33,-3.8 -0.48,-5.71 a 0.37,0.37 0 0 1 0.34,-0.39 0.35,0.35 0 0 1 0.39,0.34 c 0.16,1.9 0.31,3.8 0.48,5.69 a 0.37,0.37 0 0 1 -0.33,0.4 z"
       fill="#945c5a"
       id="path4596" />
    <path
       d="m 450.22,718.62 a 0.37,0.37 0 0 1 -0.36,-0.32 l -0.09,-0.74 a 13.64,13.64 0 0 0 -0.62,-3.25 0.36,0.36 0 0 1 0.22,-0.46 0.37,0.37 0 0 1 0.47,0.22 14.36,14.36 0 0 1 0.66,3.41 l 0.08,0.73 a 0.37,0.37 0 0 1 -0.32,0.41 z"
       fill="#945c5a"
       id="path4598" />
    <path
       d="m 455,710.14 h -0.09 a 0.37,0.37 0 0 1 -0.27,-0.44 13.38,13.38 0 0 0 0.24,-3.23 v -0.57 a 0.37,0.37 0 0 1 0.73,0 v 0.56 a 13.42,13.42 0 0 1 -0.26,3.4 0.37,0.37 0 0 1 -0.35,0.28 z"
       fill="#945c5a"
       id="path4600" />
    <path
       d="m 454.74,718.63 a 0.38,0.38 0 0 1 -0.37,-0.37 v -5.09 a 0.37,0.37 0 1 1 0.73,0 v 5.09 a 0.38,0.38 0 0 1 -0.36,0.37 z"
       fill="#945c5a"
       id="path4602" />
    <path
       d="m 459.88,711.48 v 0 a 0.38,0.38 0 0 1 -0.37,-0.37 8.24,8.24 0 0 1 0.45,-2.29 6.86,6.86 0 0 0 0.42,-2.3 0.36,0.36 0 0 1 0.34,-0.38 0.38,0.38 0 0 1 0.39,0.35 7.33,7.33 0 0 1 -0.45,2.54 7.38,7.38 0 0 0 -0.41,2.08 0.38,0.38 0 0 1 -0.37,0.37 z"
       fill="#945c5a"
       id="path4604" />
    <path
       d="m 458.89,718.27 a 0.36,0.36 0 0 1 -0.36,-0.35 16.43,16.43 0 0 1 0.12,-2.53 c 0.06,-0.65 0.13,-1.33 0.13,-2 a 0.37,0.37 0 1 1 0.73,0 c 0,0.68 -0.07,1.37 -0.13,2 a 16.62,16.62 0 0 0 -0.12,2.43 0.37,0.37 0 0 1 -0.35,0.38 z"
       fill="#945c5a"
       id="path4606" />
    <path
       d="m 464,715.85 a 0.36,0.36 0 0 1 -0.36,-0.35 7.52,7.52 0 0 1 0.81,-3 12.07,12.07 0 0 0 0.55,-1.5 0.37,0.37 0 0 1 0.45,-0.26 0.36,0.36 0 0 1 0.26,0.45 13.48,13.48 0 0 1 -0.59,1.58 7.15,7.15 0 0 0 -0.75,2.68 0.36,0.36 0 0 1 -0.36,0.37 z"
       fill="#945c5a"
       id="path4608" />
    <path
       d="M 467.09,707.85 H 467 a 0.37,0.37 0 0 1 -0.26,-0.44 5.71,5.71 0 0 1 0.9,-1.75 c 0.17,-0.25 0.34,-0.51 0.48,-0.76 a 0.36472592,0.36472592 0 1 1 0.64,0.35 c -0.15,0.27 -0.33,0.54 -0.51,0.82 a 5,5 0 0 0 -0.8,1.51 0.36,0.36 0 0 1 -0.36,0.27 z"
       fill="#945c5a"
       id="path4610" />
    <path
       d="m 467.44,718.77 h -0.08 a 0.37,0.37 0 0 1 -0.28,-0.44 16.89,16.89 0 0 1 0.9,-2.59 c 0.12,-0.29 0.24,-0.57 0.34,-0.85 a 0.38,0.38 0 0 1 0.48,-0.21 0.36,0.36 0 0 1 0.21,0.47 c -0.11,0.29 -0.23,0.57 -0.35,0.86 a 16.57,16.57 0 0 0 -0.86,2.48 0.37,0.37 0 0 1 -0.36,0.28 z"
       fill="#945c5a"
       id="path4612" />
    <path
       d="m 468.92,712.22 a 0.37,0.37 0 0 1 -0.34,-0.5 16.46,16.46 0 0 1 1.62,-3.09 0.37,0.37 0 0 1 0.51,-0.11 0.36,0.36 0 0 1 0.1,0.51 15.66,15.66 0 0 0 -1.55,3 0.38,0.38 0 0 1 -0.34,0.19 z"
       fill="#945c5a"
       id="path4614" />
    <path
       d="m 463.4,725.55 v 0 a 0.36,0.36 0 0 1 -0.31,-0.41 c 0.22,-1.47 0.5,-2.94 0.77,-4.37 l 0.21,-1.1 a 0.35,0.35 0 0 1 0.43,-0.29 0.36,0.36 0 0 1 0.3,0.42 l -0.22,1.11 c -0.27,1.42 -0.54,2.88 -0.77,4.33 a 0.36,0.36 0 0 1 -0.41,0.31 z"
       fill="#945c5a"
       id="path4616" />
    <path
       d="m 460.84,724.58 h -0.06 a 0.36,0.36 0 0 1 -0.31,-0.41 23.62,23.62 0 0 0 0.37,-4.18 0.37,0.37 0 0 1 0.36,-0.37 0.36,0.36 0 0 1 0.38,0.35 24.93,24.93 0 0 1 -0.38,4.31 0.37,0.37 0 0 1 -0.36,0.3 z"
       fill="#945c5a"
       id="path4618" />
    <path
       d="m 445.56,728.68 a 0.37,0.37 0 0 1 -0.36,-0.32 c 0,-0.27 -0.06,-0.56 -0.08,-0.88 -0.09,-1.15 -0.2,-2.58 -0.91,-3.28 a 0.36,0.36 0 0 1 0,-0.51 0.37,0.37 0 0 1 0.52,0 c 0.9,0.89 1,2.47 1.12,3.73 0,0.31 0,0.59 0.08,0.85 a 0.36,0.36 0 0 1 -0.32,0.4 z"
       fill="#945c5a"
       id="path4620" />
    <path
       d="m 449.47,726.62 a 0.37,0.37 0 0 1 -0.36,-0.3 c -0.1,-0.63 -0.17,-1.26 -0.25,-1.9 -0.1,-0.81 -0.2,-1.65 -0.35,-2.46 a 0.36,0.36 0 0 1 0.29,-0.43 0.37,0.37 0 0 1 0.43,0.29 c 0.16,0.84 0.26,1.69 0.36,2.52 0.07,0.62 0.15,1.24 0.25,1.86 a 0.37,0.37 0 0 1 -0.31,0.42 z"
       fill="#945c5a"
       id="path4622" />
    <path
       d="m 452.65,726.38 a 0.37,0.37 0 0 1 -0.37,-0.36 v -5.46 a 0.37,0.37 0 0 1 0.37,-0.36 0.36,0.36 0 0 1 0.36,0.36 V 726 a 0.37,0.37 0 0 1 -0.36,0.38 z"
       fill="#945c5a"
       id="path4624" />
    <path
       d="m 456,725.78 v 0 a 0.37,0.37 0 0 1 -0.34,-0.39 c 0,-0.25 0.05,-0.52 0.08,-0.8 a 6.1,6.1 0 0 0 -0.16,-3.14 0.37,0.37 0 0 1 0.67,-0.31 6.68,6.68 0 0 1 0.22,3.53 c 0,0.27 -0.06,0.53 -0.07,0.78 a 0.37,0.37 0 0 1 -0.4,0.33 z"
       fill="#945c5a"
       id="path4626" />
    <path
       d="m 459.36,731.25 a 0.38,0.38 0 0 1 -0.37,-0.37 v -5.09 a 0.37,0.37 0 0 1 0.74,0 v 5.09 a 0.38,0.38 0 0 1 -0.37,0.37 z"
       fill="#945c5a"
       id="path4628" />
    <path
       d="m 462,733.07 v 0 a 0.36,0.36 0 0 1 -0.3,-0.42 c 0.07,-0.39 0.15,-0.78 0.23,-1.17 a 12.22,12.22 0 0 0 0.39,-3.11 0.37,0.37 0 0 1 0.73,0 13.43,13.43 0 0 1 -0.4,3.3 c -0.08,0.38 -0.16,0.77 -0.23,1.15 a 0.37,0.37 0 0 1 -0.42,0.25 z"
       fill="#945c5a"
       id="path4630" />
    <path
       d="m 449,735.6 a 0.37,0.37 0 0 1 -0.36,-0.32 c 0,-0.2 -0.05,-0.41 -0.07,-0.64 -0.12,-1.13 -0.26,-2.53 -1.11,-3.11 a 0.36335245,0.36335245 0 1 1 0.41,-0.6 c 1.14,0.77 1.3,2.36 1.43,3.64 0,0.22 0,0.42 0.06,0.62 a 0.35,0.35 0 0 1 -0.31,0.4 z"
       fill="#945c5a"
       id="path4632" />
    <path
       d="m 451.17,735.84 a 0.36,0.36 0 0 1 -0.37,-0.34 36.72,36.72 0 0 0 -0.47,-4.69 0.35,0.35 0 0 1 0.29,-0.42 0.37,0.37 0 0 1 0.43,0.29 36.7,36.7 0 0 1 0.48,4.78 0.36,0.36 0 0 1 -0.35,0.38 z"
       fill="#945c5a"
       id="path4634" />
    <path
       d="m 454,733.91 v 0 a 0.37,0.37 0 0 1 -0.33,-0.4 c 0,-0.22 0,-0.45 0.07,-0.7 a 6.9,6.9 0 0 0 -0.15,-3.47 0.36448594,0.36448594 0 0 1 0.65,-0.33 7.33,7.33 0 0 1 0.23,3.88 c 0,0.24 -0.05,0.47 -0.07,0.69 a 0.37,0.37 0 0 1 -0.4,0.33 z"
       fill="#945c5a"
       id="path4636" />
    <path
       d="m 456.3,737.06 a 0.36,0.36 0 0 1 -0.37,-0.36 V 732 a 0.37,0.37 0 1 1 0.73,0 v 4.73 a 0.36,0.36 0 0 1 -0.36,0.33 z"
       fill="#945c5a"
       id="path4638" />
    <path
       d="m 451.28,744.82 a 0.38,0.38 0 0 1 -0.36,-0.26 17.28,17.28 0 0 1 -0.73,-5 0.36,0.36 0 0 1 0.36,-0.36 v 0 a 0.36,0.36 0 0 1 0.37,0.36 16.2,16.2 0 0 0 0.71,4.75 0.36,0.36 0 0 1 -0.25,0.45 z"
       fill="#945c5a"
       id="path4640" />
    <path
       d="m 453,745.19 a 0.38,0.38 0 0 1 -0.37,-0.32 16.13,16.13 0 0 1 -0.07,-2.08 11.31,11.31 0 0 0 -0.16,-2.5 0.36,0.36 0 0 1 0.28,-0.43 0.36,0.36 0 0 1 0.44,0.27 12,12 0 0 1 0.17,2.67 16.38,16.38 0 0 0 0.07,2 0.35,0.35 0 0 1 -0.32,0.4 z"
       fill="#945c5a"
       id="path4642" />
    <path
       d="m 456,746.52 a 0.37,0.37 0 0 1 -0.37,-0.35 15.91,15.91 0 0 1 0.28,-2.85 l 0.1,-0.61 a 0.36417715,0.36417715 0 1 1 0.72,0.11 l -0.09,0.61 a 14.86,14.86 0 0 0 -0.28,2.72 0.35,0.35 0 0 1 -0.35,0.37 z"
       fill="#945c5a"
       id="path4644" />
    <path
       d="m 458.73,740.34 a 0.36,0.36 0 0 1 -0.36,-0.32 12.07,12.07 0 0 1 0.31,-3.58 c 0.07,-0.34 0.13,-0.68 0.19,-1 a 0.36496575,0.36496575 0 1 1 0.72,0.12 c 0,0.33 -0.12,0.68 -0.18,1 a 11.19,11.19 0 0 0 -0.31,3.37 0.36,0.36 0 0 1 -0.32,0.4 z"
       fill="#945c5a"
       id="path4646" />
    <path
       d="m 458.36,747.13 a 0.36,0.36 0 0 1 -0.37,-0.36 16.69,16.69 0 0 1 0.19,-2.13 12.22,12.22 0 0 0 0.18,-2.22 0.37,0.37 0 0 1 0.35,-0.38 0.35,0.35 0 0 1 0.39,0.35 13.23,13.23 0 0 1 -0.19,2.35 15.48,15.48 0 0 0 -0.19,2 0.36,0.36 0 0 1 -0.36,0.36 z"
       fill="#945c5a"
       id="path4648" />
    <path
       d="m 451.75,754.16 a 0.37,0.37 0 0 1 -0.36,-0.32 c 0,-0.36 -0.07,-0.74 -0.1,-1.13 a 9,9 0 0 0 -0.71,-3.47 0.37,0.37 0 0 1 0.15,-0.5 0.38,0.38 0 0 1 0.5,0.15 9.53,9.53 0 0 1 0.79,3.77 c 0,0.38 0.05,0.75 0.09,1.09 a 0.37,0.37 0 0 1 -0.32,0.41 z"
       fill="#945c5a"
       id="path4650" />
    <path
       d="m 446.28,739 a 0.36,0.36 0 0 1 -0.36,-0.3 c -0.11,-0.58 -0.23,-1.15 -0.35,-1.73 a 33.74,33.74 0 0 1 -0.63,-3.64 0.38,0.38 0 0 1 0.33,-0.4 0.35,0.35 0 0 1 0.4,0.33 33.12,33.12 0 0 0 0.62,3.56 c 0.12,0.59 0.24,1.17 0.35,1.75 a 0.36,0.36 0 0 1 -0.3,0.42 z"
       fill="#945c5a"
       id="path4652" />
    <path
       d="m 448,744.81 a 0.36,0.36 0 0 1 -0.36,-0.29 c -0.07,-0.35 -0.12,-0.74 -0.16,-1.15 a 5,5 0 0 0 -0.74,-2.57 0.36,0.36 0 0 1 0.06,-0.51 0.36,0.36 0 0 1 0.51,0.05 5.66,5.66 0 0 1 0.9,2.95 c 0,0.38 0.08,0.76 0.15,1.09 a 0.37,0.37 0 0 1 -0.29,0.43 z"
       fill="#945c5a"
       id="path4654" />
    <path
       d="m 453.7,754.4 v 0 a 0.36,0.36 0 0 1 -0.36,-0.36 c 0,-0.41 0,-0.85 0.06,-1.3 a 9,9 0 0 0 -0.16,-3.2 0.35,0.35 0 0 1 0.23,-0.45 0.37,0.37 0 0 1 0.47,0.23 9.71,9.71 0 0 1 0.19,3.46 c 0,0.44 -0.06,0.87 -0.06,1.26 a 0.36,0.36 0 0 1 -0.37,0.36 z"
       fill="#945c5a"
       id="path4656" />
    <path
       d="m 456.63,756.35 v 0 a 0.37,0.37 0 0 1 -0.36,-0.37 27.88,27.88 0 0 1 0.26,-3.32 c 0.1,-0.86 0.2,-1.75 0.23,-2.63 a 0.37,0.37 0 0 1 0.74,0 c 0,0.9 -0.15,1.81 -0.25,2.69 A 28.7,28.7 0 0 0 457,756 a 0.37,0.37 0 0 1 -0.37,0.35 z"
       fill="#945c5a"
       id="path4658" />
    <path
       d="m 450.88,762.16 a 0.36,0.36 0 0 1 -0.36,-0.33 l -0.06,-0.58 a 33.5,33.5 0 0 0 -0.54,-4.11 0.36,0.36 0 0 1 0.28,-0.43 0.37,0.37 0 0 1 0.44,0.28 33.39,33.39 0 0 1 0.55,4.19 l 0.06,0.58 a 0.37,0.37 0 0 1 -0.33,0.4 z"
       fill="#945c5a"
       id="path4660" />
    <path
       d="m 452.72,759.25 a 0.4,0.4 0 0 1 -0.37,-0.36 c 0,-0.78 0,-1.56 -0.07,-2.32 v -0.94 a 0.37,0.37 0 1 1 0.73,0 v 0.94 c 0,0.76 0.08,1.55 0.08,2.35 a 0.37,0.37 0 0 1 -0.37,0.33 z"
       fill="#945c5a"
       id="path4662" />
    <path
       d="m 453.81,765.44 a 0.36,0.36 0 0 1 -0.36,-0.3 21.36,21.36 0 0 1 -0.25,-4.31 0.39,0.39 0 0 1 0.38,-0.36 0.37,0.37 0 0 1 0.36,0.37 19.85,19.85 0 0 0 0.23,4.17 0.35,0.35 0 0 1 -0.29,0.42 z"
       fill="#945c5a"
       id="path4664" />
    <path
       d="m 455.77,763.26 a 0.37,0.37 0 0 1 -0.37,-0.35 c 0,-0.57 0,-1.14 0,-1.7 0,-0.85 -0.06,-1.7 -0.07,-2.56 a 0.37,0.37 0 0 1 0.37,-0.36 v 0 a 0.37,0.37 0 0 1 0.37,0.36 c 0,0.85 0,1.69 0.06,2.53 0,0.57 0,1.14 0.05,1.71 a 0.35,0.35 0 0 1 -0.35,0.37 z"
       fill="#945c5a"
       id="path4666" />
    <path
       d="m 455.63,769.33 a 0.36,0.36 0 0 1 -0.36,-0.36 12.74,12.74 0 0 1 0.38,-3.11 0.35,0.35 0 0 1 0.43,-0.28 0.36,0.36 0 0 1 0.29,0.43 12,12 0 0 0 -0.37,2.99 0.37,0.37 0 0 1 -0.35,0.38 z"
       fill="#945c5a"
       id="path4668" />
    <path
       d="m 452.34,770.05 a 0.37,0.37 0 0 1 -0.37,-0.36 8.41,8.41 0 0 0 -0.69,-3.36 0.36,0.36 0 0 1 0.16,-0.49 0.38,0.38 0 0 1 0.5,0.16 9.77,9.77 0 0 1 0.76,3.67 0.36,0.36 0 0 1 -0.35,0.38 z"
       fill="#945c5a"
       id="path4670" />
    <path
       d="m 450.5,770.29 a 0.37,0.37 0 0 1 -0.36,-0.31 14.34,14.34 0 0 0 -0.37,-1.54 c -0.08,-0.29 -0.16,-0.57 -0.23,-0.86 a 0.37,0.37 0 1 1 0.71,-0.17 c 0.07,0.28 0.15,0.56 0.23,0.83 a 14.87,14.87 0 0 1 0.39,1.63 0.36,0.36 0 0 1 -0.31,0.41 z"
       fill="#945c5a"
       id="path4672" />
    <path
       d="m 448.33,754 a 0.36,0.36 0 0 1 -0.36,-0.31 l -0.24,-1.52 a 35,35 0 0 1 -0.49,-4 0.37,0.37 0 0 1 0.35,-0.39 0.36,0.36 0 0 1 0.38,0.35 c 0.07,1.29 0.28,2.61 0.48,3.89 0.09,0.51 0.17,1 0.24,1.54 a 0.36,0.36 0 0 1 -0.31,0.41 z"
       fill="#945c5a"
       id="path4674" />
    <path
       d="m 449.17,764.22 a 0.38,0.38 0 0 1 -0.37,-0.31 c 0,-0.31 -0.07,-0.62 -0.11,-0.94 a 14.65,14.65 0 0 0 -0.71,-3.59 0.36,0.36 0 0 1 0.21,-0.47 0.35,0.35 0 0 1 0.47,0.21 15.58,15.58 0 0 1 0.76,3.77 c 0,0.31 0.07,0.62 0.11,0.92 a 0.36,0.36 0 0 1 -0.31,0.41 z"
       fill="#945c5a"
       id="path4676" />
    <path
       d="m 438.62,716.9 a 0.36,0.36 0 0 1 -0.36,-0.28 c -0.07,-0.3 -0.17,-0.61 -0.26,-0.93 a 7.17,7.17 0 0 1 -0.47,-2.57 0.37,0.37 0 0 1 0.73,0 6.74,6.74 0 0 0 0.44,2.32 c 0.1,0.33 0.2,0.66 0.27,1 a 0.36,0.36 0 0 1 -0.27,0.44 z"
       fill="#945c5a"
       id="path4678" />
    <path
       d="m 441.42,724.67 v 0 a 0.37,0.37 0 0 1 -0.36,-0.37 8.51,8.51 0 0 0 -0.47,-3 0.36,0.36 0 0 1 0.24,-0.46 0.35,0.35 0 0 1 0.46,0.23 9.41,9.41 0 0 1 0.5,3.27 0.36,0.36 0 0 1 -0.37,0.33 z"
       fill="#945c5a"
       id="path4680" />
    <path
       d="m 443,731.71 a 0.37,0.37 0 0 1 -0.35,-0.28 12.49,12.49 0 0 1 -0.24,-1.31 10.47,10.47 0 0 0 -0.36,-1.7 0.36,0.36 0 0 1 0.23,-0.46 0.37,0.37 0 0 1 0.46,0.23 9.86,9.86 0 0 1 0.39,1.82 c 0.06,0.42 0.13,0.84 0.23,1.25 a 0.36,0.36 0 0 1 -0.27,0.44 z"
       fill="#945c5a"
       id="path4682" />
    <path
       d="m 445.77,747.72 a 0.36,0.36 0 0 1 -0.36,-0.34 c 0,-0.25 0,-0.52 0,-0.8 a 6.34,6.34 0 0 0 -0.52,-2.8 0.36,0.36 0 0 1 0.14,-0.5 0.37,0.37 0 0 1 0.5,0.13 6.81,6.81 0 0 1 0.61,3.14 c 0,0.27 0,0.53 0,0.78 a 0.37,0.37 0 0 1 -0.34,0.39 z"
       fill="#945c5a"
       id="path4684" />
    <rect
       x="420"
       y="751.04999"
       width="62"
       height="44"
       rx="22"
       ry="22"
       fill="#855351"
       id="rect4686" />
    <path
       d="m 442.88,764.92 a 2.44,2.44 0 1 1 -2.52,-2.35 2.44,2.44 0 0 1 2.52,2.35 z"
       fill="#492d2c"
       id="path4688" />
    <path
       d="m 464,764.23 a 2.44,2.44 0 1 1 -2.52,-2.36 2.44,2.44 0 0 1 2.52,2.36 z"
       fill="#492d2c"
       id="path4690" />
    <path
       d="m 421.56,686.57 a 13,13 0 0 1 -7.35,4 c 0.2,-1.4 -0.74,-4.71 1.14,-8.83 -9,5 -18.58,2.86 -17.28,-10.72 1.38,-14.47 19.67,-12.13 21.08,-11.67 2.6,0.86 4,-1.46 -0.31,-2.6 -4.31,-1.14 -22.3,-4.82 -30,14 -7.7,18.82 9.41,34.11 23.86,30.58 a 26.69,26.69 0 0 0 6.73,-2.7 27.25,27.25 0 0 1 2.13,-12.06 z"
       fill="#fdffe9"
       id="path4692" />
    <path
       d="m 513,670.2 c -7.89,-18.77 -25.82,-14.93 -30.16,-13.76 -4.34,1.17 -2.87,3.49 -0.27,2.61 1.39,-0.47 19.66,-3 21.17,11.48 1.53,14.63 -9.66,16.07 -19.28,9.59 1.56,4.12 1.08,7.17 1.28,8.54 a 13,13 0 0 1 -7.35,-4 27,27 0 0 1 2.14,12.39 27.78,27.78 0 0 0 8.88,3.92 c 14.5,3.42 31.5,-11.97 23.59,-30.77 z"
       fill="#fdffe9"
       id="path4694" />
    <path
       d="m 489.74,694 c -0.21,-1.53 0.32,-4.93 -1.43,-9.52 a 21.39,21.39 0 0 0 -1.41,-3 c -1.79,-3.16 -5,-6 -9.06,-8.39 -6.9,-4 -16.4,-6.57 -26.3,-6.77 h -1.33 c -9,0 -18.33,2.07 -26.14,6.86 a 37.84,37.84 0 0 0 -11.22,10.42 16.29,16.29 0 0 0 -1.58,2.73 c -2.1,4.59 -1,8.29 -1.27,9.84 1.67,-0.41 5.41,-1.18 8.19,-4.44 a 30.32,30.32 0 0 0 -2.41,13.45 c 0.54,8.88 5.37,14.78 8.4,14.74 -2.48,-3.67 2.57,-8.29 5.92,-10.1 a 17.36,17.36 0 0 0 7.39,-8.13 c 4.75,11.51 14.93,16.69 18.16,15.16 -4.14,-2.25 -2.11,-8.38 -0.1,-11.33 a 12.49,12.49 0 0 0 0.91,-1.6 1.74,1.74 0 0 1 -0.09,1.21 c 3,-0.86 6.11,-4 5.3,-6.92 a 17.65,17.65 0 0 0 8,9.51 c 3.35,1.81 8.4,6.43 5.92,10.1 3,0 7.73,-5.7 8.37,-14.37 a 30.11,30.11 0 0 0 -2.38,-13.82 14.55,14.55 0 0 0 8.16,4.37 z"
       fill="#492d2c"
       id="path4696" />
    <path
       d="m 432,776.75 a 18,18 0 0 0 4.33,2.81 34.24,34.24 0 0 0 4.74,2.05 31.74,31.74 0 0 0 10,1.9 27.06,27.06 0 0 0 10,-1.67 28.44,28.44 0 0 0 4.63,-2.21 41.83,41.83 0 0 0 4.34,-2.88 26.78,26.78 0 0 1 -8.53,6.17 24.5,24.5 0 0 1 -5.1,1.65 26.67,26.67 0 0 1 -5.41,0.43 27.75,27.75 0 0 1 -10.38,-2.33 c -3.18,-1.43 -6.4,-3.18 -8.62,-5.92 z"
       fill="#171717"
       id="path4698" />
    <ellipse
       cx="475"
       cy="739.39001"
       rx="6"
       ry="4.6700001"
       fill="#f399c0"
       id="ellipse4700" />
    <ellipse
       cx="427"
       cy="739.39001"
       rx="6"
       ry="4.6700001"
       fill="#f399c0"
       id="ellipse4702" />
    <path
       d="m 418.9,729.89 c 2.44,-6.52 12.37,-6 15,-2.54 -5.62,-0.29 -10.38,-1.48 -14.34,2.87 0,0 -0.87,0.24 -0.66,-0.33 z"
       fill="#171717"
       id="path4704" />
    <path
       d="m 418.51,721.67 c 0.29,-0.14 0.57,-0.15 0.64,0 l 2.61,5.22 c 0.06,0.13 -0.11,0.36 -0.4,0.51 v 0 c -0.28,0.14 -0.57,0.14 -0.64,0 l -2.6,-5.23 c -0.07,-0.13 0.11,-0.36 0.39,-0.5 z m 4.88,-1.54 c 0.31,-0.08 0.59,0 0.62,0.12 l 1.47,5.65 c 0,0.15 -0.18,0.33 -0.49,0.41 v 0 c -0.31,0.08 -0.59,0 -0.63,-0.12 l -1.46,-5.65 c 0,-0.14 0.18,-0.33 0.49,-0.41 z m 5.56,-0.69 c 0.32,0 0.57,0.17 0.56,0.32 l -0.41,5.82 c 0,0.15 -0.28,0.26 -0.59,0.23 v 0 c -0.32,0 -0.57,-0.16 -0.56,-0.31 l 0.4,-5.83 c 0,-0.14 0.28,-0.25 0.6,-0.23 z"
       fill="#171717"
       fill-rule="evenodd"
       id="path4706" />
    <path
       d="m 483.1,729.89 c -2.44,-6.52 -12.37,-6 -15,-2.54 5.62,-0.29 10.38,-1.48 14.34,2.87 0,0 0.87,0.24 0.66,-0.33 z"
       fill="#171717"
       id="path4708" />
    <path
       d="m 483.49,721.67 v 0 c 0.28,0.14 0.46,0.37 0.39,0.5 l -2.6,5.23 c -0.07,0.13 -0.36,0.13 -0.64,0 v 0 c -0.29,-0.15 -0.46,-0.38 -0.4,-0.51 l 2.61,-5.22 c 0.07,-0.14 0.35,-0.13 0.64,0 z m -4.88,-1.54 v 0 c 0.31,0.08 0.53,0.27 0.49,0.41 l -1.46,5.65 c 0,0.15 -0.32,0.2 -0.63,0.12 v 0 c -0.31,-0.08 -0.53,-0.26 -0.49,-0.41 l 1.47,-5.65 c 0,-0.15 0.31,-0.2 0.62,-0.12 z m -5.56,-0.69 v 0 c 0.32,0 0.58,0.09 0.6,0.23 l 0.4,5.83 c 0,0.15 -0.24,0.29 -0.56,0.31 v 0 c -0.31,0 -0.58,-0.08 -0.59,-0.23 l -0.41,-5.82 c 0,-0.15 0.24,-0.29 0.56,-0.32 z"
       fill="#171717"
       fill-rule="evenodd"
       id="path4710" />
  </g>
</svg>
