<svg id="svg" version="1.1" xmlns="http://www.w3.org/2000/svg" xmlns:xlink="http://www.w3.org/1999/xlink" width="400" height="400" viewBox="0, 0, 400,400"><g id="svgg"><path id="path0" d="M307.883 55.051 C 307.745 55.189,306.905 55.459,306.016 55.651 C 305.127 55.843,303.725 56.172,302.900 56.382 C 302.075 56.592,300.860 56.876,300.200 57.012 C 299.540 57.149,298.640 57.408,298.200 57.588 C 297.760 57.769,296.320 58.131,295.000 58.393 C 293.680 58.656,292.287 59.035,291.905 59.235 C 291.523 59.436,290.906 59.600,290.534 59.600 C 290.161 59.600,289.304 59.768,288.628 59.973 C 286.903 60.497,283.571 61.344,279.000 62.421 C 277.900 62.680,276.460 63.039,275.800 63.219 C 275.140 63.399,273.880 63.736,273.000 63.968 C 271.409 64.387,240.364 72.143,237.500 72.837 C 236.675 73.037,235.325 73.372,234.500 73.582 C 233.675 73.792,232.235 74.152,231.300 74.382 C 230.365 74.612,228.925 74.972,228.100 75.182 C 225.793 75.769,223.578 76.320,221.600 76.800 C 219.224 77.376,218.303 77.607,209.600 79.802 C 205.530 80.829,202.020 81.815,201.800 81.994 C 201.580 82.173,196.450 83.515,190.400 84.976 C 184.350 86.438,178.847 87.806,178.172 88.017 C 177.496 88.228,176.562 88.400,176.095 88.400 C 175.629 88.400,175.148 88.560,175.027 88.756 C 174.906 88.951,174.221 89.213,173.504 89.337 C 172.787 89.461,171.570 89.673,170.800 89.808 C 170.030 89.944,169.040 90.209,168.600 90.397 C 167.788 90.745,166.373 91.084,164.200 91.451 C 163.540 91.563,162.640 91.809,162.200 91.997 C 161.760 92.186,160.860 92.451,160.200 92.588 C 159.540 92.724,158.280 93.021,157.400 93.247 C 156.520 93.473,155.213 93.755,154.496 93.873 C 153.779 93.992,153.094 94.249,152.973 94.444 C 152.852 94.640,152.144 94.800,151.400 94.800 C 150.656 94.800,149.936 94.980,149.800 95.200 C 149.664 95.420,148.944 95.600,148.200 95.600 C 147.456 95.600,146.736 95.780,146.600 96.000 C 146.464 96.220,145.744 96.400,145.000 96.400 C 144.256 96.400,143.536 96.580,143.400 96.800 C 143.264 97.020,142.771 97.200,142.305 97.200 C 141.838 97.200,140.904 97.368,140.228 97.573 C 139.064 97.926,137.505 98.332,134.100 99.168 C 133.275 99.371,131.835 99.738,130.900 99.984 L 129.200 100.432 129.200 129.616 C 129.200 145.667,129.324 158.800,129.476 158.800 C 130.194 158.800,162.447 150.648,164.200 150.023 C 165.300 149.632,167.820 148.917,169.800 148.436 C 174.621 147.265,176.365 146.817,177.828 146.373 C 178.504 146.168,179.528 146.000,180.105 146.000 C 180.681 146.000,181.252 145.840,181.373 145.644 C 181.494 145.449,182.179 145.192,182.896 145.073 C 183.613 144.955,184.965 144.665,185.900 144.429 C 186.835 144.193,188.365 143.807,189.300 143.571 C 190.235 143.335,191.587 143.045,192.304 142.927 C 193.021 142.808,193.706 142.551,193.827 142.356 C 193.948 142.160,194.656 142.000,195.400 142.000 C 196.144 142.000,196.864 141.820,197.000 141.600 C 197.136 141.380,197.831 141.200,198.544 141.200 C 199.257 141.200,200.011 141.037,200.220 140.837 C 200.429 140.637,201.500 140.385,202.600 140.275 C 203.700 140.166,205.320 139.899,206.200 139.681 C 208.689 139.066,233.629 132.823,235.200 132.423 C 235.970 132.227,237.320 131.886,238.200 131.666 C 239.080 131.446,240.565 131.071,241.500 130.833 C 242.435 130.595,243.920 130.220,244.800 130.000 C 249.094 128.927,249.888 128.719,251.028 128.373 C 251.704 128.168,252.638 128.000,253.105 128.000 C 253.571 128.000,254.052 127.839,254.174 127.642 C 254.295 127.445,255.071 127.190,255.897 127.074 C 257.983 126.783,259.657 126.400,260.600 126.000 C 261.040 125.813,261.940 125.549,262.600 125.412 C 263.776 125.169,265.609 124.723,268.400 124.001 C 270.507 123.456,273.723 122.741,274.400 122.666 C 274.929 122.608,275.012 127.530,275.102 164.476 L 275.204 206.351 267.702 206.535 C 263.576 206.636,259.120 206.924,257.800 207.175 C 256.480 207.426,254.724 207.733,253.897 207.858 C 253.071 207.983,252.295 208.245,252.174 208.442 C 252.052 208.639,251.434 208.800,250.800 208.800 C 250.166 208.800,249.536 208.980,249.400 209.200 C 249.264 209.420,248.634 209.600,248.000 209.600 C 247.366 209.600,246.758 209.744,246.649 209.921 C 246.540 210.097,245.539 210.490,244.425 210.793 C 243.311 211.096,242.400 211.492,242.400 211.672 C 242.400 211.853,242.128 212.000,241.795 212.000 C 241.462 212.000,240.877 212.167,240.495 212.372 C 240.113 212.577,238.360 213.451,236.600 214.314 C 229.440 217.829,222.352 222.697,218.400 226.816 C 213.831 231.578,211.200 234.644,211.200 235.205 C 211.200 235.422,211.020 235.600,210.800 235.600 C 210.580 235.600,210.400 235.870,210.400 236.200 C 210.400 236.530,210.253 236.800,210.074 236.800 C 209.390 236.800,205.495 244.573,204.252 248.419 C 201.416 257.194,202.877 269.795,207.285 274.575 C 207.678 275.002,208.000 275.524,208.000 275.735 C 208.000 277.292,216.210 283.798,220.984 286.024 C 228.153 289.367,232.234 290.118,243.200 290.113 C 252.156 290.108,256.029 289.675,261.600 288.053 C 262.370 287.829,263.630 287.471,264.400 287.258 C 269.689 285.797,278.939 281.536,282.862 278.753 C 283.446 278.339,284.029 278.000,284.157 278.000 C 284.286 278.000,284.708 277.740,285.095 277.422 C 285.483 277.105,286.970 275.993,288.400 274.952 C 295.918 269.479,304.267 258.988,307.303 251.200 C 307.518 250.650,307.852 249.887,308.047 249.505 C 308.241 249.123,308.400 248.394,308.400 247.885 C 308.400 247.376,308.562 246.789,308.759 246.580 C 308.956 246.371,309.238 245.390,309.385 244.400 C 309.686 242.375,310.498 56.080,310.210 55.300 C 310.020 54.785,308.329 54.604,307.883 55.051 " stroke="none" fill="#d50954" fill-rule="evenodd"></path><path id="path1" d="M193.902 83.715 C 189.558 84.827,186.077 85.810,186.167 85.900 C 186.410 86.144,201.338 82.375,201.780 81.958 C 201.989 81.761,202.079 81.621,201.980 81.647 C 201.881 81.672,198.246 82.603,193.902 83.715 M183.400 86.400 C 182.381 86.838,183.432 86.838,184.800 86.400 C 185.604 86.143,185.643 86.077,185.000 86.068 C 184.560 86.062,183.840 86.211,183.400 86.400 M310.580 99.800 C 310.580 107.280,310.634 110.283,310.699 106.474 C 310.765 102.665,310.765 96.545,310.699 92.874 C 310.633 89.203,310.579 92.320,310.580 99.800 M180.400 87.218 C 179.962 87.515,180.124 87.552,181.000 87.356 C 182.471 87.027,182.790 86.798,181.767 86.806 C 181.345 86.809,180.730 86.995,180.400 87.218 M173.800 88.800 C 173.029 89.131,173.031 89.145,173.876 89.172 C 174.358 89.187,174.864 89.020,175.000 88.800 C 175.292 88.327,174.901 88.327,173.800 88.800 M170.600 89.600 L 169.800 89.944 170.600 89.966 C 171.040 89.978,171.670 89.813,172.000 89.600 C 172.795 89.086,171.796 89.086,170.600 89.600 M167.400 90.400 C 166.629 90.731,166.631 90.745,167.476 90.772 C 167.958 90.787,168.464 90.620,168.600 90.400 C 168.892 89.927,168.501 89.927,167.400 90.400 M164.400 91.200 C 163.867 91.545,163.867 91.588,164.400 91.588 C 164.730 91.588,165.270 91.413,165.600 91.200 C 166.133 90.855,166.133 90.812,165.600 90.812 C 165.270 90.812,164.730 90.987,164.400 91.200 M161.000 92.000 C 160.229 92.331,160.231 92.345,161.076 92.372 C 161.558 92.387,162.064 92.220,162.200 92.000 C 162.492 91.527,162.101 91.527,161.000 92.000 M157.800 92.800 L 157.000 93.144 157.800 93.166 C 158.240 93.178,158.870 93.013,159.200 92.800 C 159.995 92.286,158.996 92.286,157.800 92.800 M154.600 93.600 L 153.800 93.944 154.600 93.966 C 155.040 93.978,155.670 93.813,156.000 93.600 C 156.795 93.086,155.796 93.086,154.600 93.600 M151.600 94.400 L 150.600 94.720 151.676 94.760 C 152.268 94.782,152.864 94.620,153.000 94.400 C 153.281 93.945,153.020 93.945,151.600 94.400 M148.400 95.200 L 147.400 95.520 148.476 95.560 C 149.068 95.582,149.664 95.420,149.800 95.200 C 150.081 94.745,149.820 94.745,148.400 95.200 M145.000 96.000 L 143.800 96.305 145.076 96.353 C 145.778 96.379,146.464 96.220,146.600 96.000 C 146.874 95.557,146.740 95.557,145.000 96.000 M140.400 97.132 C 138.838 97.531,138.151 97.847,138.679 97.923 C 139.163 97.993,139.916 97.859,140.353 97.625 C 140.790 97.391,141.599 97.200,142.150 97.200 C 142.702 97.200,143.264 97.020,143.400 96.800 C 143.707 96.303,143.593 96.315,140.400 97.132 M133.102 98.958 C 131.177 99.456,129.467 100.013,129.302 100.195 C 129.136 100.378,129.360 100.396,129.800 100.235 C 130.240 100.075,131.410 99.767,132.400 99.552 C 133.390 99.337,134.882 99.013,135.716 98.831 C 137.262 98.495,138.192 97.979,137.167 98.026 C 136.855 98.040,135.026 98.460,133.102 98.958 M310.195 176.800 C 310.195 211.670,310.242 225.935,310.300 208.500 C 310.358 191.065,310.358 162.535,310.300 145.100 C 310.242 127.665,310.195 141.930,310.195 176.800 M128.980 144.800 C 128.980 152.390,129.034 155.495,129.099 151.700 C 129.165 147.905,129.165 141.695,129.099 137.900 C 129.034 134.105,128.980 137.210,128.980 144.800 M200.204 140.794 C 200.052 141.040,200.455 141.094,201.280 140.937 C 203.049 140.600,203.201 140.400,201.690 140.400 C 201.007 140.400,200.338 140.577,200.204 140.794 M196.990 141.616 C 196.821 141.889,197.123 141.938,197.866 141.760 C 199.399 141.392,199.544 141.200,198.290 141.200 C 197.717 141.200,197.132 141.387,196.990 141.616 M193.790 142.416 C 193.621 142.689,193.923 142.738,194.666 142.560 C 196.199 142.192,196.344 142.000,195.090 142.000 C 194.517 142.000,193.932 142.187,193.790 142.416 M190.800 143.200 C 190.005 143.714,191.004 143.714,192.200 143.200 L 193.000 142.856 192.200 142.834 C 191.760 142.822,191.130 142.987,190.800 143.200 M187.600 144.000 C 187.067 144.345,187.067 144.388,187.600 144.388 C 187.930 144.388,188.470 144.213,188.800 144.000 C 189.333 143.655,189.333 143.612,188.800 143.612 C 188.470 143.612,187.930 143.787,187.600 144.000 M184.400 144.800 C 183.867 145.145,183.867 145.188,184.400 145.188 C 184.730 145.188,185.270 145.013,185.600 144.800 C 186.133 144.455,186.133 144.412,185.600 144.412 C 185.270 144.412,184.730 144.587,184.400 144.800 M181.400 145.600 C 181.108 146.073,181.499 146.073,182.600 145.600 C 183.371 145.269,183.369 145.255,182.524 145.228 C 182.042 145.213,181.536 145.380,181.400 145.600 M178.000 146.400 C 177.467 146.745,177.467 146.788,178.000 146.788 C 178.330 146.788,178.870 146.613,179.200 146.400 C 179.733 146.055,179.733 146.012,179.200 146.012 C 178.870 146.012,178.330 146.187,178.000 146.400 M174.800 147.200 C 174.005 147.714,175.004 147.714,176.200 147.200 L 177.000 146.856 176.200 146.834 C 175.760 146.822,175.130 146.987,174.800 147.200 M171.400 148.000 L 170.600 148.344 171.400 148.344 C 171.840 148.344,172.560 148.189,173.000 148.000 L 173.800 147.656 173.000 147.656 C 172.560 147.656,171.840 147.811,171.400 148.000 M168.200 148.800 L 167.400 149.144 168.200 149.166 C 168.640 149.178,169.270 149.013,169.600 148.800 C 170.395 148.286,169.396 148.286,168.200 148.800 M165.400 149.600 C 164.896 149.817,164.822 149.944,165.200 149.944 C 165.530 149.944,166.160 149.789,166.600 149.600 C 167.104 149.383,167.178 149.256,166.800 149.256 C 166.470 149.256,165.840 149.411,165.400 149.600 M163.000 150.407 C 162.560 150.601,154.776 152.599,145.702 154.846 L 129.204 158.932 129.102 201.966 L 129.000 245.000 125.844 244.854 C 120.009 244.584,112.025 245.697,103.400 247.982 C 98.008 249.410,84.228 255.638,83.667 256.900 C 83.593 257.065,83.278 257.200,82.967 257.200 C 82.655 257.200,82.400 257.350,82.400 257.532 C 82.400 257.715,81.905 258.120,81.300 258.432 C 80.695 258.744,80.110 259.098,80.000 259.219 C 79.890 259.340,79.170 259.875,78.400 260.408 C 70.016 266.213,60.944 278.077,58.372 286.600 C 58.106 287.480,57.746 288.560,57.572 289.000 C 56.572 291.521,56.121 299.715,56.813 302.797 C 57.695 306.725,59.881 312.427,60.800 313.200 C 60.931 313.310,61.463 314.030,61.982 314.800 C 64.848 319.054,71.142 323.738,77.100 326.051 C 77.595 326.243,78.405 326.559,78.900 326.754 C 79.716 327.076,81.184 327.508,84.600 328.433 C 89.902 329.869,108.658 329.817,110.180 328.363 C 110.389 328.163,111.006 328.000,111.552 328.000 C 112.097 328.000,113.096 327.832,113.772 327.627 C 114.447 327.422,115.810 327.041,116.800 326.782 C 117.790 326.522,118.960 326.167,119.400 325.995 C 119.840 325.822,120.830 325.464,121.600 325.200 C 141.034 318.527,158.245 302.357,162.473 286.800 C 162.682 286.030,163.057 284.680,163.306 283.800 C 163.761 282.192,164.447 149.966,164.000 150.027 C 163.890 150.042,163.440 150.213,163.000 150.407 M274.800 205.589 C 274.800 205.817,272.442 206.029,269.100 206.101 L 263.400 206.224 269.300 206.312 C 274.317 206.387,275.200 206.310,275.200 205.800 C 275.200 205.470,275.110 205.200,275.000 205.200 C 274.890 205.200,274.800 205.375,274.800 205.589 M258.000 206.800 C 257.025 207.112,257.030 207.121,258.200 207.132 C 258.860 207.138,259.760 206.989,260.200 206.800 C 261.294 206.330,259.467 206.330,258.000 206.800 M254.200 207.600 L 253.400 207.944 254.200 207.966 C 254.640 207.978,255.270 207.813,255.600 207.600 C 256.395 207.086,255.396 207.086,254.200 207.600 M251.000 208.400 C 250.229 208.731,250.231 208.745,251.076 208.772 C 251.558 208.787,252.064 208.620,252.200 208.400 C 252.492 207.927,252.101 207.927,251.000 208.400 M248.200 209.200 C 247.429 209.531,247.431 209.545,248.276 209.572 C 248.758 209.587,249.264 209.420,249.400 209.200 C 249.692 208.727,249.301 208.727,248.200 209.200 M238.800 212.800 C 238.030 213.222,237.513 213.574,237.651 213.583 C 238.065 213.611,240.800 212.405,240.800 212.195 C 240.800 211.846,240.225 212.020,238.800 212.800 M234.589 214.829 C 232.026 216.149,227.200 219.180,227.200 219.471 C 227.200 219.674,227.779 219.359,229.200 218.381 C 230.322 217.610,232.417 216.417,235.277 214.922 C 236.335 214.369,237.200 213.845,237.200 213.758 C 237.200 213.499,237.077 213.549,234.589 214.829 M225.185 220.829 L 223.800 222.058 225.300 220.981 C 226.626 220.030,227.057 219.600,226.685 219.600 C 226.622 219.600,225.947 220.153,225.185 220.829 M221.551 223.634 L 219.800 225.268 221.700 223.786 C 223.436 222.432,223.859 222.000,223.451 222.000 C 223.370 222.000,222.515 222.735,221.551 223.634 M215.869 228.900 C 212.098 233.024,211.024 234.400,211.571 234.400 C 211.807 234.400,212.000 234.243,212.000 234.051 C 212.000 233.717,215.531 229.731,218.313 226.925 C 219.036 226.196,219.460 225.600,219.256 225.600 C 219.052 225.600,217.528 227.085,215.869 228.900 M207.786 239.700 L 207.152 241.000 207.967 240.000 C 208.752 239.037,209.008 238.400,208.610 238.400 C 208.506 238.400,208.135 238.985,207.786 239.700 M309.473 242.953 C 309.323 243.345,309.216 244.146,309.236 244.733 C 309.270 245.728,309.298 245.709,309.657 244.463 C 310.073 243.019,309.923 241.782,309.473 242.953 M204.200 247.200 C 204.050 247.673,204.017 248.150,204.127 248.260 C 204.237 248.370,204.450 248.073,204.600 247.600 C 204.750 247.127,204.783 246.650,204.673 246.540 C 204.563 246.430,204.350 246.727,204.200 247.200 M308.667 246.667 C 308.520 246.813,308.411 247.308,308.425 247.767 C 308.449 248.533,308.482 248.523,308.834 247.642 C 309.226 246.663,309.144 246.189,308.667 246.667 M203.449 249.815 C 203.312 250.173,203.215 250.766,203.234 251.133 C 203.253 251.500,203.427 251.269,203.621 250.620 C 203.998 249.358,203.865 248.733,203.449 249.815 M202.669 253.156 C 202.521 253.895,202.423 255.243,202.451 256.150 C 202.492 257.502,202.563 257.330,202.844 255.200 C 203.217 252.365,203.100 250.999,202.669 253.156 M305.895 254.300 C 303.167 259.620,299.871 264.124,295.302 268.774 C 293.046 271.070,291.200 273.046,291.200 273.165 C 291.200 275.447,304.902 258.209,306.513 253.900 C 306.918 252.818,306.524 253.073,305.895 254.300 M202.428 261.833 C 202.444 262.915,202.612 264.160,202.802 264.600 C 203.016 265.095,203.060 264.410,202.918 262.800 C 202.639 259.643,202.390 259.151,202.428 261.833 M203.206 266.233 C 203.209 266.655,203.395 267.270,203.618 267.600 C 203.915 268.038,203.952 267.876,203.756 267.000 C 203.427 265.529,203.198 265.210,203.206 266.233 M288.000 275.212 C 286.570 276.302,285.265 277.196,285.100 277.197 C 284.935 277.199,284.800 277.389,284.800 277.619 C 284.800 278.079,287.393 276.366,289.600 274.449 C 291.725 272.603,290.914 272.990,288.000 275.212 M207.045 275.012 C 207.410 275.569,207.786 275.947,207.882 275.851 C 208.119 275.614,207.084 274.000,206.695 274.000 C 206.522 274.000,206.680 274.456,207.045 275.012 M208.400 276.781 C 208.400 279.702,227.085 290.604,230.145 289.468 C 230.395 289.375,230.060 289.169,229.400 289.010 C 222.282 287.294,215.728 283.773,211.100 279.176 C 209.615 277.701,208.400 276.623,208.400 276.781 M282.800 278.800 C 282.250 279.230,281.980 279.582,282.200 279.582 C 282.420 279.582,283.050 279.230,283.600 278.800 C 284.150 278.370,284.420 278.018,284.200 278.018 C 283.980 278.018,283.350 278.370,282.800 278.800 M278.076 281.483 C 277.128 282.035,276.426 282.559,276.516 282.649 C 276.692 282.826,280.400 280.838,280.400 280.566 C 280.400 280.246,279.785 280.489,278.076 281.483 M272.600 284.236 C 271.060 284.995,270.184 285.516,270.654 285.395 C 271.741 285.115,276.334 282.845,275.800 282.852 C 275.580 282.854,274.140 283.477,272.600 284.236 M266.800 286.387 C 265.810 286.784,264.280 287.303,263.400 287.541 C 262.520 287.778,261.381 288.085,260.870 288.223 C 260.358 288.360,260.033 288.567,260.147 288.681 C 260.262 288.795,261.400 288.579,262.678 288.201 C 265.689 287.310,269.973 285.635,269.200 285.652 C 268.870 285.659,267.790 285.990,266.800 286.387 M256.800 289.221 C 256.370 289.514,256.654 289.554,257.800 289.362 C 259.784 289.030,260.104 288.798,258.567 288.806 C 257.925 288.809,257.130 288.996,256.800 289.221 M231.233 289.744 C 231.325 289.824,232.210 290.006,233.200 290.150 C 234.458 290.333,234.819 290.291,234.400 290.012 C 233.860 289.653,230.832 289.397,231.233 289.744 M252.000 290.023 C 251.574 290.314,251.980 290.355,253.400 290.165 C 254.500 290.018,255.475 289.831,255.567 289.749 C 255.968 289.390,252.539 289.654,252.000 290.023 M239.500 290.698 C 241.535 290.771,244.865 290.771,246.900 290.698 C 248.935 290.625,247.270 290.566,243.200 290.566 C 239.130 290.566,237.465 290.625,239.500 290.698 " stroke="none" fill="#fb445b" fill-rule="evenodd"></path><path id="path2" d="M178.600 0.429 C 176.840 0.617,174.050 0.955,172.400 1.181 C 170.750 1.406,168.410 1.702,167.200 1.839 C 165.990 1.976,164.906 2.237,164.791 2.420 C 164.677 2.602,163.560 2.793,162.310 2.843 C 161.059 2.894,160.129 3.085,160.242 3.268 C 160.355 3.450,159.547 3.600,158.447 3.600 C 157.347 3.600,156.336 3.780,156.200 4.000 C 156.064 4.220,155.459 4.400,154.856 4.400 C 154.253 4.400,153.589 4.570,153.380 4.779 C 153.171 4.987,152.235 5.202,151.300 5.257 C 150.365 5.312,149.600 5.501,149.600 5.678 C 149.600 5.855,149.060 6.000,148.400 6.000 C 147.740 6.000,147.200 6.180,147.200 6.400 C 147.200 6.620,146.581 6.800,145.824 6.800 C 145.067 6.800,144.336 6.980,144.200 7.200 C 144.064 7.420,143.524 7.600,143.000 7.600 C 142.476 7.600,141.936 7.780,141.800 8.000 C 141.664 8.220,141.134 8.400,140.622 8.400 C 139.565 8.400,136.064 9.408,134.049 10.293 C 133.306 10.619,132.496 10.916,132.249 10.954 C 132.002 10.992,131.575 11.163,131.300 11.335 C 131.025 11.507,130.620 11.536,130.400 11.400 C 130.180 11.264,130.000 11.343,130.000 11.576 C 130.000 11.809,129.676 12.000,129.280 12.000 C 128.884 12.000,128.381 12.179,128.162 12.398 C 127.944 12.616,127.278 12.836,126.682 12.885 C 126.087 12.934,125.600 13.115,125.600 13.287 C 125.600 13.459,125.240 13.600,124.800 13.600 C 124.360 13.600,124.000 13.780,124.000 14.000 C 124.000 14.220,123.539 14.400,122.976 14.400 C 122.396 14.400,122.060 14.573,122.200 14.800 C 122.336 15.020,122.164 15.200,121.818 15.200 C 121.472 15.200,120.832 15.380,120.395 15.600 C 119.958 15.820,119.242 16.180,118.805 16.400 C 118.368 16.620,117.738 16.800,117.405 16.800 C 117.072 16.800,116.800 16.980,116.800 17.200 C 116.800 17.420,116.440 17.600,116.000 17.600 C 115.560 17.600,115.200 17.780,115.200 18.000 C 115.200 18.220,114.933 18.400,114.606 18.400 C 114.280 18.400,112.141 19.381,109.854 20.581 C 107.567 21.780,105.555 22.635,105.383 22.481 C 105.212 22.326,105.182 22.395,105.318 22.632 C 105.456 22.876,104.960 23.302,104.182 23.607 C 103.422 23.905,102.800 24.296,102.800 24.475 C 102.800 24.654,102.440 24.800,102.000 24.800 C 101.560 24.800,101.200 24.980,101.200 25.200 C 101.200 25.420,100.840 25.600,100.400 25.600 C 99.960 25.600,99.600 25.810,99.600 26.067 C 99.600 26.323,99.492 26.425,99.360 26.293 C 99.228 26.161,98.391 26.581,97.500 27.227 C 96.609 27.872,95.637 28.400,95.340 28.400 C 95.043 28.400,94.800 28.555,94.800 28.744 C 94.800 28.934,93.990 29.519,93.000 30.044 C 92.010 30.569,91.200 31.134,91.200 31.299 C 91.200 31.465,90.964 31.600,90.675 31.600 C 90.387 31.600,89.764 31.960,89.292 32.400 C 88.820 32.840,88.273 33.200,88.076 33.200 C 87.879 33.200,87.194 33.695,86.552 34.300 C 85.911 34.905,84.894 35.655,84.293 35.968 C 83.692 36.280,83.200 36.685,83.200 36.868 C 83.200 37.050,83.022 37.200,82.803 37.200 C 82.456 37.200,79.980 38.929,77.895 40.626 C 77.508 40.942,77.085 41.200,76.956 41.200 C 76.827 41.200,76.199 41.759,75.560 42.442 C 74.922 43.126,74.400 43.568,74.400 43.426 C 74.400 43.284,73.917 43.615,73.327 44.162 C 72.737 44.710,72.107 45.066,71.927 44.955 C 71.747 44.844,71.600 45.033,71.600 45.376 C 71.600 45.719,71.465 46.002,71.300 46.003 C 71.135 46.005,70.337 46.635,69.527 47.403 C 68.716 48.172,67.861 48.800,67.627 48.800 C 67.392 48.800,67.200 48.980,67.200 49.200 C 67.200 49.420,66.930 49.600,66.600 49.600 C 66.270 49.600,66.000 49.870,66.000 50.200 C 66.000 50.530,65.864 50.800,65.699 50.800 C 65.187 50.800,59.639 56.306,59.894 56.560 C 60.025 56.692,59.845 56.800,59.494 56.800 C 59.142 56.800,58.740 57.160,58.600 57.600 C 58.460 58.040,58.184 58.400,57.987 58.400 C 57.400 58.400,49.600 66.480,49.600 67.088 C 49.600 67.396,49.420 67.536,49.200 67.400 C 48.980 67.264,48.800 67.371,48.800 67.638 C 48.800 67.905,48.092 68.798,47.226 69.621 C 46.360 70.445,45.760 71.227,45.893 71.359 C 46.025 71.492,45.833 71.600,45.467 71.600 C 45.100 71.600,44.845 71.750,44.900 71.933 C 44.990 72.233,42.961 74.962,41.700 76.237 C 41.425 76.515,41.200 76.844,41.200 76.967 C 41.200 77.090,40.942 77.508,40.626 77.895 C 39.090 79.782,37.200 82.440,37.200 82.715 C 37.200 82.885,36.840 83.283,36.400 83.600 C 35.960 83.917,35.600 84.417,35.600 84.712 C 35.600 85.015,35.399 85.123,35.138 84.962 C 34.873 84.798,34.784 84.851,34.930 85.086 C 35.069 85.311,34.737 86.014,34.192 86.648 C 33.647 87.282,33.201 88.025,33.200 88.300 C 33.200 88.575,33.020 88.800,32.800 88.800 C 32.580 88.800,32.400 88.996,32.400 89.236 C 32.400 89.598,29.463 94.137,28.800 94.800 C 28.690 94.910,28.247 95.720,27.815 96.600 C 27.383 97.480,26.708 98.522,26.315 98.916 C 25.922 99.309,25.600 99.984,25.600 100.416 C 25.600 100.847,25.420 101.200,25.200 101.200 C 24.980 101.200,24.800 101.545,24.800 101.967 C 24.800 102.388,24.665 102.793,24.500 102.867 C 23.988 103.094,17.422 115.836,16.393 118.600 C 16.229 119.040,15.682 120.300,15.178 121.400 C 14.674 122.500,14.088 123.850,13.877 124.400 C 13.012 126.653,12.690 127.434,12.353 128.095 C 12.159 128.477,12.000 129.062,12.000 129.395 C 12.000 129.728,11.861 130.000,11.691 130.000 C 11.521 130.000,11.184 130.765,10.943 131.700 C 10.701 132.635,10.273 134.030,9.991 134.800 C 9.088 137.267,9.046 137.393,8.999 137.800 C 8.974 138.020,8.822 138.650,8.662 139.200 C 8.503 139.750,8.178 140.920,7.940 141.800 C 7.703 142.680,7.370 143.760,7.200 144.200 C 7.030 144.640,6.678 145.810,6.418 146.800 C 6.159 147.790,5.778 149.153,5.573 149.828 C 5.368 150.504,5.200 151.528,5.200 152.105 C 5.200 152.681,5.020 153.264,4.800 153.400 C 4.580 153.536,4.400 154.357,4.400 155.224 C 4.400 156.091,4.220 156.800,4.000 156.800 C 3.780 156.800,3.600 157.599,3.600 158.576 C 3.600 159.553,3.420 160.464,3.200 160.600 C 2.980 160.736,2.800 161.546,2.800 162.400 C 2.800 163.254,2.620 164.064,2.400 164.200 C 2.180 164.336,2.000 165.481,2.000 166.744 C 2.000 168.007,1.835 169.211,1.632 169.420 C 1.430 169.629,1.169 170.970,1.052 172.400 C 0.935 173.830,0.639 177.070,0.394 179.600 C -0.226 186.016,0.048 224.208,0.719 224.879 C 0.991 225.151,1.200 226.445,1.200 227.856 C 1.200 229.229,1.380 230.464,1.600 230.600 C 1.820 230.736,2.000 231.906,2.000 233.200 C 2.000 234.494,2.180 235.664,2.400 235.800 C 2.620 235.936,2.800 236.847,2.800 237.824 C 2.800 238.801,2.980 239.600,3.200 239.600 C 3.420 239.600,3.600 240.410,3.600 241.400 C 3.600 242.390,3.780 243.200,4.000 243.200 C 4.220 243.200,4.400 243.999,4.400 244.976 C 4.400 245.953,4.580 246.864,4.800 247.000 C 5.020 247.136,5.200 247.766,5.200 248.400 C 5.200 249.034,5.380 249.664,5.600 249.800 C 5.820 249.936,6.000 250.656,6.000 251.400 C 6.000 252.144,6.180 252.864,6.400 253.000 C 6.620 253.136,6.800 253.766,6.800 254.400 C 6.800 255.034,6.980 255.664,7.200 255.800 C 7.420 255.936,7.600 256.577,7.600 257.224 C 7.600 257.871,7.780 258.400,8.000 258.400 C 8.220 258.400,8.400 259.000,8.400 259.733 C 8.400 260.467,8.533 261.199,8.695 261.362 C 8.857 261.524,9.002 261.869,9.016 262.128 C 9.060 262.917,9.693 264.888,10.241 265.945 C 10.526 266.494,10.668 267.091,10.556 267.271 C 10.444 267.452,10.522 267.600,10.730 267.600 C 10.937 267.600,11.197 268.005,11.307 268.500 C 11.418 268.995,11.995 270.660,12.590 272.200 C 13.185 273.740,13.685 275.225,13.702 275.500 C 13.719 275.775,13.883 276.000,14.067 276.000 C 14.250 276.000,14.400 276.236,14.400 276.525 C 14.400 277.016,15.546 279.729,16.415 281.295 C 16.627 281.677,16.800 282.262,16.800 282.595 C 16.800 282.928,16.980 283.200,17.200 283.200 C 17.420 283.200,17.600 283.650,17.600 284.200 C 17.600 284.750,17.751 285.200,17.936 285.200 C 18.121 285.200,18.510 285.920,18.800 286.800 C 19.090 287.680,19.479 288.400,19.664 288.400 C 19.849 288.400,20.000 288.760,20.000 289.200 C 20.000 289.640,20.180 290.000,20.400 290.000 C 20.620 290.000,20.800 290.360,20.800 290.800 C 20.800 291.240,20.958 291.600,21.151 291.600 C 21.547 291.600,22.648 294.019,22.485 294.530 C 22.427 294.711,22.526 294.769,22.705 294.659 C 22.884 294.548,23.279 295.030,23.583 295.729 C 23.887 296.428,24.240 297.090,24.368 297.200 C 24.496 297.310,25.030 298.255,25.556 299.300 C 26.081 300.345,26.677 301.200,26.879 301.200 C 27.082 301.200,27.145 301.365,27.021 301.566 C 26.896 301.768,27.696 303.294,28.797 304.957 C 29.899 306.621,30.800 308.166,30.800 308.391 C 30.800 308.616,30.980 308.800,31.200 308.800 C 31.420 308.800,31.600 309.036,31.600 309.325 C 31.600 309.613,31.960 310.236,32.400 310.708 C 32.840 311.180,33.200 311.709,33.201 311.883 C 33.201 312.057,33.741 312.830,34.400 313.600 C 35.059 314.370,35.599 315.185,35.599 315.412 C 35.600 315.638,35.960 316.083,36.400 316.400 C 36.840 316.717,37.203 317.162,37.207 317.388 C 37.214 317.788,37.898 318.705,40.800 322.206 C 43.385 325.325,43.593 325.600,43.368 325.600 C 43.244 325.600,43.381 325.838,43.671 326.130 C 43.962 326.421,44.650 327.250,45.200 327.973 C 45.750 328.695,46.785 329.891,47.500 330.630 C 48.215 331.369,48.800 332.061,48.800 332.168 C 48.800 332.276,49.205 332.794,49.700 333.320 C 50.195 333.847,51.421 335.160,52.425 336.239 C 53.429 337.317,55.229 339.125,56.425 340.255 C 57.621 341.386,58.865 342.691,59.188 343.155 C 59.512 343.620,60.007 344.000,60.288 344.000 C 60.570 344.000,60.800 344.156,60.800 344.348 C 60.800 344.804,66.411 350.400,66.869 350.400 C 67.062 350.400,68.023 351.165,69.002 352.100 C 71.925 354.889,72.710 355.556,72.877 355.390 C 72.964 355.303,73.767 355.900,74.662 356.716 C 75.556 357.532,76.882 358.650,77.607 359.200 C 78.333 359.750,79.155 360.425,79.435 360.700 C 79.714 360.975,80.136 361.200,80.371 361.200 C 80.607 361.200,80.800 361.350,80.800 361.532 C 80.800 361.715,81.295 362.120,81.900 362.432 C 82.505 362.745,83.413 363.405,83.918 363.900 C 84.423 364.395,84.980 364.800,85.156 364.800 C 85.332 364.800,85.999 365.250,86.638 365.800 C 87.277 366.349,88.025 366.799,88.300 366.800 C 88.575 366.800,88.800 366.968,88.800 367.173 C 88.800 367.378,89.159 367.660,89.598 367.799 C 90.036 367.938,90.645 368.303,90.951 368.608 C 91.544 369.201,92.329 369.690,96.661 372.166 C 98.167 373.027,99.490 373.856,99.600 374.009 C 99.710 374.162,100.475 374.529,101.300 374.824 C 102.125 375.119,102.800 375.493,102.800 375.654 C 102.800 375.816,103.420 376.173,104.179 376.447 C 104.950 376.726,105.450 377.134,105.315 377.373 C 105.181 377.608,105.201 377.685,105.358 377.544 C 105.516 377.404,107.562 378.259,109.906 379.444 C 112.250 380.630,114.400 381.600,114.684 381.600 C 114.968 381.600,115.200 381.780,115.200 382.000 C 115.200 382.220,115.560 382.400,116.000 382.400 C 116.440 382.400,116.800 382.580,116.800 382.800 C 116.800 383.020,117.065 383.200,117.388 383.200 C 117.711 383.200,118.617 383.560,119.400 384.000 C 120.183 384.440,121.179 384.800,121.612 384.800 C 122.045 384.800,122.400 384.980,122.400 385.200 C 122.400 385.420,122.636 385.600,122.925 385.600 C 123.214 385.600,124.195 385.960,125.106 386.400 C 126.016 386.840,126.915 387.200,127.103 387.200 C 127.291 387.200,129.030 387.839,130.968 388.621 C 132.905 389.402,134.785 389.969,135.145 389.881 C 135.593 389.771,124.128 378.033,98.889 352.760 C 62.521 316.345,60.504 314.211,58.618 310.163 C 48.597 288.657,66.809 260.979,99.000 248.790 C 105.756 246.232,116.188 244.409,124.100 244.403 L 128.800 244.400 128.800 172.249 C 128.800 115.007,128.903 100.016,129.300 99.699 C 129.575 99.480,130.340 99.207,131.000 99.092 C 132.068 98.907,133.840 98.479,138.900 97.184 C 140.760 96.708,143.132 96.115,145.100 95.633 C 148.095 94.900,150.219 94.309,151.119 93.958 C 151.624 93.761,152.559 93.600,153.195 93.600 C 153.832 93.600,154.464 93.420,154.600 93.200 C 154.736 92.980,155.278 92.800,155.805 92.800 C 156.331 92.800,157.176 92.640,157.681 92.445 C 158.187 92.250,159.590 91.873,160.800 91.608 C 162.010 91.343,163.540 90.975,164.200 90.790 C 166.475 90.153,195.674 82.804,199.200 81.980 C 199.970 81.800,201.320 81.449,202.200 81.200 C 203.080 80.951,204.475 80.579,205.300 80.373 C 206.125 80.168,207.565 79.807,208.500 79.571 C 209.435 79.335,210.787 79.045,211.504 78.927 C 212.221 78.808,212.906 78.551,213.027 78.356 C 213.148 78.160,213.856 78.000,214.600 78.000 C 215.344 78.000,216.064 77.820,216.200 77.600 C 216.336 77.380,217.056 77.200,217.800 77.200 C 218.544 77.200,219.264 77.020,219.400 76.800 C 219.536 76.580,220.256 76.400,221.000 76.400 C 221.744 76.400,222.464 76.220,222.600 76.000 C 222.736 75.780,223.456 75.600,224.200 75.600 C 224.944 75.600,225.664 75.420,225.800 75.200 C 225.936 74.980,226.656 74.800,227.400 74.800 C 228.144 74.800,228.852 74.640,228.973 74.444 C 229.094 74.249,229.779 73.992,230.496 73.873 C 231.213 73.755,232.565 73.465,233.500 73.229 C 234.435 72.993,235.920 72.620,236.800 72.400 C 237.680 72.180,239.075 71.828,239.900 71.618 C 240.725 71.408,242.120 71.064,243.000 70.854 C 243.880 70.644,245.770 70.171,247.200 69.805 C 253.001 68.316,259.402 66.736,260.954 66.409 C 261.859 66.218,264.040 65.671,265.800 65.193 C 267.560 64.715,269.540 64.239,270.200 64.135 C 270.860 64.031,271.760 63.791,272.200 63.603 C 273.140 63.200,274.807 62.818,276.903 62.526 C 277.729 62.410,278.505 62.155,278.626 61.958 C 278.748 61.761,279.456 61.600,280.200 61.600 C 280.944 61.600,281.652 61.440,281.773 61.244 C 281.894 61.049,282.579 60.792,283.296 60.673 C 284.013 60.555,285.365 60.265,286.300 60.029 C 287.235 59.793,288.720 59.420,289.600 59.200 C 290.480 58.980,291.920 58.620,292.800 58.400 C 293.680 58.180,295.075 57.834,295.900 57.632 C 296.725 57.429,298.840 56.875,300.600 56.400 C 304.212 55.426,306.039 54.968,308.500 54.424 L 310.200 54.047 349.001 92.824 C 384.310 128.111,389.506 133.107,388.597 130.900 C 388.439 130.515,388.214 129.840,388.097 129.400 C 387.980 128.960,387.763 128.420,387.614 128.200 C 387.466 127.980,387.094 126.990,386.789 126.000 C 386.483 125.010,386.128 124.110,386.000 124.000 C 385.872 123.890,385.520 123.035,385.219 122.100 C 384.918 121.165,384.521 120.400,384.336 120.400 C 384.151 120.400,384.000 119.950,384.000 119.400 C 384.000 118.850,383.820 118.400,383.600 118.400 C 383.380 118.400,383.200 118.040,383.200 117.600 C 383.200 117.160,383.020 116.800,382.800 116.800 C 382.580 116.800,382.400 116.440,382.400 116.000 C 382.400 115.560,382.220 115.200,382.000 115.200 C 381.780 115.200,381.600 114.851,381.600 114.424 C 381.600 113.997,381.420 113.536,381.200 113.400 C 380.980 113.264,380.796 112.848,380.791 112.476 C 380.786 112.104,380.430 111.350,380.000 110.800 C 379.570 110.250,379.214 109.500,379.209 109.133 C 379.204 108.767,379.065 108.407,378.900 108.333 C 378.735 108.260,377.972 106.985,377.204 105.500 C 376.437 104.015,375.700 102.800,375.568 102.800 C 375.436 102.800,375.090 102.080,374.800 101.200 C 374.510 100.320,374.121 99.600,373.936 99.600 C 373.751 99.600,373.600 99.423,373.600 99.206 C 373.600 98.591,369.592 92.028,368.526 90.898 C 368.266 90.621,367.938 90.036,367.799 89.598 C 367.660 89.159,367.378 88.800,367.173 88.800 C 366.968 88.800,366.800 88.575,366.800 88.300 C 366.799 88.025,366.353 87.282,365.808 86.648 C 365.263 86.014,364.931 85.311,365.070 85.086 C 365.210 84.861,365.143 84.788,364.922 84.925 C 364.701 85.061,364.268 84.686,363.960 84.092 C 363.404 83.019,362.659 81.994,361.700 80.984 C 361.425 80.694,361.200 80.356,361.200 80.233 C 361.200 80.010,360.249 78.783,359.300 77.784 C 359.025 77.494,358.800 77.130,358.800 76.975 C 358.800 76.821,358.477 76.403,358.082 76.047 C 357.686 75.691,356.532 74.320,355.517 73.000 C 354.501 71.680,352.935 69.797,352.035 68.816 C 351.136 67.835,350.400 66.911,350.400 66.764 C 350.400 66.307,343.647 59.686,343.417 59.916 C 343.298 60.036,343.200 59.833,343.200 59.467 C 343.200 59.100,343.026 58.800,342.813 58.800 C 342.419 58.800,341.213 57.634,338.000 54.152 C 337.010 53.078,335.625 51.725,334.922 51.144 C 334.219 50.564,333.769 49.950,333.922 49.780 C 334.075 49.611,333.993 49.590,333.740 49.734 C 333.487 49.879,332.410 49.169,331.340 48.152 C 330.273 47.138,328.770 45.840,328.000 45.269 C 327.230 44.698,326.294 43.953,325.919 43.615 C 324.501 42.333,324.021 42.000,323.593 42.000 C 323.351 42.000,323.264 41.820,323.400 41.600 C 323.536 41.380,323.367 41.200,323.024 41.200 C 322.681 41.200,322.400 41.020,322.400 40.800 C 322.400 40.580,322.207 40.400,321.971 40.400 C 321.736 40.400,321.314 40.175,321.035 39.900 C 320.755 39.625,319.930 38.950,319.200 38.400 C 318.470 37.850,317.645 37.175,317.365 36.900 C 317.086 36.625,316.664 36.400,316.429 36.400 C 316.193 36.400,316.000 36.220,316.000 36.000 C 316.000 35.780,315.719 35.600,315.376 35.600 C 315.007 35.600,314.869 35.412,315.038 35.138 C 315.202 34.873,315.149 34.784,314.914 34.930 C 314.689 35.069,313.986 34.737,313.352 34.192 C 312.718 33.647,311.975 33.201,311.700 33.200 C 311.425 33.200,311.200 33.042,311.200 32.849 C 311.200 32.655,310.660 32.273,310.000 32.000 C 309.340 31.727,308.800 31.367,308.800 31.200 C 308.800 31.033,308.260 30.673,307.600 30.400 C 306.940 30.127,306.400 29.745,306.400 29.551 C 306.400 29.358,306.201 29.200,305.958 29.200 C 305.715 29.200,304.716 28.660,303.738 28.000 C 302.760 27.340,301.831 26.800,301.673 26.800 C 301.515 26.800,300.723 26.350,299.914 25.800 C 299.105 25.250,298.163 24.800,297.821 24.800 C 297.480 24.800,297.199 24.665,297.197 24.500 C 297.193 24.135,295.251 23.200,294.497 23.200 C 294.198 23.200,294.045 23.050,294.158 22.868 C 294.271 22.685,293.742 22.291,292.982 21.993 C 292.222 21.695,291.600 21.304,291.600 21.125 C 291.600 20.946,291.347 20.800,291.038 20.800 C 290.372 20.800,287.059 19.132,286.867 18.700 C 286.793 18.535,286.399 18.400,285.990 18.400 C 285.582 18.400,285.136 18.220,285.000 18.000 C 284.864 17.780,284.403 17.600,283.976 17.600 C 283.549 17.600,283.200 17.420,283.200 17.200 C 283.200 16.980,282.958 16.800,282.661 16.800 C 282.365 16.800,281.600 16.550,280.961 16.244 C 280.323 15.938,279.170 15.419,278.400 15.090 C 277.630 14.762,276.147 14.112,275.104 13.647 C 274.062 13.181,273.072 12.801,272.904 12.802 C 272.535 12.805,266.478 10.486,265.505 9.969 C 265.123 9.766,264.459 9.600,264.029 9.600 C 263.599 9.600,263.143 9.431,263.016 9.225 C 262.888 9.019,262.473 8.842,262.092 8.830 C 260.589 8.785,258.381 8.293,258.173 7.956 C 258.052 7.760,257.524 7.600,257.000 7.600 C 256.476 7.600,255.936 7.420,255.800 7.200 C 255.664 6.980,255.034 6.800,254.400 6.800 C 253.766 6.800,253.136 6.620,253.000 6.400 C 252.864 6.180,252.234 6.000,251.600 6.000 C 250.966 6.000,250.336 5.820,250.200 5.600 C 250.064 5.380,249.344 5.200,248.600 5.200 C 247.856 5.200,247.136 5.020,247.000 4.800 C 246.864 4.580,245.953 4.400,244.976 4.400 C 243.999 4.400,243.200 4.220,243.200 4.000 C 243.200 3.780,242.401 3.600,241.424 3.600 C 240.447 3.600,239.536 3.420,239.400 3.200 C 239.264 2.980,238.454 2.800,237.600 2.800 C 236.746 2.800,235.936 2.620,235.800 2.400 C 235.664 2.180,234.494 2.000,233.200 2.000 C 231.906 2.000,230.736 1.820,230.600 1.600 C 230.464 1.380,229.229 1.200,227.856 1.200 C 226.429 1.200,225.152 0.992,224.873 0.713 C 224.286 0.126,183.771 -0.123,178.600 0.429 " stroke="none" fill="#fbe383" fill-rule="evenodd"></path><path id="path3" d="M311.151 75.401 C 310.893 182.623,310.504 244.306,310.079 245.400 C 309.822 246.060,309.237 247.770,308.778 249.200 C 306.455 256.439,299.887 266.219,293.898 271.358 C 292.744 272.348,291.260 273.635,290.600 274.218 C 285.403 278.810,268.933 287.600,265.526 287.600 C 265.153 287.600,264.749 287.759,264.629 287.954 C 264.508 288.149,263.913 288.407,263.305 288.529 C 262.697 288.651,261.390 288.953,260.400 289.200 C 252.209 291.247,242.603 291.897,235.400 290.893 C 231.253 290.315,226.477 289.283,225.800 288.818 C 225.580 288.668,224.590 288.293,223.600 287.986 C 213.638 284.895,205.349 276.088,202.532 265.600 C 200.314 257.341,204.187 241.747,210.008 235.499 C 210.444 235.031,210.800 234.498,210.800 234.314 C 210.800 233.380,220.378 223.695,223.799 221.170 C 228.879 217.421,236.524 213.094,241.500 211.151 C 241.995 210.958,242.805 210.644,243.300 210.454 C 243.795 210.263,244.650 209.918,245.200 209.687 C 245.750 209.456,246.650 209.150,247.200 209.006 C 247.750 208.863,248.740 208.588,249.400 208.396 C 254.447 206.922,255.532 206.707,262.600 205.784 C 265.240 205.439,268.840 205.190,270.600 205.230 C 272.360 205.271,274.025 205.281,274.300 205.252 C 274.696 205.211,274.800 196.663,274.800 163.986 C 274.800 123.363,274.789 122.778,274.026 123.186 C 273.601 123.414,272.711 123.600,272.050 123.600 C 271.388 123.600,270.748 123.760,270.627 123.956 C 270.420 124.292,269.407 124.528,265.897 125.058 C 265.071 125.182,264.295 125.445,264.174 125.642 C 264.052 125.839,263.434 126.000,262.800 126.000 C 262.166 126.000,261.536 126.180,261.400 126.400 C 261.264 126.620,260.544 126.800,259.800 126.800 C 259.056 126.800,258.336 126.980,258.200 127.200 C 258.064 127.420,257.344 127.600,256.600 127.600 C 255.856 127.600,255.136 127.780,255.000 128.000 C 254.864 128.220,254.144 128.400,253.400 128.400 C 252.656 128.400,251.936 128.580,251.800 128.800 C 251.664 129.020,250.944 129.200,250.200 129.200 C 249.456 129.200,248.736 129.380,248.600 129.600 C 248.464 129.820,247.971 130.000,247.505 130.000 C 247.038 130.000,246.104 130.168,245.428 130.373 C 244.753 130.578,243.480 130.923,242.600 131.140 C 240.825 131.577,238.380 132.198,236.100 132.789 C 235.275 133.003,231.900 133.826,228.600 134.617 C 218.481 137.043,216.948 137.427,214.972 138.027 C 214.296 138.232,213.362 138.400,212.895 138.400 C 212.429 138.400,211.936 138.580,211.800 138.800 C 211.664 139.020,210.944 139.200,210.200 139.200 C 209.456 139.200,208.736 139.380,208.600 139.600 C 208.464 139.820,207.744 140.000,207.000 140.000 C 206.256 140.000,205.548 140.161,205.426 140.358 C 205.305 140.555,204.529 140.813,203.703 140.932 C 202.876 141.051,201.300 141.350,200.200 141.596 C 199.100 141.843,197.613 142.144,196.896 142.266 C 196.179 142.388,195.494 142.649,195.373 142.844 C 195.252 143.040,194.632 143.200,193.995 143.200 C 193.359 143.200,192.424 143.361,191.919 143.558 C 190.710 144.030,187.910 144.770,182.600 146.021 C 181.500 146.280,180.060 146.639,179.400 146.819 C 176.870 147.508,168.407 149.608,165.914 150.166 L 164.827 150.408 164.699 215.904 L 164.571 281.400 163.708 284.633 C 162.889 287.698,162.589 288.567,161.370 291.406 C 161.085 292.069,160.663 293.059,160.433 293.606 C 157.863 299.715,150.034 308.862,142.509 314.550 C 136.854 318.823,125.182 325.200,123.014 325.200 C 122.702 325.200,122.349 325.359,122.230 325.552 C 122.110 325.746,121.604 325.998,121.106 326.112 C 120.608 326.226,118.670 326.763,116.800 327.305 C 99.508 332.323,81.637 330.708,70.000 323.076 C 69.010 322.427,83.410 337.147,102.000 355.788 C 131.256 385.124,135.692 389.725,135.000 390.012 C 134.291 390.306,134.322 390.347,135.276 390.372 C 135.868 390.387,136.456 390.567,136.583 390.772 C 136.709 390.977,137.802 391.268,139.012 391.419 C 140.221 391.570,141.309 391.852,141.429 392.047 C 141.549 392.241,142.177 392.400,142.824 392.400 C 143.471 392.400,144.000 392.580,144.000 392.800 C 144.000 393.020,144.540 393.200,145.200 393.200 C 145.860 393.200,146.400 393.380,146.400 393.600 C 146.400 393.820,147.120 394.000,148.000 394.000 C 148.880 394.000,149.600 394.180,149.600 394.400 C 149.600 394.620,150.320 394.800,151.200 394.800 C 152.080 394.800,152.800 394.943,152.800 395.118 C 152.800 395.293,153.475 395.482,154.299 395.537 C 155.124 395.593,155.970 395.810,156.179 396.019 C 156.389 396.229,157.334 396.400,158.280 396.400 C 159.386 396.400,160.002 396.578,160.006 396.900 C 160.010 397.233,160.142 397.200,160.400 396.800 C 160.658 396.400,160.790 396.367,160.794 396.700 C 160.798 397.025,161.430 397.200,162.600 397.200 C 163.590 397.200,164.400 397.380,164.400 397.600 C 164.400 397.820,165.379 398.000,166.576 398.000 C 167.773 398.000,168.864 398.180,169.000 398.400 C 169.362 398.986,170.098 398.890,169.765 398.300 C 169.539 397.900,169.590 397.900,170.021 398.300 C 170.318 398.575,171.499 398.800,172.647 398.800 C 173.960 398.800,174.795 398.985,174.900 399.300 C 175.144 400.032,224.856 400.032,225.100 399.300 C 225.212 398.965,226.171 398.800,228.010 398.800 C 229.518 398.800,230.864 398.620,231.000 398.400 C 231.136 398.180,232.317 398.000,233.624 398.000 C 234.941 398.000,236.000 397.822,236.000 397.600 C 236.000 397.380,236.889 397.200,237.976 397.200 C 239.063 397.200,240.064 397.020,240.200 396.800 C 240.336 396.580,241.146 396.400,242.000 396.400 C 242.854 396.400,243.664 396.220,243.800 396.000 C 243.936 395.780,244.757 395.600,245.624 395.600 C 246.491 395.600,247.200 395.420,247.200 395.200 C 247.200 394.980,247.920 394.800,248.800 394.800 C 249.680 394.800,250.400 394.620,250.400 394.400 C 250.400 394.180,251.131 394.000,252.024 394.000 C 253.004 394.000,253.549 393.842,253.400 393.600 C 253.253 393.362,253.729 393.200,254.576 393.200 C 255.359 393.200,256.000 393.020,256.000 392.800 C 256.000 392.580,256.630 392.400,257.400 392.400 C 258.170 392.400,258.800 392.241,258.800 392.046 C 258.800 391.851,259.787 391.569,260.994 391.418 C 262.200 391.267,263.291 390.977,263.417 390.772 C 263.544 390.567,264.051 390.400,264.544 390.400 C 265.037 390.400,265.611 390.257,265.820 390.082 C 266.029 389.907,266.920 389.535,267.800 389.255 C 268.680 388.976,269.760 388.603,270.200 388.427 C 271.954 387.725,273.434 387.089,274.095 386.753 C 274.477 386.559,275.062 386.400,275.395 386.400 C 275.728 386.400,276.000 386.220,276.000 386.000 C 276.000 385.780,276.540 385.600,277.200 385.600 C 277.860 385.600,278.400 385.420,278.400 385.200 C 278.400 384.980,278.760 384.800,279.200 384.800 C 279.640 384.800,280.000 384.620,280.000 384.400 C 280.000 384.180,280.360 384.000,280.800 384.000 C 281.240 384.000,281.600 383.820,281.600 383.600 C 281.600 383.380,281.836 383.200,282.125 383.200 C 282.414 383.200,283.395 382.840,284.306 382.400 C 285.216 381.960,286.240 381.600,286.581 381.600 C 286.921 381.600,287.200 381.420,287.200 381.200 C 287.200 380.980,287.560 380.800,288.000 380.800 C 288.440 380.800,288.800 380.654,288.800 380.475 C 288.800 380.296,289.430 379.902,290.200 379.600 C 290.970 379.298,291.600 378.904,291.600 378.725 C 291.600 378.546,292.005 378.397,292.500 378.394 C 293.228 378.389,293.285 378.314,292.800 378.000 C 292.331 377.697,292.434 377.611,293.276 377.606 C 293.868 377.603,294.464 377.420,294.600 377.200 C 294.736 376.980,295.130 376.800,295.477 376.800 C 295.823 376.800,296.397 376.469,296.753 376.064 C 297.109 375.659,297.929 375.197,298.576 375.037 C 299.222 374.878,300.240 374.399,300.837 373.973 C 301.435 373.548,302.121 373.200,302.362 373.200 C 302.603 373.200,302.800 373.020,302.800 372.800 C 302.800 372.580,303.078 372.400,303.417 372.400 C 303.756 372.400,304.389 372.069,304.823 371.664 C 305.258 371.259,306.105 370.675,306.707 370.367 C 307.308 370.058,308.091 369.489,308.447 369.103 C 308.803 368.716,309.348 368.400,309.659 368.400 C 309.969 368.400,310.483 368.040,310.800 367.600 C 311.117 367.160,311.657 366.800,312.000 366.800 C 312.343 366.800,312.883 366.440,313.200 366.000 C 313.517 365.560,314.057 365.200,314.400 365.200 C 314.743 365.200,315.283 364.840,315.600 364.400 C 315.917 363.960,316.380 363.600,316.629 363.600 C 316.878 363.600,317.646 363.060,318.337 362.400 C 319.028 361.740,319.792 361.200,320.036 361.200 C 320.280 361.200,320.983 360.660,321.600 360.000 C 322.217 359.340,322.919 358.800,323.160 358.800 C 323.402 358.800,323.600 358.609,323.600 358.376 C 323.600 358.143,323.746 358.043,323.924 358.153 C 324.102 358.263,324.685 357.824,325.219 357.177 C 325.754 356.529,326.391 356.000,326.635 356.000 C 326.878 356.000,328.213 354.920,329.600 353.600 C 330.987 352.280,332.280 351.200,332.474 351.200 C 332.739 351.200,338.453 345.568,341.914 341.896 C 342.071 341.729,344.045 339.806,346.300 337.624 C 348.555 335.441,350.400 333.555,350.400 333.432 C 350.400 333.122,351.445 331.890,353.900 329.304 C 355.055 328.088,356.000 326.922,356.000 326.713 C 356.000 326.504,356.630 325.721,357.400 324.974 C 358.170 324.226,358.800 323.413,358.800 323.168 C 358.800 322.922,359.340 322.217,360.000 321.600 C 360.660 320.983,361.200 320.280,361.200 320.036 C 361.200 319.792,361.740 319.028,362.400 318.337 C 363.060 317.646,363.600 316.878,363.600 316.629 C 363.600 316.380,363.960 315.917,364.400 315.600 C 364.840 315.283,365.200 314.743,365.200 314.400 C 365.200 314.057,365.560 313.517,366.000 313.200 C 366.440 312.883,366.800 312.343,366.800 312.000 C 366.800 311.657,367.160 311.117,367.600 310.800 C 368.040 310.483,368.400 309.943,368.400 309.600 C 368.400 309.257,368.760 308.717,369.200 308.400 C 369.640 308.083,370.000 307.666,370.000 307.473 C 370.000 307.281,370.349 306.633,370.776 306.034 C 371.203 305.434,371.608 304.686,371.676 304.372 C 371.744 304.057,372.070 303.528,372.400 303.196 C 373.432 302.156,375.194 298.877,375.198 297.988 C 375.199 297.652,375.560 297.117,376.000 296.800 C 376.440 296.483,376.800 295.903,376.800 295.512 C 376.800 295.120,376.980 294.800,377.200 294.800 C 377.420 294.800,377.600 294.440,377.600 294.000 C 377.600 293.560,377.780 293.200,378.000 293.200 C 378.220 293.200,378.400 292.840,378.400 292.400 C 378.400 291.960,378.546 291.600,378.725 291.600 C 378.904 291.600,379.298 290.970,379.600 290.200 C 379.902 289.430,380.296 288.800,380.475 288.800 C 380.654 288.800,380.800 288.440,380.800 288.000 C 380.800 287.560,380.980 287.200,381.200 287.200 C 381.420 287.200,381.600 286.739,381.600 286.176 C 381.600 285.596,381.773 285.260,382.000 285.400 C 382.220 285.536,382.400 285.287,382.400 284.847 C 382.400 284.407,382.580 283.936,382.800 283.800 C 383.020 283.664,383.200 283.113,383.200 282.576 C 383.200 282.039,383.380 281.600,383.600 281.600 C 383.820 281.600,384.000 281.240,384.000 280.800 C 384.000 280.360,384.180 280.000,384.400 280.000 C 384.620 280.000,384.800 279.640,384.800 279.200 C 384.800 278.760,384.980 278.400,385.200 278.400 C 385.420 278.400,385.600 277.860,385.600 277.200 C 385.600 276.540,385.780 276.000,386.000 276.000 C 386.220 276.000,386.400 275.728,386.400 275.395 C 386.400 275.062,386.559 274.477,386.753 274.095 C 386.948 273.713,387.329 272.860,387.600 272.200 C 387.871 271.540,388.252 270.687,388.447 270.305 C 388.641 269.923,388.800 269.336,388.800 269.000 C 388.800 268.664,388.959 268.077,389.153 267.695 C 390.161 265.714,391.600 261.005,391.600 259.688 C 391.600 259.226,391.780 258.736,392.000 258.600 C 392.220 258.464,392.400 257.823,392.400 257.176 C 392.400 256.529,392.580 256.000,392.800 256.000 C 393.020 256.000,393.200 255.471,393.200 254.824 C 393.200 254.177,393.380 253.536,393.600 253.400 C 393.820 253.264,394.000 252.533,394.000 251.776 C 394.000 251.019,394.180 250.400,394.400 250.400 C 394.620 250.400,394.800 249.680,394.800 248.800 C 394.800 247.920,394.980 247.200,395.200 247.200 C 395.420 247.200,395.600 246.480,395.600 245.600 C 395.600 244.720,395.780 244.000,396.000 244.000 C 396.220 244.000,396.400 243.100,396.400 242.000 C 396.400 240.670,396.567 239.998,396.900 239.994 C 397.233 239.990,397.200 239.858,396.800 239.600 C 396.400 239.342,396.367 239.210,396.700 239.206 C 397.002 239.202,397.200 238.655,397.200 237.824 C 397.200 237.067,397.380 236.336,397.600 236.200 C 397.820 236.064,398.000 234.894,398.000 233.600 C 398.000 232.306,398.180 231.136,398.400 231.000 C 398.620 230.864,398.800 229.518,398.800 228.010 C 398.800 226.171,398.965 225.212,399.300 225.100 C 399.693 224.969,399.800 219.729,399.800 200.687 C 399.800 181.823,399.689 176.329,399.300 175.940 C 398.986 175.626,398.800 174.287,398.800 172.344 C 398.800 170.641,398.620 169.136,398.400 169.000 C 398.180 168.864,398.000 167.683,398.000 166.376 C 398.000 165.059,397.822 164.000,397.600 164.000 C 397.380 164.000,397.200 163.100,397.200 162.000 C 397.200 160.900,397.020 160.000,396.800 160.000 C 396.580 160.000,396.400 159.100,396.400 158.000 C 396.400 156.900,396.220 156.000,396.000 156.000 C 395.780 156.000,395.600 155.565,395.600 155.033 C 395.600 154.502,395.375 153.975,395.100 153.864 C 394.724 153.711,394.748 153.556,395.200 153.237 C 395.607 152.949,395.639 152.810,395.300 152.806 C 395.025 152.803,394.800 152.361,394.800 151.824 C 394.800 151.287,394.601 150.724,394.357 150.574 C 394.049 150.383,394.079 150.196,394.457 149.956 C 394.857 149.703,394.868 149.611,394.500 149.606 C 394.184 149.602,394.000 149.010,394.000 148.000 C 394.000 147.120,393.820 146.400,393.600 146.400 C 393.380 146.400,393.200 146.040,393.200 145.600 C 393.200 145.160,392.975 144.797,392.700 144.794 C 392.367 144.790,392.400 144.658,392.800 144.400 C 393.200 144.142,393.233 144.010,392.900 144.006 C 392.615 144.003,392.400 143.495,392.400 142.824 C 392.400 142.177,392.244 141.551,392.054 141.433 C 391.864 141.316,391.601 140.540,391.469 139.710 C 391.089 137.301,390.974 136.840,390.678 136.545 C 390.525 136.392,390.400 135.883,390.400 135.413 C 390.400 134.944,390.235 134.389,390.034 134.180 C 389.832 133.971,389.607 133.352,389.534 132.804 C 389.450 132.181,389.100 131.757,388.600 131.672 C 388.160 131.597,370.565 114.315,349.500 93.269 L 311.200 55.002 311.151 75.401 " stroke="none" fill="#fcdc44" fill-rule="evenodd"></path><path id="path4" d="M308.400 54.424 C 305.310 55.156,303.659 55.575,300.600 56.400 C 298.840 56.875,296.725 57.429,295.900 57.632 C 295.075 57.834,293.680 58.180,292.800 58.400 C 291.920 58.620,290.435 58.988,289.500 59.218 C 288.565 59.448,287.170 59.800,286.400 60.000 C 285.630 60.200,284.460 60.477,283.800 60.615 C 282.053 60.979,281.462 61.196,281.664 61.398 C 281.763 61.496,283.993 61.027,286.622 60.355 C 289.250 59.683,292.030 58.977,292.800 58.785 C 293.570 58.593,294.920 58.257,295.800 58.037 C 296.680 57.817,298.120 57.457,299.000 57.237 C 299.880 57.017,301.365 56.648,302.300 56.418 C 304.969 55.762,306.875 55.285,308.502 54.868 C 309.548 54.600,310.087 54.617,310.276 54.923 C 310.426 55.166,310.541 96.862,310.532 147.582 L 310.516 239.800 310.853 147.435 C 311.183 56.904,311.156 53.843,310.051 54.046 C 309.913 54.071,309.170 54.241,308.400 54.424 M278.604 61.994 C 278.452 62.240,278.855 62.294,279.680 62.137 C 281.449 61.800,281.601 61.600,280.090 61.600 C 279.407 61.600,278.738 61.777,278.604 61.994 M275.200 62.800 C 274.436 63.294,275.258 63.294,276.800 62.800 L 277.800 62.480 276.800 62.446 C 276.250 62.427,275.530 62.587,275.200 62.800 M272.190 63.616 C 272.021 63.889,272.323 63.938,273.066 63.760 C 274.599 63.392,274.744 63.200,273.490 63.200 C 272.917 63.200,272.332 63.387,272.190 63.616 M268.800 64.400 C 268.036 64.894,268.858 64.894,270.400 64.400 L 271.400 64.080 270.400 64.046 C 269.850 64.027,269.130 64.187,268.800 64.400 M265.800 65.200 C 265.296 65.417,265.222 65.544,265.600 65.544 C 265.930 65.544,266.560 65.389,267.000 65.200 C 267.504 64.983,267.578 64.856,267.200 64.856 C 266.870 64.856,266.240 65.011,265.800 65.200 M262.800 66.000 C 262.267 66.345,262.267 66.388,262.800 66.388 C 263.130 66.388,263.670 66.213,264.000 66.000 C 264.533 65.655,264.533 65.612,264.000 65.612 C 263.670 65.612,263.130 65.787,262.800 66.000 M259.200 66.800 L 258.200 67.120 259.200 67.154 C 259.750 67.173,260.470 67.013,260.800 66.800 C 261.564 66.306,260.742 66.306,259.200 66.800 M256.000 67.600 L 255.000 67.920 256.000 67.954 C 256.550 67.973,257.270 67.813,257.600 67.600 C 258.364 67.106,257.542 67.106,256.000 67.600 M253.000 68.400 L 252.200 68.744 253.000 68.766 C 253.440 68.778,254.070 68.613,254.400 68.400 C 255.195 67.886,254.196 67.886,253.000 68.400 M247.600 69.662 C 245.950 70.100,243.880 70.634,243.000 70.848 C 242.120 71.062,240.725 71.408,239.900 71.618 C 239.075 71.828,237.680 72.180,236.800 72.400 C 235.920 72.620,234.435 72.993,233.500 73.229 C 232.565 73.465,231.213 73.755,230.496 73.873 C 229.779 73.992,229.100 74.238,228.987 74.421 C 228.743 74.816,231.508 74.438,232.474 73.944 C 232.844 73.755,233.599 73.600,234.150 73.600 C 234.702 73.600,235.264 73.420,235.400 73.200 C 235.536 72.980,236.168 72.800,236.805 72.800 C 237.441 72.800,238.376 72.639,238.881 72.442 C 240.205 71.925,246.559 70.268,249.716 69.615 C 251.243 69.299,252.219 68.773,251.167 68.832 C 250.855 68.850,249.250 69.223,247.600 69.662 M225.800 75.200 C 225.664 75.420,224.944 75.600,224.200 75.600 C 223.456 75.600,222.736 75.780,222.600 76.000 C 222.464 76.220,221.744 76.400,221.000 76.400 C 220.256 76.400,219.532 76.587,219.390 76.816 C 219.076 77.324,220.144 77.123,226.100 75.551 C 228.681 74.870,228.690 74.865,227.324 74.832 C 226.622 74.814,225.936 74.980,225.800 75.200 M216.204 77.594 C 216.052 77.840,216.455 77.894,217.280 77.737 C 219.049 77.400,219.201 77.200,217.690 77.200 C 217.007 77.200,216.338 77.377,216.204 77.594 M213.004 78.394 C 212.852 78.640,213.255 78.694,214.080 78.537 C 215.849 78.200,216.001 78.000,214.490 78.000 C 213.807 78.000,213.138 78.177,213.004 78.394 M210.000 79.206 C 209.578 79.482,209.815 79.523,210.800 79.342 C 212.525 79.025,212.851 78.798,211.567 78.806 C 211.035 78.809,210.330 78.989,210.000 79.206 M206.800 80.000 C 206.036 80.494,206.858 80.494,208.400 80.000 L 209.400 79.680 208.400 79.646 C 207.850 79.627,207.130 79.787,206.800 80.000 M203.600 80.800 C 202.836 81.294,203.658 81.294,205.200 80.800 L 206.200 80.480 205.200 80.446 C 204.650 80.427,203.930 80.587,203.600 80.800 M200.800 81.600 C 200.267 81.945,200.267 81.988,200.800 81.988 C 201.130 81.988,201.670 81.813,202.000 81.600 C 202.533 81.255,202.533 81.212,202.000 81.212 C 201.670 81.212,201.130 81.387,200.800 81.600 M197.600 82.400 C 196.813 82.909,198.216 82.909,199.400 82.400 C 200.133 82.085,200.116 82.054,199.200 82.034 C 198.650 82.022,197.930 82.187,197.600 82.400 M191.483 83.888 C 189.329 84.445,187.651 84.984,187.754 85.088 C 187.940 85.273,196.445 83.264,196.767 82.958 C 197.156 82.589,195.143 82.943,191.483 83.888 M178.200 87.256 C 174.020 88.345,169.790 89.417,168.800 89.638 C 167.810 89.858,166.370 90.194,165.600 90.384 C 160.591 91.617,158.858 92.065,157.772 92.410 C 157.096 92.625,156.162 92.800,155.695 92.800 C 155.229 92.800,154.724 92.999,154.574 93.243 C 154.397 93.528,154.567 93.612,155.050 93.479 C 155.462 93.366,157.420 92.891,159.400 92.423 C 161.380 91.956,163.540 91.416,164.200 91.222 C 164.860 91.029,168.460 90.131,172.200 89.226 C 175.940 88.322,179.540 87.420,180.200 87.222 C 180.860 87.024,182.705 86.554,184.300 86.177 C 187.112 85.513,187.938 85.160,186.500 85.238 C 186.115 85.259,182.380 86.167,178.200 87.256 M151.000 93.999 C 150.560 94.188,149.660 94.468,149.000 94.621 C 148.340 94.774,147.980 94.962,148.200 95.040 C 148.420 95.117,149.860 94.841,151.400 94.426 C 153.237 93.932,153.787 93.669,153.000 93.663 C 152.340 93.658,151.440 93.809,151.000 93.999 M145.200 95.600 C 144.436 96.094,145.258 96.094,146.800 95.600 L 147.800 95.280 146.800 95.246 C 146.250 95.227,145.530 95.387,145.200 95.600 M142.000 96.400 C 141.205 96.914,142.204 96.914,143.400 96.400 L 144.200 96.056 143.400 96.034 C 142.960 96.022,142.330 96.187,142.000 96.400 M138.800 97.200 C 138.005 97.714,139.004 97.714,140.200 97.200 L 141.000 96.856 140.200 96.834 C 139.760 96.822,139.130 96.987,138.800 97.200 M135.400 98.000 L 134.600 98.344 135.400 98.332 C 135.840 98.326,136.650 98.176,137.200 98.000 L 138.200 97.680 137.200 97.668 C 136.650 97.662,135.840 97.811,135.400 98.000 M132.400 98.800 C 131.605 99.314,132.604 99.314,133.800 98.800 L 134.600 98.456 133.800 98.434 C 133.360 98.422,132.730 98.587,132.400 98.800 M129.244 99.747 C 128.919 100.139,128.821 104.692,128.900 115.847 L 129.010 131.400 129.105 115.733 L 129.200 100.067 130.300 99.665 C 131.235 99.323,131.273 99.258,130.549 99.232 C 130.081 99.214,129.494 99.446,129.244 99.747 M272.200 123.200 L 271.000 123.505 272.200 123.547 C 272.860 123.569,273.670 123.413,274.000 123.200 C 274.743 122.720,274.087 122.720,272.200 123.200 M274.898 164.100 C 274.820 196.628,274.696 205.211,274.300 205.252 C 274.025 205.281,272.360 205.271,270.600 205.230 C 266.418 205.134,256.209 206.437,252.300 207.567 C 249.097 208.492,248.165 208.755,247.200 209.006 C 246.650 209.150,245.750 209.456,245.200 209.687 C 244.650 209.918,243.795 210.263,243.300 210.454 C 242.805 210.644,241.995 210.958,241.500 211.151 C 236.524 213.094,228.879 217.421,223.799 221.170 C 220.378 223.695,210.800 233.380,210.800 234.314 C 210.800 234.498,210.444 235.031,210.008 235.499 C 208.395 237.231,205.087 243.676,203.694 247.800 C 198.398 263.488,204.371 278.125,219.337 286.135 C 220.842 286.941,222.282 287.595,222.537 287.589 C 222.792 287.584,221.740 286.907,220.200 286.085 C 208.120 279.641,202.376 270.789,202.414 258.680 C 202.427 254.618,202.609 253.393,203.966 248.200 C 207.046 236.414,220.729 221.764,235.548 214.388 C 243.188 210.585,247.039 209.275,258.000 206.749 C 258.990 206.521,263.179 206.232,267.308 206.106 C 274.507 205.887,274.824 205.843,275.018 205.039 C 275.129 204.577,275.169 185.930,275.108 163.600 L 274.996 123.000 274.898 164.100 M269.200 124.000 L 268.200 124.320 269.276 124.360 C 269.868 124.382,270.464 124.220,270.600 124.000 C 270.881 123.545,270.620 123.545,269.200 124.000 M265.800 124.800 L 264.600 125.105 265.800 125.147 C 266.460 125.169,267.270 125.013,267.600 124.800 C 268.343 124.320,267.687 124.320,265.800 124.800 M262.400 125.662 C 260.477 126.184,258.532 126.683,256.400 127.200 C 255.410 127.440,253.925 127.808,253.100 128.018 C 252.275 128.228,250.880 128.580,250.000 128.800 C 249.120 129.020,247.680 129.380,246.800 129.600 C 245.920 129.820,244.435 130.188,243.500 130.418 C 242.565 130.648,241.125 131.008,240.300 131.218 C 239.475 131.428,238.125 131.764,237.300 131.964 C 233.383 132.915,230.494 133.652,229.400 133.979 C 228.740 134.176,226.859 134.655,225.220 135.042 C 223.582 135.430,222.442 135.814,222.689 135.896 C 223.062 136.021,229.238 134.584,236.200 132.755 C 237.080 132.523,238.430 132.184,239.200 132.000 C 241.592 131.429,244.147 130.762,245.428 130.373 C 246.104 130.168,247.038 130.000,247.505 130.000 C 247.971 130.000,248.464 129.820,248.600 129.600 C 248.736 129.380,249.456 129.200,250.200 129.200 C 250.944 129.200,251.664 129.020,251.800 128.800 C 251.936 128.580,252.656 128.400,253.400 128.400 C 254.144 128.400,254.864 128.220,255.000 128.000 C 255.136 127.780,255.856 127.600,256.600 127.600 C 257.344 127.600,258.064 127.420,258.200 127.200 C 258.336 126.980,259.056 126.800,259.800 126.800 C 260.544 126.800,261.264 126.620,261.400 126.400 C 261.536 126.180,262.166 126.000,262.800 126.000 C 263.434 126.000,264.064 125.820,264.200 125.600 C 264.485 125.138,264.306 125.144,262.400 125.662 M219.800 136.400 L 219.000 136.744 219.800 136.766 C 220.240 136.778,220.870 136.613,221.200 136.400 C 221.995 135.886,220.996 135.886,219.800 136.400 M216.800 137.200 C 216.267 137.545,216.267 137.588,216.800 137.588 C 217.130 137.588,217.670 137.413,218.000 137.200 C 218.533 136.855,218.533 136.812,218.000 136.812 C 217.670 136.812,217.130 136.987,216.800 137.200 M213.400 138.000 L 212.600 138.344 213.400 138.366 C 213.840 138.378,214.470 138.213,214.800 138.000 C 215.595 137.486,214.596 137.486,213.400 138.000 M210.200 138.800 C 209.486 139.107,209.515 139.147,210.476 139.172 C 211.068 139.187,211.664 139.020,211.800 138.800 C 212.095 138.322,211.311 138.322,210.200 138.800 M207.000 139.600 L 205.800 139.905 207.076 139.953 C 207.778 139.979,208.464 139.820,208.600 139.600 C 208.874 139.157,208.740 139.157,207.000 139.600 M203.800 140.400 L 202.600 140.705 203.876 140.753 C 204.578 140.779,205.264 140.620,205.400 140.400 C 205.674 139.957,205.540 139.957,203.800 140.400 M200.000 141.200 C 199.020 141.514,199.024 141.521,200.200 141.554 C 200.860 141.573,201.670 141.413,202.000 141.200 C 202.758 140.710,201.530 140.710,200.000 141.200 M196.800 142.000 L 195.800 142.320 196.800 142.354 C 197.350 142.373,198.070 142.213,198.400 142.000 C 199.164 141.506,198.342 141.506,196.800 142.000 M193.600 142.800 C 192.645 143.106,192.657 143.122,193.876 143.160 C 194.578 143.182,195.264 143.020,195.400 142.800 C 195.684 142.340,195.036 142.340,193.600 142.800 M190.400 143.624 C 185.473 144.792,180.872 145.941,179.400 146.371 C 178.740 146.563,176.580 147.105,174.600 147.574 C 172.620 148.042,170.460 148.585,169.800 148.780 C 169.140 148.975,167.970 149.266,167.200 149.427 C 166.430 149.588,166.013 149.794,166.274 149.885 C 166.707 150.035,172.927 148.582,179.400 146.819 C 180.060 146.639,181.500 146.280,182.600 146.021 C 187.519 144.862,190.832 143.985,191.800 143.585 C 192.796 143.173,192.234 143.189,190.400 143.624 M164.267 150.267 C 164.120 150.413,164.000 179.867,164.000 215.720 C 164.000 261.083,163.869 281.408,163.568 282.554 C 163.331 283.459,162.950 284.920,162.722 285.800 C 158.485 302.147,141.588 318.337,121.600 325.200 C 120.830 325.464,119.840 325.822,119.400 325.995 C 118.960 326.167,117.790 326.522,116.800 326.782 C 115.810 327.041,114.447 327.422,113.772 327.627 C 113.096 327.832,112.097 328.000,111.552 328.000 C 111.006 328.000,110.389 328.163,110.180 328.363 C 108.582 329.891,89.965 329.859,84.200 328.319 C 81.340 327.555,79.819 327.097,78.800 326.691 C 78.250 326.472,77.440 326.160,77.000 325.997 C 71.412 323.931,64.824 319.019,61.982 314.800 C 61.463 314.030,60.931 313.310,60.800 313.200 C 60.669 313.090,60.064 311.968,59.455 310.707 C 57.459 306.572,56.811 303.914,56.408 298.200 L 56.097 293.800 56.209 298.800 C 56.755 323.266,84.972 336.541,116.800 327.305 C 118.670 326.763,120.608 326.226,121.106 326.112 C 121.604 325.998,122.110 325.746,122.230 325.552 C 122.349 325.359,122.702 325.200,123.014 325.200 C 125.182 325.200,136.854 318.823,142.509 314.550 C 150.034 308.862,157.863 299.715,160.433 293.606 C 160.663 293.059,161.085 292.069,161.370 291.406 C 162.589 288.567,162.889 287.698,163.708 284.633 L 164.571 281.400 164.699 216.015 C 164.799 165.240,164.936 150.561,165.314 150.321 C 165.660 150.101,165.618 150.010,165.167 150.006 C 164.818 150.003,164.413 150.120,164.267 150.267 M128.898 201.300 L 128.800 244.400 124.100 244.403 C 116.054 244.409,104.927 246.385,98.800 248.897 C 98.250 249.123,97.440 249.441,97.000 249.604 C 78.299 256.544,62.582 271.539,57.595 287.200 C 56.705 289.995,56.083 294.037,56.765 292.600 C 56.973 292.160,57.156 291.303,57.172 290.695 C 57.187 290.087,57.358 289.277,57.551 288.895 C 57.744 288.513,58.116 287.480,58.378 286.600 C 60.898 278.139,70.013 266.215,78.400 260.408 C 79.170 259.875,79.890 259.340,80.000 259.219 C 80.110 259.098,80.695 258.744,81.300 258.432 C 81.905 258.120,82.400 257.715,82.400 257.532 C 82.400 257.350,82.655 257.200,82.967 257.200 C 83.278 257.200,83.593 257.065,83.667 256.900 C 84.228 255.638,98.008 249.410,103.400 247.982 C 112.286 245.628,120.886 244.470,125.975 244.943 C 128.095 245.140,128.871 245.079,129.014 244.704 C 129.120 244.427,129.159 224.850,129.101 201.200 L 128.996 158.200 128.898 201.300 M310.072 241.603 C 309.986 243.748,308.478 249.412,307.259 252.162 C 306.781 253.241,306.467 254.200,306.561 254.294 C 306.893 254.626,308.299 250.963,309.975 245.400 C 310.240 244.520,310.386 242.900,310.300 241.800 L 310.144 239.800 310.072 241.603 M304.667 257.307 C 300.642 264.503,293.002 272.483,284.922 277.930 C 283.559 278.848,282.362 279.600,282.263 279.600 C 282.163 279.600,280.897 280.320,279.448 281.200 C 278.000 282.080,276.737 282.800,276.643 282.800 C 276.549 282.800,275.150 283.404,273.536 284.143 C 271.921 284.882,269.469 285.896,268.087 286.397 C 266.705 286.898,265.658 287.391,265.760 287.493 C 266.032 287.765,271.978 285.409,276.342 283.301 C 280.077 281.496,288.269 276.277,290.600 274.218 C 291.260 273.635,292.744 272.348,293.898 271.358 C 298.102 267.751,307.114 255.781,306.266 254.932 C 306.170 254.837,305.451 255.905,304.667 257.307 M223.600 288.000 C 223.930 288.213,224.470 288.388,224.800 288.388 C 225.333 288.388,225.333 288.345,224.800 288.000 C 224.470 287.787,223.930 287.612,223.600 287.612 C 223.067 287.612,223.067 287.655,223.600 288.000 M263.200 288.000 C 262.712 288.315,262.764 288.389,263.476 288.394 C 263.958 288.397,264.464 288.220,264.600 288.000 C 264.915 287.491,263.988 287.491,263.200 288.000 M225.800 288.800 C 225.936 289.020,226.442 289.187,226.924 289.172 C 227.769 289.145,227.771 289.131,227.000 288.800 C 225.899 288.327,225.508 288.327,225.800 288.800 M260.400 288.800 L 259.400 289.120 260.400 289.154 C 260.950 289.173,261.670 289.013,262.000 288.800 C 262.764 288.306,261.942 288.306,260.400 288.800 M228.400 289.579 C 228.730 289.804,229.525 289.991,230.167 289.994 C 231.704 290.002,231.384 289.770,229.400 289.438 C 228.254 289.246,227.970 289.286,228.400 289.579 M256.600 289.600 L 255.400 289.905 256.800 289.947 C 257.570 289.969,258.470 289.813,258.800 289.600 C 259.539 289.123,258.476 289.123,256.600 289.600 M232.000 290.400 C 232.330 290.613,233.410 290.770,234.400 290.748 L 236.200 290.708 234.600 290.377 C 232.273 289.896,231.234 289.905,232.000 290.400 M251.800 290.400 L 250.200 290.686 252.000 290.715 C 252.990 290.731,254.160 290.589,254.600 290.400 C 255.624 289.960,254.257 289.960,251.800 290.400 M238.000 291.200 C 239.327 291.625,246.181 291.640,248.200 291.223 C 249.303 290.995,247.813 290.890,243.400 290.886 C 239.639 290.882,237.412 291.012,238.000 291.200 " stroke="none" fill="#f28458" fill-rule="evenodd"></path></g></svg>