<?xml version="1.0" encoding="UTF-8" standalone="no"?>
<svg
   xmlns:dc="http://purl.org/dc/elements/1.1/"
   xmlns:cc="http://creativecommons.org/ns#"
   xmlns:rdf="http://www.w3.org/1999/02/22-rdf-syntax-ns#"
   xmlns:svg="http://www.w3.org/2000/svg"
   xmlns="http://www.w3.org/2000/svg"
   xmlns:sodipodi="http://sodipodi.sourceforge.net/DTD/sodipodi-0.dtd"
   xmlns:inkscape="http://www.inkscape.org/namespaces/inkscape"
   version="1.1"
   id="Capa_1"
   x="0px"
   y="0px"
   viewBox="0 0 370.00001 370.00001"
   xml:space="preserve"
   sodipodi:docname="grid.svg"
   width="370"
   height="370"
   inkscape:version="1.0.2 (e86c870879, 2021-01-15, custom)"><metadata
   id="metadata941"><rdf:RDF><cc:Work
       rdf:about=""><dc:format>image/svg+xml</dc:format><dc:type
         rdf:resource="http://purl.org/dc/dcmitype/StillImage" /><dc:title></dc:title></cc:Work></rdf:RDF></metadata><defs
   id="defs939" /><sodipodi:namedview
   pagecolor="#ffffff"
   bordercolor="#666666"
   borderopacity="1"
   objecttolerance="10"
   gridtolerance="10"
   guidetolerance="10"
   inkscape:pageopacity="0"
   inkscape:pageshadow="2"
   inkscape:window-width="1920"
   inkscape:window-height="986"
   id="namedview937"
   showgrid="false"
   inkscape:zoom="1.1528907"
   inkscape:cx="205.55996"
   inkscape:cy="227.33019"
   inkscape:window-x="-11"
   inkscape:window-y="-11"
   inkscape:window-maximized="1"
   inkscape:current-layer="Capa_1" />

<path
   d="m 53.333,370 c -5.891,0 -10.667,-3.60146 -10.667,-8.04372 V 8.0437242 C 42.667,3.601465 47.442,0 53.333,0 59.224,0 64,3.601465 64,8.0437242 V 361.95628 C 64,366.39854 59.224,370 53.333,370 Z"
   id="path890"
   style="stroke-width:0.868375" />
<path
   d="m 181.333,370 c -5.891,0 -10.667,-3.60147 -10.667,-8.04373 V 8.0437241 C 170.667,3.6014649 175.442,0 181.333,0 187.224,0 192,3.6014649 192,8.0437241 V 361.95627 C 192,366.39853 187.224,370 181.333,370 Z"
   id="path892"
   style="stroke-width:0.868375" />
<path
   d="m 309.333,370 c -5.891,0 -10.667,-3.60147 -10.667,-8.04373 V 8.0437242 C 298.667,3.601465 303.442,0 309.333,0 315.224,0 320,3.601465 320,8.0437242 V 361.95627 C 320,366.39853 315.224,370 309.333,370 Z"
   id="path894"
   style="stroke-width:0.868375" />


<path
   d="M 361.95628,320 H 8.0437242 C 3.6014649,320 0,315.224 0,309.333 0,303.442 3.6014649,298.666 8.0437242,298.666 H 361.95628 c 4.44225,0 8.04372,4.776 8.04372,10.667 0,5.891 -3.60147,10.667 -8.04372,10.667 z"
   id="path900"
   style="stroke-width:0.868375" />
<path
   d="M 361.95628,192 H 8.0437242 C 3.6014649,192 0,187.224 0,181.333 0,175.442 3.6014649,170.666 8.0437242,170.666 H 361.95628 c 4.44226,0 8.04372,4.776 8.04372,10.667 0,5.891 -3.60146,10.667 -8.04372,10.667 z"
   id="path902"
   style="stroke-width:0.868375" />
<path
   d="M 361.95628,64 H 8.0437242 C 3.6014649,64 0,59.224 0,53.333 0,47.442 3.6014649,42.666 8.0437242,42.666 H 361.95628 C 366.39854,42.666 370,47.442 370,53.333 370,59.224 366.39854,64 361.95628,64 Z"
   id="path904"
   style="stroke-width:0.868375" />
<g
   id="g906">
</g>
<g
   id="g908">
</g>
<g
   id="g910">
</g>
<g
   id="g912">
</g>
<g
   id="g914">
</g>
<g
   id="g916">
</g>
<g
   id="g918">
</g>
<g
   id="g920">
</g>
<g
   id="g922">
</g>
<g
   id="g924">
</g>
<g
   id="g926">
</g>
<g
   id="g928">
</g>
<g
   id="g930">
</g>
<g
   id="g932">
</g>
<g
   id="g934">
</g>
</svg>
