<?xml version="1.0" encoding="UTF-8" standalone="no"?>
<svg
   xmlns:dc="http://purl.org/dc/elements/1.1/"
   xmlns:cc="http://creativecommons.org/ns#"
   xmlns:rdf="http://www.w3.org/1999/02/22-rdf-syntax-ns#"
   xmlns:svg="http://www.w3.org/2000/svg"
   xmlns="http://www.w3.org/2000/svg"
   xmlns:sodipodi="http://sodipodi.sourceforge.net/DTD/sodipodi-0.dtd"
   xmlns:inkscape="http://www.inkscape.org/namespaces/inkscape"
   version="1.1"
   id="Layer_1"
   x="0px"
   y="0px"
   viewBox="0 0 622.88167 611.03682"
   xml:space="preserve"
   sodipodi:docname="music-off.svg"
   width="622.88165"
   height="611.0368"
   inkscape:version="1.0.2 (e86c870879, 2021-01-15, custom)"><metadata
     id="metadata886"><rdf:RDF><cc:Work
         rdf:about=""><dc:format>image/svg+xml</dc:format><dc:type
           rdf:resource="http://purl.org/dc/dcmitype/StillImage" /><dc:title></dc:title></cc:Work></rdf:RDF></metadata><defs
     id="defs884" /><sodipodi:namedview
     pagecolor="#ffffff"
     bordercolor="#666666"
     borderopacity="1"
     objecttolerance="10"
     gridtolerance="10"
     guidetolerance="10"
     inkscape:pageopacity="0"
     inkscape:pageshadow="2"
     inkscape:window-width="1920"
     inkscape:window-height="986"
     id="namedview882"
     showgrid="false"
     inkscape:snap-midpoints="true"
     inkscape:zoom="1.1681923"
     inkscape:cx="213.76927"
     inkscape:cy="311.85086"
     inkscape:window-x="-11"
     inkscape:window-y="-11"
     inkscape:window-maximized="1"
     inkscape:current-layer="Layer_1" /><g
     id="g948"
     transform="matrix(8,0,0,8,68.549145,44.493958)"><path
       d="m 55,36.905 h -3 v -3 c 0,-2.757 -2.243,-5 -5,-5 h -5 v -3 c 0,-0.552 -0.448,-1 -1,-1 h -8 v -2.142 c 1.72,-0.447 3,-2 3,-3.858 0,-2.206 -1.794,-4 -4,-4 -2.206,0 -4,1.794 -4,4 0,1.858 1.28,3.411 3,3.858 v 2.142 h -8 c -0.552,0 -1,0.448 -1,1 v 3 h -5 c -2.757,0 -5,2.243 -5,5 v 3 H 9 c -1.654,0 -3,1.346 -3,3 v 12 c 0,1.654 1.346,3 3,3 h 3 v 3 c 0,2.757 2.243,5 5,5 h 30 c 2.757,0 5,-2.243 5,-5 v -3 h 3 c 1.654,0 3,-1.346 3,-3 v -12 c 0,-1.654 -1.346,-3 -3,-3 z m -25,-18 c 0,-1.103 0.897,-2 2,-2 1.103,0 2,0.897 2,2 0,1.103 -0.897,2 -2,2 -1.103,0 -2,-0.897 -2,-2 z m -21,34 c -0.551,0 -1,-0.449 -1,-1 v -12 c 0,-0.551 0.449,-1 1,-1 h 3 v 14 z m 15,-26 h 16 v 2 H 24 Z m 26,31 c 0,1.654 -1.346,3 -3,3 H 17 c -1.654,0 -3,-1.346 -3,-3 v -24 c 0,-1.654 1.346,-3 3,-3 h 30 c 1.654,0 3,1.346 3,3 z m 6,-6 c 0,0.551 -0.449,1 -1,1 h -3 v -14 h 3 c 0.551,0 1,0.449 1,1 z"
       id="path924" /><path
       d="M 41,46.905 H 23 c -0.552,0 -1,0.448 -1,1 v 1 c 0,5.514 4.486,10 10,10 5.514,0 10,-4.486 10,-10 v -1 c 0,-0.552 -0.448,-1 -1,-1 z m -9,10 c -4.411,0 -8,-3.589 -8,-8 h 16 c 0,4.411 -3.589,8 -8,8 z"
       id="path926" /><path
       d="m 26,40.905 c 0,-2.206 -1.794,-4 -4,-4 -2.206,0 -4,1.794 -4,4 0,2.206 1.794,4 4,4 2.206,0 4,-1.794 4,-4 z m -6,0 c 0,-1.103 0.897,-2 2,-2 1.103,0 2,0.897 2,2 0,1.103 -0.897,2 -2,2 -1.103,0 -2,-0.897 -2,-2 z"
       id="path928" /><path
       d="m 42,36.905 c -2.206,0 -4,1.794 -4,4 0,2.206 1.794,4 4,4 2.206,0 4,-1.794 4,-4 0,-2.206 -1.794,-4 -4,-4 z m 0,6 c -1.103,0 -2,-0.897 -2,-2 0,-1.103 0.897,-2 2,-2 1.103,0 2,0.897 2,2 0,1.103 -0.897,2 -2,2 z"
       id="path930" /><path
       d="m 16.293,22.612 c 0.191,0.191 0.447,0.293 0.707,0.293 0.129,0 0.259,-0.025 0.383,-0.076 C 17.756,22.674 18,22.31 18,21.905 v -3 h 6 c 1.654,0 3,-1.346 3,-3 v -12 c 0,-1.654 -1.346,-3 -3,-3 H 4 c -1.654,0 -3,1.346 -3,3 v 12 c 0,1.654 1.346,3 3,3 h 8.586 z M 3,15.905 v -12 c 0,-0.551 0.449,-1 1,-1 h 20 c 0.551,0 1,0.449 1,1 v 12 c 0,0.551 -0.449,1 -1,1 h -7 c -0.552,0 -1,0.448 -1,1 v 1.586 L 13.707,17.198 C 13.519,17.01 13.265,16.905 13,16.905 H 4 c -0.551,0 -1,-0.448 -1,-1 z"
       id="path932" /><path
       d="M 60,4.905 H 40 c -1.654,0 -3,1.346 -3,3 v 12 c 0,1.654 1.346,3 3,3 h 6 v 3 c 0,0.404 0.244,0.769 0.617,0.924 0.124,0.051 0.254,0.076 0.383,0.076 0.26,0 0.516,-0.102 0.707,-0.293 l 3.707,-3.707 H 60 c 1.654,0 3,-1.346 3,-3 v -12 c 0,-1.654 -1.346,-3 -3,-3 z m 1,15 c 0,0.551 -0.449,1 -1,1 h -9 c -0.265,0 -0.52,0.105 -0.707,0.293 L 48,23.491 v -1.586 c 0,-0.552 -0.448,-1 -1,-1 h -7 c -0.551,0 -1,-0.449 -1,-1 v -12 c 0,-0.551 0.449,-1 1,-1 h 20 c 0.551,0 1,0.449 1,1 z"
       id="path934" /><path
       d="m 5,4.905 h 18 v 2 H 5 Z"
       id="path936" /><path
       d="m 5,12.905 h 18 v 2 H 5 Z"
       id="path938" /><path
       d="m 7,8.905 h 14 v 2 H 7 Z"
       id="path940" /><path
       d="m 41,8.905 h 18 v 2 H 41 Z"
       id="path942" /><path
       d="m 41,16.905 h 18 v 2 H 41 Z"
       id="path944" /><path
       d="m 43,12.905 h 14 v 2 H 43 Z"
       id="path946" /></g><rect
     style="opacity:0.995683;fill:#000000;stroke:#ffffff;stroke-width:30.2362;stroke-miterlimit:4;stroke-dasharray:none;stroke-opacity:1"
     id="rect986"
     width="799.00977"
     height="74.954445"
     x="36.770432"
     y="-36.618298"
     transform="rotate(44.337211)"
     ry="37.477222" /></svg>
