<svg id="Capa_1" enable-background="new 0 0 504.5 504.5" height="512" viewBox="0 0 504.5 504.5" width="512" xmlns="http://www.w3.org/2000/svg"><g><path d="m370.367 289.38-118.117 8.12-118.117-8.12c0-13.807 11.193-25 25-25h186.235c13.806 0 24.999 11.193 24.999 25z" fill="#678d98"/><path d="m370.37 289.38-14.62 4.62-13.19-4.62c0-13.81-11.19-25-25-25h27.81c13.8 0 25 11.19 25 25z" fill="#537983"/><path d="m457.938 497h-411.376v-120.118c0-48.364 39.207-87.571 87.571-87.571h236.235c48.364 0 87.571 39.207 87.571 87.571v120.118z" fill="#deecf1"/><path d="m457.94 376.88v120.12h-27.94l.13-120.12c0-48.36-39.21-87.57-87.57-87.57h27.81c48.364 0 87.57 39.206 87.57 87.57z" fill="#a8d3d8"/><path d="m374.548 465.392h-244.596c-25.226 0-45.675-20.449-45.675-45.675v-51.601c0-25.226 20.449-45.675 45.675-45.675h244.597c25.226 0 45.675 20.449 45.675 45.675v51.601c-.001 25.226-20.45 45.675-45.676 45.675z" fill="#8ebac5"/><path d="m420.22 368.12v51.6c0 25.22-20.45 45.67-45.67 45.67h-25.33c25.22 0 45.67-20.45 45.67-45.67v-51.6c0-25.23-20.45-45.68-45.67-45.68h25.33c25.22 0 45.67 20.45 45.67 45.68z" fill="#7ca1b1"/><g><g fill="#a2e62e"><path d="m376.639 402.671c0 6.656-1.365 12.993-3.834 18.745-2.453 5.716-9.665 7.634-14.574 3.816-8.055-6.264-18.18-9.992-29.18-9.992-10.991 0-21.114 3.727-29.168 9.992-4.899 3.81-12.11 1.916-14.561-3.786-2.634-6.127-4.017-12.919-3.83-20.054.652-24.885 20.814-45.321 45.689-46.273 27.139-1.039 49.458 20.656 49.458 47.552z"/><path d="m223.025 402.671c0 6.656-1.365 12.993-3.834 18.745-2.453 5.716-9.665 7.634-14.574 3.816-8.055-6.264-18.18-9.992-29.18-9.992-10.991 0-21.114 3.727-29.168 9.992-4.899 3.81-12.11 1.916-14.561-3.786-2.634-6.127-4.017-12.919-3.83-20.054.652-24.885 20.814-45.321 45.689-46.273 27.14-1.039 49.458 20.656 49.458 47.552z"/></g></g><path d="m437.13 29.614v94.32c0 16.355-12.138 29.614-27.112 29.614h-92.842c-19.085 0-36.185 12.881-42.967 32.366l-12.705 36.497c-3.236 9.295-15.273 9.295-18.509 0l-12.705-36.497c-6.783-19.485-23.883-32.366-42.967-32.366h-92.842c-14.973 0-27.112-13.259-27.112-29.614v-94.32c.001-16.355 12.139-29.614 27.112-29.614h315.537c14.974 0 27.112 13.259 27.112 29.614z" fill="#ffd15b"/><path d="m289.36 153.55h27.82c-19.09 0-36.19 12.88-42.97 32.36l-12.71 36.5c-3.23 9.3-15.27 9.3-18.5 0l-4.65-13.37 8.05-23.13c6.78-19.48 23.88-32.36 42.96-32.36z" fill="#feb137"/><path d="m437.13 29.61v94.32c0 16.36-12.14 29.62-27.11 29.62h-27.81c14.97 0 27.11-13.26 27.11-29.62v-94.32c0-16.35-12.14-29.61-27.11-29.61h27.81c14.97 0 27.11 13.26 27.11 29.61z" fill="#feb137"/><g><path d="m111.724 106.177c-4.142 0-7.5-3.357-7.5-7.5v-37.394c0-4.143 3.358-7.5 7.5-7.5s7.5 3.357 7.5 7.5v37.394c0 4.142-3.358 7.5-7.5 7.5z" fill="#feb137"/></g><g><path d="m146.855 118.298c-4.142 0-7.5-3.357-7.5-7.5v-61.636c0-4.143 3.358-7.5 7.5-7.5s7.5 3.357 7.5 7.5v61.636c0 4.142-3.357 7.5-7.5 7.5z" fill="#feb137"/></g><g><path d="m181.987 101.631c-4.142 0-7.5-3.357-7.5-7.5v-28.303c0-4.143 3.358-7.5 7.5-7.5s7.5 3.357 7.5 7.5v28.303c0 4.142-3.358 7.5-7.5 7.5z" fill="#feb137"/></g><g><path d="m217.119 125.873c-4.142 0-7.5-3.357-7.5-7.5v-76.786c0-4.143 3.358-7.5 7.5-7.5s7.5 3.357 7.5 7.5v76.786c0 4.143-3.358 7.5-7.5 7.5z" fill="#feb137"/></g><g><path d="m252.25 118.298c-4.142 0-7.5-3.357-7.5-7.5v-61.636c0-4.143 3.358-7.5 7.5-7.5 4.143 0 7.5 3.357 7.5 7.5v61.636c0 4.142-3.357 7.5-7.5 7.5z" fill="#feb137"/></g><g><path d="m287.382 125.873c-4.143 0-7.5-3.357-7.5-7.5v-76.786c0-4.143 3.357-7.5 7.5-7.5s7.5 3.357 7.5 7.5v76.786c0 4.143-3.358 7.5-7.5 7.5z" fill="#feb137"/></g><g><path d="m322.513 101.631c-4.143 0-7.5-3.357-7.5-7.5v-28.303c0-4.143 3.357-7.5 7.5-7.5s7.5 3.357 7.5 7.5v28.303c0 4.142-3.358 7.5-7.5 7.5z" fill="#feb137"/></g><g><path d="m357.645 118.298c-4.143 0-7.5-3.357-7.5-7.5v-61.636c0-4.143 3.357-7.5 7.5-7.5s7.5 3.357 7.5 7.5v61.636c0 4.142-3.358 7.5-7.5 7.5z" fill="#feb137"/></g><g><path d="m392.775 106.177c-4.143 0-7.5-3.357-7.5-7.5v-37.394c0-4.143 3.357-7.5 7.5-7.5s7.5 3.357 7.5 7.5v37.394c0 4.142-3.357 7.5-7.5 7.5z" fill="#feb137"/></g><path d="m479.25 489.5h-8.011-13.301-432.688c-4.142 0-7.5 3.357-7.5 7.5s3.358 7.5 7.5 7.5h432.688 13.301 8.011c4.143 0 7.5-3.357 7.5-7.5s-3.357-7.5-7.5-7.5z" fill="#678d98"/></g></svg>