<svg id="Capa_1" enable-background="new 0 0 512 512" height="512" viewBox="0 0 512 512" width="512" xmlns="http://www.w3.org/2000/svg"><g><g><g><g><g><g><g><path d="m87.197 448.503c-53.456-46.92-87.197-115.788-87.197-192.503 0-141.385 114.615-256 256-256s256 114.615 256 256c0 76.754-33.778 145.582-87.281 192.503z" fill="#fe8205"/></g></g></g></g></g></g><path d="m424.719 448.503c53.362-46.802 87.109-115.403 87.28-191.919l-154.281-154.311-1.864-1.834 19.242 365.663z" fill="#f24500"/><g><path d="m255.958 495.692c35.427 0 69.174 9.111 99.857-3.899 25.311-10.732 48.538-25.421 68.904-43.29l-25.916-259.71c-7.592-73.185-69.268-128.793-142.845-128.793-73.577 0-135.253 55.608-142.845 128.793l-25.916 259.71c20.353 17.857 43.562 32.538 68.853 43.269 34.642.47 64.461 3.92 99.908 3.92z" fill="#636978"/></g><g><path d="m255.958 484.545c35.477 0 62.399-.796 99.987 7.193 25.261-10.728 48.443-25.397 68.775-43.236l-25.916-259.71c-7.593-73.184-69.269-128.792-142.846-128.792z" fill="#414952"/></g><g><path d="m300.387 145.066c-18.178 0-34.313 8.744-44.429 22.255-10.116-13.511-26.252-22.255-44.429-22.255-30.634 0-55.467 24.833-55.467 55.467v291.243c30.694 13.021 64.454 20.224 99.896 20.224s69.202-7.203 99.896-20.224v-291.243c0-30.634-24.833-55.467-55.467-55.467z" fill="#fff"/></g><g><path d="m255.958 512c35.442 0 69.202-7.203 99.896-20.224v-291.243c0-30.634-24.834-55.467-55.467-55.467-18.178 0-34.313 8.744-44.429 22.255z" fill="#e9edf5"/></g><g><g><ellipse cx="204.809" cy="228.143" fill="#636978" rx="17.919" ry="17.918" transform="matrix(.159 -.987 .987 .159 -53.045 393.995)"/></g><g><ellipse cx="307.107" cy="228.143" fill="#414952" rx="17.919" ry="17.918" transform="matrix(.159 -.987 .987 .159 32.958 494.987)"/></g></g><g><path d="m228.173 247.132 27.786-27.782 27.784 27.782-27.786 54.346z" fill="#fe8205"/></g><g><path d="m255.957 301.478 27.786-54.346-27.784-27.782z" fill="#fa5d0f"/></g></g></svg>