<?xml version="1.0" encoding="UTF-8" standalone="no"?>
<svg
   xmlns:dc="http://purl.org/dc/elements/1.1/"
   xmlns:cc="http://creativecommons.org/ns#"
   xmlns:rdf="http://www.w3.org/1999/02/22-rdf-syntax-ns#"
   xmlns:svg="http://www.w3.org/2000/svg"
   xmlns="http://www.w3.org/2000/svg"
   xmlns:sodipodi="http://sodipodi.sourceforge.net/DTD/sodipodi-0.dtd"
   xmlns:inkscape="http://www.inkscape.org/namespaces/inkscape"
   id="cute_critters"
   data-name="cute critters"
   viewBox="0 0 221 221"
   version="1.1"
   sodipodi:docname="bee.svg"
   width="221"
   height="221"
   inkscape:version="1.0.2 (e86c870879, 2021-01-15, custom)">
  <metadata
     id="metadata1150">
    <rdf:RDF>
      <cc:Work
         rdf:about="">
        <dc:format>image/svg+xml</dc:format>
        <dc:type
           rdf:resource="http://purl.org/dc/dcmitype/StillImage" />
      </cc:Work>
    </rdf:RDF>
  </metadata>
  <defs
     id="defs1148" />
  <sodipodi:namedview
     pagecolor="#ffffff"
     bordercolor="#666666"
     borderopacity="1"
     objecttolerance="10"
     gridtolerance="10"
     guidetolerance="10"
     inkscape:pageopacity="0"
     inkscape:pageshadow="2"
     inkscape:window-width="855"
     inkscape:window-height="480"
     id="namedview1146"
     showgrid="false"
     inkscape:zoom="0.88888889"
     inkscape:cx="111.5"
     inkscape:cy="111.5"
     inkscape:window-x="0"
     inkscape:window-y="0"
     inkscape:window-maximized="0"
     inkscape:current-layer="cute_critters" />
  <g
     id="bee"
     transform="translate(-338.5,-338.5)">
    <path
       d="M 559,449 A 110,110 0 1 1 449,339 110,110 0 0 1 559,449"
       fill="#ec1b34"
       id="path1098" />
    <path
       d="M 449,559.5 A 110.5,110.5 0 1 1 559.5,449 110.63,110.63 0 0 1 449,559.5 Z m 0,-220 A 109.5,109.5 0 1 0 558.5,449 109.62,109.62 0 0 0 449,339.5 Z"
       fill="#ffffff"
       id="path1100" />
    <path
       d="m 414.72,469.92 a 45,45 0 0 0 36.22,-52.21 36.18,36.18 0 0 0 -42,-29.13 29,29 0 0 0 -4.42,1.16 l 0.6,1.73 a 27.82,27.82 0 0 1 4.15,-1.09 34.34,34.34 0 0 1 39.87,27.62 43.14,43.14 0 0 1 -34.75,50.08 z"
       fill="#171717"
       id="path1102" />
    <path
       d="m 400.51,391.47 a 4.64,4.64 0 1 0 4.63,-4.64 4.63,4.63 0 0 0 -4.63,4.64"
       fill="#fbae17"
       id="path1104" />
    <path
       d="m 483.28,469.92 a 45,45 0 0 1 -36.22,-52.21 36.17,36.17 0 0 1 42,-29.13 29,29 0 0 1 4.42,1.16 l -0.6,1.73 a 27.82,27.82 0 0 0 -4.15,-1.09 34.36,34.36 0 0 0 -39.88,27.62 43.16,43.16 0 0 0 34.76,50.08 z"
       fill="#171717"
       id="path1106" />
    <path
       d="m 497.49,391.47 a 4.64,4.64 0 1 1 -4.63,-4.64 4.64,4.64 0 0 1 4.63,4.64"
       fill="#fbae17"
       id="path1108" />
    <path
       d="m 421.77,525.43 c 12.34,-14.55 21.56,-30 27.23,-44.39 -8.5,-21.61 -9,-41 0,-52 a 23.6,23.6 0 0 0 -3,-3.08 c -19.32,-16.38 -61.49,1.61 -94.2,40.19 q -4.85,5.73 -9,11.58 a 110.2,110.2 0 0 0 56.8,69.72 175.5,175.5 0 0 0 22.17,-22.02 z"
       fill="#fdffe9"
       opacity="0.95"
       id="path1110" />
    <path
       d="m 452,425.93 a 23.6,23.6 0 0 0 -3,3.08 c 9,11 8.5,30.42 0,52 5.67,14.43 14.89,29.84 27.24,44.39 a 175.5,175.5 0 0 0 22.21,22 110.25,110.25 0 0 0 56.79,-69.71 q -4.2,-5.85 -9,-11.59 C 513.5,427.54 471.32,409.55 452,425.93 Z"
       fill="#fdffe9"
       opacity="0.95"
       id="path1112" />
    <path
       d="m 449,429 c -9,11 -8.5,30.42 0,52 8.5,-21.57 9,-41 0,-52 z"
       fill="#fdffe9"
       opacity="0.8"
       id="path1114" />
    <path
       d="m 449,429 c -9,11 -8.5,30.42 0,52 8.5,-21.57 9,-41 0,-52 z"
       fill="#fdffe9"
       opacity="0.8"
       id="path1116" />
    <path
       d="m 449.38,408.1 c -41,0 -74.28,42.15 -74.28,94.14 a 116.48,116.48 0 0 0 4.48,32.24 109.93,109.93 0 0 0 139.82,-0.81 116.73,116.73 0 0 0 4.26,-31.43 c 0,-51.99 -33.25,-94.14 -74.28,-94.14 z"
       fill="#fbae17"
       id="path1118" />
    <path
       d="m 478.6,509.9 c -7.92,0 -15.83,0.41 -23.75,0.48 -5.11,0.05 -10.21,-0.29 -15.32,-0.27 -10.32,0 -20.64,0.24 -31,0.32 -7.29,0.05 -14.58,0 -21.87,0 -3.77,0 -7.54,-0.07 -11.31,-0.1 0.16,2.4 0.39,4.79 0.69,7.14 0.8,0 1.59,-0.07 2.39,-0.07 13.15,-0.06 26.3,0 39.45,0 11.68,0 23.36,0 35,0.06 6,0 12.07,0.44 18.1,0.24 6.55,-0.22 13.1,0 19.65,-0.23 10.66,-0.29 21.33,-0.11 32,-0.08 q 0.46,-3.68 0.7,-7.44 c -14.87,-0.07 -29.8,-0.11 -44.73,-0.05 z"
       fill="#171717"
       id="path1120" />
    <path
       d="m 450.39,553.12 c -5.1,0 -10.21,-0.31 -15.32,-0.3 -7.44,0 -14.88,0.12 -22.32,0.2 a 110.08,110.08 0 0 0 73.6,-0.37 h -12.21 c -7.91,0.03 -15.83,0.41 -23.75,0.47 z"
       fill="#171717"
       id="path1122" />
    <path
       d="m 508.6,489 c -11.67,0 -23.35,0 -35,0 -6,0 -12.07,-0.45 -18.09,-0.25 -6.55,0.22 -13.1,0 -19.66,0.23 -11.46,0.31 -22.93,0.08 -34.4,0.07 -4.07,0 -8.14,0.1 -12.21,0 -4.44,-0.13 -8.88,-0.31 -13.31,-0.5 -0.31,2.64 -0.52,5.3 -0.65,8 q 11,0 22,0 c 16.9,0 33.8,0.07 50.7,0 7.92,0 15.84,-0.41 23.75,-0.48 5.11,-0.05 10.22,0.3 15.32,0.28 10.33,0 20.65,-0.25 31,-0.32 1.84,0 3.68,0 5.52,0 q -0.18,-3.51 -0.56,-6.94 z"
       fill="#171717"
       id="path1124" />
    <path
       d="m 494.37,531.72 c -7.29,0 -14.58,0 -21.87,0 q -12.81,-0.08 -25.63,-0.23 c -11.79,-0.15 -23.59,-0.42 -35.38,-0.52 q -16.46,-0.15 -32.9,-0.17 c 0.31,1.24 0.65,2.47 1,3.7 1.67,1.36 3.39,2.66 5.15,3.93 3.14,0 6.28,0 9.42,0 q 21.29,0.09 42.56,0.26 c 5,0 10,0.33 15,0.34 4.17,0 8.34,-0.31 12.52,-0.33 q 19.73,-0.07 39.45,0 h 9.22 c 2.21,-1.58 4.36,-3.22 6.44,-5 0.21,-0.74 0.42,-1.49 0.62,-2.24 -8.52,0.06 -17.06,0.2 -25.6,0.26 z"
       fill="#171717"
       id="path1126" />
    <path
       d="m 418.5,474.87 c 11.68,0 23.36,0 35,0.09 6,0 12.07,0.46 18.1,0.26 6.55,-0.21 13.1,0 19.65,-0.2 9.73,-0.25 19.47,-0.12 29.2,-0.06 q -0.9,-3.79 -2.06,-7.44 c -13.07,0 -26.15,-0.07 -39.23,0 -7.92,0 -15.84,0.4 -23.75,0.46 -5.11,0 -10.22,-0.31 -15.32,-0.29 -10.32,0 -20.65,0.22 -31,0.28 -7.28,0.05 -14.57,0 -21.86,0 -2.35,0 -4.7,-0.05 -7.05,-0.07 -0.71,2.31 -1.37,4.66 -1.94,7.06 h 0.75 c 13.21,-0.13 26.36,-0.11 39.51,-0.09 z"
       fill="#171717"
       id="path1128" />
    <path
       d="m 449.13,452.19 a 10.31,10.31 0 0 1 -5.53,-1.61 c -3.45,-2.22 -5.15,-6.21 -4.67,-11 a 1.1,1.1 0 1 1 2.18,0.23 c -0.4,3.89 0.94,7.13 3.67,8.88 A 7.93,7.93 0 0 0 453,449 c 2.79,-1.65 4.18,-4.9 3.91,-9.15 a 1.1,1.1 0 0 1 1,-1.17 1.16,1.16 0 0 1 1.16,1 c 0.33,5 -1.48,9.12 -5,11.18 a 10,10 0 0 1 -4.94,1.33 z"
       fill="#171717"
       id="path1130" />
    <path
       d="m 464.73,432 c 5.36,-6 15.79,-1.23 17.16,3.62 -5.9,-2.69 -10.5,-6 -16.58,-3 0,0.01 -1.04,-0.1 -0.58,-0.62 z"
       fill="#171717"
       id="path1132" />
    <path
       d="m 467.78,422.93 c 0.36,0 0.68,0.08 0.69,0.26 l 0.6,6.76 c 0,0.17 -0.27,0.34 -0.64,0.37 v 0 c -0.37,0 -0.68,-0.08 -0.69,-0.26 l -0.6,-6.76 c 0,-0.17 0.27,-0.34 0.64,-0.37 z m 5.88,0.4 c 0.36,0.05 0.64,0.23 0.62,0.4 l -0.81,6.74 c 0,0.17 -0.33,0.28 -0.7,0.23 v 0 c -0.36,0 -0.64,-0.22 -0.62,-0.39 l 0.81,-6.74 c 0,-0.17 0.33,-0.28 0.7,-0.24 z m 6.25,1.62 c 0.34,0.16 0.55,0.42 0.47,0.58 l -2.89,6.13 c -0.07,0.16 -0.4,0.16 -0.73,0 v 0 c -0.34,-0.16 -0.54,-0.42 -0.47,-0.58 l 2.89,-6.13 c 0.07,-0.16 0.4,-0.16 0.73,0 z"
       fill="#171717"
       fill-rule="evenodd"
       id="path1134" />
    <path
       d="m 433.27,432 c -5.36,-6 -15.79,-1.23 -17.16,3.62 5.9,-2.69 10.5,-6 16.58,-3 0,0.01 1.04,-0.1 0.58,-0.62 z"
       fill="#171717"
       id="path1136" />
    <path
       d="m 430.22,422.93 v 0 c 0.37,0 0.65,0.2 0.64,0.37 l -0.6,6.76 c 0,0.18 -0.32,0.3 -0.69,0.26 v 0 c -0.37,0 -0.65,-0.2 -0.64,-0.37 l 0.6,-6.76 c 0,-0.18 0.33,-0.3 0.69,-0.26 z m -5.88,0.4 v 0 c 0.37,0 0.68,0.07 0.7,0.24 l 0.81,6.74 c 0,0.17 -0.26,0.35 -0.62,0.39 v 0 c -0.37,0.05 -0.68,-0.06 -0.7,-0.23 l -0.81,-6.74 c 0,-0.17 0.26,-0.35 0.62,-0.4 z m -6.25,1.67 v 0 c 0.33,-0.16 0.66,-0.16 0.73,0 l 2.89,6.13 c 0.07,0.16 -0.13,0.42 -0.47,0.58 v 0 c -0.33,0.16 -0.66,0.16 -0.73,0 l -2.89,-6.13 c -0.08,-0.16 0.13,-0.42 0.47,-0.58 z"
       fill="#171717"
       fill-rule="evenodd"
       id="path1138" />
    <ellipse
       cx="477.56"
       cy="445.12"
       rx="8.3800001"
       ry="6.52"
       fill="#f072ab"
       id="ellipse1140" />
    <ellipse
       cx="420.44"
       cy="445.12"
       rx="8.3800001"
       ry="6.52"
       fill="#f072ab"
       id="ellipse1142" />
  </g>
</svg>
