<?xml version="1.0" encoding="UTF-8" standalone="no"?>
<svg
   xmlns:dc="http://purl.org/dc/elements/1.1/"
   xmlns:cc="http://creativecommons.org/ns#"
   xmlns:rdf="http://www.w3.org/1999/02/22-rdf-syntax-ns#"
   xmlns:svg="http://www.w3.org/2000/svg"
   xmlns="http://www.w3.org/2000/svg"
   xmlns:sodipodi="http://sodipodi.sourceforge.net/DTD/sodipodi-0.dtd"
   xmlns:inkscape="http://www.inkscape.org/namespaces/inkscape"
   id="cute_critters"
   data-name="cute critters"
   viewBox="0 0 220 220"
   version="1.1"
   sodipodi:docname="flamingo.svg"
   width="220"
   height="220"
   inkscape:version="1.0.2 (e86c870879, 2021-01-15, custom)">
  <metadata
     id="metadata316">
    <rdf:RDF>
      <cc:Work
         rdf:about="">
        <dc:format>image/svg+xml</dc:format>
        <dc:type
           rdf:resource="http://purl.org/dc/dcmitype/StillImage" />
      </cc:Work>
    </rdf:RDF>
  </metadata>
  <defs
     id="defs314" />
  <sodipodi:namedview
     pagecolor="#ffffff"
     bordercolor="#666666"
     borderopacity="1"
     objecttolerance="10"
     gridtolerance="10"
     guidetolerance="10"
     inkscape:pageopacity="0"
     inkscape:pageshadow="2"
     inkscape:window-width="855"
     inkscape:window-height="480"
     id="namedview312"
     showgrid="false"
     inkscape:zoom="0.88888889"
     inkscape:cx="389"
     inkscape:cy="110"
     inkscape:window-x="0"
     inkscape:window-y="0"
     inkscape:window-maximized="0"
     inkscape:current-layer="cute_critters" />
  <g
     id="flamingo"
     transform="translate(-61,-340)">
    <circle
       cx="171"
       cy="450"
       r="110"
       fill="#584e8a"
       id="circle252" />
    <path
       d="m 102.16,494.86 c 3.07,4.89 6.54,10.09 10.54,16 7.23,-4.18 14.52,-8.32 21.78,-12.47 -3.8,-5.14 -7.57,-10.35 -11.09,-15.66 -7.07,4.04 -14.17,8.07 -21.23,12.13 z"
       fill="#fdffe9"
       id="path254" />
    <path
       d="m 106.13,438.72 a 55.8,55.8 0 0 1 0.65,-13.1 c -8.19,5.07 -16.55,10 -25,14.82 a 62,62 0 0 0 3.32,19.79 2.77,2.77 0 0 1 0.1,0.26 c 7.42,-4.23 14.84,-8.47 22.18,-12.79 a 63.45,63.45 0 0 1 -1.25,-8.98 z"
       fill="#fdffe9"
       id="path256" />
    <path
       d="m 159.79,412.34 q 8.25,-6.75 15.77,-14.19 A 56.25,56.25 0 0 0 160.42,385 227.25,227.25 0 0 1 142.74,400.62 c 0.76,0.21 1.52,0.45 2.27,0.72 a 30.43,30.43 0 0 1 14.78,11 z"
       fill="#fdffe9"
       id="path258" />
    <path
       d="m 136.76,541.15 c 4.22,5 8.36,10.17 11.91,15.24 6.84,-4 13.75,-8 20.68,-11.95 -3.62,-5.24 -7.57,-10.35 -11.56,-15.39 -7.03,4.01 -14.06,8.02 -21.03,12.1 z"
       fill="#fdffe9"
       id="path260" />
    <path
       d="m 134.48,498.38 c -7.26,4.15 -14.55,8.29 -21.78,12.47 l 3.4,5 c 2.18,3.2 5,6.73 8.08,10.47 7.2,-4.2 14.46,-8.33 21.71,-12.46 q -1.33,-1.77 -2.61,-3.53 c -2.86,-3.96 -5.83,-7.94 -8.8,-11.95 z"
       fill="#ec1b34"
       id="path262" />
    <path
       d="m 148.67,556.39 c 0.36,0.51 0.7,1 1.05,1.53 A 110.48,110.48 0 0 0 171,560 c 2.51,0 5,-0.11 7.47,-0.28 a 119.14,119.14 0 0 0 -9.12,-15.28 c -6.93,3.95 -13.84,7.91 -20.68,11.95 z"
       fill="#ec1b34"
       id="path264" />
    <path
       d="m 107.4,447.7 c -7.34,4.32 -14.76,8.56 -22.18,12.79 a 160.68,160.68 0 0 0 7.48,17.72 c 7,-4 14.1,-8 21.12,-12.09 A 80.57,80.57 0 0 1 107.4,447.7 Z"
       fill="#ec1b34"
       id="path266" />
    <path
       d="m 166.76,426.53 18,-11.2 a 39.87,39.87 0 0 0 -5.5,-12 L 164,419.64 a 69.61,69.61 0 0 1 2.76,6.89 z"
       fill="#f399c0"
       id="path268" />
    <path
       d="m 179.25,403.25 a 60.52,60.52 0 0 0 -3.69,-5.1 q -7.5,7.46 -15.77,14.19 a 42.58,42.58 0 0 1 4.21,7.26 z"
       fill="#f399c0"
       id="path270" />
    <path
       d="m 128.7,377.47 c -16,0.61 -26.4,8.33 -35.77,21.83 a 60.65,60.65 0 0 0 -7.72,16.92 c 19.21,-11.57 37.62,-23.88 53.7,-38.36 a 65.16,65.16 0 0 0 -10.21,-0.39 z"
       fill="#f399c0"
       id="path272" />
    <path
       d="m 124.18,526.32 c 3.89,4.67 8.27,9.69 12.58,14.83 7,-4.08 14,-8.09 21,-12.1 -4,-5.11 -8.11,-10.15 -11.9,-15.19 -7.22,4.14 -14.48,8.26 -21.68,12.46 z"
       fill="#f399c0"
       id="path274" />
    <path
       d="m 113.07,410.15 c 7.09,-9.51 18.46,-12.65 29.67,-9.5 A 227.25,227.25 0 0 0 160.42,385 54.8,54.8 0 0 0 138.91,377.83 c -16.08,14.48 -34.49,26.79 -53.7,38.36 a 82.26,82.26 0 0 0 -3.41,24.22 c 8.43,-4.85 16.79,-9.75 25,-14.82 a 35.82,35.82 0 0 1 6.27,-15.44 z"
       fill="#ec1b34"
       id="path276" />
    <path
       d="m 98.88,489.5 c 1,1.76 2.13,3.54 3.28,5.36 7.06,-4.06 14.16,-8.09 21.23,-12.14 -2.56,-3.88 -5,-7.82 -7.14,-11.84 z"
       fill="#f399c0"
       id="path278" />
    <path
       d="m 113.82,466.12 c -7,4.05 -14.08,8.06 -21.12,12.09 1.88,3.8 3.92,7.49 6.15,11.26 l 17.38,-18.63 c -0.85,-1.56 -1.65,-3.14 -2.41,-4.72 z"
       fill="#f399c0"
       id="path280" />
    <path
       d="m 166.76,426.53 c -8.53,6.26 -10.65,19.08 -8.91,29.21 1.74,10.13 6.1,19 14.61,24.77 10.73,7.25 24.64,10.24 37,6.47 19.44,-5.9 28.75,-29.77 22.12,-49 -6.63,-19.23 -27.89,-30 -46.83,-22.66 z"
       fill="#f399c0"
       id="path282" />
    <path
       d="m 212.55,490.6 a 76.2,76.2 0 0 1 12.23,14.4 c 6.16,9.69 7.48,18.43 4.84,24.74 -0.64,1.51 1.37,2.9 2.88,2.22 11.1,-5 16.87,-18.61 18,-29.09 0.07,-0.51 0.1,-1 0.13,-1.55 a 39.23,39.23 0 0 0 -11.36,-30.19 c -4.33,-4.3 -10.28,-7.65 -16.32,-6.74 -4.8,0.74 -8.89,4.08 -12.24,7.35 a 14.36,14.36 0 0 0 -3.69,5.83 c -1.88,6.11 1.98,9.7 5.53,13.03 z"
       fill="#fdffe9"
       id="path284" />
    <path
       d="m 229.62,529.72 c -0.64,1.51 1.37,2.9 2.88,2.22 11.1,-5 16.87,-18.61 18,-29.09 0.07,-0.51 0.1,-1 0.13,-1.55 -8.61,-2.92 -18.64,-1.75 -25.88,3.68 6.19,9.69 7.51,18.43 4.87,24.74 z"
       fill="#171717"
       id="path286" />
    <path
       d="m 221.72,479.15 a 4.66,4.66 0 0 1 1.53,1.53 1.58,1.58 0 0 1 -0.33,2 1.53,1.53 0 0 1 -1.51,0 4.64,4.64 0 0 1 -1.25,-1 6.87,6.87 0 0 1 -1.47,-1.8 2.34,2.34 0 0 1 0,-2.24 c 0.39,-0.64 2.4,1.06 3.03,1.51 z"
       fill="#171717"
       id="path288" />
    <path
       d="m 192.91,465.82 a 10.16,10.16 0 0 1 -6,-2 c -4.29,-3.16 -6.13,-9.76 -1.34,-16.27 a 0.76,0.76 0 0 1 1.05,-0.16 0.74,0.74 0 0 1 0.16,1 c -4.4,6 -2.56,11.54 1,14.17 3.56,2.63 9.19,2.66 13.48,-3.17 a 0.75,0.75 0 0 1 1,-0.16 0.76,0.76 0 0 1 0.16,1.05 c -2.83,4 -6.31,5.54 -9.51,5.54 z"
       fill="#171717"
       id="path290" />
    <path
       d="m 175.83,452.68 c 0.24,-0.38 1.89,0.31 3.5,0.61 a 9.86,9.86 0 0 0 3.23,0.1 c 0.27,0 0.56,0.68 0.65,1.55 0.09,0.87 -0.17,1.6 -0.56,1.62 a 9.26,9.26 0 0 1 -4.13,-1.18 c -1.73,-0.98 -2.92,-2.38 -2.69,-2.7 z"
       fill="#171717"
       id="path292" />
    <path
       d="m 177.47,463.07 c -0.33,-0.34 0.86,-1.78 2.24,-2.91 a 32.69,32.69 0 0 1 3,-2.27 c 0.29,-0.16 0.87,0.34 1.28,1.11 0.41,0.77 0.52,1.52 0.25,1.67 -0.27,0.15 -1.77,0.76 -3.37,1.4 -1.6,0.64 -3.11,1.29 -3.4,1 z"
       fill="#171717"
       id="path294" />
    <path
       d="m 184.82,468.59 c -0.78,-0.41 1,-5.34 1.16,-5.56 0.16,-0.22 0.83,-0.06 1.61,0.35 0.78,0.41 1.3,0.92 1.18,1.14 -0.12,0.22 -3.18,4.48 -3.95,4.07 z"
       fill="#171717"
       id="path296" />
    <path
       d="m 192,471.63 c -0.41,-0.08 -0.72,-1.44 -1.11,-2.91 a 15.55,15.55 0 0 1 -0.52,-3.31 c 0,-0.33 0.76,-0.53 1.62,-0.41 0.86,0.12 1.55,0.37 1.54,0.6 -0.01,0.23 -0.21,1.47 -0.4,3 -0.19,1.53 -0.66,3.11 -1.13,3.03 z"
       fill="#171717"
       id="path298" />
    <path
       d="m 200,469.69 c -0.41,0.27 -1.5,-1.13 -2.14,-2.65 -0.64,-1.52 -1.19,-3 -1.24,-3.13 -0.06,-0.27 0.56,-0.66 1.4,-0.91 0.84,-0.25 1.6,-0.18 1.67,0.12 0.07,0.3 0.24,1.81 0.34,3.36 0.1,1.55 0.27,2.97 -0.03,3.21 z"
       fill="#171717"
       id="path300" />
    <path
       d="M 225.05,431.86 C 217,420 207,418 207,418 c 0,-2 9.05,-32.59 9.05,-32.59 l -0.27,24.32 16.4,-14.22 -4.67,21.57 20.79,-11.48 c 0,0 -21.62,28.65 -23.25,26.26 z"
       fill="#ffbd17"
       id="path302" />
    <circle
       cx="215.92999"
       cy="386.69"
       r="2.3099999"
       fill="#ffbd17"
       id="circle304" />
    <circle
       cx="247.2"
       cy="406.28"
       r="2.3099999"
       fill="#ffbd17"
       id="circle306" />
    <circle
       cx="232.78999"
       cy="394.53"
       r="2.3099999"
       fill="#ffbd17"
       id="circle308" />
  </g>
</svg>
