<?xml version="1.0" encoding="UTF-8" standalone="no"?>
<svg
   xmlns:dc="http://purl.org/dc/elements/1.1/"
   xmlns:cc="http://creativecommons.org/ns#"
   xmlns:rdf="http://www.w3.org/1999/02/22-rdf-syntax-ns#"
   xmlns:svg="http://www.w3.org/2000/svg"
   xmlns="http://www.w3.org/2000/svg"
   xmlns:sodipodi="http://sodipodi.sourceforge.net/DTD/sodipodi-0.dtd"
   xmlns:inkscape="http://www.inkscape.org/namespaces/inkscape"
   id="cute_critters"
   data-name="cute critters"
   viewBox="0 0 221 221"
   version="1.1"
   sodipodi:docname="giraffe.svg"
   width="221"
   height="221"
   inkscape:version="1.0.2 (e86c870879, 2021-01-15, custom)">
  <metadata
     id="metadata1304">
    <rdf:RDF>
      <cc:Work
         rdf:about="">
        <dc:format>image/svg+xml</dc:format>
        <dc:type
           rdf:resource="http://purl.org/dc/dcmitype/StillImage" />
      </cc:Work>
    </rdf:RDF>
  </metadata>
  <defs
     id="defs1302" />
  <sodipodi:namedview
     pagecolor="#ffffff"
     bordercolor="#666666"
     borderopacity="1"
     objecttolerance="10"
     gridtolerance="10"
     guidetolerance="10"
     inkscape:pageopacity="0"
     inkscape:pageshadow="2"
     inkscape:window-width="855"
     inkscape:window-height="480"
     id="namedview1300"
     showgrid="false"
     inkscape:zoom="0.88888889"
     inkscape:cx="-170.5"
     inkscape:cy="-169.5"
     inkscape:window-x="0"
     inkscape:window-y="0"
     inkscape:window-maximized="0"
     inkscape:current-layer="cute_critters" />
  <g
     id="giraffe"
     transform="translate(-620.5,-619.5)">
    <circle
       cx="731"
       cy="730"
       r="110"
       fill="#36b1a7"
       id="circle882" />
    <path
       d="m 702.42,751.6 c -8.1,11.45 -16.26,42.54 -23.11,75.5 a 110,110 0 0 0 103.14,0.13 c -5.53,-32.45 -12.38,-63.24 -19.89,-75.63 -14.04,-23.19 -45.03,-21.36 -60.14,0 z"
       fill="#fdffe9"
       id="path884" />
    <path
       d="m 725,763 a 10,10 0 1 0 -10,-10 10,10 0 0 0 10,10 z"
       fill="#171717"
       id="path886" />
    <path
       d="m 765.09,783 a 10,10 0 1 0 10,10 10,10 0 0 0 -10,-10 z"
       fill="#171717"
       id="path888" />
    <path
       d="M 725,823 A 10,10 0 0 0 717.13,839.13 110.93,110.93 0 0 0 731,840 c 0.4,0 0.79,0 1.18,0 A 10,10 0 0 0 725,823 Z"
       fill="#171717"
       id="path890" />
    <path
       d="m 689.58,784.13 c -1.67,5.87 -3.31,12.21 -4.9,18.83 a 2.85,2.85 0 0 0 0.29,0 10,10 0 0 0 4.61,-18.86 z"
       fill="#171717"
       id="path892" />
    <path
       d="m 765.09,763 a 10,10 0 0 0 2.46,-0.34 63.36,63.36 0 0 0 -5,-11 37.65,37.65 0 0 0 -4.36,-5.86 10,10 0 0 0 6.9,17.2 z"
       fill="#171717"
       id="path894" />
    <path
       d="m 725,783 a 10,10 0 1 0 10,10 10,10 0 0 0 -10,-10 z"
       fill="#171717"
       id="path896" />
    <path
       d="m 765.09,823 a 10,10 0 0 0 -10,10 9.83,9.83 0 0 0 0.92,4.13 107.92,107.92 0 0 0 18.88,-6.23 10,10 0 0 0 -9.8,-7.9 z"
       fill="#171717"
       id="path898" />
    <path
       d="m 745.06,743 a 10,10 0 0 0 6.78,-2.68 32.92,32.92 0 0 0 -16.6,-5.38 10,10 0 0 0 9.82,8.06 z"
       fill="#171717"
       id="path900" />
    <path
       d="m 705,783 a 10,10 0 1 0 -10,-11 8.77,8.77 0 0 0 0,1 8.6,8.6 0 0 0 0,1 10,10 0 0 0 10,9 z"
       fill="#171717"
       id="path902" />
    <path
       d="m 745.06,803 a 10,10 0 1 0 10,10 10,10 0 0 0 -10,-10 z"
       fill="#171717"
       id="path904" />
    <path
       d="m 775.1,813 a 10,10 0 0 0 6.5,9.35 c -1,-5.71 -2,-11.34 -3.12,-16.8 A 9.93,9.93 0 0 0 775.1,813 Z"
       fill="#171717"
       id="path906" />
    <path
       d="m 735,773 a 10,10 0 1 0 10,-10 10,10 0 0 0 -10,10 z"
       fill="#171717"
       id="path908" />
    <path
       d="m 705,803 a 10,10 0 0 0 -10,9 8.77,8.77 0 0 0 0,1 8.6,8.6 0 0 0 0,1 10,10 0 1 0 10,-11 z"
       fill="#171717"
       id="path910" />
    <path
       d="m 685,823 a 9.86,9.86 0 0 0 -5.1,1.44 c -0.19,0.89 -0.37,1.8 -0.56,2.7 a 110.92,110.92 0 0 0 15.58,6.8 c 0,-0.32 0.1,-0.61 0.1,-0.93 A 10,10 0 0 0 685,823 Z"
       fill="#171717"
       id="path912" />
    <path
       d="m 751.72,678.8 c 7.88,-10.43 21.8,-24.53 29.9,-22.77 1.84,0.4 3.4,1.66 4.75,3.84 1.75,2.83 2.08,5.33 1,7.89 -3.59,8.79 -21.76,15.46 -30.75,18 z"
       fill="#631c00"
       id="path914" />
    <path
       d="m 780.93,659.23 v 0 c 0.34,0.07 1.37,0.3 2.66,2.37 1.48,2.39 1.23,3.83 0.78,4.92 -2.48,6.1 -15.74,12.19 -26.39,15.42 l -2.18,-3.06 c 8.54,-10.76 20,-20.76 25.13,-19.65 z m 1.39,-6.4 c -13.92,-3 -34.64,25.94 -34.64,25.94 l 7.62,10.69 c 0,0 46.27,-11.3 33.85,-31.31 -1.93,-3.15 -4.26,-4.76 -6.83,-5.32 z"
       fill="#fbae17"
       id="path916" />
    <path
       d="m 710.28,678.8 c -7.88,-10.43 -21.8,-24.53 -29.9,-22.77 -1.84,0.4 -3.4,1.66 -4.75,3.84 -1.75,2.83 -2.08,5.33 -1,7.89 3.59,8.79 21.76,15.46 30.75,18 z"
       fill="#631c00"
       id="path918" />
    <path
       d="m 681.07,659.23 c 5.12,-1.11 16.59,8.89 25.13,19.65 l -2.2,3.06 c -10.65,-3.23 -23.91,-9.32 -26.39,-15.42 -0.45,-1.09 -0.7,-2.53 0.78,-4.92 1.29,-2.07 2.32,-2.3 2.66,-2.37 z m -8.22,-1.08 c -12.42,20 33.85,31.31 33.85,31.31 l 7.62,-10.69 c 0,0 -20.72,-29 -34.64,-25.94 -2.57,0.56 -4.9,2.17 -6.83,5.32 z"
       fill="#fbae17"
       id="path920" />
    <path
       d="m 729.6,802.61 c 82.31,1.52 47.23,-132.52 0.54,-131.94 -46.69,0.58 -82.85,130.41 -0.54,131.94 z"
       fill="#fbae17"
       id="path922" />
    <path
       d="m 762.35,696.38 c -1.38,0.06 -2.76,0.2 -4.12,0.38 -1.08,0.14 -1.25,0.5 -0.56,1.3 0.94,1.08 2,2.07 3,3.12 0.32,0.33 0.55,0.21 0.71,-0.09 l 1.86,-3.55 c 0.48,-1.03 0.36,-1.22 -0.89,-1.16 z"
       fill="#f58523"
       id="path924" />
    <path
       d="m 749.87,691.48 -0.29,4.19 c 0,0.67 0.31,0.81 0.9,0.49 1.31,-0.69 2.18,-1.19 3.41,-1.83 1.23,-0.64 0.92,-1.4 0.38,-1.71 a 23.23,23.23 0 0 0 -3.6,-1.65 0.61,0.61 0 0 0 -0.8,0.51 z"
       fill="#f58523"
       id="path926" />
    <path
       d="m 765.6,700.86 2,0.77 c -0.4,-0.78 -0.8,-1.55 -1.21,-2.31 l -0.9,0.48 c -0.49,0.28 -0.49,0.77 0.11,1.06 z"
       fill="#f58523"
       id="path928" />
    <path
       d="m 749.34,686 c 1.22,0.23 2.23,0.35 3.41,0.53 1.18,0.18 1.56,-0.09 1.35,-0.73 a 24,24 0 0 0 -1.15,-3 c -0.24,-0.53 -0.63,-1 -1.54,-0.17 -0.91,0.83 -1.51,1.33 -2.5,2.33 -0.48,0.45 -0.3,0.87 0.43,1.04 z"
       fill="#f58523"
       id="path930" />
    <path
       d="m 750.56,679.35 0.22,-0.19 c -0.43,-0.36 -0.87,-0.7 -1.3,-1 l 0.4,1 c 0.12,0.26 0.33,0.51 0.68,0.19 z"
       fill="#f58523"
       id="path932" />
    <path
       d="m 757.65,694 c 0.23,0.39 0.49,0.2 0.71,0 0.85,-0.88 1.69,-1.77 2.56,-2.63 0.41,-0.42 0.16,-0.52 -0.27,-0.62 -1.1,-0.25 -3.27,-0.83 -4.37,-1.07 -0.76,-0.16 -1,0 -0.69,0.67 0.61,1.25 1.35,2.46 2.06,3.65 z"
       fill="#f58523"
       id="path934" />
    <path
       d="m 755,703 c -0.22,-1.29 -0.52,-2.56 -0.8,-3.84 -0.13,-0.58 -0.47,-0.56 -1,-0.28 -1.09,0.61 -2.2,1.2 -3.31,1.78 -0.41,0.21 -0.4,0.35 0,0.56 0.77,0.41 1.52,0.84 2.28,1.26 l 0.94,0.52 c 0.37,0.21 0.74,0.42 1.12,0.62 0.73,0.39 0.89,0.34 0.78,-0.38 0.04,-0.05 -0.01,-0.13 -0.01,-0.24 z"
       fill="#f58523"
       id="path936" />
    <path
       d="m 771.57,722 c -1.59,-0.09 -3.19,-0.23 -4.78,-0.22 -1.19,0 -1.51,0.49 -1,1.48 a 30.74,30.74 0 0 0 1.85,3 c 0.67,1 1,1 1.67,0.06 0.89,-1.23 1.72,-2.49 2.59,-3.72 0.29,-0.4 0.15,-0.6 -0.33,-0.6 z"
       fill="#f58523"
       id="path938" />
    <path
       d="m 775.44,732 c 0.3,0.54 0.63,0.31 0.89,0 l 1,-1.38 c -0.22,-1.2 -0.46,-2.4 -0.72,-3.59 -0.8,0 -1.7,0 -2.6,0 -0.9,0 -1.15,0.24 -0.69,1.15 0.68,1.3 1.4,2.56 2.12,3.82 z"
       fill="#f58523"
       id="path940" />
    <path
       d="m 757.93,713.65 c -0.64,0 -0.68,0.26 -0.43,0.66 0.71,1.17 1.42,2.36 2.2,3.49 0.58,0.86 1,0.83 1.74,0 0.54,-0.93 1.16,-1.93 1.7,-3 0.54,-1.07 0.34,-1.12 -0.81,-1.14 -1.47,-0.03 -2.93,0.02 -4.4,-0.01 z"
       fill="#f58523"
       id="path942" />
    <path
       d="m 762.35,727.17 c -1.38,0.06 -2.76,0.19 -4.12,0.38 -1.08,0.14 -1.25,0.5 -0.56,1.3 0.94,1.08 2,2.07 3,3.11 0.32,0.33 0.55,0.22 0.71,-0.08 l 1.86,-3.55 c 0.48,-1.03 0.36,-1.22 -0.89,-1.16 z"
       fill="#f58523"
       id="path944" />
    <path
       d="m 749.87,722.26 -0.29,4.2 c 0,0.66 0.31,0.8 0.9,0.49 1.31,-0.69 2.18,-1.19 3.41,-1.83 1.23,-0.64 0.92,-1.41 0.38,-1.71 a 24.2,24.2 0 0 0 -3.6,-1.66 0.61,0.61 0 0 0 -0.8,0.51 z"
       fill="#f58523"
       id="path946" />
    <path
       d="m 775.55,722.92 h 0.08 l -0.27,-1 c -0.43,0.38 -0.36,0.8 0.19,1 z"
       fill="#f58523"
       id="path948" />
    <path
       d="m 766.21,705.83 c 0,0.94 -0.09,1.88 -0.15,3.07 0,0.24 0.1,0.73 0.13,1.22 0.03,0.49 0.19,0.66 0.65,0.41 1.3,-0.69 2.61,-1.38 3.89,-2.12 -0.24,-0.56 -0.47,-1.13 -0.72,-1.69 l -3.28,-1.31 c -0.48,-0.18 -0.5,0.11 -0.52,0.42 z"
       fill="#f58523"
       id="path950" />
    <path
       d="m 770,713.49 c -0.28,-0.29 -0.48,-0.49 -0.7,0.07 -0.43,1.11 -0.91,2.21 -1.3,3.13 -0.2,0.54 -0.36,0.88 -0.45,1.24 -0.21,0.87 0,1.11 0.89,0.81 1.41,-0.47 2.77,-1.08 4.15,-1.63 0.61,-0.25 0.47,-0.57 0.11,-0.93 -0.91,-0.89 -1.81,-1.78 -2.7,-2.69 z"
       fill="#f58523"
       id="path952" />
    <path
       d="m 765.6,731.64 4,1.56 c 0.62,0.22 0.86,-0.07 0.82,-0.56 -0.08,-1.27 -0.2,-2.53 -0.35,-3.8 a 0.35,0.35 0 0 0 -0.51,-0.3 43.71,43.71 0 0 0 -4.11,2.05 c -0.45,0.27 -0.45,0.76 0.15,1.05 z"
       fill="#f58523"
       id="path954" />
    <path
       d="m 749.34,716.75 c 1.22,0.23 2.23,0.36 3.41,0.54 1.18,0.18 1.56,-0.09 1.35,-0.73 a 24,24 0 0 0 -1.15,-3 c -0.24,-0.53 -0.63,-1 -1.54,-0.18 -0.91,0.82 -1.51,1.34 -2.5,2.34 -0.48,0.47 -0.3,0.9 0.43,1.03 z"
       fill="#f58523"
       id="path956" />
    <path
       d="m 748.87,707.25 c 0.3,0.9 0.66,1.78 1,2.66 0.12,0.29 0.33,0.55 0.68,0.23 1.08,-1 2.17,-1.94 3.19,-3 0.41,-0.41 0.31,-0.85 -0.39,-1 l -2.79,-0.49 c -1.37,0.02 -1.98,0.7 -1.69,1.6 z"
       fill="#f58523"
       id="path958" />
    <path
       d="m 757.65,724.82 c 0.23,0.39 0.49,0.2 0.71,0 0.85,-0.88 1.69,-1.77 2.56,-2.64 0.41,-0.41 0.16,-0.51 -0.27,-0.61 -1.1,-0.25 -3.27,-0.83 -4.37,-1.07 -0.76,-0.17 -1,0 -0.69,0.67 0.61,1.22 1.35,2.43 2.06,3.65 z"
       fill="#f58523"
       id="path960" />
    <path
       d="m 760.69,705.42 c -0.47,-0.9 -0.89,-0.94 -1.51,-0.1 -0.84,1.15 -1.54,2.39 -2.33,3.58 -0.25,0.38 -0.06,0.55 0.3,0.6 l 4.24,0.56 c 1.2,0.11 1.37,0 0.93,-1.13 -0.44,-1.13 -1.03,-2.36 -1.63,-3.51 z"
       fill="#f58523"
       id="path962" />
    <path
       d="m 755,733.82 c -0.22,-1.29 -0.52,-2.57 -0.8,-3.85 -0.13,-0.57 -0.47,-0.55 -1,-0.28 -1.09,0.62 -2.2,1.21 -3.31,1.78 -0.41,0.22 -0.4,0.36 0,0.57 0.77,0.41 1.52,0.84 2.28,1.26 l 0.94,0.52 c 0.37,0.21 0.74,0.42 1.12,0.62 0.73,0.39 0.89,0.34 0.78,-0.39 C 755.05,734 755,733.9 755,733.82 Z"
       fill="#f58523"
       id="path964" />
    <path
       d="m 771.57,752.78 c -1.59,-0.09 -3.19,-0.23 -4.78,-0.22 -1.19,0 -1.51,0.49 -1,1.48 a 29.47,29.47 0 0 0 1.85,3 c 0.67,1 1,1 1.67,0.06 0.89,-1.22 1.72,-2.49 2.59,-3.72 0.29,-0.38 0.15,-0.58 -0.33,-0.6 z"
       fill="#f58523"
       id="path966" />
    <path
       d="m 774,757.83 c -1,0 -1.15,0.24 -0.69,1.15 0.66,1.29 1.39,2.55 2.11,3.81 0.3,0.54 0.63,0.32 0.89,0 0.66,-0.91 1.33,-1.82 1.95,-2.74 0.1,-0.68 0.18,-1.36 0.26,-2 a 3.85,3.85 0 0 0 -0.86,-0.15 29.66,29.66 0 0 0 -3.66,-0.07 z"
       fill="#f58523"
       id="path968" />
    <path
       d="m 757.93,744.44 c -0.64,0 -0.68,0.25 -0.43,0.66 0.71,1.17 1.42,2.35 2.2,3.49 0.58,0.85 1,0.82 1.74,-0.05 0.54,-0.94 1.16,-1.93 1.7,-3 0.54,-1.07 0.34,-1.13 -0.81,-1.14 -1.47,0.01 -2.93,0.06 -4.4,0.04 z"
       fill="#f58523"
       id="path970" />
    <path
       d="m 762.35,758 c -1.38,0.07 -2.76,0.2 -4.12,0.38 -1.08,0.15 -1.25,0.5 -0.56,1.3 0.94,1.09 2,2.07 3,3.12 0.32,0.33 0.55,0.21 0.71,-0.09 l 1.86,-3.55 c 0.48,-1.07 0.36,-1.26 -0.89,-1.16 z"
       fill="#f58523"
       id="path972" />
    <path
       d="m 749.87,753.05 -0.29,4.19 c 0,0.67 0.31,0.81 0.9,0.5 1.31,-0.7 2.18,-1.19 3.41,-1.84 1.23,-0.65 0.92,-1.4 0.38,-1.71 a 24.21,24.21 0 0 0 -3.6,-1.65 0.61,0.61 0 0 0 -0.8,0.51 z"
       fill="#f58523"
       id="path974" />
    <path
       d="m 778.58,750 c -1.08,0.89 -2.16,1.78 -3.22,2.71 -0.43,0.37 -0.39,0.8 0.19,1 1.1,0.38 2.18,0.81 3.3,1.11 0.12,-1.65 0.19,-3.33 0.21,-5 a 0.65,0.65 0 0 0 -0.48,0.18 z"
       fill="#f58523"
       id="path976" />
    <path
       d="m 771,737.91 c -1.41,-0.6 -2.85,-1.15 -4.28,-1.71 -0.48,-0.19 -0.5,0.1 -0.52,0.42 0,0.94 -0.09,1.88 -0.15,3.07 0,0.24 0.1,0.73 0.13,1.22 0.03,0.49 0.19,0.65 0.65,0.41 1.46,-0.78 2.93,-1.54 4.35,-2.38 0.6,-0.35 0.37,-0.81 -0.18,-1.03 z"
       fill="#f58523"
       id="path978" />
    <path
       d="m 770,744.28 c -0.28,-0.29 -0.48,-0.49 -0.7,0.06 -0.43,1.12 -0.91,2.22 -1.3,3.14 -0.2,0.53 -0.36,0.88 -0.45,1.23 -0.21,0.88 0,1.12 0.89,0.82 1.41,-0.47 2.77,-1.08 4.15,-1.63 0.61,-0.25 0.47,-0.57 0.11,-0.93 -0.91,-0.89 -1.81,-1.79 -2.7,-2.69 z"
       fill="#f58523"
       id="path980" />
    <path
       d="m 769.65,764 c 0.62,0.23 0.86,-0.06 0.82,-0.56 -0.08,-1.26 -0.2,-2.53 -0.35,-3.79 a 0.36,0.36 0 0 0 -0.51,-0.31 c -1.41,0.62 -2.78,1.31 -4.11,2 -0.5,0.28 -0.52,0.77 0.1,1.06 z"
       fill="#f58523"
       id="path982" />
    <path
       d="m 749.34,747.54 c 1.22,0.23 2.23,0.36 3.41,0.53 1.18,0.17 1.56,-0.08 1.35,-0.73 a 24.62,24.62 0 0 0 -1.15,-3 c -0.24,-0.53 -0.63,-1 -1.54,-0.17 -0.91,0.83 -1.51,1.33 -2.5,2.33 -0.48,0.5 -0.3,0.9 0.43,1.04 z"
       fill="#f58523"
       id="path984" />
    <path
       d="m 774.5,743.05 c 0.4,1.12 0.86,2.22 1.29,3.33 0.15,0.4 0.4,0.55 0.76,0.21 0.81,-0.74 1.63,-1.47 2.42,-2.23 0,-0.6 -0.06,-1.2 -0.1,-1.8 -1.15,-0.2 -2.3,-0.34 -3.23,-0.48 -1.22,-0.03 -1.42,0.17 -1.14,0.97 z"
       fill="#f58523"
       id="path986" />
    <path
       d="m 748.87,738 c 0.3,0.9 0.66,1.78 1,2.66 0.12,0.29 0.33,0.55 0.68,0.23 1.08,-1 2.17,-1.95 3.19,-3 0.41,-0.42 0.31,-0.85 -0.39,-1 l -2.79,-0.5 c -1.37,0.07 -1.98,0.75 -1.69,1.61 z"
       fill="#f58523"
       id="path988" />
    <path
       d="m 776.4,734.12 h -1.46 c -0.68,0 -0.83,0.31 -0.45,0.74 1,1.08 1.94,2.12 2.94,3.15 0.36,0.37 0.61,0.14 0.8,-0.2 l 0.17,-0.3 c -0.14,-1.1 -0.28,-2.21 -0.45,-3.31 l -1.54,-0.1 z"
       fill="#f58523"
       id="path990" />
    <path
       d="m 757.65,755.6 c 0.23,0.4 0.49,0.2 0.71,0 0.85,-0.88 1.69,-1.77 2.56,-2.63 0.41,-0.42 0.16,-0.52 -0.27,-0.61 -1.1,-0.25 -3.27,-0.83 -4.37,-1.07 -0.76,-0.17 -1,0 -0.69,0.66 0.61,1.22 1.35,2.43 2.06,3.65 z"
       fill="#f58523"
       id="path992" />
    <path
       d="m 760.69,736.21 c -0.47,-0.9 -0.89,-1 -1.51,-0.1 -0.84,1.15 -1.54,2.39 -2.33,3.58 -0.25,0.38 -0.06,0.54 0.3,0.6 l 4.24,0.56 c 1.2,0.1 1.37,-0.06 0.93,-1.14 a 38.28,38.28 0 0 0 -1.63,-3.5 z"
       fill="#f58523"
       id="path994" />
    <path
       d="m 755,764.61 c -0.22,-1.29 -0.52,-2.57 -0.8,-3.85 -0.13,-0.57 -0.47,-0.55 -1,-0.28 -1.09,0.61 -2.2,1.2 -3.31,1.78 -0.41,0.21 -0.4,0.36 0,0.56 l 2.28,1.27 0.94,0.52 1.12,0.61 c 0.73,0.39 0.89,0.34 0.78,-0.38 0.04,-0.08 -0.01,-0.16 -0.01,-0.23 z"
       fill="#f58523"
       id="path996" />
    <path
       d="m 765.78,784.82 a 19,19 0 0 0 1.09,1.87 c 0.91,-1.05 1.79,-2.12 2.6,-3.26 -0.89,0 -1.79,-0.09 -2.68,-0.09 -1.19,0.01 -1.51,0.5 -1.01,1.48 z"
       fill="#f58523"
       id="path998" />
    <path
       d="m 757.93,775.23 c -0.64,0 -0.68,0.25 -0.43,0.65 0.71,1.18 1.42,2.36 2.2,3.5 0.58,0.85 1,0.82 1.74,0 0.54,-0.94 1.16,-1.94 1.7,-3 0.54,-1.06 0.34,-1.12 -0.81,-1.14 -1.47,-0.04 -2.93,0.01 -4.4,-0.01 z"
       fill="#f58523"
       id="path1000" />
    <path
       d="m 762.35,788.74 c -1.38,0.06 -2.76,0.19 -4.12,0.38 -1.08,0.14 -1.25,0.5 -0.56,1.3 0.69,0.8 1.55,1.64 2.35,2.44 1,-0.7 1.93,-1.45 2.84,-2.22 l 0.39,-0.74 c 0.47,-1.03 0.35,-1.22 -0.9,-1.16 z"
       fill="#f58523"
       id="path1002" />
    <path
       d="m 750.48,788.52 c 1.31,-0.69 2.18,-1.19 3.41,-1.83 1.23,-0.64 0.92,-1.4 0.38,-1.71 a 23.23,23.23 0 0 0 -3.6,-1.65 0.61,0.61 0 0 0 -0.8,0.51 l -0.29,4.19 c -0.01,0.66 0.31,0.8 0.9,0.49 z"
       fill="#f58523"
       id="path1004" />
    <path
       d="m 766.73,767 c -0.48,-0.18 -0.5,0.11 -0.52,0.42 0,0.94 -0.09,1.89 -0.15,3.07 0,0.25 0.1,0.73 0.13,1.23 0.03,0.5 0.19,0.65 0.65,0.4 1.46,-0.77 2.93,-1.54 4.35,-2.37 0.59,-0.35 0.36,-0.81 -0.18,-1 -1.41,-0.65 -2.85,-1.2 -4.28,-1.75 z"
       fill="#f58523"
       id="path1006" />
    <path
       d="m 770,775.06 c -0.28,-0.29 -0.48,-0.49 -0.7,0.07 -0.43,1.11 -0.91,2.21 -1.3,3.13 -0.2,0.54 -0.36,0.88 -0.45,1.24 -0.21,0.88 0,1.11 0.89,0.81 1.33,-0.44 2.61,-1 3.91,-1.53 0.16,-0.3 0.3,-0.6 0.45,-0.9 l -0.1,-0.12 c -0.91,-0.9 -1.81,-1.76 -2.7,-2.7 z"
       fill="#f58523"
       id="path1008" />
    <path
       d="m 754.1,778.13 a 24,24 0 0 0 -1.15,-3 c -0.24,-0.53 -0.63,-1 -1.54,-0.18 -0.91,0.82 -1.51,1.34 -2.5,2.34 -0.48,0.5 -0.3,0.92 0.43,1.06 1.22,0.23 2.23,0.35 3.41,0.53 1.18,0.18 1.56,-0.11 1.35,-0.75 z"
       fill="#f58523"
       id="path1010" />
    <path
       d="m 774.5,773.83 0.08,0.2 c 0.15,-0.38 0.29,-0.76 0.43,-1.14 -0.65,0.11 -0.73,0.31 -0.51,0.94 z"
       fill="#f58523"
       id="path1012" />
    <path
       d="m 748.87,768.82 c 0.3,0.9 0.66,1.78 1,2.67 0.12,0.29 0.33,0.54 0.68,0.22 1.08,-1 2.17,-1.94 3.19,-3 0.41,-0.41 0.31,-0.85 -0.39,-1 -1,-0.2 -2.09,-0.38 -2.79,-0.5 -1.37,0.03 -1.98,0.71 -1.69,1.61 z"
       fill="#f58523"
       id="path1014" />
    <path
       d="m 776.4,764.9 h -1.46 c -0.68,0 -0.83,0.31 -0.45,0.74 0.69,0.78 1.42,1.53 2.14,2.29 0.27,-1 0.52,-2 0.74,-3 l -1,-0.06 z"
       fill="#f58523"
       id="path1016" />
    <path
       d="m 758.36,786.35 c 0.85,-0.88 1.69,-1.77 2.56,-2.64 0.41,-0.41 0.16,-0.51 -0.27,-0.61 -1.1,-0.25 -3.27,-0.83 -4.37,-1.07 -0.76,-0.16 -1,0 -0.69,0.67 0.61,1.26 1.35,2.47 2.06,3.69 0.23,0.39 0.49,0.2 0.71,-0.04 z"
       fill="#f58523"
       id="path1018" />
    <path
       d="m 760.69,767 c -0.47,-0.91 -0.89,-1 -1.51,-0.11 -0.84,1.16 -1.54,2.4 -2.33,3.59 -0.25,0.38 -0.06,0.54 0.3,0.59 l 4.24,0.57 c 1.2,0.1 1.37,-0.06 0.93,-1.14 a 38.28,38.28 0 0 0 -1.63,-3.5 z"
       fill="#f58523"
       id="path1020" />
    <path
       d="m 755,795.39 c -0.22,-1.29 -0.52,-2.57 -0.8,-3.84 -0.13,-0.58 -0.47,-0.56 -1,-0.29 -1.09,0.62 -2.2,1.21 -3.31,1.79 -0.41,0.21 -0.4,0.35 0,0.56 0.77,0.41 1.52,0.84 2.28,1.26 l 0.94,0.52 c 0.37,0.21 0.74,0.42 1.12,0.62 l 0.2,0.09 0.59,-0.27 a 1.62,1.62 0 0 0 0,-0.21 c 0.03,-0.07 -0.02,-0.15 -0.02,-0.23 z"
       fill="#f58523"
       id="path1022" />
    <path
       d="m 736.89,671.55 c -0.67,-0.17 -1.35,-0.32 -2,-0.44 l 1.34,0.51 c 0.32,0.13 0.54,0.08 0.66,-0.07 z"
       fill="#f58523"
       id="path1024" />
    <path
       d="m 721.56,672.25 v 0 c -0.36,0.12 -0.72,0.27 -1.07,0.41 l 0.36,0.2 c 0.74,0.39 0.9,0.35 0.79,-0.38 a 1.89,1.89 0 0 1 -0.08,-0.23 z"
       fill="#f58523"
       id="path1026" />
    <path
       d="m 734.17,695.5 c 0.68,1 1,1 1.68,0.06 0.89,-1.22 1.71,-2.49 2.59,-3.72 0.3,-0.42 0.16,-0.61 -0.32,-0.64 -1.6,-0.09 -3.19,-0.23 -4.78,-0.22 -1.2,0 -1.51,0.5 -1,1.48 a 29.56,29.56 0 0 0 1.83,3.04 z"
       fill="#f58523"
       id="path1028" />
    <path
       d="m 742,701.22 c 0.31,0.54 0.64,0.32 0.89,0 0.84,-1.15 1.71,-2.29 2.46,-3.48 0.56,-0.9 0.34,-1.33 -1.1,-1.45 a 29.67,29.67 0 0 0 -3.66,0 c -1,0 -1.16,0.24 -0.69,1.14 0.64,1.27 1.37,2.57 2.1,3.79 z"
       fill="#f58523"
       id="path1030" />
    <path
       d="m 724.48,682.87 c -0.65,0 -0.68,0.25 -0.44,0.65 0.72,1.18 1.42,2.36 2.2,3.5 0.59,0.85 1,0.82 1.74,0 0.55,-0.94 1.16,-1.94 1.71,-3 0.55,-1.06 0.34,-1.13 -0.82,-1.15 -1.46,-0.03 -2.93,0.02 -4.39,0 z"
       fill="#f58523"
       id="path1032" />
    <path
       d="m 728.89,696.38 c -1.37,0.06 -2.75,0.2 -4.11,0.38 -1.08,0.14 -1.26,0.5 -0.56,1.3 0.94,1.08 2,2.07 3,3.12 0.32,0.33 0.54,0.21 0.71,-0.09 l 1.85,-3.55 c 0.48,-1.03 0.37,-1.22 -0.89,-1.16 z"
       fill="#f58523"
       id="path1034" />
    <path
       d="m 716.41,691.48 -0.28,4.19 c 0,0.67 0.3,0.81 0.89,0.49 1.31,-0.69 2.18,-1.19 3.41,-1.83 1.39,-0.72 0.92,-1.4 0.39,-1.71 a 23.23,23.23 0 0 0 -3.6,-1.65 0.62,0.62 0 0 0 -0.81,0.51 z"
       fill="#f58523"
       id="path1036" />
    <path
       d="m 745.13,688.43 c -1.08,0.89 -2.17,1.78 -3.23,2.7 -0.43,0.38 -0.38,0.81 0.2,1 a 33.7,33.7 0 0 0 4.06,1.31 c 0.37,0.07 0.4,-0.32 0.37,-0.65 -0.1,-1.22 -0.42,-3 -0.6,-4.07 -0.1,-0.62 -0.42,-0.61 -0.8,-0.29 z"
       fill="#f58523"
       id="path1038" />
    <path
       d="m 733.38,679.75 c 1.46,-0.78 2.93,-1.55 4.35,-2.38 0.6,-0.35 0.37,-0.81 -0.17,-1 -1.42,-0.59 -2.86,-1.14 -4.29,-1.7 -0.47,-0.19 -0.5,0.1 -0.51,0.42 0,0.94 -0.09,1.88 -0.15,3.06 0,0.25 0.1,0.74 0.13,1.23 0.03,0.49 0.18,0.62 0.64,0.37 z"
       fill="#f58523"
       id="path1040" />
    <path
       d="m 736.55,682.71 c -0.29,-0.3 -0.48,-0.49 -0.7,0.06 -0.44,1.12 -0.92,2.21 -1.31,3.13 -0.19,0.54 -0.35,0.88 -0.44,1.24 -0.22,0.88 0,1.11 0.88,0.82 1.41,-0.47 2.77,-1.08 4.15,-1.64 0.62,-0.24 0.48,-0.56 0.11,-0.92 z"
       fill="#f58523"
       id="path1042" />
    <path
       d="m 732.15,700.86 4.05,1.55 c 0.62,0.22 0.85,-0.06 0.82,-0.56 -0.09,-1.27 -0.21,-2.53 -0.36,-3.79 a 0.35,0.35 0 0 0 -0.51,-0.31 c -1.4,0.62 -2.77,1.31 -4.1,2 -0.5,0.33 -0.53,0.82 0.1,1.11 z"
       fill="#f58523"
       id="path1044" />
    <path
       d="m 715.89,686 c 1.22,0.23 2.22,0.35 3.41,0.53 1.19,0.18 1.56,-0.09 1.35,-0.73 a 25.67,25.67 0 0 0 -1.15,-3 c -0.24,-0.53 -0.63,-1 -1.55,-0.17 -0.92,0.83 -1.51,1.33 -2.49,2.33 -0.46,0.45 -0.3,0.87 0.43,1.04 z"
       fill="#f58523"
       id="path1046" />
    <path
       d="m 741.05,681.47 c 0.4,1.12 0.85,2.23 1.28,3.34 0.16,0.4 0.4,0.55 0.77,0.21 1,-0.95 2.09,-1.88 3.08,-2.87 0.55,-0.55 0.38,-1 -0.44,-1.11 -1.26,-0.23 -2.54,-0.38 -3.56,-0.53 -1.18,-0.03 -1.42,0.17 -1.13,0.96 z"
       fill="#f58523"
       id="path1048" />
    <path
       d="m 716.43,679.13 c 0.11,0.29 0.33,0.54 0.68,0.22 1.08,-1 2.16,-1.94 3.18,-3 0.42,-0.42 0.31,-0.85 -0.38,-1 -1,-0.2 -2.1,-0.38 -2.79,-0.5 -1.39,0 -2,0.65 -1.7,1.55 0.3,0.9 0.65,1.85 1.01,2.73 z"
       fill="#f58523"
       id="path1050" />
    <path
       d="m 744,676.43 c 0.35,0.37 0.6,0.14 0.8,-0.21 l 0.56,-1 a 33,33 0 0 0 -4.49,-2.32 0.67,0.67 0 0 0 0.19,0.38 c 0.94,1.08 1.94,2.12 2.94,3.15 z"
       fill="#f58523"
       id="path1052" />
    <path
       d="m 724.2,694 c 0.23,0.39 0.48,0.2 0.71,0 0.85,-0.88 1.69,-1.77 2.55,-2.63 0.42,-0.42 0.17,-0.52 -0.26,-0.62 -1.1,-0.25 -3.28,-0.83 -4.38,-1.07 -0.76,-0.16 -1,0 -0.68,0.67 0.61,1.25 1.35,2.46 2.06,3.65 z"
       fill="#f58523"
       id="path1054" />
    <path
       d="m 723.7,678.72 4.24,0.56 c 1.2,0.1 1.36,-0.06 0.93,-1.14 a 38.28,38.28 0 0 0 -1.63,-3.5 c -0.48,-0.91 -0.9,-0.95 -1.52,-0.1 -0.84,1.15 -1.54,2.39 -2.32,3.58 -0.25,0.38 -0.06,0.54 0.3,0.6 z"
       fill="#f58523"
       id="path1056" />
    <path
       d="m 721.56,703 c -0.21,-1.29 -0.51,-2.56 -0.8,-3.84 -0.13,-0.58 -0.47,-0.56 -1,-0.28 -1.09,0.61 -2.2,1.2 -3.32,1.78 -0.4,0.21 -0.39,0.35 0,0.56 l 2.28,1.26 0.94,0.52 1.11,0.62 c 0.74,0.39 0.9,0.34 0.79,-0.38 a 2,2 0 0 1 0,-0.24 z"
       fill="#f58523"
       id="path1058" />
    <path
       d="m 738.12,722 c -1.6,-0.09 -3.19,-0.23 -4.78,-0.22 -1.2,0 -1.51,0.49 -1,1.48 a 30.67,30.67 0 0 0 1.84,3 c 0.68,1 1,1 1.68,0.06 0.89,-1.23 1.71,-2.49 2.59,-3.72 0.29,-0.4 0.15,-0.6 -0.33,-0.6 z"
       fill="#f58523"
       id="path1060" />
    <path
       d="m 742,732 c 0.31,0.54 0.64,0.31 0.89,0 0.84,-1.15 1.71,-2.28 2.46,-3.48 0.56,-0.9 0.34,-1.33 -1.1,-1.45 a 34.22,34.22 0 0 0 -3.66,0 c -1,0.05 -1.16,0.24 -0.69,1.15 0.64,1.26 1.37,2.52 2.1,3.78 z"
       fill="#f58523"
       id="path1062" />
    <path
       d="m 724.48,713.65 c -0.65,0 -0.68,0.26 -0.44,0.66 0.72,1.17 1.42,2.36 2.2,3.49 0.59,0.86 1,0.83 1.74,0 0.55,-0.93 1.16,-1.93 1.71,-3 0.55,-1.07 0.34,-1.12 -0.82,-1.14 -1.46,-0.03 -2.93,0.02 -4.39,-0.01 z"
       fill="#f58523"
       id="path1064" />
    <path
       d="m 728.89,727.17 c -1.37,0.06 -2.75,0.19 -4.11,0.38 -1.08,0.14 -1.26,0.5 -0.56,1.3 0.94,1.08 2,2.07 3,3.11 0.32,0.33 0.54,0.22 0.71,-0.08 l 1.85,-3.55 c 0.48,-1.03 0.37,-1.22 -0.89,-1.16 z"
       fill="#f58523"
       id="path1066" />
    <path
       d="m 716.41,722.26 -0.28,4.2 c 0,0.66 0.3,0.8 0.89,0.49 1.31,-0.69 2.18,-1.19 3.41,-1.83 1.39,-0.72 0.92,-1.41 0.39,-1.71 a 24.2,24.2 0 0 0 -3.6,-1.66 0.62,0.62 0 0 0 -0.81,0.51 z"
       fill="#f58523"
       id="path1068" />
    <path
       d="m 745.13,719.21 c -1.08,0.9 -2.17,1.79 -3.23,2.71 -0.43,0.38 -0.38,0.8 0.2,1 a 32,32 0 0 0 4.06,1.31 c 0.37,0.08 0.4,-0.32 0.37,-0.65 -0.1,-1.22 -0.42,-3 -0.6,-4.07 -0.1,-0.62 -0.42,-0.62 -0.8,-0.3 z"
       fill="#f58523"
       id="path1070" />
    <path
       d="m 737.56,707.12 c -1.42,-0.59 -2.86,-1.14 -4.29,-1.71 -0.47,-0.18 -0.5,0.11 -0.51,0.42 0,0.94 -0.09,1.88 -0.15,3.07 0,0.24 0.1,0.73 0.13,1.22 0.03,0.49 0.18,0.66 0.64,0.41 1.46,-0.77 2.93,-1.54 4.35,-2.38 0.6,-0.34 0.37,-0.8 -0.17,-1.03 z"
       fill="#f58523"
       id="path1072" />
    <path
       d="m 736.55,713.49 c -0.29,-0.29 -0.48,-0.49 -0.7,0.07 -0.44,1.11 -0.92,2.21 -1.31,3.13 -0.19,0.54 -0.35,0.88 -0.44,1.24 -0.22,0.87 0,1.11 0.88,0.81 1.41,-0.47 2.77,-1.08 4.15,-1.63 0.62,-0.25 0.48,-0.57 0.11,-0.93 -0.9,-0.89 -1.8,-1.78 -2.69,-2.69 z"
       fill="#f58523"
       id="path1074" />
    <path
       d="m 732.15,731.64 4.05,1.56 c 0.62,0.22 0.85,-0.07 0.82,-0.56 -0.09,-1.27 -0.21,-2.53 -0.36,-3.8 a 0.35,0.35 0 0 0 -0.51,-0.3 44.78,44.78 0 0 0 -4.1,2.05 c -0.5,0.27 -0.53,0.76 0.1,1.05 z"
       fill="#f58523"
       id="path1076" />
    <path
       d="m 715.89,716.75 c 1.22,0.23 2.22,0.36 3.41,0.54 1.19,0.18 1.56,-0.09 1.35,-0.73 a 25.67,25.67 0 0 0 -1.15,-3 c -0.24,-0.53 -0.63,-1 -1.55,-0.18 -0.92,0.82 -1.51,1.34 -2.49,2.34 -0.46,0.47 -0.3,0.9 0.43,1.03 z"
       fill="#f58523"
       id="path1078" />
    <path
       d="m 745.74,711.83 c -1.26,-0.23 -2.54,-0.38 -3.56,-0.53 -1.22,0 -1.42,0.16 -1.13,1 0.4,1.12 0.85,2.22 1.28,3.34 0.16,0.4 0.4,0.54 0.77,0.21 1,-0.95 2.09,-1.88 3.08,-2.87 0.55,-0.6 0.38,-0.98 -0.44,-1.15 z"
       fill="#f58523"
       id="path1080" />
    <path
       d="m 715.42,707.25 c 0.29,0.9 0.65,1.78 1,2.66 0.11,0.29 0.33,0.55 0.68,0.23 1.08,-1 2.16,-1.94 3.18,-3 0.42,-0.41 0.31,-0.85 -0.38,-1 l -2.79,-0.49 c -1.38,0.02 -1.99,0.7 -1.69,1.6 z"
       fill="#f58523"
       id="path1082" />
    <path
       d="M 746.26,703.51 743,703.3 v 0 h -1.47 c -0.68,0 -0.82,0.3 -0.44,0.74 0.94,1.07 1.94,2.11 2.94,3.14 0.35,0.37 0.6,0.15 0.8,-0.2 q 0.84,-1.51 1.71,-3 c 0.09,-0.25 0.17,-0.45 -0.28,-0.47 z"
       fill="#f58523"
       id="path1084" />
    <path
       d="m 724.2,724.82 c 0.23,0.39 0.48,0.2 0.71,0 0.85,-0.88 1.69,-1.77 2.55,-2.64 0.42,-0.41 0.17,-0.51 -0.26,-0.61 -1.1,-0.25 -3.28,-0.83 -4.38,-1.07 -0.76,-0.17 -1,0 -0.68,0.67 0.61,1.22 1.35,2.43 2.06,3.65 z"
       fill="#f58523"
       id="path1086" />
    <path
       d="m 727.24,705.42 c -0.48,-0.9 -0.9,-0.94 -1.52,-0.1 -0.84,1.15 -1.54,2.39 -2.32,3.58 -0.25,0.38 -0.06,0.55 0.3,0.6 l 4.24,0.56 c 1.2,0.11 1.36,0 0.93,-1.13 -0.43,-1.13 -1.03,-2.36 -1.63,-3.51 z"
       fill="#f58523"
       id="path1088" />
    <path
       d="m 721.56,733.82 c -0.21,-1.29 -0.51,-2.57 -0.8,-3.85 -0.13,-0.57 -0.47,-0.55 -1,-0.28 -1.09,0.62 -2.2,1.21 -3.32,1.78 -0.4,0.22 -0.39,0.36 0,0.57 l 2.28,1.26 0.94,0.52 1.11,0.62 c 0.74,0.39 0.9,0.34 0.79,-0.39 a 1.89,1.89 0 0 1 0,-0.23 z"
       fill="#f58523"
       id="path1090" />
    <path
       d="m 738.12,752.78 c -1.6,-0.09 -3.19,-0.23 -4.78,-0.22 -1.2,0 -1.51,0.49 -1,1.48 a 29.41,29.41 0 0 0 1.84,3 c 0.68,1 1,1 1.68,0.06 0.89,-1.22 1.71,-2.49 2.59,-3.72 0.29,-0.38 0.15,-0.58 -0.33,-0.6 z"
       fill="#f58523"
       id="path1092" />
    <path
       d="m 742,762.79 c 0.31,0.54 0.64,0.32 0.89,0 0.84,-1.15 1.71,-2.28 2.46,-3.48 0.56,-0.9 0.34,-1.33 -1.1,-1.45 a 29.67,29.67 0 0 0 -3.66,0 c -1,0 -1.16,0.24 -0.69,1.15 0.64,1.26 1.37,2.52 2.1,3.78 z"
       fill="#f58523"
       id="path1094" />
    <path
       d="m 724.48,744.44 c -0.65,0 -0.68,0.25 -0.44,0.66 0.72,1.17 1.42,2.35 2.2,3.49 0.59,0.85 1,0.82 1.74,-0.05 0.55,-0.94 1.16,-1.93 1.71,-3 0.55,-1.07 0.34,-1.13 -0.82,-1.14 -1.46,0.01 -2.93,0.06 -4.39,0.04 z"
       fill="#f58523"
       id="path1096" />
    <path
       d="m 728.89,758 c -1.37,0.07 -2.75,0.2 -4.11,0.38 -1.08,0.15 -1.26,0.5 -0.56,1.3 0.94,1.09 2,2.07 3,3.12 0.32,0.33 0.54,0.21 0.71,-0.09 l 1.85,-3.55 c 0.48,-1.07 0.37,-1.26 -0.89,-1.16 z"
       fill="#f58523"
       id="path1098" />
    <path
       d="m 716.41,753.05 -0.28,4.19 c 0,0.67 0.3,0.81 0.89,0.5 1.31,-0.7 2.18,-1.19 3.41,-1.84 1.39,-0.72 0.92,-1.4 0.39,-1.71 a 24.21,24.21 0 0 0 -3.6,-1.65 0.62,0.62 0 0 0 -0.81,0.51 z"
       fill="#f58523"
       id="path1100" />
    <path
       d="m 745.13,750 c -1.08,0.89 -2.17,1.78 -3.23,2.71 -0.43,0.37 -0.38,0.8 0.2,1 a 32,32 0 0 0 4.06,1.31 c 0.37,0.08 0.4,-0.32 0.37,-0.65 -0.1,-1.22 -0.42,-3 -0.6,-4.07 -0.1,-0.62 -0.42,-0.62 -0.8,-0.3 z"
       fill="#f58523"
       id="path1102" />
    <path
       d="m 737.56,737.91 c -1.42,-0.6 -2.86,-1.15 -4.29,-1.71 -0.47,-0.19 -0.5,0.1 -0.51,0.42 0,0.94 -0.09,1.88 -0.15,3.07 0,0.24 0.1,0.73 0.13,1.22 0.03,0.49 0.18,0.65 0.64,0.41 1.46,-0.78 2.93,-1.54 4.35,-2.38 0.6,-0.35 0.37,-0.81 -0.17,-1.03 z"
       fill="#f58523"
       id="path1104" />
    <path
       d="m 736.55,744.28 c -0.29,-0.29 -0.48,-0.49 -0.7,0.06 -0.44,1.12 -0.92,2.22 -1.31,3.14 -0.19,0.53 -0.35,0.88 -0.44,1.23 -0.22,0.88 0,1.12 0.88,0.82 1.41,-0.47 2.77,-1.08 4.15,-1.63 0.62,-0.25 0.48,-0.57 0.11,-0.93 z"
       fill="#f58523"
       id="path1106" />
    <path
       d="m 732.15,762.43 4.05,1.57 c 0.62,0.23 0.85,-0.06 0.82,-0.56 -0.09,-1.26 -0.21,-2.53 -0.36,-3.79 a 0.36,0.36 0 0 0 -0.51,-0.31 c -1.4,0.62 -2.77,1.31 -4.1,2 -0.5,0.31 -0.53,0.8 0.1,1.09 z"
       fill="#f58523"
       id="path1108" />
    <path
       d="m 715.89,747.54 c 1.22,0.23 2.22,0.36 3.41,0.53 1.19,0.17 1.56,-0.08 1.35,-0.73 a 26.36,26.36 0 0 0 -1.15,-3 c -0.24,-0.53 -0.63,-1 -1.55,-0.17 -0.92,0.83 -1.51,1.33 -2.49,2.33 -0.46,0.5 -0.3,0.9 0.43,1.04 z"
       fill="#f58523"
       id="path1110" />
    <path
       d="m 745.74,742.61 c -1.26,-0.23 -2.54,-0.38 -3.56,-0.53 -1.22,0 -1.42,0.17 -1.13,1 0.4,1.12 0.85,2.22 1.28,3.33 0.16,0.4 0.4,0.55 0.77,0.21 1,-0.94 2.09,-1.88 3.08,-2.87 0.55,-0.58 0.38,-0.98 -0.44,-1.14 z"
       fill="#f58523"
       id="path1112" />
    <path
       d="m 715.42,738 c 0.29,0.9 0.65,1.78 1,2.66 0.11,0.29 0.33,0.55 0.68,0.23 1.08,-1 2.16,-1.95 3.18,-3 0.42,-0.42 0.31,-0.85 -0.38,-1 l -2.79,-0.5 c -1.38,0.07 -1.99,0.75 -1.69,1.61 z"
       fill="#f58523"
       id="path1114" />
    <path
       d="m 746.26,734.3 -3.31,-0.21 v 0 h -1.47 c -0.68,0 -0.82,0.31 -0.44,0.74 0.96,1.1 1.96,2.17 2.96,3.17 0.35,0.37 0.6,0.14 0.8,-0.2 q 0.84,-1.53 1.71,-3 c 0.12,-0.29 0.2,-0.48 -0.25,-0.5 z"
       fill="#f58523"
       id="path1116" />
    <path
       d="m 724.2,755.6 c 0.23,0.4 0.48,0.2 0.71,0 0.85,-0.88 1.69,-1.77 2.55,-2.63 0.42,-0.42 0.17,-0.52 -0.26,-0.61 -1.1,-0.25 -3.28,-0.83 -4.38,-1.07 -0.76,-0.17 -1,0 -0.68,0.66 0.61,1.22 1.35,2.43 2.06,3.65 z"
       fill="#f58523"
       id="path1118" />
    <path
       d="m 727.24,736.21 c -0.48,-0.9 -0.9,-1 -1.52,-0.1 -0.84,1.15 -1.54,2.39 -2.32,3.58 -0.25,0.38 -0.06,0.54 0.3,0.6 l 4.24,0.56 c 1.2,0.1 1.36,-0.06 0.93,-1.14 a 38.28,38.28 0 0 0 -1.63,-3.5 z"
       fill="#f58523"
       id="path1120" />
    <path
       d="m 721.56,764.61 c -0.21,-1.29 -0.51,-2.57 -0.8,-3.85 -0.13,-0.57 -0.47,-0.55 -1,-0.28 -1.09,0.61 -2.2,1.2 -3.32,1.78 -0.4,0.21 -0.39,0.36 0,0.56 l 2.28,1.27 0.94,0.52 1.11,0.61 c 0.74,0.39 0.9,0.34 0.79,-0.38 0.03,-0.08 0.01,-0.16 0,-0.23 z"
       fill="#f58523"
       id="path1122" />
    <path
       d="m 738.12,783.56 c -1.6,-0.09 -3.19,-0.23 -4.78,-0.22 -1.2,0 -1.51,0.5 -1,1.48 a 29.56,29.56 0 0 0 1.84,3 c 0.68,1 1,1 1.68,0.06 0.89,-1.22 1.71,-2.49 2.59,-3.72 0.29,-0.38 0.15,-0.57 -0.33,-0.6 z"
       fill="#f58523"
       id="path1124" />
    <path
       d="m 742.87,793.55 c 0.84,-1.15 1.71,-2.29 2.46,-3.49 0.56,-0.89 0.34,-1.32 -1.1,-1.45 a 34.22,34.22 0 0 0 -3.66,0 c -1,0 -1.16,0.24 -0.69,1.15 0.66,1.29 1.39,2.55 2.1,3.82 0.31,0.54 0.64,0.32 0.89,-0.03 z"
       fill="#f58523"
       id="path1126" />
    <path
       d="m 724.48,775.23 c -0.65,0 -0.68,0.25 -0.44,0.65 0.72,1.18 1.42,2.36 2.2,3.5 0.59,0.85 1,0.82 1.74,0 0.55,-0.94 1.16,-1.94 1.71,-3 0.55,-1.06 0.34,-1.12 -0.82,-1.14 -1.46,-0.04 -2.93,0.01 -4.39,-0.01 z"
       fill="#f58523"
       id="path1128" />
    <path
       d="m 728.89,788.74 c -1.37,0.06 -2.75,0.19 -4.11,0.38 -1.08,0.14 -1.26,0.5 -0.56,1.3 0.94,1.08 2,2.07 3,3.11 0.32,0.34 0.54,0.22 0.71,-0.08 l 1.85,-3.55 c 0.48,-1.03 0.37,-1.22 -0.89,-1.16 z"
       fill="#f58523"
       id="path1130" />
    <path
       d="m 716.41,783.84 -0.28,4.19 c 0,0.66 0.3,0.8 0.89,0.49 1.31,-0.69 2.18,-1.19 3.41,-1.83 1.39,-0.72 0.92,-1.4 0.39,-1.71 a 23.23,23.23 0 0 0 -3.6,-1.65 0.62,0.62 0 0 0 -0.81,0.51 z"
       fill="#f58523"
       id="path1132" />
    <path
       d="m 745.13,780.78 c -1.08,0.9 -2.17,1.79 -3.23,2.71 -0.43,0.38 -0.38,0.8 0.2,1 a 33.65,33.65 0 0 0 4.06,1.3 c 0.37,0.08 0.4,-0.32 0.37,-0.64 -0.1,-1.23 -0.42,-3 -0.6,-4.08 -0.1,-0.61 -0.42,-0.61 -0.8,-0.29 z"
       fill="#f58523"
       id="path1134" />
    <path
       d="m 733.27,767 c -0.47,-0.18 -0.5,0.11 -0.51,0.42 0,0.94 -0.09,1.89 -0.15,3.07 0,0.25 0.1,0.73 0.13,1.23 0.03,0.5 0.18,0.65 0.64,0.4 1.46,-0.77 2.93,-1.54 4.35,-2.37 0.6,-0.35 0.37,-0.81 -0.17,-1 -1.42,-0.65 -2.86,-1.2 -4.29,-1.75 z"
       fill="#f58523"
       id="path1136" />
    <path
       d="m 736.55,775.06 c -0.29,-0.29 -0.48,-0.49 -0.7,0.07 -0.44,1.11 -0.92,2.21 -1.31,3.13 -0.19,0.54 -0.35,0.88 -0.44,1.24 -0.22,0.88 0,1.11 0.88,0.81 1.41,-0.46 2.77,-1.07 4.15,-1.63 0.62,-0.24 0.48,-0.56 0.11,-0.92 -0.9,-0.9 -1.8,-1.76 -2.69,-2.7 z"
       fill="#f58523"
       id="path1138" />
    <path
       d="m 737,794.21 c -0.09,-1.27 -0.21,-2.53 -0.36,-3.79 a 0.35,0.35 0 0 0 -0.51,-0.31 c -1.4,0.62 -2.77,1.31 -4.1,2 -0.5,0.28 -0.53,0.77 0.1,1.06 l 4.05,1.55 c 0.64,0.28 0.87,-0.01 0.82,-0.51 z"
       fill="#f58523"
       id="path1140" />
    <path
       d="m 715.89,778.33 c 1.22,0.23 2.22,0.35 3.41,0.53 1.19,0.18 1.56,-0.09 1.35,-0.73 a 25.67,25.67 0 0 0 -1.15,-3 c -0.24,-0.53 -0.63,-1 -1.55,-0.18 -0.92,0.82 -1.51,1.34 -2.49,2.34 -0.46,0.48 -0.3,0.9 0.43,1.04 z"
       fill="#f58523"
       id="path1142" />
    <path
       d="m 745.74,773.4 c -1.26,-0.23 -2.54,-0.38 -3.56,-0.53 -1.22,0 -1.42,0.17 -1.13,1 0.4,1.12 0.85,2.23 1.28,3.34 0.16,0.4 0.4,0.54 0.77,0.21 1,-1 2.09,-1.88 3.08,-2.87 0.55,-0.55 0.38,-1 -0.44,-1.15 z"
       fill="#f58523"
       id="path1144" />
    <path
       d="m 715.42,768.82 c 0.29,0.9 0.65,1.78 1,2.67 0.11,0.29 0.33,0.54 0.68,0.22 1.08,-1 2.16,-1.94 3.18,-3 0.42,-0.41 0.31,-0.85 -0.38,-1 -1,-0.2 -2.1,-0.38 -2.79,-0.5 -1.38,0.03 -1.99,0.71 -1.69,1.61 z"
       fill="#f58523"
       id="path1146" />
    <path
       d="m 746.26,765.08 -3.31,-0.2 v 0 h -1.47 c -0.68,0 -0.82,0.31 -0.44,0.74 0.94,1.07 1.94,2.11 2.94,3.15 0.35,0.36 0.6,0.14 0.8,-0.21 q 0.84,-1.51 1.71,-3 c 0.14,-0.26 0.22,-0.45 -0.23,-0.48 z"
       fill="#f58523"
       id="path1148" />
    <path
       d="m 724.91,786.35 c 0.85,-0.88 1.69,-1.77 2.55,-2.64 0.42,-0.41 0.17,-0.51 -0.26,-0.61 -1.1,-0.25 -3.28,-0.83 -4.38,-1.07 -0.76,-0.16 -1,0 -0.68,0.67 0.61,1.26 1.35,2.47 2.06,3.69 0.23,0.39 0.48,0.2 0.71,-0.04 z"
       fill="#f58523"
       id="path1150" />
    <path
       d="m 727.24,767 c -0.48,-0.91 -0.9,-1 -1.52,-0.11 -0.84,1.16 -1.54,2.4 -2.32,3.59 -0.25,0.38 -0.06,0.54 0.3,0.59 l 4.24,0.57 c 1.2,0.1 1.36,-0.06 0.93,-1.14 a 38.28,38.28 0 0 0 -1.63,-3.5 z"
       fill="#f58523"
       id="path1152" />
    <path
       d="m 721.56,795.39 c -0.21,-1.29 -0.51,-2.57 -0.8,-3.84 -0.13,-0.58 -0.47,-0.56 -1,-0.29 -1.09,0.62 -2.2,1.21 -3.32,1.79 -0.4,0.21 -0.39,0.35 0,0.56 l 2.28,1.26 0.94,0.52 1.11,0.62 c 0.74,0.39 0.9,0.34 0.79,-0.39 a 1.55,1.55 0 0 1 0,-0.23 z"
       fill="#f58523"
       id="path1154" />
    <path
       d="m 737.56,799.48 c -1.42,-0.6 -2.86,-1.15 -4.29,-1.71 -0.47,-0.19 -0.5,0.1 -0.51,0.42 0,0.86 -0.08,1.72 -0.14,2.76 1.66,0 3.27,-0.13 4.83,-0.28 l 0.28,-0.16 c 0.6,-0.35 0.37,-0.8 -0.17,-1.03 z"
       fill="#f58523"
       id="path1156" />
    <path
       d="m 719.91,798.55 -2.79,-0.5 c -1.18,0 -1.75,0.48 -1.73,1.18 1.39,0.34 2.84,0.61 4.32,0.86 l 0.58,-0.56 c 0.42,-0.42 0.31,-0.85 -0.38,-0.98 z"
       fill="#f58523"
       id="path1158" />
    <path
       d="m 746.26,795.87 -3.31,-0.21 v 0 h -1.47 c -0.68,0 -0.82,0.3 -0.44,0.74 0.94,1.07 1.94,2.11 2.94,3.14 a 0.76,0.76 0 0 0 0.11,0.08 l 0.59,-0.14 0.1,-0.14 q 0.84,-1.51 1.71,-3 c 0.14,-0.26 0.22,-0.45 -0.23,-0.47 z"
       fill="#f58523"
       id="path1160" />
    <path
       d="m 725.72,797.68 c -0.69,1 -1.29,2 -1.91,2.94 1.58,0.15 3.22,0.26 4.9,0.31 -0.44,-1.06 -0.93,-2.12 -1.47,-3.15 -0.54,-1.03 -0.9,-0.95 -1.52,-0.1 z"
       fill="#f58523"
       id="path1162" />
    <path
       d="m 700.72,695.5 c 0.67,1 1,1 1.67,0.06 0.89,-1.22 1.72,-2.49 2.59,-3.72 0.3,-0.42 0.16,-0.61 -0.32,-0.64 -1.59,-0.09 -3.19,-0.23 -4.78,-0.22 -1.19,0 -1.51,0.5 -1,1.48 a 29.63,29.63 0 0 0 1.84,3.04 z"
       fill="#f58523"
       id="path1164" />
    <path
       d="m 708.53,701.22 c 0.3,0.54 0.63,0.32 0.89,0 0.83,-1.15 1.71,-2.29 2.45,-3.48 0.56,-0.9 0.35,-1.33 -1.1,-1.45 a 29.66,29.66 0 0 0 -3.66,0 c -1,0 -1.15,0.24 -0.69,1.14 0.66,1.27 1.39,2.57 2.11,3.79 z"
       fill="#f58523"
       id="path1166" />
    <path
       d="m 695.44,696.38 h -0.14 q -1.18,2 -2.3,4 c 0.26,0.26 0.52,0.51 0.77,0.78 0.25,0.27 0.55,0.21 0.71,-0.09 l 1.86,-3.55 c 0.47,-1.01 0.35,-1.2 -0.9,-1.14 z"
       fill="#f58523"
       id="path1168" />
    <path
       d="m 711.67,688.43 c -1.08,0.89 -2.16,1.78 -3.22,2.7 -0.43,0.38 -0.39,0.81 0.19,1 a 34.28,34.28 0 0 0 4.06,1.31 c 0.38,0.07 0.41,-0.32 0.38,-0.65 -0.11,-1.22 -0.43,-3 -0.61,-4.07 -0.1,-0.62 -0.41,-0.61 -0.8,-0.29 z"
       fill="#f58523"
       id="path1170" />
    <path
       d="m 704.48,684.09 c -1.16,1.26 -2.3,2.58 -3.4,4 a 1.87,1.87 0 0 0 0.45,-0.09 c 1.41,-0.47 2.77,-1.08 4.15,-1.64 0.61,-0.24 0.47,-0.56 0.11,-0.92 z"
       fill="#f58523"
       id="path1172" />
    <path
       d="m 698.69,700.86 4,1.55 c 0.62,0.22 0.86,-0.06 0.82,-0.56 -0.08,-1.27 -0.2,-2.53 -0.35,-3.79 a 0.35,0.35 0 0 0 -0.51,-0.31 c -1.41,0.62 -2.78,1.31 -4.11,2 -0.45,0.33 -0.47,0.82 0.15,1.11 z"
       fill="#f58523"
       id="path1174" />
    <path
       d="m 708.88,684.81 c 0.15,0.4 0.4,0.55 0.76,0.21 1,-0.95 2.1,-1.88 3.09,-2.87 0.55,-0.55 0.38,-1 -0.45,-1.11 -1.26,-0.23 -2.54,-0.38 -3.55,-0.53 a 4,4 0 0 0 -0.63,0 c -0.2,0.18 -0.41,0.35 -0.61,0.54 a 1.55,1.55 0 0 0 0.1,0.4 c 0.41,1.14 0.86,2.25 1.29,3.36 z"
       fill="#f58523"
       id="path1176" />
    <path
       d="m 704.66,722 c -1.59,-0.09 -3.19,-0.23 -4.78,-0.22 -1.19,0 -1.51,0.49 -1,1.48 a 30.74,30.74 0 0 0 1.85,3 c 0.67,1 1,1 1.67,0.06 0.89,-1.23 1.72,-2.49 2.59,-3.72 0.29,-0.4 0.15,-0.6 -0.33,-0.6 z"
       fill="#f58523"
       id="path1178" />
    <path
       d="m 708.53,732 c 0.3,0.54 0.63,0.31 0.89,0 0.83,-1.15 1.71,-2.28 2.45,-3.48 0.56,-0.9 0.35,-1.33 -1.1,-1.45 a 34.22,34.22 0 0 0 -3.66,0 c -1,0.05 -1.15,0.24 -0.69,1.15 0.66,1.26 1.39,2.52 2.11,3.78 z"
       fill="#f58523"
       id="path1180" />
    <path
       d="m 691,713.65 c -0.64,0 -0.68,0.26 -0.43,0.66 0.71,1.17 1.42,2.36 2.2,3.49 0.58,0.86 1,0.83 1.74,0 0.54,-0.93 1.16,-1.93 1.7,-3 0.54,-1.07 0.34,-1.12 -0.81,-1.14 -1.4,-0.03 -2.91,0.02 -4.4,-0.01 z"
       fill="#f58523"
       id="path1182" />
    <path
       d="m 695.44,727.17 c -1.38,0.06 -2.75,0.19 -4.12,0.38 -1.08,0.14 -1.25,0.5 -0.56,1.3 0.94,1.08 2,2.07 3,3.11 0.32,0.33 0.55,0.22 0.71,-0.08 l 1.86,-3.55 c 0.48,-1.03 0.36,-1.22 -0.89,-1.16 z"
       fill="#f58523"
       id="path1184" />
    <path
       d="m 687,725.12 c 1.38,-0.72 0.92,-1.41 0.38,-1.71 a 23.91,23.91 0 0 0 -3,-1.44 c -0.47,1.69 -0.91,3.4 -1.3,5.12 a 1.1,1.1 0 0 0 0.52,-0.14 c 1.28,-0.69 2.15,-1.19 3.4,-1.83 z"
       fill="#f58523"
       id="path1186" />
    <path
       d="m 711.67,719.21 c -1.08,0.9 -2.16,1.79 -3.22,2.71 -0.43,0.38 -0.39,0.8 0.19,1 a 32.54,32.54 0 0 0 4.06,1.31 c 0.38,0.08 0.41,-0.32 0.38,-0.65 -0.11,-1.22 -0.43,-3 -0.61,-4.07 -0.1,-0.62 -0.41,-0.62 -0.8,-0.3 z"
       fill="#f58523"
       id="path1188" />
    <path
       d="m 704.1,707.12 c -1.41,-0.59 -2.85,-1.14 -4.28,-1.71 -0.48,-0.18 -0.5,0.11 -0.52,0.42 0,0.94 -0.09,1.88 -0.15,3.07 0,0.24 0.1,0.73 0.13,1.22 0.03,0.49 0.19,0.66 0.65,0.41 1.46,-0.77 2.93,-1.54 4.35,-2.38 0.59,-0.34 0.36,-0.8 -0.18,-1.03 z"
       fill="#f58523"
       id="path1190" />
    <path
       d="m 703.09,713.49 c -0.28,-0.29 -0.48,-0.49 -0.7,0.07 -0.43,1.11 -0.91,2.21 -1.3,3.13 -0.2,0.54 -0.36,0.88 -0.45,1.24 -0.21,0.87 0,1.11 0.89,0.81 1.41,-0.47 2.77,-1.08 4.15,-1.63 0.61,-0.25 0.47,-0.57 0.11,-0.93 -0.91,-0.89 -1.79,-1.78 -2.7,-2.69 z"
       fill="#f58523"
       id="path1192" />
    <path
       d="m 698.69,731.64 4,1.56 c 0.62,0.22 0.86,-0.07 0.82,-0.56 -0.08,-1.27 -0.2,-2.53 -0.35,-3.8 a 0.35,0.35 0 0 0 -0.51,-0.3 43.71,43.71 0 0 0 -4.11,2.05 c -0.45,0.27 -0.47,0.76 0.15,1.05 z"
       fill="#f58523"
       id="path1194" />
    <path
       d="m 687.19,716.56 c -0.22,-0.68 -0.39,-1.19 -0.59,-1.7 -0.29,0.8 -0.56,1.61 -0.83,2.42 h 0.07 c 1.06,0.16 1.56,-0.08 1.35,-0.72 z"
       fill="#f58523"
       id="path1196" />
    <path
       d="m 712.28,711.83 c -1.26,-0.23 -2.54,-0.38 -3.55,-0.53 -1.22,0 -1.42,0.16 -1.14,1 0.4,1.12 0.86,2.22 1.29,3.34 0.15,0.4 0.4,0.54 0.76,0.21 1,-0.95 2.1,-1.88 3.09,-2.87 0.55,-0.6 0.38,-0.98 -0.45,-1.15 z"
       fill="#f58523"
       id="path1198" />
    <path
       d="m 712.81,703.51 c -1.11,-0.06 -2.21,-0.14 -3.31,-0.21 v 0 H 708 c -0.68,0 -0.83,0.3 -0.45,0.74 0.95,1.07 1.94,2.11 2.94,3.14 0.36,0.37 0.61,0.15 0.8,-0.2 l 1.71,-3 c 0.18,-0.25 0.25,-0.45 -0.19,-0.47 z"
       fill="#f58523"
       id="path1200" />
    <path
       d="m 690.74,724.82 c 0.23,0.39 0.49,0.2 0.71,0 0.85,-0.88 1.69,-1.77 2.56,-2.64 0.41,-0.41 0.16,-0.51 -0.27,-0.61 -1.1,-0.25 -3.27,-0.83 -4.37,-1.07 -0.76,-0.17 -1,0 -0.69,0.67 0.61,1.22 1.32,2.43 2.06,3.65 z"
       fill="#f58523"
       id="path1202" />
    <path
       d="m 690.24,709.5 4.24,0.56 c 1.2,0.11 1.37,0 0.93,-1.13 -0.44,-1.13 -1,-2.36 -1.63,-3.51 -0.47,-0.9 -0.89,-0.94 -1.51,-0.1 -0.84,1.15 -1.54,2.39 -2.33,3.58 -0.25,0.38 -0.06,0.55 0.3,0.6 z"
       fill="#f58523"
       id="path1204" />
    <path
       d="m 688.11,733.82 c -0.22,-1.29 -0.52,-2.57 -0.8,-3.85 -0.13,-0.57 -0.47,-0.55 -1,-0.28 -1.09,0.62 -2.2,1.21 -3.31,1.78 -0.41,0.22 -0.4,0.36 0,0.57 0.77,0.41 1.52,0.84 2.28,1.26 l 0.94,0.52 c 0.37,0.21 0.74,0.42 1.12,0.62 0.73,0.39 0.89,0.34 0.78,-0.39 0.02,-0.05 0,-0.15 -0.01,-0.23 z"
       fill="#f58523"
       id="path1206" />
    <path
       d="m 704.66,752.78 c -1.59,-0.09 -3.19,-0.23 -4.78,-0.22 -1.19,0 -1.51,0.49 -1,1.48 a 29.47,29.47 0 0 0 1.85,3 c 0.67,1 1,1 1.67,0.06 0.89,-1.22 1.72,-2.49 2.59,-3.72 0.29,-0.38 0.15,-0.58 -0.33,-0.6 z"
       fill="#f58523"
       id="path1208" />
    <path
       d="m 708.53,762.79 c 0.3,0.54 0.63,0.32 0.89,0 0.83,-1.15 1.71,-2.28 2.45,-3.48 0.56,-0.9 0.35,-1.33 -1.1,-1.45 a 29.66,29.66 0 0 0 -3.66,0 c -1,0 -1.15,0.24 -0.69,1.15 0.66,1.26 1.39,2.52 2.11,3.78 z"
       fill="#f58523"
       id="path1210" />
    <path
       d="m 691,744.44 c -0.64,0 -0.68,0.25 -0.43,0.66 0.71,1.17 1.42,2.35 2.2,3.49 0.58,0.85 1,0.82 1.74,-0.05 0.54,-0.94 1.16,-1.93 1.7,-3 0.54,-1.07 0.34,-1.13 -0.81,-1.14 -1.4,0.01 -2.91,0.06 -4.4,0.04 z"
       fill="#f58523"
       id="path1212" />
    <path
       d="m 695.44,758 c -1.38,0.07 -2.75,0.2 -4.12,0.38 -1.08,0.15 -1.25,0.5 -0.56,1.3 0.94,1.09 2,2.07 3,3.12 0.32,0.33 0.55,0.21 0.71,-0.09 l 1.86,-3.55 c 0.48,-1.07 0.36,-1.26 -0.89,-1.16 z"
       fill="#f58523"
       id="path1214" />
    <path
       d="m 683.57,757.74 c 1.31,-0.7 2.18,-1.19 3.41,-1.84 1.23,-0.65 0.92,-1.4 0.38,-1.71 a 24.21,24.21 0 0 0 -3.6,-1.65 0.61,0.61 0 0 0 -0.8,0.51 l -0.29,4.19 c -0.01,0.67 0.33,0.81 0.9,0.5 z"
       fill="#f58523"
       id="path1216" />
    <path
       d="m 711.67,750 c -1.08,0.89 -2.16,1.78 -3.22,2.71 -0.43,0.37 -0.39,0.8 0.19,1 a 32.54,32.54 0 0 0 4.06,1.29 c 0.38,0.08 0.41,-0.32 0.38,-0.65 -0.11,-1.22 -0.43,-3 -0.61,-4.07 -0.1,-0.6 -0.41,-0.6 -0.8,-0.28 z"
       fill="#f58523"
       id="path1218" />
    <path
       d="m 704.1,737.91 c -1.41,-0.6 -2.85,-1.15 -4.28,-1.71 -0.48,-0.19 -0.5,0.1 -0.52,0.42 0,0.94 -0.09,1.88 -0.15,3.07 0,0.24 0.1,0.73 0.13,1.22 0.03,0.49 0.19,0.65 0.65,0.41 1.46,-0.78 2.93,-1.54 4.35,-2.38 0.59,-0.35 0.36,-0.81 -0.18,-1.03 z"
       fill="#f58523"
       id="path1220" />
    <path
       d="m 703.09,744.28 c -0.28,-0.29 -0.48,-0.49 -0.7,0.06 -0.43,1.12 -0.91,2.22 -1.3,3.14 -0.2,0.53 -0.36,0.88 -0.45,1.23 -0.21,0.88 0,1.12 0.89,0.82 1.41,-0.47 2.77,-1.08 4.15,-1.63 0.61,-0.25 0.47,-0.57 0.11,-0.93 -0.91,-0.89 -1.79,-1.79 -2.7,-2.69 z"
       fill="#f58523"
       id="path1222" />
    <path
       d="m 702.74,764 c 0.62,0.23 0.86,-0.06 0.82,-0.56 -0.08,-1.26 -0.2,-2.53 -0.35,-3.79 a 0.36,0.36 0 0 0 -0.51,-0.31 c -1.41,0.62 -2.78,1.31 -4.11,2 -0.5,0.28 -0.52,0.77 0.1,1.06 z"
       fill="#f58523"
       id="path1224" />
    <path
       d="m 687.19,747.34 a 24.62,24.62 0 0 0 -1.15,-3 c -0.24,-0.53 -0.63,-1 -1.54,-0.17 -0.91,0.83 -1.51,1.33 -2.5,2.33 -0.48,0.5 -0.3,0.92 0.43,1.06 1.22,0.23 2.23,0.36 3.41,0.53 1.18,0.17 1.56,-0.09 1.35,-0.75 z"
       fill="#f58523"
       id="path1226" />
    <path
       d="m 712.28,742.61 c -1.26,-0.23 -2.54,-0.38 -3.55,-0.53 -1.22,0 -1.42,0.17 -1.14,1 0.4,1.12 0.86,2.22 1.29,3.33 0.15,0.4 0.4,0.55 0.76,0.21 1,-0.94 2.1,-1.88 3.09,-2.87 0.55,-0.58 0.38,-0.98 -0.45,-1.14 z"
       fill="#f58523"
       id="path1228" />
    <path
       d="m 683,740.7 c 0.12,0.29 0.33,0.55 0.68,0.23 1.08,-1 2.17,-1.95 3.19,-3 0.41,-0.42 0.31,-0.85 -0.39,-1 l -2.79,-0.5 c -1.38,0 -2,0.66 -1.7,1.56 0.3,0.9 0.63,1.83 1.01,2.71 z"
       fill="#f58523"
       id="path1230" />
    <path
       d="m 712.81,734.3 -3.31,-0.21 v 0 H 708 c -0.68,0 -0.83,0.31 -0.45,0.74 0.95,1.08 1.94,2.12 2.94,3.15 0.36,0.37 0.61,0.14 0.8,-0.2 q 0.85,-1.53 1.71,-3 c 0.18,-0.27 0.25,-0.46 -0.19,-0.48 z"
       fill="#f58523"
       id="path1232" />
    <path
       d="m 691.45,755.56 c 0.85,-0.88 1.69,-1.77 2.56,-2.63 0.41,-0.42 0.16,-0.52 -0.27,-0.61 -1.1,-0.25 -3.27,-0.83 -4.37,-1.07 -0.76,-0.17 -1,0 -0.69,0.66 0.61,1.26 1.35,2.47 2.06,3.69 0.26,0.4 0.49,0.2 0.71,-0.04 z"
       fill="#f58523"
       id="path1234" />
    <path
       d="m 693.78,736.21 c -0.47,-0.9 -0.89,-1 -1.51,-0.1 -0.84,1.15 -1.54,2.39 -2.33,3.58 -0.25,0.38 -0.06,0.54 0.3,0.6 l 4.24,0.56 c 1.2,0.1 1.37,-0.06 0.93,-1.14 a 38.28,38.28 0 0 0 -1.63,-3.5 z"
       fill="#f58523"
       id="path1236" />
    <path
       d="m 688.11,764.61 c -0.22,-1.29 -0.52,-2.57 -0.8,-3.85 -0.13,-0.57 -0.47,-0.55 -1,-0.28 -1.09,0.61 -2.2,1.2 -3.31,1.78 -0.41,0.21 -0.4,0.36 0,0.56 l 2.28,1.27 0.94,0.52 1.12,0.61 c 0.73,0.39 0.89,0.34 0.78,-0.38 0.02,-0.08 0,-0.16 -0.01,-0.23 z"
       fill="#f58523"
       id="path1238" />
    <path
       d="m 704.66,783.56 c -1.59,-0.09 -3.19,-0.23 -4.78,-0.22 -1.19,0 -1.51,0.5 -1,1.48 a 29.63,29.63 0 0 0 1.85,3 c 0.67,1 1,1 1.67,0.06 0.89,-1.22 1.72,-2.49 2.59,-3.72 0.29,-0.38 0.15,-0.57 -0.33,-0.6 z"
       fill="#f58523"
       id="path1240" />
    <path
       d="m 709.42,793.55 c 0.83,-1.15 1.71,-2.29 2.45,-3.49 0.56,-0.89 0.35,-1.32 -1.1,-1.45 a 34.22,34.22 0 0 0 -3.66,0 c -1,0 -1.15,0.24 -0.69,1.15 0.66,1.29 1.39,2.55 2.11,3.82 0.3,0.54 0.63,0.32 0.89,-0.03 z"
       fill="#f58523"
       id="path1242" />
    <path
       d="m 695.42,775.22 c -1.47,0 -2.93,0 -4.4,0 -0.64,0 -0.68,0.25 -0.43,0.65 0.71,1.18 1.42,2.36 2.2,3.5 0.58,0.85 1,0.82 1.74,0 0.54,-0.94 1.16,-1.94 1.7,-3 0.54,-1.06 0.34,-1.13 -0.81,-1.15 z"
       fill="#f58523"
       id="path1244" />
    <path
       d="m 695.44,788.74 v 0 c 0.33,0.31 0.67,0.62 1,0.92 0.33,-0.81 0.14,-0.97 -1,-0.92 z"
       fill="#f58523"
       id="path1246" />
    <path
       d="m 711.67,780.78 c -1.08,0.9 -2.16,1.79 -3.22,2.71 -0.43,0.38 -0.39,0.8 0.19,1 a 34.23,34.23 0 0 0 4.06,1.3 c 0.38,0.08 0.41,-0.32 0.38,-0.64 -0.11,-1.23 -0.43,-3 -0.61,-4.08 -0.1,-0.61 -0.41,-0.61 -0.8,-0.29 z"
       fill="#f58523"
       id="path1248" />
    <path
       d="m 699.82,767 c -0.48,-0.18 -0.5,0.11 -0.52,0.42 0,0.94 -0.09,1.89 -0.15,3.07 0,0.25 0.1,0.73 0.13,1.23 0.03,0.5 0.19,0.65 0.65,0.4 1.46,-0.77 2.93,-1.54 4.35,-2.37 0.59,-0.35 0.36,-0.81 -0.18,-1 -1.41,-0.65 -2.85,-1.2 -4.28,-1.75 z"
       fill="#f58523"
       id="path1250" />
    <path
       d="m 703.09,775.06 c -0.28,-0.29 -0.48,-0.49 -0.7,0.07 -0.43,1.11 -0.91,2.21 -1.3,3.13 -0.2,0.54 -0.36,0.88 -0.45,1.24 -0.21,0.88 0,1.11 0.89,0.81 1.41,-0.46 2.77,-1.07 4.15,-1.63 0.61,-0.24 0.47,-0.56 0.11,-0.92 -0.91,-0.9 -1.79,-1.76 -2.7,-2.7 z"
       fill="#f58523"
       id="path1252" />
    <path
       d="m 702.7,790.11 c -1.21,0.53 -2.39,1.12 -3.55,1.75 a 41.4,41.4 0 0 0 4.33,2.76 0.66,0.66 0 0 0 0.08,-0.41 c -0.08,-1.27 -0.2,-2.53 -0.35,-3.79 a 0.35,0.35 0 0 0 -0.51,-0.31 z"
       fill="#f58523"
       id="path1254" />
    <path
       d="m 685.52,774.51 c 0.48,1.09 1,2.17 1.54,3.21 a 25.83,25.83 0 0 0 -1,-2.61 1,1 0 0 0 -0.54,-0.6 z"
       fill="#f58523"
       id="path1256" />
    <path
       d="m 712.28,773.4 c -1.26,-0.23 -2.54,-0.38 -3.55,-0.53 -1.22,0 -1.42,0.17 -1.14,1 0.4,1.12 0.86,2.23 1.29,3.34 0.15,0.4 0.4,0.54 0.76,0.21 1,-1 2.1,-1.88 3.09,-2.87 0.55,-0.55 0.38,-1 -0.45,-1.15 z"
       fill="#f58523"
       id="path1258" />
    <path
       d="m 686.45,767.77 c -1,-0.2 -2.09,-0.38 -2.79,-0.5 a 2.84,2.84 0 0 0 -0.69,0.08 c 0.37,1.31 0.79,2.59 1.24,3.86 0.89,-0.81 1.78,-1.62 2.63,-2.47 0.41,-0.41 0.31,-0.85 -0.39,-0.97 z"
       fill="#f58523"
       id="path1260" />
    <path
       d="m 712.81,765.08 -3.31,-0.2 v 0 H 708 c -0.68,0 -0.83,0.31 -0.45,0.74 0.95,1.07 1.94,2.11 2.94,3.15 0.36,0.36 0.61,0.14 0.8,-0.21 l 1.71,-3 c 0.18,-0.26 0.25,-0.45 -0.19,-0.48 z"
       fill="#f58523"
       id="path1262" />
    <path
       d="m 693.74,783.1 c -1,-0.22 -2.85,-0.71 -4,-1 a 40.25,40.25 0 0 0 2.58,3.35 c 0.56,-0.58 1.12,-1.17 1.7,-1.75 0.4,-0.4 0.15,-0.5 -0.28,-0.6 z"
       fill="#f58523"
       id="path1264" />
    <path
       d="m 690.24,771.07 4.24,0.57 c 1.2,0.1 1.37,-0.06 0.93,-1.14 a 38.28,38.28 0 0 0 -1.63,-3.5 c -0.47,-0.91 -0.89,-1 -1.51,-0.11 -0.84,1.16 -1.54,2.4 -2.33,3.59 -0.25,0.38 -0.06,0.52 0.3,0.59 z"
       fill="#f58523"
       id="path1266" />
    <path
       d="m 712.81,795.87 c -1.11,-0.06 -2.21,-0.14 -3.31,-0.21 v 0 H 708 c -0.68,0 -0.83,0.3 -0.45,0.74 l 0.31,0.33 c 1.3,0.54 2.65,1 4.06,1.5 l 1.08,-1.92 c 0.18,-0.23 0.25,-0.42 -0.19,-0.44 z"
       fill="#f58523"
       id="path1268" />
    <path
       d="m 681.48,761.35 c 3.52,22.65 17.74,40.65 48.15,41.26 30.41,0.61 44.87,-17.49 48.52,-40.41 -12.89,-6.85 -29.78,-11.07 -48.32,-11.22 -18.54,-0.15 -35.36,3.78 -48.35,10.37 z"
       fill="#f58523"
       id="path1270" />
    <path
       d="m 723.44,775.53 c 1.85,0 3.36,-1 3.37,-2.29 0.01,-1.29 -1.48,-2.32 -3.32,-2.34 -1.84,-0.02 -3.36,1 -3.37,2.29 -0.01,1.29 1.48,2.32 3.32,2.34 z"
       fill="#171717"
       id="path1272" />
    <path
       d="m 738.51,775.65 c 1.85,0 3.35,-1 3.37,-2.29 0.02,-1.29 -1.48,-2.36 -3.33,-2.36 -1.85,0 -3.35,1 -3.36,2.29 -0.01,1.29 1.48,2.34 3.32,2.36 z"
       fill="#171717"
       id="path1274" />
    <path
       d="m 750.09,784.11 a 1,1 0 0 0 -1,0.9 c 0,2.5 -1.36,4.87 -3.62,6.85 a 20.94,20.94 0 0 1 -8.86,4.35 23.3,23.3 0 0 1 -5.72,0.66 v 0 l 0.18,-19.42 a 0.92,0.92 0 0 0 -1.83,0 l -0.18,19.34 a 23.78,23.78 0 0 1 -9.53,-2.91 c -3.24,-1.84 -5.59,-4.36 -6.35,-7.09 a 7.46,7.46 0 0 1 -0.28,-2 0.94,0.94 0 0 0 -1,-0.92 1,1 0 0 0 -1,0.9 9,9 0 0 0 0.34,2.53 c 0.94,3.33 3.68,6.16 7.22,8.18 a 25.78,25.78 0 0 0 18.65,2.52 23,23 0 0 0 9.72,-4.79 c 2.54,-2.22 4.21,-5 4.24,-8.15 a 0.94,0.94 0 0 0 -0.98,-0.95 z"
       fill="#171717"
       id="path1276" />
    <path
       d="m 739.07,676.72 a 23.74,23.74 0 0 0 4.35,-8.89 c 1.21,-5.14 1,-11.38 0.38,-13.51 a 4.21,4.21 0 0 1 -3.45,-4.74 c 0.25,-4.23 3.76,-4.89 6,-5 a 4.83,4.83 0 0 1 1,9.53 c 0,0 3.66,11.11 -3.85,23.89 0.04,0 -2.96,3 -4.43,-1.28 z"
       fill="#631c00"
       id="path1278" />
    <path
       d="m 722.93,676.72 a 23.74,23.74 0 0 1 -4.35,-8.89 c -1.21,-5.14 -1,-11.38 -0.38,-13.51 a 4.21,4.21 0 0 0 3.45,-4.74 c -0.25,-4.23 -3.76,-4.89 -6,-5 a 4.83,4.83 0 0 0 -1,9.53 c 0,0 -3.65,11.15 3.81,23.89 0,0 3,3 4.47,-1.28 z"
       fill="#631c00"
       id="path1280" />
    <path
       d="m 742.78,721.87 c 5.73,-6.37 16.87,-1.3 18.33,3.83 -6.31,-2.85 -11.22,-6.36 -17.72,-3.15 0,0 -1.1,-0.12 -0.61,-0.68 z"
       fill="#171717"
       id="path1282" />
    <path
       d="m 746,712.28 c 0.39,0 0.72,0.09 0.73,0.27 l 0.64,7.16 c 0,0.18 -0.29,0.36 -0.68,0.4 v 0 c -0.39,0 -0.72,-0.09 -0.74,-0.28 l -0.63,-7.15 c 0,-0.19 0.29,-0.37 0.68,-0.4 z m 6.27,0.43 c 0.39,0 0.69,0.24 0.67,0.42 l -0.86,7.13 c 0,0.19 -0.36,0.3 -0.75,0.25 v 0 c -0.39,0 -0.69,-0.24 -0.67,-0.42 l 0.87,-7.13 c 0,-0.19 0.35,-0.3 0.74,-0.25 z m 6.68,1.71 c 0.36,0.17 0.58,0.45 0.5,0.61 l -3.08,6.49 c -0.08,0.17 -0.44,0.17 -0.79,0 v 0 c -0.35,-0.16 -0.58,-0.44 -0.49,-0.61 l 3.08,-6.49 c 0.08,-0.16 0.43,-0.17 0.78,0 z"
       fill="#171717"
       fill-rule="evenodd"
       id="path1284" />
    <path
       d="m 719.22,721.87 c -5.73,-6.37 -16.87,-1.3 -18.33,3.83 6.31,-2.85 11.22,-6.36 17.72,-3.15 0,0 1.1,-0.12 0.61,-0.68 z"
       fill="#171717"
       id="path1286" />
    <path
       d="m 716,712.28 v 0 c 0.39,0 0.7,0.21 0.68,0.4 l -0.63,7.15 c 0,0.19 -0.35,0.31 -0.74,0.28 v 0 c -0.39,0 -0.7,-0.22 -0.68,-0.4 l 0.64,-7.16 c 0,-0.18 0.34,-0.31 0.73,-0.27 z m -6.27,0.43 v 0 c 0.39,-0.05 0.72,0.06 0.74,0.25 l 0.87,7.13 c 0,0.18 -0.28,0.37 -0.67,0.42 v 0 c -0.39,0 -0.72,-0.06 -0.75,-0.25 l -0.86,-7.13 c 0,-0.18 0.28,-0.37 0.67,-0.42 z m -6.73,1.71 v 0 c 0.35,-0.17 0.7,-0.16 0.78,0 l 3.08,6.49 c 0.09,0.17 -0.14,0.45 -0.49,0.61 v 0 c -0.35,0.17 -0.71,0.17 -0.79,0 L 702.51,715 c -0.08,-0.16 0.14,-0.44 0.5,-0.61 z"
       fill="#171717"
       fill-rule="evenodd"
       id="path1288" />
    <ellipse
       cx="753.63"
       cy="776.65002"
       rx="6.6399999"
       ry="5.1599998"
       fill="#ffb0d2"
       id="ellipse1290" />
    <ellipse
       cx="708.37"
       cy="776.65002"
       rx="6.6399999"
       ry="5.1599998"
       fill="#ffb0d2"
       id="ellipse1292" />
    <path
       d="m 716.29,680.09 c 0.42,4.92 2.7,7.52 3.28,8.77 a 8.59,8.59 0 0 0 3.35,-5.3 c 2.27,12 12.39,17.24 15.11,15.86 -3,-1.54 -1.73,-6 -0.36,-8.15 a 11,11 0 0 0 1.17,-8.42 c 0.67,2.09 3.86,3.11 6.11,2.72 -1.4,-0.82 -0.64,-4.44 -0.84,-9.23 a 7.48,7.48 0 0 0 -0.42,-2.05 27.37,27.37 0 0 0 -13.55,-3.62 28.58,28.58 0 0 0 -13,3.52 15.12,15.12 0 0 0 -0.85,5.9 z"
       fill="#492d2c"
       id="path1294" />
    <path
       d="M 731,840.5 A 110.5,110.5 0 1 1 841.5,730 110.63,110.63 0 0 1 731,840.5 Z m 0,-220 A 109.5,109.5 0 1 0 840.5,730 109.62,109.62 0 0 0 731,620.5 Z"
       fill="#ffffff"
       id="path1296" />
  </g>
</svg>
