<?xml version="1.0" encoding="UTF-8" standalone="no"?>
<svg
   xmlns:dc="http://purl.org/dc/elements/1.1/"
   xmlns:cc="http://creativecommons.org/ns#"
   xmlns:rdf="http://www.w3.org/1999/02/22-rdf-syntax-ns#"
   xmlns:svg="http://www.w3.org/2000/svg"
   xmlns="http://www.w3.org/2000/svg"
   xmlns:sodipodi="http://sodipodi.sourceforge.net/DTD/sodipodi-0.dtd"
   xmlns:inkscape="http://www.inkscape.org/namespaces/inkscape"
   id="cute_critters"
   data-name="cute critters"
   viewBox="0 0 221 221"
   version="1.1"
   sodipodi:docname="leopard.svg"
   width="221"
   height="221"
   inkscape:version="1.0.2 (e86c870879, 2021-01-15, custom)">
  <metadata
     id="metadata1933">
    <rdf:RDF>
      <cc:Work
         rdf:about="">
        <dc:format>image/svg+xml</dc:format>
        <dc:type
           rdf:resource="http://purl.org/dc/dcmitype/StillImage" />
      </cc:Work>
    </rdf:RDF>
  </metadata>
  <defs
     id="defs1931" />
  <sodipodi:namedview
     pagecolor="#ffffff"
     bordercolor="#666666"
     borderopacity="1"
     objecttolerance="10"
     gridtolerance="10"
     guidetolerance="10"
     inkscape:pageopacity="0"
     inkscape:pageshadow="2"
     inkscape:window-width="855"
     inkscape:window-height="480"
     id="namedview1929"
     showgrid="false"
     inkscape:zoom="0.88888889"
     inkscape:cx="-168.5"
     inkscape:cy="391.5"
     inkscape:window-x="0"
     inkscape:window-y="0"
     inkscape:window-maximized="0"
     inkscape:current-layer="cute_critters" />
  <g
     id="leopard"
     transform="translate(-618.5,-58.5)">
    <circle
       cx="729"
       cy="169"
       r="110"
       fill="#019678"
       id="circle1829" />
    <path
       d="M 729,279.5 A 110.5,110.5 0 1 1 839.5,169 110.63,110.63 0 0 1 729,279.5 Z m 0,-220 A 109.5,109.5 0 1 0 838.5,169 109.62,109.62 0 0 0 729,59.5 Z"
       fill="#ffffff"
       id="path1831" />
    <path
       d="m 781.51,232.82 c -2.54,-9.75 -5.38,-18.64 -8.49,-25.42 a 39.74,39.74 0 0 0 -5.76,-9.54 23.41,23.41 0 0 0 -7.38,-5.32 42.86,42.86 0 0 0 -7,-2.65 c -13.9,-4 -33.1,-3.61 -47,0.69 a 46.05,46.05 0 0 0 -8.1,3.32 24.9,24.9 0 0 0 -5.62,4 33.46,33.46 0 0 0 -5.86,8.47 c -3.5,6.74 -6.64,15.91 -9.41,26 -1.42,5.2 -2.75,10.64 -4,16.13 -1,4.5 -1.91,9 -2.77,13.45 a 109.89,109.89 0 0 0 117.74,0 c -0.82,-4.33 -1.67,-8.69 -2.61,-13 -1.13,-5.57 -2.39,-10.95 -3.74,-16.13 z"
       fill="#fbaa0d"
       id="path1833" />
    <path
       d="m 667,151 c 0,0 -16.47,-8.12 -16,-17.88 0.23,-4.63 4.14,-8.74 7.37,-10 11.74,-4.43 25.09,2.76 25.09,2.76 z"
       fill="#ffbd17"
       id="path1835" />
    <path
       d="m 667.67,147 c 0,0 -6.67,-6.11 -7.57,-8.9 a 6,6 0 0 1 2.73,-6 c 4.5,-2.78 13.47,-0.14 13.47,-0.14 z"
       fill="#492d2c"
       id="path1837" />
    <path
       d="m 793,151 c 0,0 15.11,-7.57 13.92,-17.27 -0.56,-4.6 -4.76,-8.41 -8.08,-9.39 -12,-3.56 -24.81,4.58 -24.81,4.58 z"
       fill="#ffbd17"
       id="path1839" />
    <path
       d="m 791.93,146.84 c 0,0 6.2,-6.59 6.9,-9.43 a 6,6 0 0 0 -3.17,-5.84 c -4.69,-2.44 -13.44,0.85 -13.44,0.85 z"
       fill="#492d2c"
       id="path1841" />
    <path
       d="m 794.89,161 c 0,35.73 -29.21,81.29 -64.94,81.29 -34.8,0 -65.69,-47.09 -65.69,-82.83 0,-35.74 38,-51.79 65,-51.79 32.42,0.02 65.63,17.61 65.63,53.33 z"
       fill="#ffbd17"
       id="path1843" />
    <path
       d="m 753.27,219.16 c 0,13 -8.32,23.15 -22.26,23.15 -13.58,0 -22.26,-10.12 -22.26,-23.15 0,-13.03 2.64,-25.92 22,-25.92 19.5,0 22.52,12.9 22.52,25.92 z"
       fill="#ffe6a8"
       id="path1845" />
    <path
       d="m 755.64,180.62 c 0,5.73 -2.85,14 -6.12,20.37 -4.38,8.59 -32.3,8.79 -36.21,1.11 -4.87,-9.57 -9,-14.88 -9,-22.88 -0.11,-12 12.32,-14.32 25.65,-14.32 20.12,0 25.65,3.69 25.68,15.72 z"
       fill="#6b4241"
       id="path1847" />
    <path
       d="m 749.09,202 c -2.74,5.16 -8,11.07 -17.86,11.09 -9.86,0.02 -14.87,-5.4 -17.92,-11 -2.27,-4.18 8,-6.2 17.88,-6.22 9.88,-0.02 20.14,1.96 17.9,6.13 z"
       fill="#231f20"
       id="path1849" />
    <path
       d="m 750,223 a 0.5,0.5 0 0 0 -0.66,-0.05 c -3.18,2.41 -6.45,4.1 -7.93,4.1 v 0 a 9.79,9.79 0 0 1 -6.55,-2.25 12.57,12.57 0 0 1 -2.16,-2 l -0.63,-9.81 a 0.45,0.45 0 0 0 -0.17,-0.34 0.41,0.41 0 0 0 -0.36,-0.12 l -1,0.08 a 0.5,0.5 0 0 0 -0.46,0.52 v 0.28 a 0.13,0.13 0 0 0 0,0.06 l -0.58,9.82 a 11.67,11.67 0 0 1 -8.73,4.31 c -4.17,-0.09 -7.1,-3.19 -8.85,-5.05 -0.38,-0.4 -0.7,-0.73 -1,-1 a 0.5,0.5 0 0 0 -0.78,0.59 c 0.14,0.3 3.69,7.5 10.57,7.5 v 0 a 14.34,14.34 0 0 0 10.35,-4.91 14.84,14.84 0 0 0 10.27,4.39 v 0 c 4.39,0 8.46,-5.25 8.63,-5.47 A 0.5,0.5 0 0 0 750,223 Z"
       fill="#171717"
       id="path1851" />
    <path
       d="m 729,132.12 c 2.9,-1 2.42,-4.35 2.9,-9.18 0.48,-4.83 1,-10.64 -1.45,-7.74 a 18.21,18.21 0 0 0 -4.35,11.12 c -0.02,4.83 -0.02,6.76 2.9,5.8 z"
       fill="#492d2c"
       id="path1853" />
    <path
       d="m 750,121.48 c 2.9,-1 2.41,-4.34 2.9,-9.18 0,-0.44 0.09,-0.89 0.13,-1.34 -1.55,-0.44 -3.12,-0.83 -4.7,-1.18 a 15.77,15.77 0 0 0 -1.23,5.91 c 0.01,4.83 0.01,6.76 2.9,5.79 z"
       fill="#492d2c"
       id="path1855" />
    <path
       d="m 728,112.79 a 6.83,6.83 0 0 0 4.43,-5 q -1.62,-0.06 -3.24,-0.06 c -2.37,0 -4.84,0.13 -7.35,0.38 a 28.72,28.72 0 0 0 -2.06,3.75 c -1.91,4.31 1.47,3.34 8.22,0.93 z"
       fill="#492d2c"
       id="path1857" />
    <path
       d="m 769.58,131.64 c -4.35,0 -9.18,6.76 -11.11,11.11 -1.93,4.35 1.45,3.38 8.21,1 6.76,-2.38 4.84,-12.11 2.9,-12.11 z"
       fill="#492d2c"
       id="path1859" />
    <path
       d="m 704.82,135.5 c -4.35,0 -9.19,6.77 -11.12,11.12 -1.93,4.35 1.45,3.38 8.22,1 6.77,-2.38 4.83,-12.12 2.9,-12.12 z"
       fill="#492d2c"
       id="path1861" />
    <path
       d="m 785,156.92 c 5.13,0.36 -2,-6.16 -1,-9.23 1,-3.07 -8.64,-8.86 -9.54,-6.19 -0.69,2 0.66,4.1 0,7.52 -0.66,3.42 5.4,7.54 10.54,7.9 z"
       fill="#492d2c"
       id="path1863" />
    <path
       d="m 734.78,120.52 c 0.49,3.38 -0.48,6.28 4.35,4.83 4.83,-1.45 3.87,-8.7 4.35,-11.6 0.29,-1.73 -1,-4.13 -2.54,-5.29 -1,-0.12 -1.91,-0.24 -2.87,-0.33 a 2.64,2.64 0 0 0 -0.39,0.31 c -3.38,3.38 -3.38,8.7 -2.9,12.08 z"
       fill="#492d2c"
       id="path1865" />
    <path
       d="m 687,132.38 c 0.7,4.17 1.39,9.73 8.34,2.78 4.79,-4.79 4.62,-16.19 2,-20.75 a 73.08,73.08 0 0 0 -7.45,3.75 c -1.89,4.71 -3.35,11.28 -2.89,14.22 z"
       fill="#492d2c"
       id="path1867" />
    <path
       d="m 775.5,179.14 c 0.4,4.43 7.2,14.15 10.84,16.28 l 0.64,0.38 a 99.65,99.65 0 0 0 4.19,-11.28 c -5.25,-7.22 -16.29,-12.28 -15.67,-5.38 z"
       fill="#492d2c"
       id="path1869" />
    <path
       d="m 678.09,183.22 c -2.06,2.06 -4.09,7.66 -5.06,12.46 a 106.06,106.06 0 0 0 5.82,10.87 22.11,22.11 0 0 0 2,-1.79 c 6.97,-6.95 3.49,-27.76 -2.76,-21.54 z"
       fill="#492d2c"
       id="path1871" />
    <path
       d="m 677.75,146.13 c -4.83,0.49 -9.18,3.39 -7.73,9.67 1.45,6.28 4.83,1 7.73,-2.42 2.9,-3.42 1.92,-7.44 0,-7.25 z"
       fill="#492d2c"
       id="path1873" />
    <path
       d="m 718.35,135 c 7.73,-8.22 5.22,-9.49 2.9,-10.15 -3.38,-1 -11.12,8.21 -12.08,12.56 -0.96,4.35 1.45,5.82 9.18,-2.41 z"
       fill="#492d2c"
       id="path1875" />
    <path
       d="m 727.53,138.4 c -1.45,6.28 -1.45,16.92 3.39,13 4.84,-3.92 8.7,-12.56 7.73,-15 -1.26,-3.07 -9.65,-4.28 -11.12,2 z"
       fill="#492d2c"
       id="path1877" />
    <path
       d="m 720.28,138.89 c -1.93,-1.46 -7.25,2.9 -5.31,6.28 1.94,3.38 1,6.28 5.8,4.35 4.8,-1.93 3.38,-7.73 -0.49,-10.63 z"
       fill="#492d2c"
       id="path1879" />
    <path
       d="m 792.78,156.28 c 0.48,1.94 -6.28,10.15 -7.25,13.54 -0.97,3.39 1.94,1.93 5.32,1.93 a 6.43,6.43 0 0 0 3.39,-1.29 72.73,72.73 0 0 0 0.65,-9.44 55.74,55.74 0 0 0 -0.37,-6.43 c -1.28,-0.39 -2.16,0.01 -1.74,1.69 z"
       fill="#492d2c"
       id="path1881" />
    <path
       d="m 675.34,171.27 c 0.48,-4.84 -8.43,-10 -7.25,-5.32 0.22,0.9 -1.12,3.16 -2.72,5.66 a 88,88 0 0 0 2.2,9.54 c 3.28,-1.15 7.34,-5.68 7.77,-9.88 z"
       fill="#492d2c"
       id="path1883" />
    <path
       d="m 715.45,122.45 c 3.87,-3.86 -0.82,-8.34 -4.35,-6.76 -4.35,1.93 -8.7,6.76 -7.73,11.11 0.97,4.35 8.21,-0.48 12.08,-4.35 z"
       fill="#492d2c"
       id="path1885" />
    <path
       d="m 745.17,132.12 c -0.48,1.93 0.49,7.25 3.87,7.73 3.38,0.48 4.83,-8.21 1.93,-11.6 -1.57,-1.83 -5.31,1.94 -5.8,3.87 z"
       fill="#492d2c"
       id="path1887" />
    <path
       d="m 758,119.19 c 0.75,3.75 8.25,12.75 15,9 2,-1.13 2.43,-3.84 1.74,-6.88 a 66.11,66.11 0 0 0 -16.74,-8.74 14.41,14.41 0 0 0 0,6.62 z"
       fill="#492d2c"
       id="path1889" />
    <path
       d="m 747.81,165.7 a 8.27,8.27 0 0 1 1.59,-7.8 10.11,10.11 0 0 1 15.61,0 8.3,8.3 0 0 1 1.6,7.81 c -3.47,-9.71 -15.34,-9.77 -18.8,-0.01 z"
       fill="#171717"
       id="path1891" />
    <path
       d="m 710.2,165.7 c -3.46,-9.76 -15.33,-9.74 -18.8,0 a 8.29,8.29 0 0 1 1.59,-7.81 10.12,10.12 0 0 1 15.62,0 8.29,8.29 0 0 1 1.59,7.81 z"
       fill="#171717"
       id="path1893" />
    <ellipse
       cx="765.53003"
       cy="177"
       rx="5.8200002"
       ry="7.4899998"
       transform="rotate(-89.93,765.52098,177.00585)"
       fill="#f072ab"
       id="ellipse1895" />
    <ellipse
       cx="692.47998"
       cy="177"
       rx="5.8200002"
       ry="7.4899998"
       transform="rotate(-89.93,692.47133,177.00544)"
       fill="#f072ab"
       id="ellipse1897" />
    <path
       d="m 746.73,212.12 30.92,-4.69 -30.59,6.57 a 0.94,0.94 0 0 1 -1.1,-0.72 0.92,0.92 0 0 1 0.71,-1.1 z"
       fill="#f4f0df"
       id="path1899" />
    <path
       d="m 747.18,221.46 26.1,8.83 -26.63,-7 a 0.93,0.93 0 1 1 0.47,-1.79 z"
       fill="#f4f0df"
       id="path1901" />
    <path
       d="m 746.77,216.86 47,2.17 -47.09,-0.32 a 0.93,0.93 0 1 1 0,-1.85 z"
       fill="#f4f0df"
       id="path1903" />
    <path
       d="m 740.94,216.42 a 1.11,1.11 0 0 0 0.07,-2.21 1.11,1.11 0 0 0 -0.07,2.21 z"
       fill="#f58523"
       id="path1905" />
    <path
       d="m 745.1,219.13 a 1.11,1.11 0 0 0 0.07,-2.21 1.11,1.11 0 0 0 -0.07,2.21 z"
       fill="#f58523"
       id="path1907" />
    <path
       d="m 737.24,218.89 a 1.11,1.11 0 0 0 0.07,-2.21 1.11,1.11 0 0 0 -0.07,2.21 z"
       fill="#f58523"
       id="path1909" />
    <path
       d="m 740.78,221.7 a 1.11,1.11 0 0 0 0.07,-2.21 1.11,1.11 0 0 0 -0.07,2.21 z"
       fill="#f58523"
       id="path1911" />
    <path
       d="M 711.28,212.12 680.36,207.43 711,214 a 0.93,0.93 0 0 0 0.38,-1.82 z"
       fill="#f4f0df"
       id="path1913" />
    <path
       d="m 710.83,221.46 -26.1,8.83 26.63,-7 a 0.93,0.93 0 0 0 -0.47,-1.79 z"
       fill="#f4f0df"
       id="path1915" />
    <path
       d="m 711.24,216.86 -47,2.17 47.08,-0.32 a 0.91,0.91 0 0 0 0.92,-0.93 0.93,0.93 0 0 0 -0.93,-0.92 z"
       fill="#f4f0df"
       id="path1917" />
    <path
       d="m 717.06,216.42 a 1.11,1.11 0 0 1 -0.06,-2.21 1.11,1.11 0 0 1 0.06,2.21 z"
       fill="#f58523"
       id="path1919" />
    <path
       d="m 712.91,219.13 a 1.11,1.11 0 0 1 -0.07,-2.21 1.11,1.11 0 0 1 0.07,2.21 z"
       fill="#f58523"
       id="path1921" />
    <path
       d="m 720.77,218.89 a 1.11,1.11 0 0 1 -0.07,-2.21 1.11,1.11 0 0 1 0.07,2.21 z"
       fill="#f58523"
       id="path1923" />
    <path
       d="m 717.23,221.7 a 1.11,1.11 0 0 1 -0.07,-2.21 1.11,1.11 0 0 1 0.07,2.21 z"
       fill="#f58523"
       id="path1925" />
  </g>
</svg>
