<?xml version="1.0" encoding="UTF-8" standalone="no"?>
<svg
   xmlns:dc="http://purl.org/dc/elements/1.1/"
   xmlns:cc="http://creativecommons.org/ns#"
   xmlns:rdf="http://www.w3.org/1999/02/22-rdf-syntax-ns#"
   xmlns:svg="http://www.w3.org/2000/svg"
   xmlns="http://www.w3.org/2000/svg"
   xmlns:sodipodi="http://sodipodi.sourceforge.net/DTD/sodipodi-0.dtd"
   xmlns:inkscape="http://www.inkscape.org/namespaces/inkscape"
   id="cute_critters"
   data-name="cute critters"
   viewBox="0 0 220 220"
   version="1.1"
   sodipodi:docname="octopus.svg"
   width="220"
   height="220"
   inkscape:version="1.0.2 (e86c870879, 2021-01-15, custom)">
  <metadata
     id="metadata2605">
    <rdf:RDF>
      <cc:Work
         rdf:about="">
        <dc:format>image/svg+xml</dc:format>
        <dc:type
           rdf:resource="http://purl.org/dc/dcmitype/StillImage" />
      </cc:Work>
    </rdf:RDF>
  </metadata>
  <defs
     id="defs2603" />
  <sodipodi:namedview
     pagecolor="#ffffff"
     bordercolor="#666666"
     borderopacity="1"
     objecttolerance="10"
     gridtolerance="10"
     guidetolerance="10"
     inkscape:pageopacity="0"
     inkscape:pageshadow="2"
     inkscape:window-width="855"
     inkscape:window-height="480"
     id="namedview2601"
     showgrid="false"
     inkscape:zoom="0.88888889"
     inkscape:cx="-171"
     inkscape:cy="110"
     inkscape:window-x="0"
     inkscape:window-y="0"
     inkscape:window-maximized="0"
     inkscape:current-layer="cute_critters" />
  <g
     id="octopus"
     transform="translate(-621,-340)">
    <circle
       cx="731"
       cy="450"
       r="110"
       fill="#ec1b34"
       id="circle2537" />
    <path
       d="m 778.37,530.57 c 7.47,-6.43 -17.22,-14.91 -47.43,-12.84 -24.5,-1.34 -46.5,5.36 -48.57,14.71 -1.48,8.3 15.08,18.23 53,20.46 38.75,-6.37 37.82,-14.6 43,-22.33 z"
       fill="#3a2f75"
       id="path2539" />
    <path
       d="m 731,503.62 c 4.56,0 8.25,12.62 8.25,28.19 0,15.57 -3.69,28.19 -8.25,28.19 -4.56,0 -8.25,-12.62 -8.25,-28.19 0,-15.57 3.69,-28.19 8.25,-28.19 z"
       fill="#f399c0"
       id="path2541" />
    <path
       d="m 726.73,504.37 c 4,2.19 1.13,15 -6.38,28.67 -7.51,13.67 -16.84,22.96 -20.83,20.71 -3.99,-2.25 -1.13,-15 6.38,-28.67 7.51,-13.67 16.84,-22.91 20.83,-20.71 z"
       fill="#f399c0"
       id="path2543" />
    <path
       d="m 716.66,501.52 c 3.29,3.16 -2.81,14.81 -13.6,26 -10.79,11.19 -22.22,17.74 -25.5,14.58 -3.28,-3.16 2.81,-14.81 13.61,-26 10.8,-11.19 22.21,-17.75 25.49,-14.58 z"
       fill="#f399c0"
       id="path2545" />
    <path
       d="m 736.28,504.37 c -4,2.19 -1.13,15 6.38,28.67 7.51,13.67 16.84,22.96 20.83,20.71 3.99,-2.25 1.14,-15 -6.37,-28.67 -7.51,-13.67 -16.85,-22.91 -20.84,-20.71 z"
       fill="#f399c0"
       id="path2547" />
    <path
       d="m 746.35,501.52 c -3.29,3.16 2.81,14.81 13.61,26 10.8,11.19 22.21,17.74 25.49,14.58 3.28,-3.16 -2.81,-14.81 -13.61,-26 -10.8,-11.19 -22.21,-17.75 -25.49,-14.58 z"
       fill="#f399c0"
       id="path2549" />
    <circle
       cx="731"
       cy="456.89001"
       r="68.889999"
       transform="rotate(-0.75,731.93837,457.82216)"
       fill="#f399c0"
       id="circle2551" />
    <path
       d="m 712.85,409.06 a 8.87,8.87 0 1 1 -8.85,-8.86 8.86,8.86 0 0 1 8.85,8.86 z"
       fill="#ffb8d4"
       id="path2553" />
    <path
       d="m 727,399.43 a 5.15,5.15 0 1 1 -5.15,-5.15 5.15,5.15 0 0 1 5.15,5.15 z"
       fill="#ffb8d4"
       id="path2555" />
    <path
       d="m 696.46,519.33 c -3,0 -3,4.66 0,4.66 3,0 3.01,-4.66 0,-4.66 z"
       fill="#ffc2da"
       id="path2557" />
    <path
       d="m 688.86,526.93 c -3,0 -3,4.66 0,4.66 3,0 3.01,-4.66 0,-4.66 z"
       fill="#ffc2da"
       id="path2559" />
    <path
       d="m 713,525.55 c -3,0 -3,4.66 0,4.66 3,0 3.05,-4.66 0,-4.66 z"
       fill="#ffc2da"
       id="path2561" />
    <path
       d="m 708.9,533.84 c -3,0 -3,4.66 0,4.66 3,0 3,-4.66 0,-4.66 z"
       fill="#ffc2da"
       id="path2563" />
    <path
       d="m 731,529 c -3,0 -3,4.66 0,4.66 3,0 3,-4.66 0,-4.66 z"
       fill="#ffc2da"
       id="path2565" />
    <path
       d="m 731,538.67 c -3,0 -3,4.67 0,4.67 3,0 3,-4.67 0,-4.67 z"
       fill="#ffc2da"
       id="path2567" />
    <path
       d="m 749.65,525.55 c -3,0 -3,4.66 0,4.66 3,0 3.01,-4.66 0,-4.66 z"
       fill="#ffc2da"
       id="path2569" />
    <path
       d="m 753.8,534.53 c -3,0 -3,4.66 0,4.66 3,0 3,-4.66 0,-4.66 z"
       fill="#ffc2da"
       id="path2571" />
    <path
       d="m 760,541.44 c -3,0 -3,4.66 0,4.66 3,0 3,-4.66 0,-4.66 z"
       fill="#ffc2da"
       id="path2573" />
    <path
       d="m 764.85,518 c -3,0 -3,4.66 0,4.66 3,0 3,-4.66 0,-4.66 z"
       fill="#ffc2da"
       id="path2575" />
    <path
       d="m 771.06,524.17 c -3,0 -3,4.66 0,4.66 3,0 3.01,-4.66 0,-4.66 z"
       fill="#ffc2da"
       id="path2577" />
    <path
       d="m 777.28,531.07 c -3,0 -3,4.67 0,4.67 3,0 3.01,-4.67 0,-4.67 z"
       fill="#ffc2da"
       id="path2579" />
    <path
       d="m 682.65,533.84 c -3,0 -3,4.66 0,4.66 3,0 3,-4.66 0,-4.66 z"
       fill="#ffc2da"
       id="path2581" />
    <path
       d="m 704.75,542.13 c -3,0 -3,4.66 0,4.66 3,0 3.01,-4.66 0,-4.66 z"
       fill="#ffc2da"
       id="path2583" />
    <path
       d="m 731.15,471.37 a 12,12 0 0 1 -6.51,-1.9 c -4.07,-2.61 -6.08,-7.31 -5.5,-12.9 a 1.31,1.31 0 0 1 1.41,-1.15 1.29,1.29 0 0 1 1.16,1.41 c -0.47,4.59 1.1,8.41 4.32,10.47 a 9.33,9.33 0 0 0 9.71,0.26 c 3.29,-1.94 4.92,-5.76 4.6,-10.77 a 1.29,1.29 0 0 1 1.2,-1.38 1.37,1.37 0 0 1 1.38,1.21 c 0.38,5.95 -1.76,10.75 -5.87,13.17 a 11.57,11.57 0 0 1 -5.9,1.58 z"
       fill="#171717"
       id="path2585" />
    <path
       d="m 753.88,446.91 c 5.16,-8 18.17,-4.28 20.64,1.11 -7.36,-2.07 -13.32,-5.1 -19.85,-0.47 0,0 -1.22,0.06 -0.79,-0.64 z"
       fill="#171717"
       id="path2587" />
    <path
       d="m 755.8,435.81 c 0.42,-0.11 0.8,0 0.85,0.17 l 1.92,7.77 c 0,0.19 -0.26,0.44 -0.68,0.55 v 0 c -0.42,0.1 -0.8,0 -0.85,-0.18 l -1.91,-7.76 c 0,-0.2 0.25,-0.45 0.67,-0.55 z m 6.91,-0.59 c 0.44,0 0.8,0.14 0.8,0.35 l 0.28,8 c 0,0.2 -0.34,0.39 -0.77,0.4 v 0 c -0.44,0 -0.79,-0.14 -0.8,-0.35 l -0.28,-8 c 0,-0.21 0.34,-0.39 0.77,-0.4 z m 7.58,0.75 c 0.42,0.13 0.71,0.39 0.65,0.59 l -2.26,7.66 c 0,0.19 -0.44,0.26 -0.85,0.13 v 0 c -0.42,-0.12 -0.71,-0.39 -0.65,-0.59 l 2.25,-7.66 c 0.06,-0.19 0.45,-0.25 0.86,-0.13 z"
       fill="#171717"
       fill-rule="evenodd"
       id="path2589" />
    <path
       d="m 708.12,446.91 c -5.16,-8 -18.17,-4.28 -20.64,1.11 7.36,-2.07 13.32,-5.1 19.85,-0.47 0,0 1.22,0.06 0.79,-0.64 z"
       fill="#171717"
       id="path2591" />
    <path
       d="m 706.2,435.81 v 0 c 0.42,0.1 0.72,0.35 0.67,0.55 l -1.87,7.76 c -0.05,0.2 -0.43,0.28 -0.85,0.18 v 0 c -0.42,-0.11 -0.72,-0.36 -0.68,-0.55 l 1.92,-7.77 c 0,-0.2 0.43,-0.28 0.85,-0.17 z m -6.91,-0.59 v 0 c 0.43,0 0.77,0.19 0.77,0.4 l -0.28,8 c 0,0.21 -0.36,0.36 -0.8,0.35 v 0 c -0.43,0 -0.78,-0.2 -0.77,-0.4 l 0.28,-8 c 0,-0.21 0.36,-0.37 0.8,-0.35 z m -7.58,0.75 v 0 c 0.41,-0.12 0.8,-0.06 0.86,0.13 l 2.25,7.66 c 0.06,0.2 -0.23,0.47 -0.65,0.59 v 0 c -0.41,0.13 -0.8,0.06 -0.85,-0.13 l -2.26,-7.66 c -0.06,-0.2 0.23,-0.46 0.65,-0.59 z"
       fill="#171717"
       fill-rule="evenodd"
       id="path2593" />
    <ellipse
       cx="764.65002"
       cy="463.04001"
       rx="9.8699999"
       ry="7.6799998"
       fill="#f072ab"
       id="ellipse2595" />
    <ellipse
       cx="697.34998"
       cy="463.04001"
       rx="9.8699999"
       ry="7.6799998"
       fill="#f072ab"
       id="ellipse2597" />
  </g>
</svg>
