<?xml version="1.0" encoding="UTF-8" standalone="no"?>
<svg
   xmlns:dc="http://purl.org/dc/elements/1.1/"
   xmlns:cc="http://creativecommons.org/ns#"
   xmlns:rdf="http://www.w3.org/1999/02/22-rdf-syntax-ns#"
   xmlns:svg="http://www.w3.org/2000/svg"
   xmlns="http://www.w3.org/2000/svg"
   xmlns:sodipodi="http://sodipodi.sourceforge.net/DTD/sodipodi-0.dtd"
   xmlns:inkscape="http://www.inkscape.org/namespaces/inkscape"
   id="cute_critters"
   data-name="cute critters"
   viewBox="0 0 220 220"
   version="1.1"
   sodipodi:docname="polar_bear.svg"
   width="220"
   height="220"
   inkscape:version="1.0.2 (e86c870879, 2021-01-15, custom)">
  <metadata
     id="metadata3339">
    <rdf:RDF>
      <cc:Work
         rdf:about="">
        <dc:format>image/svg+xml</dc:format>
        <dc:type
           rdf:resource="http://purl.org/dc/dcmitype/StillImage" />
      </cc:Work>
    </rdf:RDF>
  </metadata>
  <defs
     id="defs3337" />
  <sodipodi:namedview
     pagecolor="#ffffff"
     bordercolor="#666666"
     borderopacity="1"
     objecttolerance="10"
     gridtolerance="10"
     guidetolerance="10"
     inkscape:pageopacity="0"
     inkscape:pageshadow="2"
     inkscape:window-width="855"
     inkscape:window-height="480"
     id="namedview3335"
     showgrid="false"
     inkscape:zoom="0.88888889"
     inkscape:cx="109"
     inkscape:cy="390"
     inkscape:window-x="0"
     inkscape:window-y="0"
     inkscape:window-maximized="0"
     inkscape:current-layer="cute_critters" />
  <g
     id="polar_bear"
     data-name="polar bear"
     transform="translate(-341,-60)">
    <circle
       cx="451"
       cy="170"
       r="110"
       fill="#5a5494"
       id="circle3137" />
    <path
       d="m 509.83,231.73 a 23,23 0 0 0 -16,39.58 c 1.11,-0.47 2.21,-0.95 3.3,-1.45 a 19.73,19.73 0 1 1 31.28,-21.73 c 0.86,-0.85 1.69,-1.73 2.53,-2.61 a 23,23 0 0 0 -21.11,-13.79 z"
       fill="#ffa7ca"
       id="path3139" />
    <circle
       cx="452.23001"
       cy="197.17"
       r="11.27"
       transform="rotate(-67.5,452.22937,197.16714)"
       fill="#ffa7ca"
       id="circle3141" />
    <path
       d="m 453.62,166.65 -2.43,0.23 a 1.92,1.92 0 0 0 2.43,-0.23 z"
       fill="#ffa7ca"
       id="path3143" />
    <path
       d="m 452.23,227.12 a 2,2 0 1 0 2,2 2,2 0 0 0 -2,-2 z"
       fill="#ffa7ca"
       id="path3145" />
    <path
       d="m 448,167.2 -2.25,0.22 A 1.86,1.86 0 0 0 448,167.2 Z"
       fill="#ffa7ca"
       id="path3147" />
    <path
       d="m 457.43,226.66 a 2.0303941,2.0303941 0 1 0 0.7,4 2.0303941,2.0303941 0 0 0 -0.7,-4 z"
       fill="#ffa7ca"
       id="path3149" />
    <path
       d="m 442,169 a 2,2 0 0 0 1.21,-1.34 l -3.64,0.38 A 2,2 0 0 0 442,169 Z"
       fill="#ffa7ca"
       id="path3151" />
    <path
       d="m 462.48,225.31 a 2,2 0 1 0 2.57,1.2 2,2 0 0 0 -2.57,-1.2 z"
       fill="#ffa7ca"
       id="path3153" />
    <path
       d="m 437.79,168.25 -3.32,0.37 a 2,2 0 0 0 0,1.87 2.0068881,2.0068881 0 1 0 3.48,-2 1.43,1.43 0 0 0 -0.16,-0.24 z"
       fill="#ffa7ca"
       id="path3155" />
    <path
       d="m 467.21,223.11 a 2,2 0 0 0 -0.74,2.74 2,2 0 1 0 0.74,-2.74 z"
       fill="#ffa7ca"
       id="path3157" />
    <path
       d="m 430.39,171.14 a 2,2 0 1 0 2.84,0.25 2,2 0 0 0 -2.84,-0.25 z"
       fill="#ffa7ca"
       id="path3159" />
    <path
       d="m 471.48,220.11 a 2,2 0 1 0 2.84,0.25 2,2 0 0 0 -2.84,-0.25 z"
       fill="#ffa7ca"
       id="path3161" />
    <path
       d="m 429.29,177.91 a 2,2 0 1 0 -2.84,0.25 2,2 0 0 0 2.84,-0.25 z"
       fill="#ffa7ca"
       id="path3163" />
    <path
       d="m 475.18,216.42 a 2.0121195,2.0121195 0 0 0 3.08,2.59 2.0121195,2.0121195 0 1 0 -3.08,-2.59 z"
       fill="#ffa7ca"
       id="path3165" />
    <path
       d="m 423.55,182.93 a 2,2 0 1 0 -0.74,-2.75 2,2 0 0 0 0.74,2.75 z"
       fill="#ffa7ca"
       id="path3167" />
    <path
       d="m 480.92,211.41 a 2,2 0 1 0 0.73,2.75 2,2 0 0 0 -0.73,-2.75 z"
       fill="#ffa7ca"
       id="path3169" />
    <path
       d="m 421.51,188.12 a 2,2 0 1 0 -1.2,-2.57 2,2 0 0 0 1.2,2.57 z"
       fill="#ffa7ca"
       id="path3171" />
    <path
       d="m 483,206.21 a 2,2 0 1 0 1.2,2.58 2,2 0 0 0 -1.2,-2.58 z"
       fill="#ffa7ca"
       id="path3173" />
    <path
       d="m 420.41,193.6 a 2,2 0 1 0 -1.64,-2.33 2,2 0 0 0 1.64,2.33 z"
       fill="#ffa7ca"
       id="path3175" />
    <path
       d="m 484.06,200.74 a 2,2 0 1 0 1.63,2.33 2,2 0 0 0 -1.63,-2.33 z"
       fill="#ffa7ca"
       id="path3177" />
    <path
       d="m 420.27,199.18 a 2,2 0 1 0 -2,-2 2,2 0 0 0 2,2 z"
       fill="#ffa7ca"
       id="path3179" />
    <path
       d="m 484.2,195.16 a 2,2 0 1 0 2,2 2,2 0 0 0 -2,-2 z"
       fill="#ffa7ca"
       id="path3181" />
    <path
       d="m 422.74,202.37 a 2,2 0 1 0 -1.63,2.33 2,2 0 0 0 1.63,-2.33 z"
       fill="#ffa7ca"
       id="path3183" />
    <path
       d="m 481.73,192 a 2,2 0 1 0 1.63,-2.33 2,2 0 0 0 -1.63,2.33 z"
       fill="#ffa7ca"
       id="path3185" />
    <path
       d="m 424.09,207.41 a 2,2 0 1 0 -1.2,2.58 2,2 0 0 0 1.2,-2.58 z"
       fill="#ffa7ca"
       id="path3187" />
    <path
       d="m 480.38,186.92 a 2,2 0 1 0 1.2,-2.58 2,2 0 0 0 -1.2,2.58 z"
       fill="#ffa7ca"
       id="path3189" />
    <path
       d="m 426.29,212.14 a 2.0068881,2.0068881 0 0 0 -3.48,2 2.0068881,2.0068881 0 1 0 3.48,-2 z"
       fill="#ffa7ca"
       id="path3191" />
    <path
       d="m 478.17,182.19 a 2,2 0 1 0 0.74,-2.75 2,2 0 0 0 -0.74,2.75 z"
       fill="#ffa7ca"
       id="path3193" />
    <path
       d="m 429.29,216.42 a 2,2 0 1 0 -0.25,2.83 2,2 0 0 0 0.25,-2.83 z"
       fill="#ffa7ca"
       id="path3195" />
    <path
       d="m 475.18,177.91 a 2,2 0 1 0 0.25,-2.83 2,2 0 0 0 -0.25,2.83 z"
       fill="#ffa7ca"
       id="path3197" />
    <path
       d="m 430.15,220.36 a 2,2 0 1 0 2.83,-0.25 2,2 0 0 0 -2.83,0.25 z"
       fill="#ffa7ca"
       id="path3199" />
    <path
       d="m 474.32,174 a 2,2 0 1 0 -2.84,0.25 2,2 0 0 0 2.84,-0.25 z"
       fill="#ffa7ca"
       id="path3201" />
    <path
       d="m 437.26,223.11 a 2,2 0 1 0 0.73,2.74 2,2 0 0 0 -0.73,-2.74 z"
       fill="#ffa7ca"
       id="path3203" />
    <path
       d="m 467.21,171.23 a 2,2 0 1 0 -0.74,-2.75 2,2 0 0 0 0.74,2.75 z"
       fill="#ffa7ca"
       id="path3205" />
    <path
       d="m 442,225.31 a 2,2 0 1 0 1.2,2.58 2,2 0 0 0 -1.2,-2.58 z"
       fill="#ffa7ca"
       id="path3207" />
    <path
       d="m 462.47,169 a 2,2 0 0 0 2.58,-1.2 2,2 0 0 0 -0.51,-2.15 l -3,0.26 a 1.91,1.91 0 0 0 0.88,3.09 z"
       fill="#ffa7ca"
       id="path3209" />
    <path
       d="m 447,226.66 a 2,2 0 1 0 1.63,2.33 2,2 0 0 0 -1.63,-2.33 z"
       fill="#ffa7ca"
       id="path3211" />
    <path
       d="m 457.43,167.67 a 2,2 0 0 0 2.31,-1.58 l -3.79,0.34 a 2,2 0 0 0 1.48,1.24 z"
       fill="#ffa7ca"
       id="path3213" />
    <path
       d="m 394.63,231.73 a 23,23 0 0 0 -20.32,12.2 48.32,48.32 0 0 0 0.09,5 c 0.36,0.35 0.74,0.68 1.11,1 a 19.73,19.73 0 1 1 30.94,20.61 q 1.69,0.76 3.42,1.47 a 23,23 0 0 0 -15.24,-40.29 z"
       fill="#ffa7ca"
       id="path3215" />
    <path
       d="M 452.23,278.39 A 2,2 0 0 0 450.3,280 h 0.7 c 1.05,0 2.1,-0.05 3.14,-0.08 a 2,2 0 0 0 -1.91,-1.53 z"
       fill="#ffa7ca"
       id="path3217" />
    <path
       d="m 446.33,278.91 a 2,2 0 0 0 -1.34,0.92 c 1.14,0.06 2.29,0.08 3.43,0.11 a 2,2 0 0 0 -2.09,-1.03 z"
       fill="#ffa7ca"
       id="path3219" />
    <path
       d="m 456.06,279.86 c 1.1,-0.05 2.19,-0.13 3.28,-0.21 a 1.92,1.92 0 0 0 -1.21,-0.74 2,2 0 0 0 -2.07,0.95 z"
       fill="#ffa7ca"
       id="path3221" />
    <path
       d="m 509.83,235 a 19.73,19.73 0 0 0 -12.71,34.83 c 2.62,-1.21 5.19,-2.53 7.69,-3.94 a 12.23,12.23 0 1 1 17.22,-12 c 2.19,-1.86 4.33,-3.79 6.37,-5.81 A 19.72,19.72 0 0 0 509.83,235 Z"
       fill="#ec1b34"
       id="path3223" />
    <circle
       cx="509.82999"
       cy="254.77"
       r="6.04"
       fill="#ec1b34"
       id="circle3225" />
    <path
       d="m 531.29,237.81 c -0.08,-0.44 -0.14,-0.87 -0.22,-1.32 -2.86,-15.8 -10.91,-35 -16.63,-47.33 -0.2,-0.45 -0.4,-0.87 -0.6,-1.3 -1.63,-3.47 -3,-6.31 -4,-8.26 -1,-1.95 -1.5,-2.93 -1.5,-2.93 l -8.75,-6.28 -1.64,-1.17 -7.73,-5.54 c 0,0 -2.95,0.19 -7.79,0.56 a 2.68,2.68 0 0 1 -4.41,2.2 2.69,2.69 0 0 1 -0.94,-1.8 c -3.67,0.29 -7.92,0.63 -12.53,1 a 2,2 0 0 1 0.51,2.15 2,2 0 1 1 -3.46,-1.89 l -1.85,0.16 a 2,2 0 0 1 -3.79,0.34 l -2.33,0.22 a 1.92,1.92 0 0 1 -2.43,0.23 l -3.23,0.32 a 1.86,1.86 0 0 1 -2.25,0.22 l -2.51,0.26 a 2,2 0 0 1 -3.64,0.38 l -1.77,0.19 a 1.43,1.43 0 0 1 0.2,0.23 2.0068881,2.0068881 0 1 1 -3.48,2 2,2 0 0 1 0,-1.87 c -4.29,0.49 -8.48,1 -12.42,1.55 a 2.78,2.78 0 0 1 -0.54,1.22 2.71,2.71 0 0 1 -3.8,0.33 2.75,2.75 0 0 1 -0.66,-0.83 c -4.93,0.75 -9.3,1.53 -12.74,2.34 l -1.06,0.25 c -4.94,1.24 -7.67,2.54 -6.92,3.85 0,0 -0.64,1.16 -1.7,3.18 -1.06,2.02 -2.35,4.6 -3.91,7.88 -0.21,0.43 -0.42,0.88 -0.63,1.33 -5.33,11.39 -12.51,28.91 -15,45.09 l -0.18,1.34 a 72.8,72.8 0 0 0 -0.64,7.78 23,23 0 1 1 35.55,28.11 c 1.38,0.56 2.77,1.1 4.18,1.61 l 0.89,0.29 a 109.54,109.54 0 0 0 30.06,5.93 2,2 0 0 1 1.34,-0.92 2,2 0 0 1 2.09,1 c 0.63,0 1.26,0 1.88,0 a 2,2 0 0 1 3.84,-0.06 c 0.64,0 1.29,0 1.92,-0.06 a 2,2 0 0 1 2.07,-0.95 1.92,1.92 0 0 1 1.21,0.74 110.07,110.07 0 0 0 13.46,-1.84 2.67,2.67 0 1 1 3.16,-1.16 2.78,2.78 0 0 1 -0.53,0.6 109.59,109.59 0 0 0 13.41,-4 l 0.88,-0.32 c 1.38,-0.52 2.74,-1.07 4.1,-1.65 a 23,23 0 1 1 37.11,-25.79 c 0.36,-0.39 0.75,-0.77 1.11,-1.16 a 61.22,61.22 0 0 0 -0.76,-6.45 z m -86,-1.15 a 2.7,2.7 0 1 1 -3.12,2.19 2.69,2.69 0 0 1 3.1,-2.19 z m -0.57,-8.37 a 2,2 0 1 1 1.63,2.33 2,2 0 0 1 -1.65,-2.33 z m 7.53,9 a 2.7,2.7 0 1 1 -2.69,2.7 2.69,2.69 0 0 1 2.67,-2.72 z m -2,-8.14 a 2,2 0 1 1 2,2 2,2 0 0 1 -2.03,-2.02 z m 7.91,1.49 a 2,2 0 1 1 1.63,-2.32 2,2 0 0 1 -1.66,2.3 z m 4.19,8.23 a 2.7,2.7 0 1 1 -3.12,-2.19 2.7,2.7 0 0 1 3.09,2.17 z m 31.05,-29.58 a 2.7,2.7 0 1 1 -3.45,1.61 2.7,2.7 0 0 1 3.42,-1.63 z m -1.64,-5.14 a 2.69,2.69 0 1 1 2.18,3.12 2.69,2.69 0 0 1 -2.21,-3.14 z m -1.08,12.1 a 2.7,2.7 0 1 1 -3.69,1 2.7,2.7 0 0 1 3.66,-1.02 z m -3.9,6.38 A 2.69,2.69 0 1 1 483,223 a 2.7,2.7 0 0 1 3.75,-0.39 z m -5.31,9.37 a 2.69,2.69 0 1 1 0.34,-3.8 2.69,2.69 0 0 1 -0.34,3.8 z m 1.89,-27.32 a 2,2 0 1 1 2.33,-1.63 2,2 0 0 1 -2.33,1.65 z m 0.83,-5.52 a 2,2 0 1 1 2,-2 2,2 0 0 1 -2,2.02 z m -0.13,-5.58 a 2,2 0 1 1 1.63,-2.33 2,2 0 0 1 -1.63,2.35 z M 483,188.12 a 2,2 0 1 1 1.21,-2.57 2,2 0 0 1 -1.21,2.57 z m -2.57,19.29 a 2,2 0 1 1 1.2,2.58 2,2 0 0 1 -1.25,-2.58 z m 0.54,4 a 2,2 0 1 1 -2.75,0.73 2,2 0 0 1 2.7,-0.73 z m -2.97,4.76 a 2.0121195,2.0121195 0 1 1 -2.59,3.08 2.0121195,2.0121195 0 0 1 2.59,-3.08 z m -2,16.72 a 2.69,2.69 0 1 1 -3.67,-1 2.67,2.67 0 0 1 3.67,1 z m -53.3,-4.67 a 2.69,2.69 0 1 1 0.3,3.78 2.68,2.68 0 0 1 -0.34,-3.78 z m 5.84,4.66 a 2.69,2.69 0 1 1 1,3.68 2.69,2.69 0 0 1 -1.04,-3.68 z m 4.73,-9.94 a 2,2 0 1 1 -0.25,-2.83 2,2 0 0 1 0.21,2.83 z M 429,219.25 a 2,2 0 1 1 0.25,-2.83 2,2 0 0 1 -0.25,2.83 z m -3.48,-4.36 a 2,2 0 0 1 -2.75,-0.74 2,2 0 1 1 2.75,0.74 z m -2.67,-4.9 a 2,2 0 1 1 1.2,-2.58 2,2 0 0 1 -1.16,2.59 z m -1.78,-5.29 a 2,2 0 1 1 1.63,-2.33 2,2 0 0 1 -1.59,2.33 z m 0.4,18.25 a 2.69,2.69 0 1 1 -3.8,-0.34 2.69,2.69 0 0 1 3.84,0.39 z m -5,-2 a 2.7,2.7 0 1 1 1,-3.68 2.71,2.71 0 0 1 -0.95,3.63 z m -3.58,-6.57 a 2.69,2.69 0 1 1 1.6,-3.45 2.7,2.7 0 0 1 -1.55,3.4 z m -2.39,-7.08 a 2.69,2.69 0 1 1 2.18,-3.12 2.7,2.7 0 0 1 -2.13,3.07 z m 84.5,-7.44 a 2.7,2.7 0 1 1 2.7,-2.69 2.7,2.7 0 0 1 -2.7,2.69 z m 2,-10.59 a 2.7,2.7 0 1 1 -3.12,-2.19 2.71,2.71 0 0 1 3.12,2.19 z m -2,-7.66 a 2.69,2.69 0 1 1 -3.45,-1.61 2.69,2.69 0 0 1 3.45,1.61 z m -3.35,-7.19 a 2.69,2.69 0 1 1 -3.68,-1 2.69,2.69 0 0 1 3.66,1 z m -8.34,-6.83 a 2.69,2.69 0 1 1 -0.34,3.79 2.68,2.68 0 0 1 0.32,-3.79 z m -1.63,12.59 a 2,2 0 1 1 -2.75,-0.74 2,2 0 0 1 2.73,0.74 z m -3.4,-4.85 a 2,2 0 1 1 -2.83,-0.25 2,2 0 0 1 2.81,0.25 z m -7,-3.94 a 2,2 0 1 1 0.24,2.83 2,2 0 0 1 -0.28,-2.83 z m 0.24,48.72 a 2.0121195,2.0121195 0 1 1 2.59,3.08 2.0121195,2.0121195 0 0 1 -2.59,-3.08 z m -5,-51.63 a 2,2 0 1 1 0.74,2.75 2,2 0 0 1 -0.79,-2.75 z m 0.74,54.63 a 2,2 0 1 1 -0.74,2.74 2,2 0 0 1 0.69,-2.74 z m 2.19,13.35 a 2.69,2.69 0 1 1 -3.45,-1.6 2.7,2.7 0 0 1 3.4,1.6 z m -4.35,-10 a 2,2 0 1 1 -2.57,-1.2 2,2 0 0 1 2.52,1.25 z M 452.23,185.9 A 11.27,11.27 0 1 1 441,197.17 11.28,11.28 0 0 1 452.23,185.9 Z m -12.82,40.61 a 2,2 0 1 1 1.2,2.58 2,2 0 0 1 -1.2,-2.58 z m -0.9,8.34 a 2.69,2.69 0 1 1 -3.45,1.61 2.69,2.69 0 0 1 3.45,-1.61 z m -4,-11 a 2,2 0 1 1 0.74,2.75 2,2 0 0 1 -0.74,-2.76 z m -4.12,-52.7 a 2.0121195,2.0121195 0 1 1 2.59,3.08 2.0121195,2.0121195 0 0 1 -2.59,-3.08 z m -4.18,4.19 a 2,2 0 1 1 0.24,2.83 2,2 0 0 1 -0.24,-2.84 z m -3.4,4.85 a 2,2 0 1 1 0.74,2.75 2,2 0 0 1 -0.74,-2.76 z m -2.5,5.37 a 2,2 0 1 1 1.2,2.57 2,2 0 0 1 -1.2,-2.58 z m 0.79,4.09 a 2,2 0 1 1 -2.33,1.63 2,2 0 0 1 2.33,-1.64 z m -0.83,5.52 a 2,2 0 1 1 -2,2 2,2 0 0 1 2,-2.01 z m -7.44,-20.74 a 2.69,2.69 0 1 1 1,3.68 2.7,2.7 0 0 1 -1,-3.69 z m -3.35,7.19 a 2.69,2.69 0 1 1 1.61,3.45 2.7,2.7 0 0 1 -1.61,-3.46 z m -2.05,7.66 a 2.69,2.69 0 1 1 2.18,3.12 2.69,2.69 0 0 1 -2.18,-3.13 z m 2,5.2 a 2.7,2.7 0 1 1 -2.69,2.7 2.68,2.68 0 0 1 2.69,-2.71 z m 22.75,83.16 a 2.69,2.69 0 1 1 1,-3.67 2.68,2.68 0 0 1 -1,3.66 z m 6.33,-2.95 a 2.69,2.69 0 1 1 1.61,-3.45 2.69,2.69 0 0 1 -1.61,3.44 z m 6.76,-1.81 a 2.7,2.7 0 1 1 2.18,-3.12 2.69,2.69 0 0 1 -2.18,3.11 z m 7,-0.61 a 2.7,2.7 0 1 1 2.69,-2.69 2.68,2.68 0 0 1 -2.73,2.68 z m 10.09,-1.58 a 2.7,2.7 0 1 1 -2.19,-3.12 2.7,2.7 0 0 1 2.15,3.11 z m 7.08,2.39 a 2.69,2.69 0 1 1 -1.61,-3.46 2.7,2.7 0 0 1 1.57,3.45 z"
       fill="#ec1b34"
       id="path3227" />
    <path
       d="m 394.63,235 a 19.74,19.74 0 0 0 -19.12,14.91 q 2.65,2.51 5.46,4.83 c 0.5,0.41 1,0.82 1.48,1.22 0,-0.4 -0.06,-0.81 -0.06,-1.22 a 12.24,12.24 0 1 1 15.81,11.71 c 2.68,1.47 5.44,2.82 8.25,4.07 A 19.72,19.72 0 0 0 394.63,235 Z"
       fill="#ec1b34"
       id="path3229" />
    <path
       d="m 400.67,254.77 a 6,6 0 1 0 -6,6 6,6 0 0 0 6,-6 z"
       fill="#ec1b34"
       id="path3231" />
    <path
       d="m 509.83,242.53 a 12.23,12.23 0 0 0 -5,23.39 c 1.7,-0.95 3.38,-1.95 5,-3 a 109.92,109.92 0 0 0 11.22,-8.15 l 1,-0.83 a 12.23,12.23 0 0 0 -12.22,-11.41 z m 0,18.28 a 6,6 0 1 1 6,-6 6,6 0 0 1 -6,6 z"
       fill="#fbae17"
       id="path3233" />
    <path
       d="m 452.23,237.27 a 2.7,2.7 0 1 0 2.69,2.7 2.69,2.69 0 0 0 -2.69,-2.7 z"
       fill="#fbae17"
       id="path3235" />
    <path
       d="m 459.2,236.66 a 2.7,2.7 0 1 0 3.12,2.19 2.7,2.7 0 0 0 -3.12,-2.19 z"
       fill="#fbae17"
       id="path3237" />
    <path
       d="m 466,234.86 a 2.69,2.69 0 1 0 3.45,1.6 2.68,2.68 0 0 0 -3.45,-1.6 z"
       fill="#fbae17"
       id="path3239" />
    <path
       d="m 472.29,231.9 a 2.69,2.69 0 1 0 3.67,1 2.7,2.7 0 0 0 -3.67,-1 z"
       fill="#fbae17"
       id="path3241" />
    <path
       d="m 478,227.89 a 2.69,2.69 0 1 0 3.8,0.33 2.68,2.68 0 0 0 -3.8,-0.33 z"
       fill="#fbae17"
       id="path3243" />
    <path
       d="m 421.51,171.39 a 2.78,2.78 0 0 0 0.54,-1.22 l -5,0.72 a 2.75,2.75 0 0 0 0.66,0.83 2.71,2.71 0 0 0 3.8,-0.33 z"
       fill="#fbae17"
       id="path3245" />
    <path
       d="m 483,223 a 2.69,2.69 0 1 0 3.79,-0.34 A 2.68,2.68 0 0 0 483,223 Z"
       fill="#fbae17"
       id="path3247" />
    <path
       d="m 413.82,178.1 a 2.69,2.69 0 1 0 -1,-3.68 2.7,2.7 0 0 0 1,3.68 z"
       fill="#fbae17"
       id="path3249" />
    <path
       d="m 490.65,216.23 a 2.7,2.7 0 1 0 1,3.68 2.71,2.71 0 0 0 -1,-3.68 z"
       fill="#fbae17"
       id="path3251" />
    <path
       d="m 411.09,185.06 a 2.69,2.69 0 1 0 -1.61,-3.45 2.69,2.69 0 0 0 1.61,3.45 z"
       fill="#fbae17"
       id="path3253" />
    <path
       d="m 493.37,209.27 a 2.7,2.7 0 1 0 1.61,3.46 2.7,2.7 0 0 0 -1.61,-3.46 z"
       fill="#fbae17"
       id="path3255" />
    <path
       d="m 409.61,192.39 a 2.7,2.7 0 1 0 -2.18,-3.12 2.7,2.7 0 0 0 2.18,3.12 z"
       fill="#fbae17"
       id="path3257" />
    <path
       d="m 494.85,202 a 2.69,2.69 0 1 0 2.18,3.12 2.69,2.69 0 0 0 -2.18,-3.12 z"
       fill="#fbae17"
       id="path3259" />
    <path
       d="m 409.43,199.86 a 2.7,2.7 0 1 0 -2.69,-2.69 2.69,2.69 0 0 0 2.69,2.69 z"
       fill="#fbae17"
       id="path3261" />
    <path
       d="m 495,194.47 a 2.7,2.7 0 1 0 2.69,2.7 2.7,2.7 0 0 0 -2.69,-2.7 z"
       fill="#fbae17"
       id="path3263" />
    <path
       d="m 410.55,207.25 a 2.69,2.69 0 1 0 -3.12,-2.18 2.69,2.69 0 0 0 3.12,2.18 z"
       fill="#fbae17"
       id="path3265" />
    <path
       d="m 493.92,187.08 a 2.7,2.7 0 1 0 3.12,2.19 2.69,2.69 0 0 0 -3.12,-2.19 z"
       fill="#fbae17"
       id="path3267" />
    <path
       d="m 414.54,210.88 a 2.69,2.69 0 1 0 -1.6,3.45 2.68,2.68 0 0 0 1.6,-3.45 z"
       fill="#fbae17"
       id="path3269" />
    <path
       d="m 489.92,183.45 a 2.69,2.69 0 1 0 1.61,-3.45 2.69,2.69 0 0 0 -1.61,3.45 z"
       fill="#fbae17"
       id="path3271" />
    <path
       d="m 417.5,217.22 a 2.69,2.69 0 1 0 -1,3.68 2.7,2.7 0 0 0 1,-3.68 z"
       fill="#fbae17"
       id="path3273" />
    <path
       d="m 487,177.11 a 2.69,2.69 0 1 0 1,-3.68 2.7,2.7 0 0 0 -1,3.68 z"
       fill="#fbae17"
       id="path3275" />
    <path
       d="m 421.51,223 a 2.69,2.69 0 1 0 -0.33,3.79 2.7,2.7 0 0 0 0.33,-3.79 z"
       fill="#fbae17"
       id="path3277" />
    <path
       d="m 483,171.38 a 2.69,2.69 0 1 0 0.34,-3.79 2.71,2.71 0 0 0 -0.34,3.79 z"
       fill="#fbae17"
       id="path3279" />
    <path
       d="m 422.66,228.22 a 2.69,2.69 0 1 0 3.79,-0.33 2.68,2.68 0 0 0 -3.79,0.33 z"
       fill="#fbae17"
       id="path3281" />
    <path
       d="m 481.81,166.11 a 2.72,2.72 0 0 0 0.61,-1.87 l -5.35,0.4 a 2.69,2.69 0 0 0 4.74,1.47 z"
       fill="#fbae17"
       id="path3283" />
    <path
       d="m 429.49,236.56 a 2.69,2.69 0 1 0 -1,-3.68 2.68,2.68 0 0 0 1,3.68 z"
       fill="#fbae17"
       id="path3285" />
    <path
       d="m 436.67,239.91 a 2.69,2.69 0 1 0 -1.61,-3.45 2.69,2.69 0 0 0 1.61,3.45 z"
       fill="#fbae17"
       id="path3287" />
    <path
       d="m 444.33,242 a 2.7,2.7 0 1 0 -2.18,-3.12 2.7,2.7 0 0 0 2.18,3.12 z"
       fill="#fbae17"
       id="path3289" />
    <path
       d="m 394.63,242.53 a 12.24,12.24 0 0 0 -12.24,12.24 c 0,0.41 0,0.82 0.06,1.22 a 111.57,111.57 0 0 0 12.18,8.46 c 1.18,0.7 2.37,1.37 3.57,2 a 12.24,12.24 0 0 0 -3.57,-24 z m 0,18.28 a 6,6 0 1 1 6,-6 6,6 0 0 1 -6,6 z"
       fill="#fbae17"
       id="path3291" />
    <path
       d="m 452.23,266.87 a 2.7,2.7 0 1 0 2.69,2.7 2.69,2.69 0 0 0 -2.69,-2.7 z"
       fill="#fbae17"
       id="path3293" />
    <path
       d="m 444.33,267.56 a 2.7,2.7 0 1 0 3.12,2.19 2.69,2.69 0 0 0 -3.12,-2.19 z"
       fill="#fbae17"
       id="path3295" />
    <path
       d="m 436.67,269.62 a 2.69,2.69 0 1 0 3.45,1.61 2.69,2.69 0 0 0 -3.45,-1.61 z"
       fill="#fbae17"
       id="path3297" />
    <path
       d="m 429.48,273 a 2.69,2.69 0 1 0 3.68,1 2.7,2.7 0 0 0 -3.68,-1 z"
       fill="#fbae17"
       id="path3299" />
    <path
       d="m 475,273 a 2.71,2.71 0 1 0 -2.18,4.85 c 0.88,-0.18 1.76,-0.36 2.63,-0.56 a 2.78,2.78 0 0 0 0.53,-0.6 A 2.7,2.7 0 0 0 475,273 Z"
       fill="#fbae17"
       id="path3301" />
    <path
       d="m 467.79,269.61 a 2.7,2.7 0 1 0 1.61,3.46 2.7,2.7 0 0 0 -1.61,-3.46 z"
       fill="#fbae17"
       id="path3303" />
    <path
       d="m 460.13,267.56 a 2.7,2.7 0 1 0 2.19,3.12 2.69,2.69 0 0 0 -2.19,-3.12 z"
       fill="#fbae17"
       id="path3305" />
    <path
       d="m 410.42,128 a 44.45,44.45 0 0 0 -2.28,-8.23 c -1.12,-2.83 -2.26,-5.74 -4.27,-8.07 -1.77,-1.91 -4.62,-2.17 -7,-1.73 -4.82,0.94 -9.07,3.78 -12.55,7.15 a 25.9,25.9 0 0 0 -6.77,10.71 c -0.67,2.38 -0.84,5.13 0.5,7.32 a 12.74,12.74 0 0 0 4.19,3.3 45.4,45.4 0 0 0 15.08,5.06 z"
       fill="#fdffe9"
       id="path3307" />
    <path
       d="m 398.7,119.1 a 9.28,9.28 0 0 0 -6.21,1.2 13.22,13.22 0 0 0 -5.7,6 5.59,5.59 0 0 0 -0.11,4.79 12.59,12.59 0 0 0 3.55,3.1 c 3,1.87 6.32,3.64 9.94,3.6 1.61,0.13 2.56,-1.3 3.55,-2.31 0.92,-2.13 0.65,-4.57 0.27,-6.8 a 25.34,25.34 0 0 0 -2.48,-7.37 4,4 0 0 0 -2.81,-2.21 z"
       fill="#d1cfbf"
       opacity="0.8"
       id="path3309" />
    <path
       d="m 504.43,144.77 a 45.36,45.36 0 0 0 15.19,-4.7 12.63,12.63 0 0 0 4.27,-3.2 c 1.4,-2.15 1.29,-4.91 0.68,-7.31 a 26,26 0 0 0 -6.52,-10.86 c -3.4,-3.46 -7.57,-6.4 -12.36,-7.45 -2.42,-0.5 -5.28,-0.3 -7.09,1.56 a 27.53,27.53 0 0 0 -4.46,8 44.2,44.2 0 0 0 -2.47,8.17 z"
       fill="#fdffe9"
       id="path3311" />
    <path
       d="m 500.73,122.47 a 25.32,25.32 0 0 0 -2.65,7.31 c -0.44,2.21 -0.76,4.64 0.1,6.8 1,1 1.89,2.49 3.5,2.39 3.61,0.13 7,-1.56 10,-3.36 a 12.46,12.46 0 0 0 3.63,-3 5.56,5.56 0 0 0 0,-4.78 13.21,13.21 0 0 0 -5.55,-6.11 9.28,9.28 0 0 0 -6.19,-1.35 4,4 0 0 0 -2.84,2.1 z"
       fill="#d1cfbf"
       opacity="0.8"
       id="path3313" />
    <path
       d="m 497,196 c 18.68,-12.45 21.92,-40.86 7.25,-59.43 l -3,-3.78 c -25.89,-32.77 -73,-33.49 -99.81,-1.52 l -3.23,3.85 c -19.06,22.69 -10.13,50 4.79,59.88 29.75,19.7 65.16,20.22 94,1 z"
       fill="#fdffe9"
       id="path3315" />
    <path
       d="m 449.59,188.78 v 0 c -12.92,-0.11 -14.48,-10.84 -14.48,-18.84 v -12.1 a 14.48,14.48 0 0 1 14.48,-14.48 v 0 a 14.48,14.48 0 0 1 14.48,14.48 v 12.1 c 0,8 -3.74,18.06 -14.48,18.84 z"
       fill="#d1cfbf"
       opacity="0.8"
       id="path3317" />
    <path
       d="m 450.9,166.07 0.08,-5.2 h -1.79 l -0.08,5.21 c 0.3,0 0.57,0.07 0.89,0.07 0.32,0 0.59,-0.07 0.9,-0.08 z"
       fill="#393229"
       id="path3319" />
    <path
       d="m 460.19,169.55 a 0.89,0.89 0 0 0 -0.93,0.85 l -0.14,3.64 a 9.88,9.88 0 0 1 -3.95,7.58 9.25,9.25 0 0 1 -4.59,1.79 l 0.06,-3.82 0.26,-17.09 c -0.31,0 -0.59,0.06 -0.9,0.06 -0.31,0 -0.59,-0.05 -0.89,-0.07 l -0.31,20.95 h -0.37 a 9.37,9.37 0 0 1 -4.52,-1.81 10.27,10.27 0 0 1 -1.22,-1.07 10.07,10.07 0 0 1 -2.77,-7.41 l 0.11,-2.68 a 0.89,0.89 0 0 0 -0.85,-0.93 0.93,0.93 0 0 0 -0.93,0.86 l -0.11,2.67 a 12,12 0 0 0 3.15,8.59 1.47,1.47 0 0 0 0.1,0.13 11.3,11.3 0 0 0 7,3.48 c 0.34,0 0.69,0.06 1,0.07 h 0.11 c 0.17,0 0.32,0 0.48,0 a 11.13,11.13 0 0 0 7.85,-3.71 11.83,11.83 0 0 0 3,-7.45 l 0.14,-3.64 a 0.88,0.88 0 0 0 -0.78,-0.99 z"
       fill="#171717"
       id="path3321" />
    <path
       d="m 444.86,147.82 c -9.19,4.16 -8.2,17.51 4.25,18.23 h 1.79 c 4.92,-0.27 7.57,-2.92 8.36,-6.22 1.66,-6.83 -4.63,-16.42 -14.4,-12.01 z"
       fill="#171717"
       id="path3323" />
    <path
       d="m 493.69,159.09 c -0.06,-3.41 -4.49,-6.11 -9.91,-6 -5.42,0.11 -9.75,2.93 -9.69,6.34 0.06,3.41 4.49,6.11 9.9,6 5.41,-0.11 9.75,-2.93 9.7,-6.34 z"
       fill="#f399c0"
       id="path3325" />
    <path
       d="m 424.72,159.17 c -0.15,-3.41 -4.64,-6 -10.05,-5.8 -5.41,0.2 -9.68,3.14 -9.55,6.55 0.13,3.41 4.64,6 10.05,5.8 5.41,-0.2 9.68,-3.14 9.55,-6.55 z"
       fill="#f399c0"
       id="path3327" />
    <path
       d="m 476.47,149 c -3.3,-0.82 -5.79,-3.29 -6,-6.25 l -0.15,-1.95 a 1,1 0 0 1 0.87,-1 0.94,0.94 0 0 1 1,0.87 l 0.14,1.94 c 0.19,2.59 3.06,4.74 6.38,4.8 a 6.56,6.56 0 0 0 4.91,-1.86 3.84,3.84 0 0 0 1.11,-3 l -0.1,-1.43 a 0.94,0.94 0 0 1 1.87,-0.14 l 0.11,1.43 a 5.78,5.78 0 0 1 -1.63,4.42 8.4,8.4 0 0 1 -6.3,2.45 9.51,9.51 0 0 1 -2.21,-0.28 z"
       fill="#171717"
       id="path3329" />
    <path
       d="m 421.51,149.23 c -3.3,-0.82 -5.78,-3.29 -6,-6.26 l -0.14,-1.94 a 0.94,0.94 0 0 1 1.87,-0.13 l 0.14,1.94 c 0.2,2.59 3.06,4.75 6.39,4.8 a 6.57,6.57 0 0 0 4.9,-1.86 3.89,3.89 0 0 0 1.12,-3 l -0.11,-1.43 a 0.94260278,0.94260278 0 1 1 1.88,-0.14 l 0.1,1.43 a 5.81,5.81 0 0 1 -1.62,4.42 8.43,8.43 0 0 1 -6.3,2.45 10.8,10.8 0 0 1 -2.23,-0.28 z"
       fill="#171717"
       id="path3331" />
  </g>
</svg>
