<?xml version="1.0" encoding="UTF-8" standalone="no"?>
<svg
   xmlns:dc="http://purl.org/dc/elements/1.1/"
   xmlns:cc="http://creativecommons.org/ns#"
   xmlns:rdf="http://www.w3.org/1999/02/22-rdf-syntax-ns#"
   xmlns:svg="http://www.w3.org/2000/svg"
   xmlns="http://www.w3.org/2000/svg"
   xmlns:sodipodi="http://sodipodi.sourceforge.net/DTD/sodipodi-0.dtd"
   xmlns:inkscape="http://www.inkscape.org/namespaces/inkscape"
   id="cute_critters"
   data-name="cute critters"
   viewBox="0 0 220 220"
   version="1.1"
   sodipodi:docname="rabbit.svg"
   width="220"
   height="220"
   inkscape:version="1.0.2 (e86c870879, 2021-01-15, custom)">
  <metadata
     id="metadata3658">
    <rdf:RDF>
      <cc:Work
         rdf:about="">
        <dc:format>image/svg+xml</dc:format>
        <dc:type
           rdf:resource="http://purl.org/dc/dcmitype/StillImage" />
      </cc:Work>
    </rdf:RDF>
  </metadata>
  <defs
     id="defs3656" />
  <sodipodi:namedview
     pagecolor="#ffffff"
     bordercolor="#666666"
     borderopacity="1"
     objecttolerance="10"
     gridtolerance="10"
     guidetolerance="10"
     inkscape:pageopacity="0"
     inkscape:pageshadow="2"
     inkscape:window-width="855"
     inkscape:window-height="480"
     id="namedview3654"
     showgrid="false"
     inkscape:zoom="0.88888889"
     inkscape:cx="389"
     inkscape:cy="390"
     inkscape:window-x="0"
     inkscape:window-y="0"
     inkscape:window-maximized="0"
     inkscape:current-layer="cute_critters" />
  <g
     id="rabbit"
     transform="translate(-61,-60)">
    <path
       d="M 281,170 A 110,110 0 1 1 171,60 110,110 0 0 1 281,170"
       fill="#fbae17"
       id="path3570" />
    <path
       d="m 225.57,224.73 q 1.17,1.71 2.36,3.68 -1.19,-1.96 -2.36,-3.68 z"
       fill="#019678"
       id="path3572" />
    <path
       d="m 223.31,221.54 1,1.43 z"
       fill="#019678"
       id="path3574" />
    <path
       d="m 108.65,241.62 c -0.35,1 -0.68,2 -1,3.1 0.35,-1.06 0.65,-2.09 1,-3.1 z"
       fill="#019678"
       id="path3576" />
    <path
       d="m 119.35,223.06 c -0.68,0.83 -1.36,1.71 -2.06,2.65 0.71,-0.94 1.38,-1.82 2.06,-2.65 z"
       fill="#019678"
       id="path3578" />
    <path
       d="m 106.85,248.31 q 0.33,-1.74 0.78,-3.39 -0.45,1.65 -0.78,3.39 z"
       fill="#019678"
       id="path3580" />
    <path
       d="m 233.6,240.94 v 0 c -0.37,-1.2 -0.78,-2.36 -1.22,-3.48 -0.58,-1.5 -1.22,-2.9 -1.89,-4.26 -0.82,-1.69 -1.68,-3.3 -2.56,-4.78 v 0 c -6.91,6.45 -18.7,10 -23.6,19.74 -7.12,-14.15 -28.87,-15.26 -28.87,-31.21 h 8.87 c 0,11.05 15.07,11.82 20,21.62 4.16,-8.25 15.45,-10.12 18.93,-17.08 l 0.05,0.06 -0.05,-0.06 -0.93,-1.24 -0.18,-0.24 -0.71,-0.92 c -0.61,-0.79 -1.16,-1.51 -1.63,-2.14 a 9.84,9.84 0 0 1 -1.65,-2.67 c -1.36,-4.94 4,-54.16 -47.18,-54.16 -51.18,0 -43.31,49.22 -44.67,54.16 a 9.33,9.33 0 0 1 -1.8,2.67 c -0.63,0.75 -1.39,1.62 -2.23,2.6 l -1.19,1.4 -0.21,0.24 c -0.44,0.52 -0.88,1.06 -1.35,1.64 -0.06,0.07 -0.12,0.16 -0.18,0.24 a 2.23,2.23 0 0 1 0.19,-0.24 c 4.17,5.9 14.25,8.05 18.13,15.74 4.93,-9.8 20,-10.57 20,-21.62 h 8.87 c 0,15.95 -21.75,17.06 -28.87,31.21 -4.71,-9.35 -15.8,-13 -22.78,-19 v 0 c -0.55,0.84 -1.09,1.71 -1.63,2.62 l -0.1,0.17 c -0.54,0.92 -1.06,1.87 -1.57,2.85 v 0 c -0.47,0.9 -0.91,1.85 -1.34,2.81 -0.12,0.27 -0.24,0.55 -0.35,0.83 -0.31,0.73 -0.6,1.46 -0.88,2.22 -0.08,0.21 -0.17,0.4 -0.25,0.62 -0.08,0.22 -0.07,0.23 -0.11,0.35 0,-0.12 0.09,-0.23 0.13,-0.34 8.92,8.14 24.43,12.41 24.43,25.66 a 14.47,14.47 0 0 1 -1.2,5.92 107.38,107.38 0 0 0 14.2,4.3 14.5,14.5 0 0 1 -4.09,-10.22 c 0,-15.94 22.48,-18.89 28.88,-31.21 6.4,12.32 28.88,15.27 28.88,31.21 a 14.5,14.5 0 0 1 -4.09,10.22 107.38,107.38 0 0 0 14.2,-4.3 14.47,14.47 0 0 1 -1.2,-5.92 c -0.01,-13.45 15.95,-17.65 24.8,-26.01 z"
       fill="#019678"
       id="path3582" />
    <path
       d="m 106.81,248.58 a 2.51,2.51 0 0 1 0,-0.27 l -0.06,0.25 c -0.19,1 -0.34,2 -0.46,3.09 0,0.14 0,0.28 0,0.42 -0.12,1.07 -0.2,2.16 -0.24,3.28 0,0 0,0.07 0,0.1 0,1 0,2.07 0,3.12 v 0.18 a 110,110 0 0 0 18,10.73 10.72,10.72 0 0 0 0.3,-2.54 c -0.02,-9.49 -11.49,-12.34 -17.54,-18.36 z"
       fill="#019678"
       id="path3584" />
    <path
       d="m 171,245.33 c -4.43,8.53 -20,10.57 -20,21.61 0,6.4 5.06,9.35 10.27,12.61 3.21,0.28 6.45,0.45 9.73,0.45 3.28,0 6.52,-0.17 9.73,-0.45 5.27,-3.26 10.27,-6.21 10.27,-12.61 0,-11.04 -15.56,-13.08 -20,-21.61 z"
       fill="#019678"
       id="path3586" />
    <path
       d="m 236,255.28 c 0,-1.11 -0.09,-2.19 -0.18,-3.25 0,-0.19 0,-0.38 -0.05,-0.56 -0.1,-1 -0.22,-2.06 -0.38,-3.06 v 0 c -6,6.14 -17.7,9 -17.7,18.53 a 10.72,10.72 0 0 0 0.3,2.54 110.44,110.44 0 0 0 18,-10.71 v -0.24 c 0.05,-1.08 0.07,-2.15 0,-3.19 0.01,-0.02 0.01,-0.04 0.01,-0.06 z"
       fill="#019678"
       id="path3588" />
    <path
       d="m 166.54,216.94 h -8.87 c 0,11.05 -15.07,11.82 -20,21.62 -3.88,-7.7 -14,-9.84 -18.14,-15.74 -0.73,0.9 -1.48,1.86 -2.24,2.89 l -0.1,0.13 c -0.76,1 -1.54,2.13 -2.3,3.29 v 0 c 7,6 18.07,9.66 22.78,19 7.12,-14.13 28.87,-15.24 28.87,-31.19 z"
       fill="#36b1a7"
       id="path3590" />
    <path
       d="m 227.93,228.41 v 0 q -1.19,-2 -2.36,-3.68 l -0.07,-0.11 c -0.35,-0.52 -0.71,-1 -1.06,-1.52 l -0.09,-0.13 c -0.37,-0.52 -0.73,-1 -1.09,-1.49 -3.48,7 -14.77,8.83 -18.93,17.08 -4.93,-9.8 -20,-10.57 -20,-21.62 h -8.87 c 0,15.95 21.75,17.06 28.87,31.21 4.9,-9.72 16.67,-13.29 23.6,-19.74 z"
       fill="#36b1a7"
       id="path3592" />
    <path
       d="m 108.76,241.27 c -0.39,1.11 -0.75,2.27 -1.08,3.45 0,0.06 0,0.13 -0.05,0.2 -0.32,1.18 -0.61,2.39 -0.84,3.64 6,6 17.54,8.88 17.54,18.38 a 10.72,10.72 0 0 1 -0.3,2.54 c 2.6,1.23 5.27,2.36 8,3.38 a 14.47,14.47 0 0 0 1.2,-5.92 c -0.02,-13.26 -15.55,-17.53 -24.47,-25.67 z"
       fill="#36b1a7"
       id="path3594" />
    <path
       d="m 171,235.73 c -6.4,12.32 -28.88,15.27 -28.88,31.21 a 14.5,14.5 0 0 0 4.09,10.22 109.65,109.65 0 0 0 15.06,2.39 C 156.06,276.29 151,273.34 151,266.94 c 0,-11 15.57,-13.08 20,-21.61 4.44,8.53 20,10.57 20,21.61 0,6.4 -5.05,9.35 -10.27,12.61 a 109.65,109.65 0 0 0 15.06,-2.39 14.5,14.5 0 0 0 4.09,-10.22 C 199.88,251 177.4,248.05 171,235.73 Z"
       fill="#36b1a7"
       id="path3596" />
    <path
       d="m 235.37,248.41 v 0 c -0.2,-1.29 -0.46,-2.54 -0.74,-3.75 a 0.94,0.94 0 0 1 0,-0.16 c -0.29,-1.22 -0.62,-2.41 -1,-3.56 v 0 c -8.85,8.36 -24.81,12.56 -24.81,26 a 14.47,14.47 0 0 0 1.2,5.92 c 2.71,-1 5.38,-2.15 8,-3.38 a 10.72,10.72 0 0 1 -0.3,-2.54 c -0.05,-9.58 11.65,-12.39 17.65,-18.53 z"
       fill="#36b1a7"
       id="path3598" />
    <path
       d="m 131.21,86.84 c 23.92,-8.44 26.6,56.86 24.44,62.82 -2.16,5.96 -54.93,-52.08 -24.44,-62.82 z"
       fill="#fdffe9"
       id="path3600" />
    <path
       d="m 133.66,97.93 c 9.85,-2.94 16.5,28 12.57,30 -3.93,2 -25.13,-26.25 -12.57,-30 z"
       fill="#f072ab"
       id="path3602" />
    <path
       d="m 210.79,86.84 c -23.92,-8.44 -26.6,56.86 -24.44,62.82 2.16,5.96 54.93,-52.08 24.44,-62.82 z"
       fill="#fdffe9"
       id="path3604" />
    <path
       d="m 208.34,97.93 c -9.85,-2.94 -16.5,28 -12.57,30 3.93,2 25.13,-26.25 12.57,-30 z"
       fill="#f072ab"
       id="path3606" />
    <path
       d="m 224.44,187 c 0,29.52 -23.93,49.44 -53.44,49.44 -29.51,0 -53.44,-19.93 -53.44,-49.44 0,-29.51 23.93,-47.43 53.44,-47.43 29.51,0 53.44,17.91 53.44,47.43 z"
       fill="#fdffe9"
       id="path3608" />
    <path
       d="m 181.34,210.27 a 9.38,9.38 0 0 1 -1.38,-0.11 c -5.06,-0.8 -10.09,-6.12 -9.88,-14.75 a 0.9,0.9 0 0 1 0.87,-0.83 0.85,0.85 0 0 1 0.83,0.87 c -0.18,7.65 4.11,12.34 8.45,13 3.7,0.59 6.8,-1.73 8.08,-6 a 0.85102879,0.85102879 0 1 1 1.63,0.49 c -1.37,4.58 -4.66,7.33 -8.6,7.33 z"
       fill="#171717"
       id="path3610" />
    <path
       d="m 160.66,210.27 c -3.94,0 -7.23,-2.75 -8.6,-7.33 a 0.85102879,0.85102879 0 1 1 1.63,-0.49 c 1.29,4.3 4.37,6.6 8.08,6 4.33,-0.69 8.63,-5.38 8.45,-13 a 0.85,0.85 0 0 1 1.7,0 c 0.21,8.63 -4.82,14 -9.89,14.75 a 9.14,9.14 0 0 1 -1.37,0.07 z"
       fill="#171717"
       id="path3612" />
    <ellipse
       cx="199.06"
       cy="188.42"
       rx="8.5900002"
       ry="7"
       fill="#ffb0d2"
       id="ellipse3614" />
    <ellipse
       cx="142.94"
       cy="188.42"
       rx="8.5900002"
       ry="7"
       fill="#ffb0d2"
       id="ellipse3616" />
    <path
       d="m 204.67,177.43 a 1,1 0 0 1 -1,-1 7.42,7.42 0 0 0 -14.83,0 1,1 0 0 1 -2,0 9.42,9.42 0 0 1 18.83,0 1,1 0 0 1 -1,1 z"
       fill="#171717"
       id="path3618" />
    <path
       d="m 154.16,177.43 a 1,1 0 0 1 -1,-1 7.42,7.42 0 0 0 -14.83,0 1,1 0 0 1 -2,0 9.42,9.42 0 0 1 18.83,0 1,1 0 0 1 -1,1 z"
       fill="#171717"
       id="path3620" />
    <path
       d="m 183.81,196.84 a 1.03,1.03 0 0 0 0,-2.06 1.03,1.03 0 0 0 0,2.06 z"
       fill="#f399c0"
       id="path3622" />
    <path
       d="m 187.77,199.24 a 1.03,1.03 0 0 0 0,-2.06 1.03,1.03 0 0 0 0,2.06 z"
       fill="#f399c0"
       id="path3624" />
    <path
       d="m 180.42,199.24 a 1.03,1.03 0 0 0 0,-2.06 1.03,1.03 0 0 0 0,2.06 z"
       fill="#f399c0"
       id="path3626" />
    <path
       d="m 183.81,201.76 a 1.03,1.03 0 0 0 0,-2.06 1.03,1.03 0 0 0 0,2.06 z"
       fill="#f399c0"
       id="path3628" />
    <path
       d="m 157.62,196.84 a 1.03,1.03 0 0 0 0,-2.06 1.03,1.03 0 0 0 0,2.06 z"
       fill="#f399c0"
       id="path3630" />
    <path
       d="m 161.58,199.24 a 1.03,1.03 0 0 0 0,-2.06 1.03,1.03 0 0 0 0,2.06 z"
       fill="#f399c0"
       id="path3632" />
    <path
       d="m 154.23,199.24 a 1.03,1.03 0 0 0 0,-2.06 1.03,1.03 0 0 0 0,2.06 z"
       fill="#f399c0"
       id="path3634" />
    <path
       d="m 157.62,201.76 a 1.03,1.03 0 0 0 0,-2.06 1.03,1.03 0 0 0 0,2.06 z"
       fill="#f399c0"
       id="path3636" />
    <path
       d="m 188.81,193.68 24.2,-4.41 -23.9,5.83 a 0.72,0.72 0 0 1 -0.88,-0.53 0.73,0.73 0 0 1 0.54,-0.88 z"
       fill="#f399c0"
       id="path3638" />
    <path
       d="m 189.39,201 20.74,6.29 -21.13,-4.91 a 0.72,0.72 0 0 1 -0.54,-0.87 0.72,0.72 0 0 1 0.87,-0.54 z"
       fill="#f399c0"
       id="path3640" />
    <path
       d="m 189,197.38 37,0.58 -37,0.88 a 0.73,0.73 0 1 1 0,-1.45 z"
       fill="#f399c0"
       id="path3642" />
    <path
       d="m 152.89,195.1 -23.89,-5.83 24.2,4.41 a 0.72,0.72 0 0 1 0.59,0.84 0.73,0.73 0 0 1 -0.85,0.59 z"
       fill="#f399c0"
       id="path3644" />
    <path
       d="m 153,202.38 -21.12,4.89 20.73,-6.27 a 0.73,0.73 0 1 1 0.42,1.39 z"
       fill="#f399c0"
       id="path3646" />
    <path
       d="m 153,198.84 -37,-0.84 37,-0.58 a 0.73,0.73 0 0 1 0.74,0.72 0.73,0.73 0 0 1 -0.71,0.74 z"
       fill="#f399c0"
       id="path3648" />
    <path
       d="m 170.86,200.47 c 4.07,-3 6.14,-4.69 7.47,-6.93 1.88,-3.16 0.81,-5.87 -1.5,-7 a 4.38,4.38 0 0 0 -5.8,2 4.41,4.41 0 0 0 -5.76,-2.16 c -2.33,1 -3.48,3.7 -1.69,6.91 1.27,2.32 3.29,4.07 7.28,7.18 z"
       fill="#f072ab"
       fill-rule="evenodd"
       id="path3650" />
  </g>
</svg>
