<?xml version="1.0" encoding="UTF-8" standalone="no"?>
<svg
   xmlns:dc="http://purl.org/dc/elements/1.1/"
   xmlns:cc="http://creativecommons.org/ns#"
   xmlns:rdf="http://www.w3.org/1999/02/22-rdf-syntax-ns#"
   xmlns:svg="http://www.w3.org/2000/svg"
   xmlns="http://www.w3.org/2000/svg"
   xmlns:sodipodi="http://sodipodi.sourceforge.net/DTD/sodipodi-0.dtd"
   xmlns:inkscape="http://www.inkscape.org/namespaces/inkscape"
   id="cute_critters"
   data-name="cute critters"
   viewBox="0 0 220 220"
   version="1.1"
   sodipodi:docname="raccoon.svg"
   width="220"
   height="220"
   inkscape:version="1.0.2 (e86c870879, 2021-01-15, custom)">
  <metadata
     id="metadata4066">
    <rdf:RDF>
      <cc:Work
         rdf:about="">
        <dc:format>image/svg+xml</dc:format>
        <dc:type
           rdf:resource="http://purl.org/dc/dcmitype/StillImage" />
      </cc:Work>
    </rdf:RDF>
  </metadata>
  <defs
     id="defs4064" />
  <sodipodi:namedview
     pagecolor="#ffffff"
     bordercolor="#666666"
     borderopacity="1"
     objecttolerance="10"
     gridtolerance="10"
     guidetolerance="10"
     inkscape:pageopacity="0"
     inkscape:pageshadow="2"
     inkscape:window-width="855"
     inkscape:window-height="480"
     id="namedview4062"
     showgrid="false"
     inkscape:zoom="0.88888889"
     inkscape:cx="-169"
     inkscape:cy="111"
     inkscape:window-x="0"
     inkscape:window-y="0"
     inkscape:window-maximized="0"
     inkscape:current-layer="cute_critters" />
  <g
     id="raccoon"
     transform="translate(-619,-339)">
    <circle
       cx="729"
       cy="449"
       r="110"
       fill="#36b1a7"
       id="circle3864" />
    <path
       d="m 707.48,525.82 a 60.91,60.91 0 0 0 -32.35,-29.75 c -23.55,-9.21 -9.12,-45.63 -17.33,-49.24 -8.21,-3.61 -57.09,30 -10.46,77.07 41.61,42 62.11,17.4 62.11,17.4 z"
       fill="#737077"
       id="path3866" />
    <path
       d="m 631,468.32 a 43.1,43.1 0 0 1 7.56,-11.1 82.14,82.14 0 0 0 22.09,5.54 90.6,90.6 0 0 0 0.52,12.75 109.69,109.69 0 0 1 -15,-2.47 111.16,111.16 0 0 1 -15.17,-4.72 z"
       fill="#b7b9bd"
       id="path3868" />
    <path
       d="m 635.62,506.85 c -0.5,0.06 -1,0.09 -1.51,0.14 a 50.94,50.94 0 0 1 -5.46,-13.24 82,82 0 0 0 35.52,-7.67 19.71,19.71 0 0 0 9.57,9.36 96.8,96.8 0 0 1 -20.38,8 111.65,111.65 0 0 1 -17.74,3.41 z"
       fill="#b7b9bd"
       id="path3870" />
    <path
       d="m 656.91,532.71 c -3.06,-2.55 -6.24,-5.44 -9.57,-8.8 -1.12,-1.14 -2.17,-2.26 -3.19,-3.38 A 81.77,81.77 0 0 0 690.6,505 a 62.57,62.57 0 0 1 9,8.74 c -7.47,6.41 -16.71,10.87 -25.82,14.24 a 111.88,111.88 0 0 1 -16.87,4.73 z"
       fill="#b7b9bd"
       id="path3872" />
    <path
       d="m 692,472 c 22.54,10.54 41.64,18.39 65.89,13 a 131.32,131.32 0 0 0 19.37,-5.88 190.73,190.73 0 0 1 24.38,52.44 109.89,109.89 0 0 1 -140,4.37 272.76,272.76 0 0 1 23.69,-58.25 c 0.04,-0.06 6.67,-5.62 6.67,-5.68 z"
       fill="#837f87"
       id="path3874" />
    <path
       d="m 664.61,526.12 c 43.49,7.3 91.18,-1.06 135.87,1.75 0.39,1.23 0.8,2.46 1.16,3.7 a 110.45,110.45 0 0 1 -15.32,11.3 c -37.72,-1.08 -77.16,4.26 -114.11,0.32 a 110.83,110.83 0 0 1 -10.56,-7.25 c 0.92,-3.29 1.92,-6.56 2.96,-9.82 z"
       fill="#171717"
       id="path3876" />
    <path
       d="m 685.34,477.69 c 0,-0.07 6.64,-5.63 6.66,-5.69 9.22,4.31 17.86,8.15 26.52,10.84 a 274.2,274.2 0 0 1 -34.82,-2.07 c 0.55,-1.03 1.08,-2.06 1.64,-3.08 z"
       fill="#171717"
       id="path3878" />
    <path
       d="m 670,510.87 q 3,-7.65 6.35,-15.11 c 35.68,5.3 74,0.65 111.14,0.6 q 4,7.63 7.29,15.61 c -41.41,-1.2 -84.85,5.33 -124.78,-1.1 z"
       fill="#171717"
       id="path3880" />
    <path
       d="m 777.26,479.13 c 0.43,0.64 0.84,1.31 1.26,2 l -7.32,0.21 c 2.04,-0.72 4.06,-1.43 6.06,-2.21 z"
       fill="#171717"
       id="path3882" />
    <path
       d="m 786.32,542.87 a 109.91,109.91 0 0 1 -114.11,0.32 c 36.95,3.94 76.39,-1.4 114.11,-0.32 z"
       fill="#3e3e3f"
       id="path3884" />
    <path
       d="m 676.31,495.76 q 3.47,-7.61 7.39,-15 a 274.2,274.2 0 0 0 34.82,2.07 c 12.51,3.89 25,5.35 39.37,2.17 a 128,128 0 0 0 13.31,-3.71 l 7.32,-0.21 q 4.83,7.43 8.93,15.27 c -37.11,0.06 -75.45,4.71 -111.14,-0.59 z"
       fill="#3e3e3f"
       id="path3886" />
    <path
       d="m 664.61,526.12 q 2.45,-7.71 5.35,-15.25 c 40,6.43 83.41,-0.1 124.78,1.1 2.15,5.2 4,10.51 5.74,15.9 -44.69,-2.81 -92.38,5.55 -135.87,-1.75 z"
       fill="#3e3e3f"
       id="path3888" />
    <path
       d="m 714.12,395.13 c 4.46,11.34 2.26,22.82 -4.91,25.64 -7.17,2.82 -16.6,-4.09 -21.06,-15.43 -4.46,-11.34 -2.26,-22.83 4.91,-25.65 7.17,-2.82 16.6,4.09 21.06,15.44 z"
       fill="#837f87"
       id="path3890" />
    <path
       d="m 713.09,404 c 3.91,9.9 2.77,19.62 -2.54,21.7 -5.31,2.08 -12.79,-4.26 -16.7,-14.17 -3.91,-9.91 -2.54,-19.7 2.55,-21.7 5.09,-2 12.78,4.27 16.69,14.17 z"
       fill="#b7b9bd"
       id="path3892" />
    <path
       d="m 770.66,406.17 c -8.39,8.83 -10.67,20.3 -5.09,25.61 5.58,5.31 16.92,2.45 25.32,-6.38 8.4,-8.83 10.68,-20.3 5.09,-25.61 -5.59,-5.31 -16.92,-2.45 -25.32,6.38 z"
       fill="#837f87"
       id="path3894" />
    <path
       d="m 768.56,413.34 c -7.35,7.7 -9.95,17.14 -5.81,21.06 4.14,3.92 13.45,0.86 20.79,-6.85 7.34,-7.71 10,-17.14 5.81,-21.06 -4.19,-3.92 -13.45,-0.86 -20.79,6.85 z"
       fill="#b7b9bd"
       id="path3896" />
    <path
       d="m 663.32,439.34 c -4.34,4.39 2.83,12 6.54,17.21 9,12.54 24.92,21.63 32.87,25.58 2.37,1.19 4,1.91 4.58,2.13 9.35,3.76 24.62,9.14 45,6.71 a 102.39,102.39 0 0 0 32.12,-9.65 79.11,79.11 0 0 0 7.41,-4 c 4.79,-2.92 16.1,-5.45 13.34,-10.45 -6.87,-12.42 -12.7,-42.78 -36.67,-61.6 a 52.53,52.53 0 0 0 -22.92,-10.09 56.9,56.9 0 0 0 -28.12,1.44 c -29.51,9.14 -46.77,39.85 -53.88,42.69 -0.13,0.02 -0.22,-0.03 -0.27,0.03 z"
       fill="#fdffe9"
       id="path3898" />
    <path
       d="m 717.42,396.61 a 90.93,90.93 0 0 1 9.73,26.68 c 2.85,14.37 4.3,29.32 2,45 a 26.16,26.16 0 0 1 4.68,0.4 c 4,-17 9.22,-31.76 17.51,-44.8 a 64.86,64.86 0 0 1 17.16,-18.61 52.53,52.53 0 0 0 -22.92,-10.09 56.9,56.9 0 0 0 -28.16,1.42 z"
       fill="#837f87"
       id="path3900" />
    <path
       d="m 750.14,464.4 a 78,78 0 0 0 2.12,26.6 102.39,102.39 0 0 0 32.12,-9.65 79.11,79.11 0 0 0 7.41,-4 71.93,71.93 0 0 0 -7.18,-18.06 c -4.09,-7.1 -10.93,-16.14 -19.16,-17.89 -11.79,-2.55 -14.52,14.43 -15.31,23 z"
       fill="#837f87"
       id="path3902" />
    <path
       d="m 669.86,456.55 c 9,12.54 24.92,21.63 32.87,25.58 a 78.93,78.93 0 0 0 12.5,-24.55 c 2.48,-8.24 6.34,-25 -5.52,-27.11 -8.29,-1.47 -18,4.33 -24.49,9.37 a 74.54,74.54 0 0 0 -15.36,16.71 z"
       fill="#837f87"
       id="path3904" />
    <path
       d="m 757.69,470.69 c -0.66,3.38 2.33,6.82 6.66,7.66 4.33,0.84 8.4,-1.21 9.06,-4.59 0.66,-3.38 -2.32,-6.81 -6.66,-7.66 -4.34,-0.85 -8.4,1.21 -9.06,4.59 z"
       fill="#f399c0"
       id="path3906" />
    <path
       d="m 689.92,457.46 c -0.66,3.38 2.32,6.81 6.66,7.65 4.34,0.84 8.39,-1.2 9,-4.59 0.61,-3.39 -2.32,-6.81 -6.66,-7.65 -4.34,-0.84 -8.34,1.2 -9,4.59 z"
       fill="#f399c0"
       id="path3908" />
    <path
       d="m 726.69,461.26 a 3.13,3.13 0 0 1 2.3,-0.79 4.34,4.34 0 0 1 0.61,0.06 l 1.61,0.31 4.7,0.92 1,0.19 a 4,4 0 0 1 0.85,0.28 3,3 0 0 1 1.57,1.49 2.08,2.08 0 0 1 -0.55,2.46 l -4.56,4 a 2.8,2.8 0 0 1 -1.08,0.56 h -0.13 a 4,4 0 0 1 -1.42,0.06 h -0.19 a 3.3,3.3 0 0 1 -2.37,-1.66 l -0.83,-1.64 v 0 l -1.9,-3.77 a 2.07,2.07 0 0 1 0.39,-2.47 z"
       fill="#171717"
       id="path3910" />
    <path
       d="m 721.59,477.63 a 7.48,7.48 0 0 0 1.44,0.14 8.67,8.67 0 0 0 8.52,-7.66 0.63,0.63 0 0 0 -0.48,-0.67 0.6,0.6 0 0 0 -0.67,0.48 7.54,7.54 0 0 1 -7.36,6.7 5.49,5.49 0 0 1 -5.59,-4.85 0.58124866,0.58124866 0 0 0 -1.15,0.17 6.55,6.55 0 0 0 5.29,5.69 z"
       fill="#171717"
       id="path3912" />
    <path
       d="m 736.7,480.58 a 6.53,6.53 0 0 0 7,-3.28 0.58053854,0.58053854 0 0 0 -1,-0.59 5.48,5.48 0 0 1 -7,2.39 7.56,7.56 0 0 1 -4.31,-9 0.57,0.57 0 0 0 -0.43,-0.69 0.57,0.57 0 0 0 -0.69,0.44 8.68,8.68 0 0 0 5,10.3 8.4,8.4 0 0 0 1.43,0.43 z"
       fill="#171717"
       id="path3914" />
    <path
       d="m 709.13,444 c -4.54,-5.12 -13.47,-1.13 -14.66,3 5,-2.24 9,-5 14.17,-2.43 0,-0.06 0.88,-0.14 0.49,-0.57 z"
       fill="#171717"
       id="path3916" />
    <path
       d="m 706.58,436.29 v 0 c 0.31,0 0.56,0.18 0.54,0.33 l -0.55,5.71 c 0,0.15 -0.27,0.25 -0.59,0.22 v 0 c -0.31,0 -0.55,-0.18 -0.54,-0.32 l 0.55,-5.72 c 0,-0.15 0.28,-0.25 0.59,-0.22 z m -5,0.32 v 0 c 0.31,0 0.58,0.05 0.6,0.2 l 0.65,5.7 c 0,0.15 -0.22,0.3 -0.53,0.34 v 0 c -0.32,0 -0.58,-0.06 -0.6,-0.21 l -0.65,-5.7 c 0,-0.15 0.22,-0.3 0.53,-0.33 z m -5.35,1.33 v 0 c 0.29,-0.13 0.57,-0.13 0.63,0 l 2.43,5.21 c 0.07,0.13 -0.11,0.35 -0.4,0.48 v 0 c -0.28,0.14 -0.56,0.13 -0.63,0 l -2.43,-5.2 c -0.06,-0.14 0.12,-0.35 0.4,-0.49 z"
       fill="#171717"
       fill-rule="evenodd"
       id="path3918" />
    <path
       d="m 760.86,453.84 c 6.23,-2.84 12.78,4.42 12.22,8.65 -3.72,-4.1 -6.2,-8.24 -12,-8 0.02,0.04 -0.75,-0.39 -0.22,-0.65 z"
       fill="#171717"
       id="path3920" />
    <path
       d="m 766.31,447.85 c 0.3,0.1 0.5,0.29 0.45,0.43 l -1.76,5.45 c -0.05,0.14 -0.33,0.18 -0.63,0.08 v 0 c -0.29,-0.1 -0.5,-0.3 -0.45,-0.44 l 1.81,-5.45 c 0.05,-0.14 0.33,-0.17 0.63,-0.07 z m 4.46,2.31 c 0.27,0.16 0.43,0.4 0.35,0.52 l -2.9,5 c -0.08,0.12 -0.36,0.1 -0.63,-0.06 v 0 c -0.27,-0.16 -0.43,-0.39 -0.35,-0.52 l 2.91,-4.95 c 0.07,-0.13 0.35,-0.1 0.62,0.05 z m 4.35,3.39 c 0.21,0.24 0.28,0.51 0.17,0.61 l -4.29,3.77 c -0.11,0.09 -0.37,0 -0.57,-0.25 v 0 c -0.21,-0.24 -0.28,-0.51 -0.17,-0.61 l 4.33,-3.77 c 0.11,-0.1 0.37,0 0.57,0.25 z"
       fill="#171717"
       fill-rule="evenodd"
       id="path3922" />
    <path
       d="m 755.33,408.77 a 0.29,0.29 0 0 0 0.26,-0.08 16.13,16.13 0 0 0 1.75,-2.31 c 0.3,-0.45 0.61,-0.92 0.94,-1.35 a 0.3,0.3 0 0 0 -0.06,-0.4 0.28,0.28 0 0 0 -0.4,0.05 c -0.34,0.45 -0.66,0.93 -1,1.38 a 16,16 0 0 1 -1.68,2.24 0.28,0.28 0 0 0 0,0.4 0.27,0.27 0 0 0 0.19,0.07 z"
       fill="#b7b9bd"
       id="path3924" />
    <path
       d="m 752.44,407.63 a 0.28,0.28 0 0 0 0.31,-0.16 c 0.14,-0.29 0.27,-0.58 0.4,-0.88 a 26.71,26.71 0 0 1 1.51,-3 0.27,0.27 0 0 0 -0.09,-0.39 0.28,0.28 0 0 0 -0.39,0.09 24.15,24.15 0 0 0 -1.55,3 c -0.13,0.29 -0.26,0.58 -0.4,0.87 a 0.3,0.3 0 0 0 0.14,0.38 z"
       fill="#b7b9bd"
       id="path3926" />
    <path
       d="m 749.47,406.86 a 0.3,0.3 0 0 0 0.33,-0.19 c 0.13,-0.4 0.25,-0.84 0.36,-1.29 a 8.91,8.91 0 0 1 1,-2.64 0.28,0.28 0 0 0 -0.08,-0.39 0.29,0.29 0 0 0 -0.4,0.08 9.66,9.66 0 0 0 -1,2.81 c -0.11,0.43 -0.21,0.86 -0.34,1.25 a 0.28,0.28 0 0 0 0.18,0.36 z"
       fill="#b7b9bd"
       id="path3928" />
    <path
       d="m 745.53,405.6 a 0.28,0.28 0 0 0 0.31,-0.15 13.43,13.43 0 0 0 0.89,-2.56 c 0.16,-0.57 0.32,-1.17 0.54,-1.73 a 0.28,0.28 0 0 0 -0.17,-0.37 0.29,0.29 0 0 0 -0.37,0.16 c -0.22,0.6 -0.39,1.2 -0.55,1.79 a 13.75,13.75 0 0 1 -0.85,2.46 0.28,0.28 0 0 0 0.13,0.38 z"
       fill="#b7b9bd"
       id="path3930" />
    <path
       d="m 742,404.78 v 0 a 0.25,0.25 0 0 0 0.32,-0.2 c 0.2,-1.37 0.4,-2.71 0.68,-4 a 0.28,0.28 0 0 0 -0.21,-0.34 v 0 a 0.3,0.3 0 0 0 -0.34,0.22 c -0.28,1.32 -0.48,2.67 -0.68,4 a 0.32,0.32 0 0 0 0.23,0.32 z"
       fill="#b7b9bd"
       id="path3932" />
    <path
       d="m 737.76,404 v 0 a 0.27,0.27 0 0 0 0.29,-0.27 c 0,-0.3 0,-0.61 0,-0.93 a 10.82,10.82 0 0 1 0.31,-3.19 0.27,0.27 0 0 0 -0.19,-0.35 0.28,0.28 0 0 0 -0.36,0.18 11.4,11.4 0 0 0 -0.33,3.36 c 0,0.31 0,0.62 0,0.91 a 0.29,0.29 0 0 0 0.28,0.29 z"
       fill="#b7b9bd"
       id="path3934" />
    <path
       d="m 732.83,404.55 v 0 a 0.29,0.29 0 0 0 0.3,-0.28 c 0,-0.56 0,-1.16 0,-1.74 a 11.28,11.28 0 0 1 0.1,-3 0.29,0.29 0 0 0 -0.22,-0.34 0.27,0.27 0 0 0 -0.34,0.22 12,12 0 0 0 -0.12,3.18 c 0,0.59 0.06,1.15 0.05,1.69 a 0.27,0.27 0 0 0 0.23,0.27 z"
       fill="#b7b9bd"
       id="path3936" />
    <path
       d="m 728.48,403.14 h 0.1 a 0.27,0.27 0 0 0 0.23,-0.33 c 0,-0.27 -0.09,-0.54 -0.13,-0.82 a 13.84,13.84 0 0 0 -0.65,-2.76 0.3,0.3 0 0 0 -0.37,-0.17 0.29,0.29 0 0 0 -0.17,0.37 13.81,13.81 0 0 1 0.62,2.65 c 0,0.28 0.09,0.56 0.14,0.83 a 0.28,0.28 0 0 0 0.23,0.23 z"
       fill="#b7b9bd"
       id="path3938" />
    <path
       d="m 756.31,403.74 a 0.28,0.28 0 0 0 0.27,-0.09 c 0.13,-0.13 0.25,-0.28 0.38,-0.42 a 11,11 0 0 1 1.3,-1.34 0.28,0.28 0 0 0 0,-0.4 0.29,0.29 0 0 0 -0.4,0 11.49,11.49 0 0 0 -1.38,1.41 c -0.12,0.14 -0.24,0.28 -0.37,0.41 a 0.3,0.3 0 0 0 0,0.41 0.31,0.31 0 0 0 0.2,0.02 z"
       fill="#b7b9bd"
       id="path3940" />
    <path
       d="m 752.48,402.41 a 0.28,0.28 0 0 0 0.31,-0.13 7.33,7.33 0 0 0 1,-2.34 0.27,0.27 0 0 0 -0.23,-0.32 0.28,0.28 0 0 0 -0.33,0.23 7.06,7.06 0 0 1 -0.89,2.14 0.29,0.29 0 0 0 0.1,0.39 z"
       fill="#b7b9bd"
       id="path3942" />
    <path
       d="m 749,401.25 a 0.28,0.28 0 0 0 0.33,-0.21 l 0.1,-0.41 a 5.6,5.6 0 0 1 1,-2.53 0.28363709,0.28363709 0 1 0 -0.43,-0.37 6.05,6.05 0 0 0 -1.15,2.77 l -0.1,0.41 a 0.29,0.29 0 0 0 0.22,0.34 z"
       fill="#b7b9bd"
       id="path3944" />
    <path
       d="m 744.28,400.52 a 0.29,0.29 0 0 0 0.34,-0.22 12.94,12.94 0 0 1 0.88,-2.57 0.29,0.29 0 0 0 -0.15,-0.38 0.28,0.28 0 0 0 -0.37,0.15 13.49,13.49 0 0 0 -0.93,2.69 0.29,0.29 0 0 0 0.23,0.33 z"
       fill="#b7b9bd"
       id="path3946" />
    <path
       d="m 740.09,399 a 0.3,0.3 0 0 0 0.34,-0.22 l 0.09,-0.46 c 0.16,-0.73 0.32,-1.48 0.54,-2.3 a 0.28,0.28 0 0 0 -0.2,-0.35 0.27,0.27 0 0 0 -0.35,0.2 c -0.23,0.84 -0.39,1.6 -0.55,2.33 l -0.09,0.46 a 0.28,0.28 0 0 0 0.22,0.34 z"
       fill="#b7b9bd"
       id="path3948" />
    <path
       d="m 735.52,399.49 v 0 a 0.28,0.28 0 0 0 0.3,-0.27 c 0,-0.35 0,-0.71 0,-1.07 a 9.27,9.27 0 0 1 0.12,-2 0.28,0.28 0 0 0 -0.22,-0.33 v 0 a 0.28,0.28 0 0 0 -0.33,0.22 9.29,9.29 0 0 0 -0.14,2.17 q 0,0.54 0,1.05 a 0.28,0.28 0 0 0 0.27,0.23 z"
       fill="#b7b9bd"
       id="path3950" />
    <path
       d="m 730.71,398.65 a 0.28,0.28 0 0 0 0.33,-0.22 6.83,6.83 0 0 0 0.12,-1.41 5.6,5.6 0 0 1 0.14,-1.43 0.28,0.28 0 0 0 -0.2,-0.35 0.28,0.28 0 0 0 -0.35,0.2 5.59,5.59 0 0 0 -0.16,1.57 6.74,6.74 0 0 1 -0.11,1.29 0.28,0.28 0 0 0 0.22,0.34 z"
       fill="#b7b9bd"
       id="path3952" />
    <path
       d="m 725.42,400.32 h 0.05 a 0.28,0.28 0 0 0 0.29,-0.28 7.2,7.2 0 0 0 -0.42,-2.22 c -0.07,-0.23 -0.14,-0.46 -0.2,-0.69 a 0.29,0.29 0 0 0 -0.56,0.15 c 0.06,0.23 0.14,0.46 0.21,0.71 a 6.89,6.89 0 0 1 0.4,2 0.28,0.28 0 0 0 0.23,0.33 z"
       fill="#b7b9bd"
       id="path3954" />
    <path
       d="m 759.29,406 a 0.27,0.27 0 0 0 0.26,-0.09 c 0.25,-0.26 0.48,-0.55 0.71,-0.84 a 7.73,7.73 0 0 1 1.25,-1.35 0.28,0.28 0 0 0 0,-0.4 0.28,0.28 0 0 0 -0.4,-0.05 7.77,7.77 0 0 0 -1.35,1.45 c -0.22,0.28 -0.45,0.56 -0.68,0.81 a 0.28,0.28 0 0 0 0,0.4 0.27,0.27 0 0 0 0.21,0.07 z"
       fill="#b7b9bd"
       id="path3956" />
    <path
       d="m 755.19,413 a 0.28,0.28 0 0 0 0.31,-0.15 c 0.1,-0.19 0.19,-0.41 0.28,-0.63 a 2.8,2.8 0 0 1 0.8,-1.26 0.29,0.29 0 0 0 0.07,-0.4 0.29,0.29 0 0 0 -0.4,-0.07 3.25,3.25 0 0 0 -1,1.52 c -0.08,0.2 -0.17,0.4 -0.26,0.58 a 0.29,0.29 0 0 0 0.12,0.39 z"
       fill="#b7b9bd"
       id="path3958" />
    <path
       d="m 751,412.81 a 0.28,0.28 0 0 0 0.33,-0.22 4,4 0 0 1 0.83,-2 0.28,0.28 0 0 0 0,-0.4 0.3,0.3 0 0 0 -0.41,0 4.31,4.31 0 0 0 -1,2.29 0.29,0.29 0 0 0 0.23,0.34 z"
       fill="#b7b9bd"
       id="path3960" />
    <path
       d="m 748,413.53 a 0.3,0.3 0 0 0 0.33,-0.18 c 0.21,-0.57 0.45,-1.12 0.69,-1.67 0.24,-0.55 0.57,-1.33 0.81,-2 a 0.28,0.28 0 0 0 -0.18,-0.36 0.27,0.27 0 0 0 -0.36,0.17 c -0.24,0.67 -0.52,1.33 -0.8,2 -0.28,0.67 -0.49,1.13 -0.7,1.7 a 0.29,0.29 0 0 0 0.17,0.37 z"
       fill="#b7b9bd"
       id="path3962" />
    <path
       d="m 748,418.67 a 0.3,0.3 0 0 0 0.32,-0.16 7.4,7.4 0 0 1 1.71,-2.56 0.28,0.28 0 0 0 0,-0.4 0.3,0.3 0 0 0 -0.41,0 8,8 0 0 0 -1.85,2.75 0.29,0.29 0 0 0 0.14,0.38 z"
       fill="#b7b9bd"
       id="path3964" />
    <path
       d="m 745.53,411.6 a 0.29,0.29 0 0 0 0.33,-0.2 c 0,-0.19 0.11,-0.39 0.16,-0.59 a 9.05,9.05 0 0 1 0.88,-2.33 0.29,0.29 0 0 0 -0.1,-0.39 0.3,0.3 0 0 0 -0.4,0.1 9.49,9.49 0 0 0 -0.93,2.47 c -0.06,0.19 -0.11,0.39 -0.16,0.58 a 0.27,0.27 0 0 0 0.19,0.35 z"
       fill="#b7b9bd"
       id="path3966" />
    <path
       d="m 744.67,418.49 a 0.28,0.28 0 0 0 0.29,-0.12 11.92,11.92 0 0 0 1.07,-2.05 l 0.05,-0.1 a 0.28,0.28 0 0 0 -0.15,-0.37 0.29,0.29 0 0 0 -0.38,0.14 v 0.1 a 12.3,12.3 0 0 1 -1,2 0.29,0.29 0 0 0 0.07,0.4 0.21,0.21 0 0 0 0.05,0 z"
       fill="#b7b9bd"
       id="path3968" />
    <path
       d="m 742.94,412.35 a 0.27,0.27 0 0 0 0.33,-0.2 c 0.42,-1.43 0.83,-2.87 1.24,-4.31 a 0.29,0.29 0 0 0 -0.56,-0.15 c -0.4,1.44 -0.81,2.87 -1.23,4.3 a 0.3,0.3 0 0 0 0.2,0.36 z"
       fill="#b7b9bd"
       id="path3970" />
    <path
       d="m 742.13,416.55 a 0.29,0.29 0 0 0 0.32,-0.2 l 0.18,-0.55 a 10.06,10.06 0 0 1 1,-2.4 0.29,0.29 0 0 0 -0.1,-0.39 0.28,0.28 0 0 0 -0.39,0.1 11.06,11.06 0 0 0 -1,2.52 l -0.17,0.55 a 0.28,0.28 0 0 0 0.18,0.36 z"
       fill="#b7b9bd"
       id="path3972" />
    <path
       d="m 739.74,409.31 h 0.07 a 0.27,0.27 0 0 0 0.27,-0.29 10.78,10.78 0 0 1 0.3,-2.52 l 0.09,-0.43 a 0.29,0.29 0 0 0 -0.23,-0.34 0.28,0.28 0 0 0 -0.33,0.23 l -0.09,0.43 a 10.67,10.67 0 0 0 -0.31,2.65 0.29,0.29 0 0 0 0.23,0.27 z"
       fill="#b7b9bd"
       id="path3974" />
    <path
       d="m 738.65,415.87 a 0.29,0.29 0 0 0 0.34,-0.23 l 0.76,-3.91 a 0.28,0.28 0 0 0 -0.22,-0.33 0.29,0.29 0 0 0 -0.34,0.22 l -0.76,3.91 a 0.29,0.29 0 0 0 0.22,0.34 z"
       fill="#b7b9bd"
       id="path3976" />
    <path
       d="m 735.79,409.6 v 0 a 0.28,0.28 0 0 0 0.33,-0.23 6.53,6.53 0 0 0 0,-1.82 5.35,5.35 0 0 1 0,-1.83 0.27,0.27 0 0 0 -0.2,-0.34 0.3,0.3 0 0 0 -0.35,0.2 5.74,5.74 0 0 0 0,2 6.22,6.22 0 0 1 0,1.67 0.28,0.28 0 0 0 0.22,0.35 z"
       fill="#b7b9bd"
       id="path3978" />
    <path
       d="m 735.52,415 a 0.3,0.3 0 0 0 0.33,-0.21 13.18,13.18 0 0 0 0.29,-2 15.22,15.22 0 0 1 0.2,-1.53 0.29,0.29 0 0 0 -0.23,-0.34 0.28,0.28 0 0 0 -0.33,0.23 c -0.1,0.52 -0.16,1.06 -0.21,1.59 a 14.42,14.42 0 0 1 -0.27,1.88 0.28,0.28 0 0 0 0.2,0.34 z"
       fill="#b7b9bd"
       id="path3980" />
    <path
       d="m 731.94,412.33 a 0.29,0.29 0 0 0 0.34,-0.21 6.09,6.09 0 0 0 -0.17,-2.42 8.58,8.58 0 0 1 -0.2,-1.22 0.3,0.3 0 0 0 -0.31,-0.27 0.29,0.29 0 0 0 -0.27,0.31 11.27,11.27 0 0 0 0.21,1.3 5.51,5.51 0 0 1 0.18,2.17 0.28,0.28 0 0 0 0.22,0.34 z"
       fill="#b7b9bd"
       id="path3982" />
    <path
       d="m 730.8,405.72 h 0.07 a 0.29,0.29 0 0 0 0.27,-0.3 4.57,4.57 0 0 0 -0.43,-1.48 c -0.09,-0.22 -0.18,-0.44 -0.25,-0.66 a 0.29,0.29 0 0 0 -0.36,-0.18 0.28,0.28 0 0 0 -0.19,0.36 c 0.08,0.23 0.17,0.47 0.27,0.7 a 4.21,4.21 0 0 1 0.39,1.29 0.27,0.27 0 0 0 0.23,0.27 z"
       fill="#b7b9bd"
       id="path3984" />
    <path
       d="m 728.88,414.05 h 0.06 a 0.28,0.28 0 0 0 0.28,-0.29 12.7,12.7 0 0 0 -0.3,-2.13 c 0,-0.24 -0.09,-0.47 -0.13,-0.7 a 0.29,0.29 0 0 0 -0.57,0.09 c 0,0.24 0.09,0.48 0.14,0.72 a 12.89,12.89 0 0 1 0.29,2 0.27,0.27 0 0 0 0.23,0.31 z"
       fill="#b7b9bd"
       id="path3986" />
    <path
       d="m 728.73,408.8 h 0.11 a 0.27,0.27 0 0 0 0.23,-0.33 13,13 0 0 0 -0.78,-2.62 0.29,0.29 0 1 0 -0.53,0.22 12.41,12.41 0 0 1 0.75,2.51 0.28,0.28 0 0 0 0.22,0.22 z"
       fill="#b7b9bd"
       id="path3988" />
    <path
       d="m 731,419.88 v 0 a 0.28,0.28 0 0 0 0.3,-0.27 c 0.05,-1.16 0.05,-2.33 0.06,-3.47 v -0.88 a 0.29,0.29 0 0 0 -0.58,0 v 0.88 c 0,1.13 0,2.3 -0.07,3.45 a 0.3,0.3 0 0 0 0.29,0.29 z"
       fill="#b7b9bd"
       id="path3990" />
    <path
       d="m 733.07,419.52 v 0 a 0.28,0.28 0 0 0 0.3,-0.27 19.82,19.82 0 0 1 0.35,-3.27 0.28,0.28 0 0 0 -0.22,-0.34 0.3,0.3 0 0 0 -0.34,0.22 20.07,20.07 0 0 0 -0.36,3.36 0.28,0.28 0 0 0 0.27,0.3 z"
       fill="#b7b9bd"
       id="path3992" />
    <path
       d="m 744.18,425 a 0.29,0.29 0 0 0 0.33,-0.19 c 0.06,-0.19 0.13,-0.42 0.19,-0.66 a 4.35,4.35 0 0 1 1.2,-2.38 0.28429738,0.28429738 0 0 0 -0.32,-0.47 4.66,4.66 0 0 0 -1.43,2.7 c -0.06,0.23 -0.12,0.44 -0.19,0.64 a 0.29,0.29 0 0 0 0.19,0.36 z"
       fill="#b7b9bd"
       id="path3994" />
    <path
       d="m 741.49,422.8 a 0.27,0.27 0 0 0 0.32,-0.18 c 0.17,-0.46 0.33,-0.94 0.48,-1.41 0.15,-0.47 0.4,-1.24 0.64,-1.84 a 0.28,0.28 0 0 0 -0.16,-0.37 0.28,0.28 0 0 0 -0.37,0.16 c -0.25,0.61 -0.45,1.25 -0.66,1.87 -0.21,0.62 -0.3,0.94 -0.47,1.4 a 0.28,0.28 0 0 0 0.17,0.36 z"
       fill="#b7b9bd"
       id="path3996" />
    <path
       d="m 739.09,422.14 a 0.28,0.28 0 0 0 0.33,-0.22 l 0.82,-4.2 a 0.29,0.29 0 0 0 -0.56,-0.11 l -0.82,4.2 a 0.28,0.28 0 0 0 0.23,0.33 z"
       fill="#b7b9bd"
       id="path3998" />
    <path
       d="m 736.64,421.18 v 0 a 0.28,0.28 0 0 0 0.32,-0.25 c 0,-0.19 0,-0.4 0.06,-0.62 a 4.84,4.84 0 0 1 0.6,-2.39 0.29,0.29 0 0 0 -0.06,-0.4 0.3,0.3 0 0 0 -0.4,0.06 5.24,5.24 0 0 0 -0.71,2.68 c 0,0.21 0,0.42 -0.06,0.61 a 0.29,0.29 0 0 0 0.25,0.31 z"
       fill="#b7b9bd"
       id="path4000" />
    <path
       d="m 733.2,424.86 a 0.28,0.28 0 0 0 0.33,-0.22 l 0.77,-3.92 a 0.29025851,0.29025851 0 0 0 -0.57,-0.11 l -0.76,3.92 a 0.28,0.28 0 0 0 0.23,0.33 z"
       fill="#b7b9bd"
       id="path4002" />
    <path
       d="m 730.86,425.86 v 0 a 0.28,0.28 0 0 0 0.29,-0.28 q 0,-0.46 0,-0.93 a 9.54,9.54 0 0 1 0.18,-2.45 0.29,0.29 0 0 0 -0.21,-0.35 0.3,0.3 0 0 0 -0.35,0.21 10.32,10.32 0 0 0 -0.19,2.59 c 0,0.31 0,0.62 0,0.92 a 0.3,0.3 0 0 0 0.28,0.29 z"
       fill="#b7b9bd"
       id="path4004" />
    <path
       d="m 740.52,429.77 a 0.27,0.27 0 0 0 0.32,-0.19 c 0,-0.14 0.1,-0.31 0.15,-0.48 0.26,-0.85 0.58,-1.9 1.33,-2.22 a 0.28429738,0.28429738 0 1 0 -0.23,-0.52 c -1,0.42 -1.35,1.61 -1.64,2.58 -0.05,0.16 -0.1,0.32 -0.15,0.46 a 0.28,0.28 0 0 0 0.18,0.36 z"
       fill="#b7b9bd"
       id="path4006" />
    <path
       d="m 738.79,429.63 a 0.28,0.28 0 0 0 0.33,-0.21 29.43,29.43 0 0 1 1.08,-3.53 0.29,0.29 0 0 0 -0.16,-0.37 0.29,0.29 0 0 0 -0.38,0.17 30,30 0 0 0 -1.09,3.59 0.29,0.29 0 0 0 0.21,0.35 z"
       fill="#b7b9bd"
       id="path4008" />
    <path
       d="m 736.92,427.72 v 0 a 0.28,0.28 0 0 0 0.31,-0.25 c 0,-0.17 0,-0.36 0,-0.55 a 5.51,5.51 0 0 1 0.64,-2.64 0.28,0.28 0 0 0 0,-0.4 0.29,0.29 0 0 0 -0.41,0.05 5.75,5.75 0 0 0 -0.76,2.94 c 0,0.19 0,0.37 0,0.54 a 0.29,0.29 0 0 0 0.22,0.31 z"
       fill="#b7b9bd"
       id="path4010" />
    <path
       d="m 734.67,429.79 a 0.29,0.29 0 0 0 0.34,-0.22 l 0.71,-3.64 a 0.29025851,0.29025851 0 0 0 -0.57,-0.11 l -0.71,3.64 a 0.28,0.28 0 0 0 0.23,0.33 z"
       fill="#b7b9bd"
       id="path4012" />
    <path
       d="m 737.35,436.51 a 0.3,0.3 0 0 0 0.31,-0.15 13.58,13.58 0 0 0 1.32,-3.7 0.28,0.28 0 0 0 -0.23,-0.33 v 0 a 0.29,0.29 0 0 0 -0.34,0.22 12.63,12.63 0 0 1 -1.26,3.54 0.29,0.29 0 0 0 0.12,0.39 z"
       fill="#b7b9bd"
       id="path4014" />
    <path
       d="m 736,436.53 a 0.29,0.29 0 0 0 0.33,-0.19 12.62,12.62 0 0 0 0.37,-1.59 9.19,9.19 0 0 1 0.5,-1.89 0.29,0.29 0 0 0 -0.15,-0.38 0.3,0.3 0 0 0 -0.38,0.15 9.55,9.55 0 0 0 -0.53,2 14.44,14.44 0 0 1 -0.35,1.51 0.28,0.28 0 0 0 0.18,0.36 z"
       fill="#b7b9bd"
       id="path4016" />
    <path
       d="m 733.44,437.09 a 0.28,0.28 0 0 0 0.33,-0.21 13.06,13.06 0 0 0 0.22,-2.23 v -0.48 a 0.3,0.3 0 0 0 -0.28,-0.3 0.28,0.28 0 0 0 -0.3,0.27 v 0.49 a 11.45,11.45 0 0 1 -0.2,2.12 0.29,0.29 0 0 0 0.22,0.34 z"
       fill="#b7b9bd"
       id="path4018" />
    <path
       d="m 732.3,431.94 a 0.29,0.29 0 0 0 0.33,-0.19 9.37,9.37 0 0 0 0.3,-2.8 c 0,-0.27 0,-0.54 0,-0.8 a 0.27,0.27 0 0 0 -0.28,-0.29 0.27,0.27 0 0 0 -0.29,0.27 c 0,0.27 0,0.54 0,0.82 a 9,9 0 0 1 -0.28,2.62 0.3,0.3 0 0 0 0.19,0.36 z"
       fill="#b7b9bd"
       id="path4020" />
    <path
       d="m 731.56,437.21 a 0.29,0.29 0 0 0 0.34,-0.22 11.83,11.83 0 0 0 0.17,-1.66 10.51,10.51 0 0 1 0.2,-1.74 0.28,0.28 0 0 0 -0.21,-0.34 0.27,0.27 0 0 0 -0.35,0.21 10.16,10.16 0 0 0 -0.21,1.83 12.06,12.06 0 0 1 -0.16,1.59 0.28,0.28 0 0 0 0.22,0.33 z"
       fill="#b7b9bd"
       id="path4022" />
    <path
       d="m 735.58,443.61 a 0.29,0.29 0 0 0 0.32,-0.2 c 0.09,-0.26 0.17,-0.55 0.25,-0.85 a 6.91,6.91 0 0 1 1.07,-2.56 0.28425341,0.28425341 0 1 0 -0.44,-0.36 7.29,7.29 0 0 0 -1.18,2.77 c -0.08,0.29 -0.16,0.57 -0.24,0.83 a 0.28,0.28 0 0 0 0.18,0.36 z"
       fill="#b7b9bd"
       id="path4024" />
    <path
       d="m 742.07,432.78 a 0.27,0.27 0 0 0 0.32,-0.17 c 0.17,-0.43 0.35,-0.85 0.53,-1.28 a 24.26,24.26 0 0 0 1,-2.7 0.27,0.27 0 0 0 -0.19,-0.35 0.28,0.28 0 0 0 -0.36,0.19 25.6,25.6 0 0 1 -1,2.64 c -0.18,0.43 -0.36,0.86 -0.53,1.29 a 0.28,0.28 0 0 0 0.16,0.37 z"
       fill="#b7b9bd"
       id="path4026" />
    <path
       d="m 739.88,437 a 0.27,0.27 0 0 0 0.32,-0.17 7.82,7.82 0 0 0 0.3,-0.86 3.91,3.91 0 0 1 1,-1.86 0.28425341,0.28425341 0 1 0 -0.36,-0.44 4.42,4.42 0 0 0 -1.14,2.13 7,7 0 0 1 -0.28,0.81 0.28,0.28 0 0 0 0.16,0.37 z"
       fill="#b7b9bd"
       id="path4028" />
    <path
       d="m 734,443.5 v 0 a 0.28,0.28 0 0 0 0.33,-0.23 c 0.06,-0.31 0.11,-0.65 0.16,-1 a 6.83,6.83 0 0 1 0.6,-2.43 0.29,0.29 0 0 0 -0.5,-0.28 7.34,7.34 0 0 0 -0.67,2.63 c -0.05,0.34 -0.09,0.67 -0.15,1 a 0.28,0.28 0 0 0 0.23,0.31 z"
       fill="#b7b9bd"
       id="path4030" />
    <path
       d="m 731.49,444.55 v 0 a 0.28,0.28 0 0 0 0.33,-0.23 21,21 0 0 0 0.3,-2.58 c 0.06,-0.68 0.11,-1.38 0.22,-2.06 a 0.29,0.29 0 0 0 -0.24,-0.33 0.29,0.29 0 0 0 -0.33,0.24 c -0.11,0.7 -0.16,1.41 -0.22,2.1 a 22,22 0 0 1 -0.29,2.53 0.28,0.28 0 0 0 0.23,0.33 z"
       fill="#b7b9bd"
       id="path4032" />
    <path
       d="m 735,449.88 a 0.28,0.28 0 0 0 0.33,-0.19 l 0.13,-0.45 a 26.41,26.41 0 0 1 1,-3.07 0.29,0.29 0 0 0 -0.46,-0.17 28.12,28.12 0 0 0 -1.06,3.13 l -0.13,0.44 a 0.3,0.3 0 0 0 0.19,0.36 z"
       fill="#b7b9bd"
       id="path4034" />
    <path
       d="m 734.06,447.37 a 0.31,0.31 0 0 0 0.34,-0.22 c 0.11,-0.6 0.26,-1.2 0.4,-1.77 l 0.18,-0.72 a 0.29,0.29 0 0 0 -0.56,-0.13 l -0.17,0.71 c -0.15,0.58 -0.3,1.19 -0.42,1.8 a 0.29,0.29 0 0 0 0.23,0.33 z"
       fill="#b7b9bd"
       id="path4036" />
    <path
       d="m 732.29,452 a 0.29,0.29 0 0 0 0.32,-0.17 16.33,16.33 0 0 0 0.84,-3.28 0.29,0.29 0 0 0 -0.23,-0.33 0.27,0.27 0 0 0 -0.33,0.23 16.7,16.7 0 0 1 -0.81,3.16 0.28,0.28 0 0 0 0.16,0.37 z"
       fill="#b7b9bd"
       id="path4038" />
    <path
       d="m 731.11,450 a 0.29,0.29 0 0 0 0.34,-0.22 q 0.13,-0.64 0.3,-1.29 c 0.15,-0.65 0.3,-1.3 0.43,-2 a 0.28,0.28 0 0 0 -0.22,-0.33 v 0 a 0.29,0.29 0 0 0 -0.34,0.22 c -0.13,0.65 -0.28,1.29 -0.43,1.94 -0.1,0.43 -0.21,0.86 -0.3,1.3 a 0.28,0.28 0 0 0 0.22,0.34 z"
       fill="#b7b9bd"
       id="path4040" />
    <path
       d="m 730.3,454.67 a 0.28,0.28 0 0 0 0.33,-0.22 9.74,9.74 0 0 0 0.18,-2.45 0.28,0.28 0 0 0 -0.29,-0.28 0.28,0.28 0 0 0 -0.28,0.29 9.47,9.47 0 0 1 -0.17,2.31 0.28,0.28 0 0 0 0.22,0.34 z"
       fill="#b7b9bd"
       id="path4042" />
    <path
       d="m 732.72,455.72 a 0.3,0.3 0 0 0 0.34,-0.22 6.57,6.57 0 0 1 1,-2.48 0.29,0.29 0 0 0 -0.06,-0.4 0.3,0.3 0 0 0 -0.4,0.05 7.65,7.65 0 0 0 -1.14,2.71 0.28,0.28 0 0 0 0.21,0.34 z"
       fill="#b7b9bd"
       id="path4044" />
    <path
       d="m 734.09,456.18 a 0.29,0.29 0 0 0 0.33,-0.18 c 0.14,-0.38 0.33,-0.76 0.51,-1.13 l 0.31,-0.62 a 0.29,0.29 0 0 0 -0.14,-0.38 0.29,0.29 0 0 0 -0.38,0.14 c -0.09,0.2 -0.2,0.4 -0.3,0.6 a 12.75,12.75 0 0 0 -0.54,1.19 0.28,0.28 0 0 0 0.17,0.37 z"
       fill="#b7b9bd"
       id="path4046" />
    <path
       d="m 738.22,444 a 0.3,0.3 0 0 0 0.33,-0.19 c 0.13,-0.38 0.27,-0.75 0.41,-1.13 a 30.54,30.54 0 0 0 1,-3 0.29,0.29 0 0 0 -0.21,-0.34 0.28,0.28 0 0 0 -0.35,0.2 26.94,26.94 0 0 1 -1,2.92 l -0.42,1.14 a 0.3,0.3 0 0 0 0.18,0.37 z"
       fill="#b7b9bd"
       id="path4048" />
    <path
       d="m 736,451.72 a 0.27,0.27 0 0 0 0.32,-0.18 c 0.08,-0.23 0.15,-0.47 0.23,-0.7 a 11.8,11.8 0 0 1 1.09,-2.66 0.28,0.28 0 0 0 -0.09,-0.39 0.3,0.3 0 0 0 -0.4,0.09 12.54,12.54 0 0 0 -1.15,2.78 c -0.07,0.24 -0.14,0.47 -0.22,0.69 a 0.3,0.3 0 0 0 0.18,0.37 z"
       fill="#b7b9bd"
       id="path4050" />
    <path
       d="m 751.29,417 a 0.29,0.29 0 0 0 0.32,-0.16 7.17,7.17 0 0 1 0.35,-0.67 6.14,6.14 0 0 0 0.75,-1.91 0.3,0.3 0 0 0 -0.25,-0.32 0.28,0.28 0 0 0 -0.32,0.25 5.49,5.49 0 0 1 -0.69,1.71 c -0.13,0.24 -0.26,0.47 -0.36,0.7 a 0.29,0.29 0 0 0 0.14,0.38 z"
       fill="#b7b9bd"
       id="path4052" />
    <path
       d="m 748,422.52 v 0 a 0.29,0.29 0 0 0 0.34,-0.23 6.66,6.66 0 0 1 0.81,-2.25 0.28469282,0.28469282 0 0 0 -0.49,-0.29 7.37,7.37 0 0 0 -0.89,2.44 0.29,0.29 0 0 0 0.23,0.33 z"
       fill="#b7b9bd"
       id="path4054" />
    <path
       d="m 745.7,427.69 a 0.3,0.3 0 0 0 0.31,-0.16 9.72,9.72 0 0 0 0.38,-1 8.23,8.23 0 0 1 0.53,-1.25 0.28217902,0.28217902 0 1 0 -0.49,-0.28 7.87,7.87 0 0 0 -0.58,1.34 c -0.11,0.31 -0.22,0.62 -0.36,0.92 a 0.29,0.29 0 0 0 0.14,0.38 z"
       fill="#b7b9bd"
       id="path4056" />
    <path
       d="m 741.14,439.57 a 0.3,0.3 0 0 0 0.33,-0.21 c 0,-0.19 0.1,-0.4 0.15,-0.61 a 4.9,4.9 0 0 1 0.82,-2.07 0.28,0.28 0 0 0 0,-0.4 0.28,0.28 0 0 0 -0.4,0 5.29,5.29 0 0 0 -1,2.32 c 0,0.2 -0.09,0.4 -0.14,0.59 a 0.27,0.27 0 0 0 0.2,0.35 z"
       fill="#b7b9bd"
       id="path4058" />
  </g>
</svg>
