<?xml version="1.0" encoding="UTF-8" standalone="no"?>
<svg
   xmlns:dc="http://purl.org/dc/elements/1.1/"
   xmlns:cc="http://creativecommons.org/ns#"
   xmlns:rdf="http://www.w3.org/1999/02/22-rdf-syntax-ns#"
   xmlns:svg="http://www.w3.org/2000/svg"
   xmlns="http://www.w3.org/2000/svg"
   xmlns:sodipodi="http://sodipodi.sourceforge.net/DTD/sodipodi-0.dtd"
   xmlns:inkscape="http://www.inkscape.org/namespaces/inkscape"
   id="cute_critters"
   data-name="cute critters"
   viewBox="0 0 220 220.00372"
   version="1.1"
   sodipodi:docname="rhino.svg"
   width="220"
   height="220.00372"
   inkscape:version="1.0.2 (e86c870879, 2021-01-15, custom)">
  <metadata
     id="metadata4190">
    <rdf:RDF>
      <cc:Work
         rdf:about="">
        <dc:format>image/svg+xml</dc:format>
        <dc:type
           rdf:resource="http://purl.org/dc/dcmitype/StillImage" />
      </cc:Work>
    </rdf:RDF>
  </metadata>
  <defs
     id="defs4188" />
  <sodipodi:namedview
     pagecolor="#ffffff"
     bordercolor="#666666"
     borderopacity="1"
     objecttolerance="10"
     gridtolerance="10"
     guidetolerance="10"
     inkscape:pageopacity="0"
     inkscape:pageshadow="2"
     inkscape:window-width="855"
     inkscape:window-height="480"
     id="namedview4186"
     showgrid="false"
     inkscape:zoom="0.88888889"
     inkscape:cx="391"
     inkscape:cy="-169"
     inkscape:window-x="0"
     inkscape:window-y="0"
     inkscape:window-maximized="0"
     inkscape:current-layer="cute_critters" />
  <g
     id="rhino"
     transform="translate(-59,-619)">
    <circle
       cx="169"
       cy="729"
       r="110"
       fill="#fbae17"
       id="circle4130" />
    <path
       d="M 227.31,787.45 A 76.59,76.59 0 0 0 220.2,774 H 211 L 200,800.46 189,774 H 149 L 138,800.46 127,774 h -9.49 a 65.8,65.8 0 0 0 -7.4,12.14 L 118,805 l -7.17,17.32 a 108.79,108.79 0 0 0 18.14,9.12 l 9.07,-21.9 10.96,26.46 -0.44,1.07 a 109.63,109.63 0 0 0 41,0 L 189,836 l 11,-26.46 9.07,21.9 a 109.56,109.56 0 0 0 18.14,-9.12 L 220,805 Z M 169,831.45 158,805 169,778.54 180,805 Z"
       fill="#584e8a"
       id="path4132" />
    <path
       d="m 110.15,786.14 a 144.5,144.5 0 0 0 -9.69,28.86 108.77,108.77 0 0 0 10.33,7.32 L 118,805 Z"
       fill="#ec1b34"
       id="path4134" />
    <polygon
       points="138,800.46 148.96,774 127.04,774 "
       fill="#ec1b34"
       id="polygon4136" />
    <path
       d="m 138,809.54 -9.07,21.9 a 109.92,109.92 0 0 0 19.59,5.63 L 149,836 Z"
       fill="#ec1b34"
       id="path4138" />
    <polygon
       points="179.96,805 169,778.54 158.04,805 169,831.46 "
       fill="#ec1b34"
       id="polygon4140" />
    <polygon
       points="200,800.46 210.96,774 189.04,774 "
       fill="#ec1b34"
       id="polygon4142" />
    <path
       d="m 189,836 0.44,1.07 a 109.92,109.92 0 0 0 19.59,-5.63 L 200,809.54 Z"
       fill="#ec1b34"
       id="path4144" />
    <path
       d="m 220,805 7.17,17.32 q 4.65,-2.91 9,-6.25 a 184.28,184.28 0 0 0 -8.88,-28.62 z"
       fill="#ec1b34"
       id="path4146" />
    <path
       d="m 150.4,691.54 c 1.21,-9.65 2.22,-29.68 -4.34,-35.75 -1.09,-1 -3,-2.23 -6.8,-1.32 -3.27,0.79 -5.22,2.32 -6.25,4.83 -3.52,8.62 4.62,25.77 9.19,33.69 z"
       fill="#f072ab"
       id="path4148" />
    <path
       d="m 140.12,658.13 c 2.61,-0.62 3.38,-0.09 3.83,0.32 4.44,4.11 4.73,19 3.55,30.41 l -3.6,0.71 c -5.24,-9.57 -10.3,-22.81 -7.85,-28.79 0.44,-1.06 1.3,-2 4,-2.63 h 0.09 z m -1.69,-6.58 c -22.47,5.31 2.18,45.12 2.18,45.12 l 12.67,-2.29 c 0,0 7.55,-48.12 -14.72,-42.86 z"
       fill="#584e8a"
       id="path4150" />
    <path
       d="m 197.15,693.34 c 4.67,-7.87 13,-24.93 9.61,-33.57 -1,-2.52 -2.93,-4.08 -6.08,-4.89 a 8.93,8.93 0 0 0 -4.28,-0.19 c -8.79,2.07 -8.87,24.53 -7.43,37.09 z"
       fill="#f072ab"
       id="path4152" />
    <path
       d="m 197.14,657.81 a 6,6 0 0 1 2.74,0.18 c 2.68,0.69 3.47,1.88 3.89,3 2.38,6 -2.88,19.32 -8.24,28.81 l -3.58,-0.68 a 110.12,110.12 0 0 1 -0.37,-14.55 c 0.58,-11.51 3.35,-16.2 5.56,-16.72 z m -11.06,36.69 12.65,2.41 c 0,0 25.11,-39.37 2.75,-45.14 a 12,12 0 0 0 -5.82,-0.21 c -15.22,3.6 -9.58,42.94 -9.58,42.94 z"
       fill="#584e8a"
       id="path4154" />
    <path
       d="m 169.32,672.31 c 54.58,0.34 49.92,79.3 51,87.39 2.22,17.32 -0.44,21.24 -51.28,20.92 -50.84,-0.32 -53.69,-6.39 -50.76,-23.85 1.29,-7.91 -3.54,-84.77 51.04,-84.46 z"
       fill="#584e8a"
       id="path4156" />
    <path
       d="m 112.53,766.69 c 0,20.31 42.19,26.63 56.47,26.63 14.28,0 56.47,-4.32 56.47,-26.63 0,-34.75 -42.19,-17.37 -56.47,-17.37 -14.28,0 -56.47,-17.38 -56.47,17.37 z"
       fill="#98a5d4"
       id="path4158" />
    <path
       d="m 133.29,754.67 a 14.47,14.47 0 0 0 3.3,9.18 c 3.13,3.92 8.13,6.8 14,8.73 a 63.25,63.25 0 0 0 19.37,2.9 c 8.65,0 17.22,-1.6 23.73,-5 a 22.76,22.76 0 0 0 7.95,-6.47 15.43,15.43 0 0 0 3.07,-9.36 h -1.93 a 13.49,13.49 0 0 1 -2.68,8.19 c -2.58,3.5 -6.94,6.2 -12.26,8 A 56.82,56.82 0 0 1 170,773.52 c -8.72,0 -17.53,-1.7 -24.06,-4.95 a 22.87,22.87 0 0 1 -7.81,-6 12.53,12.53 0 0 1 -2.87,-8 z"
       id="path4160" />
    <path
       d="m 144.82,751.7 a 5.62,5.62 0 0 0 -1.26,-11.09 5.9,5.9 0 0 0 -1.33,0.15 5.62,5.62 0 0 0 1.26,11.09 5.9,5.9 0 0 0 1.33,-0.15 z"
       id="path4162" />
    <path
       d="m 142.6,742.32 a 3.79,3.79 0 0 1 1,-0.1 4,4 0 0 1 0.9,7.92 4.32,4.32 0 0 1 -0.95,0.1 4,4 0 0 1 -2.83,-1.19 4,4 0 0 1 1.93,-6.73 z m -6.3,3.86 a 7.23,7.23 0 0 0 7.18,7.27 6.9,6.9 0 0 0 1.71,-0.19 7.23,7.23 0 0 0 -1.62,-14.26 7.41,7.41 0 0 0 -1.71,0.2 7.22,7.22 0 0 0 -5.56,6.98 z"
       fill="#98a5d4"
       id="path4164" />
    <path
       d="m 195.77,752.06 a 5.61,5.61 0 0 0 -1.26,-11.06 4.94,4.94 0 0 0 -1.33,0.15 5.62,5.62 0 0 0 1.26,11.08 5.9,5.9 0 0 0 1.33,-0.17 z"
       id="path4166" />
    <path
       d="m 193.55,742.69 a 3.74,3.74 0 0 1 0.95,-0.11 4,4 0 0 1 0.9,7.92 4.33,4.33 0 0 1 -1,0.11 4,4 0 0 1 -4,-4 4,4 0 0 1 3.09,-3.88 z m -6.3,3.86 a 7.23,7.23 0 0 0 7.18,7.27 7.41,7.41 0 0 0 1.71,-0.19 7.23,7.23 0 0 0 -1.62,-14.26 8,8 0 0 0 -1.71,0.19 7.23,7.23 0 0 0 -5.56,6.99 z"
       fill="#98a5d4"
       id="path4168" />
    <path
       d="m 153.1,742.68 c 0,-14.29 12.48,-49.39 15.9,-49.39 3.42,0 15.9,35.1 15.9,49.39 0,11.92 -8,15.55 -15.9,15.55 -7.9,0 -15.9,-3.63 -15.9,-15.55 z"
       fill="#f4f0df"
       fill-rule="evenodd"
       id="path4170" />
    <ellipse
       cx="203.35001"
       cy="756.79999"
       rx="5.9899998"
       ry="4.6599998"
       fill="#ffa7ca"
       id="ellipse4172" />
    <ellipse
       cx="134.89999"
       cy="756.79999"
       rx="5.9899998"
       ry="4.6599998"
       fill="#ffa7ca"
       id="ellipse4174" />
    <path
       d="m 188,713 c 5.16,-5.74 15.2,-1.17 16.52,3.45 -5.69,-2.57 -10.12,-5.73 -16,-2.84 0,-0.02 -0.99,-0.13 -0.52,-0.61 z"
       fill="#171717"
       id="path4176" />
    <path
       d="m 190.9,704.33 c 0.35,0 0.65,0.08 0.67,0.25 l 0.57,6.45 c 0,0.16 -0.26,0.33 -0.61,0.36 v 0 c -0.35,0 -0.65,-0.08 -0.66,-0.25 l -0.58,-6.45 c 0,-0.16 0.26,-0.33 0.61,-0.36 z m 5.66,0.39 c 0.35,0 0.62,0.22 0.6,0.38 l -0.78,6.43 c 0,0.16 -0.32,0.27 -0.67,0.22 v 0 c -0.35,0 -0.62,-0.21 -0.6,-0.38 l 0.78,-6.42 c 0,-0.17 0.32,-0.27 0.67,-0.23 z m 6,1.55 c 0.32,0.15 0.52,0.4 0.45,0.55 l -2.78,5.84 c -0.07,0.15 -0.39,0.16 -0.71,0 v 0 c -0.32,-0.15 -0.52,-0.39 -0.45,-0.55 l 2.78,-5.85 c 0.07,-0.14 0.39,-0.15 0.71,0 z"
       fill="#171717"
       fill-rule="evenodd"
       id="path4178" />
    <path
       d="m 150,713 c -5.16,-5.74 -15.2,-1.17 -16.52,3.45 5.69,-2.57 10.12,-5.73 16,-2.84 0,-0.02 0.99,-0.13 0.52,-0.61 z"
       fill="#171717"
       id="path4180" />
    <path
       d="m 147.1,704.33 v 0 c 0.35,0 0.62,0.2 0.61,0.36 l -0.58,6.45 c 0,0.17 -0.31,0.28 -0.66,0.25 v 0 c -0.35,0 -0.63,-0.2 -0.61,-0.36 l 0.57,-6.45 c 0,-0.17 0.32,-0.28 0.67,-0.25 z m -5.66,0.39 v 0 c 0.35,0 0.65,0.06 0.67,0.23 l 0.78,6.42 c 0,0.17 -0.25,0.34 -0.6,0.38 v 0 c -0.35,0 -0.65,-0.06 -0.67,-0.22 l -0.78,-6.43 c 0,-0.16 0.25,-0.34 0.6,-0.38 z m -6,1.55 v 0 c 0.32,-0.16 0.64,-0.15 0.71,0 l 2.78,5.85 c 0.07,0.16 -0.13,0.4 -0.45,0.55 v 0 c -0.32,0.16 -0.64,0.15 -0.71,0 L 135,706.82 c -0.07,-0.15 0.13,-0.4 0.45,-0.55 z"
       fill="#171717"
       fill-rule="evenodd"
       id="path4182" />
  </g>
</svg>
