<svg id="svg" version="1.1" xmlns="http://www.w3.org/2000/svg" xmlns:xlink="http://www.w3.org/1999/xlink" width="400" height="400" viewBox="0, 0, 400,400"><g id="svgg"><path id="path0" d="M182.389 0.136 C 182.273 0.257,180.518 0.389,178.489 0.431 C 176.460 0.472,174.800 0.661,174.800 0.853 C 174.800 1.044,173.551 1.200,172.024 1.200 C 170.497 1.200,169.136 1.380,169.000 1.600 C 168.864 1.820,167.874 2.000,166.800 2.000 C 165.726 2.000,164.736 2.180,164.600 2.400 C 164.464 2.620,163.373 2.800,162.176 2.800 C 160.979 2.800,160.000 2.980,160.000 3.200 C 160.000 3.420,159.280 3.600,158.400 3.600 C 157.520 3.600,156.800 3.780,156.800 4.000 C 156.800 4.220,156.091 4.400,155.224 4.400 C 154.357 4.400,153.536 4.580,153.400 4.800 C 153.264 5.020,152.343 5.200,151.353 5.200 C 150.255 5.200,149.649 5.356,149.800 5.600 C 149.949 5.842,149.404 6.000,148.424 6.000 C 147.531 6.000,146.800 6.180,146.800 6.400 C 146.800 6.620,146.159 6.800,145.376 6.800 C 144.529 6.800,144.053 6.962,144.200 7.200 C 144.350 7.442,143.796 7.600,142.800 7.600 C 141.894 7.600,141.252 7.761,141.374 7.958 C 141.496 8.155,140.922 8.407,140.098 8.519 C 139.274 8.630,138.330 8.801,138.000 8.898 C 137.670 8.995,136.860 9.218,136.200 9.393 C 135.540 9.567,134.820 9.838,134.600 9.993 C 134.380 10.149,133.300 10.510,132.200 10.797 C 131.100 11.083,130.029 11.471,129.820 11.659 C 129.611 11.847,129.116 12.000,128.720 12.000 C 128.324 12.000,128.000 12.180,128.000 12.400 C 128.000 12.620,127.561 12.800,127.024 12.800 C 126.487 12.800,125.936 12.980,125.800 13.200 C 125.664 13.420,125.203 13.600,124.776 13.600 C 124.349 13.600,124.000 13.780,124.000 14.000 C 124.000 14.220,123.645 14.400,123.212 14.400 C 122.779 14.400,121.783 14.760,121.000 15.200 C 120.217 15.640,119.311 16.000,118.988 16.000 C 118.665 16.000,118.400 16.180,118.400 16.400 C 118.400 16.620,118.040 16.800,117.600 16.800 C 117.160 16.800,116.800 16.980,116.800 17.200 C 116.800 17.420,116.440 17.600,116.000 17.600 C 115.560 17.600,115.200 17.780,115.200 18.000 C 115.200 18.220,114.750 18.400,114.200 18.400 C 113.650 18.400,113.200 18.544,113.200 18.720 C 113.200 18.895,112.525 19.281,111.700 19.576 C 110.875 19.871,110.110 20.222,110.000 20.356 C 109.594 20.851,107.991 21.600,107.339 21.600 C 106.969 21.600,106.784 21.717,106.927 21.861 C 107.212 22.145,105.402 23.200,104.630 23.200 C 104.366 23.200,103.764 23.560,103.292 24.000 C 102.820 24.440,102.261 24.800,102.049 24.800 C 101.521 24.800,99.031 26.130,98.867 26.500 C 98.793 26.665,98.580 26.800,98.393 26.800 C 97.937 26.800,93.998 29.221,93.025 30.100 C 92.598 30.485,92.013 30.800,91.725 30.800 C 91.436 30.800,91.200 30.980,91.200 31.200 C 91.200 31.420,90.880 31.600,90.488 31.600 C 90.097 31.600,89.517 31.960,89.200 32.400 C 88.883 32.840,88.343 33.200,88.000 33.200 C 87.657 33.200,87.117 33.560,86.800 34.000 C 86.483 34.440,85.943 34.800,85.600 34.800 C 85.257 34.800,84.717 35.160,84.400 35.600 C 84.083 36.040,83.593 36.400,83.312 36.400 C 83.030 36.400,82.800 36.580,82.800 36.800 C 82.800 37.020,82.570 37.200,82.288 37.200 C 82.007 37.200,81.517 37.560,81.200 38.000 C 80.883 38.440,80.293 38.800,79.888 38.800 C 79.484 38.800,79.247 38.953,79.363 39.140 C 79.478 39.327,79.129 39.717,78.586 40.007 C 78.044 40.298,77.600 40.685,77.600 40.868 C 77.600 41.050,77.319 41.200,76.976 41.200 C 76.633 41.200,76.464 41.380,76.600 41.600 C 76.736 41.820,76.567 42.000,76.224 42.000 C 75.881 42.000,75.600 42.210,75.600 42.467 C 75.600 42.723,75.495 42.828,75.366 42.699 C 75.238 42.571,74.484 43.077,73.691 43.825 C 72.899 44.572,72.173 45.107,72.079 45.013 C 71.985 44.918,71.040 45.732,69.980 46.821 C 68.920 47.909,67.975 48.800,67.881 48.800 C 67.588 48.800,63.592 52.480,60.932 55.200 C 57.852 58.349,58.349 57.852,55.200 60.932 C 52.480 63.592,48.800 67.588,48.800 67.881 C 48.800 67.975,47.909 68.920,46.821 69.980 C 45.732 71.040,44.918 71.985,45.013 72.079 C 45.107 72.173,44.572 72.899,43.825 73.691 C 43.077 74.484,42.571 75.238,42.699 75.366 C 42.828 75.495,42.723 75.600,42.467 75.600 C 42.210 75.600,42.000 75.881,42.000 76.224 C 42.000 76.567,41.820 76.736,41.600 76.600 C 41.380 76.464,41.200 76.633,41.200 76.976 C 41.200 77.319,41.050 77.600,40.868 77.600 C 40.685 77.600,40.298 78.044,40.007 78.586 C 39.717 79.129,39.327 79.478,39.140 79.363 C 38.953 79.247,38.800 79.484,38.800 79.888 C 38.800 80.293,38.440 80.883,38.000 81.200 C 37.560 81.517,37.200 82.007,37.200 82.288 C 37.200 82.570,37.020 82.800,36.800 82.800 C 36.580 82.800,36.400 83.030,36.400 83.312 C 36.400 83.593,36.040 84.083,35.600 84.400 C 35.160 84.717,34.800 85.257,34.800 85.600 C 34.800 85.943,34.440 86.483,34.000 86.800 C 33.560 87.117,33.200 87.657,33.200 88.000 C 33.200 88.343,32.840 88.883,32.400 89.200 C 31.960 89.517,31.600 90.097,31.600 90.488 C 31.600 90.880,31.420 91.200,31.200 91.200 C 30.980 91.200,30.800 91.436,30.800 91.725 C 30.800 92.013,30.485 92.598,30.100 93.025 C 29.221 93.998,26.800 97.937,26.800 98.393 C 26.800 98.580,26.665 98.793,26.500 98.867 C 26.130 99.031,24.800 101.521,24.800 102.049 C 24.800 102.261,24.440 102.820,24.000 103.292 C 23.560 103.764,23.200 104.366,23.200 104.630 C 23.200 105.402,22.145 107.212,21.861 106.927 C 21.717 106.784,21.600 106.969,21.600 107.339 C 21.600 107.991,20.851 109.594,20.356 110.000 C 20.222 110.110,19.871 110.875,19.576 111.700 C 19.281 112.525,18.895 113.200,18.720 113.200 C 18.544 113.200,18.400 113.650,18.400 114.200 C 18.400 114.750,18.220 115.200,18.000 115.200 C 17.780 115.200,17.600 115.560,17.600 116.000 C 17.600 116.440,17.420 116.800,17.200 116.800 C 16.980 116.800,16.800 117.160,16.800 117.600 C 16.800 118.040,16.620 118.400,16.400 118.400 C 16.180 118.400,16.000 118.665,16.000 118.988 C 16.000 119.311,15.640 120.217,15.200 121.000 C 14.760 121.783,14.400 122.779,14.400 123.212 C 14.400 123.645,14.220 124.000,14.000 124.000 C 13.780 124.000,13.600 124.349,13.600 124.776 C 13.600 125.203,13.420 125.664,13.200 125.800 C 12.980 125.936,12.800 126.487,12.800 127.024 C 12.800 127.561,12.620 128.000,12.400 128.000 C 12.180 128.000,12.000 128.324,12.000 128.720 C 12.000 129.116,11.847 129.611,11.659 129.820 C 11.471 130.029,11.083 131.100,10.797 132.200 C 10.510 133.300,10.149 134.380,9.993 134.600 C 9.838 134.820,9.567 135.540,9.393 136.200 C 9.218 136.860,8.995 137.670,8.898 138.000 C 8.801 138.330,8.630 139.274,8.519 140.098 C 8.407 140.922,8.155 141.496,7.958 141.374 C 7.761 141.252,7.600 141.894,7.600 142.800 C 7.600 143.796,7.442 144.350,7.200 144.200 C 6.962 144.053,6.800 144.529,6.800 145.376 C 6.800 146.159,6.620 146.800,6.400 146.800 C 6.180 146.800,6.000 147.531,6.000 148.424 C 6.000 149.404,5.842 149.949,5.600 149.800 C 5.356 149.649,5.200 150.255,5.200 151.353 C 5.200 152.343,5.020 153.264,4.800 153.400 C 4.580 153.536,4.400 154.357,4.400 155.224 C 4.400 156.091,4.220 156.800,4.000 156.800 C 3.780 156.800,3.600 157.520,3.600 158.400 C 3.600 159.280,3.420 160.000,3.200 160.000 C 2.980 160.000,2.800 160.979,2.800 162.176 C 2.800 163.373,2.620 164.464,2.400 164.600 C 2.180 164.736,2.000 165.726,2.000 166.800 C 2.000 167.874,1.820 168.864,1.600 169.000 C 1.380 169.136,1.200 170.497,1.200 172.024 C 1.200 173.551,1.044 174.800,0.853 174.800 C 0.340 174.800,0.200 180.192,0.200 200.000 C 0.200 219.808,0.340 225.200,0.853 225.200 C 1.044 225.200,1.200 226.449,1.200 227.976 C 1.200 229.503,1.380 230.864,1.600 231.000 C 1.820 231.136,2.000 232.227,2.000 233.424 C 2.000 234.621,2.180 235.600,2.400 235.600 C 2.620 235.600,2.800 236.489,2.800 237.576 C 2.800 238.663,2.980 239.664,3.200 239.800 C 3.420 239.936,3.600 240.757,3.600 241.624 C 3.600 242.491,3.780 243.200,4.000 243.200 C 4.220 243.200,4.400 243.909,4.400 244.776 C 4.400 245.643,4.580 246.464,4.800 246.600 C 5.020 246.736,5.200 247.647,5.200 248.624 C 5.200 249.601,5.380 250.400,5.600 250.400 C 5.820 250.400,6.000 251.030,6.000 251.800 C 6.000 252.570,6.180 253.200,6.400 253.200 C 6.620 253.200,6.800 253.830,6.800 254.600 C 6.800 255.370,6.980 256.000,7.200 256.000 C 7.420 256.000,7.600 256.641,7.600 257.424 C 7.600 258.207,7.761 258.748,7.958 258.626 C 8.155 258.504,8.407 259.078,8.519 259.902 C 8.630 260.726,8.801 261.670,8.898 262.000 C 8.995 262.330,9.218 263.140,9.393 263.800 C 9.567 264.460,9.833 265.180,9.983 265.400 C 10.133 265.620,10.487 266.610,10.770 267.600 C 11.053 268.590,11.626 270.092,12.042 270.938 C 12.459 271.784,12.800 272.819,12.800 273.238 C 12.800 273.657,12.980 274.000,13.200 274.000 C 13.420 274.000,13.600 274.349,13.600 274.776 C 13.600 275.203,13.780 275.664,14.000 275.800 C 14.220 275.936,14.400 276.476,14.400 277.000 C 14.400 277.524,14.580 278.064,14.800 278.200 C 15.020 278.336,15.200 278.797,15.200 279.224 C 15.200 279.651,15.335 280.001,15.500 280.003 C 15.859 280.007,16.800 281.944,16.800 282.680 C 16.800 282.966,16.980 283.200,17.200 283.200 C 17.420 283.200,17.600 283.560,17.600 284.000 C 17.600 284.440,17.780 284.800,18.000 284.800 C 18.220 284.800,18.400 285.143,18.400 285.562 C 18.400 286.230,19.854 289.455,20.401 290.000 C 20.511 290.110,20.865 290.740,21.186 291.400 C 21.508 292.060,22.093 293.078,22.486 293.662 C 22.879 294.246,23.200 294.977,23.200 295.286 C 23.200 295.596,23.560 296.236,24.000 296.708 C 24.440 297.180,24.800 297.739,24.800 297.951 C 24.800 298.479,26.130 300.969,26.500 301.133 C 26.665 301.207,26.800 301.451,26.800 301.675 C 26.800 301.900,27.340 302.884,28.000 303.862 C 28.660 304.840,29.200 305.796,29.200 305.987 C 29.200 306.177,29.335 306.393,29.500 306.467 C 30.010 306.693,31.600 309.138,31.600 309.695 C 31.600 309.986,31.960 310.483,32.400 310.800 C 32.840 311.117,33.200 311.657,33.200 312.000 C 33.200 312.343,33.560 312.883,34.000 313.200 C 34.440 313.517,34.800 314.057,34.800 314.400 C 34.800 314.743,35.160 315.283,35.600 315.600 C 36.040 315.917,36.400 316.407,36.400 316.688 C 36.400 316.970,36.580 317.200,36.800 317.200 C 37.020 317.200,37.200 317.430,37.200 317.712 C 37.200 317.993,37.560 318.483,38.000 318.800 C 38.440 319.117,38.800 319.625,38.800 319.928 C 38.800 320.231,39.340 320.983,40.000 321.600 C 40.660 322.217,41.200 322.929,41.200 323.184 C 41.200 323.439,41.380 323.536,41.600 323.400 C 41.820 323.264,42.000 323.433,42.000 323.776 C 42.000 324.119,42.210 324.400,42.467 324.400 C 42.723 324.400,42.827 324.506,42.697 324.636 C 42.568 324.766,42.988 325.422,43.631 326.095 C 44.274 326.768,44.800 327.463,44.800 327.640 C 44.800 327.817,45.700 328.862,46.800 329.962 C 47.900 331.062,48.800 332.142,48.800 332.361 C 48.800 332.581,49.115 332.944,49.500 333.168 C 49.885 333.392,50.073 333.581,49.917 333.588 C 49.761 333.595,51.418 335.355,53.598 337.500 C 58.187 342.014,57.595 341.422,62.125 346.021 C 64.063 347.990,65.829 349.600,66.048 349.600 C 66.268 349.600,66.336 349.780,66.200 350.000 C 66.064 350.220,66.215 350.400,66.536 350.400 C 66.857 350.400,67.995 351.257,69.065 352.305 C 70.135 353.353,71.638 354.650,72.405 355.186 C 73.172 355.723,74.088 356.482,74.441 356.874 C 74.793 357.265,75.198 357.469,75.341 357.326 C 75.483 357.183,75.600 357.277,75.600 357.533 C 75.600 357.790,75.881 358.000,76.224 358.000 C 76.567 358.000,76.736 358.180,76.600 358.400 C 76.464 358.620,76.569 358.800,76.833 358.800 C 77.097 358.800,77.829 359.340,78.460 360.000 C 79.091 360.660,79.836 361.200,80.115 361.200 C 80.395 361.200,80.883 361.560,81.200 362.000 C 81.517 362.440,82.007 362.800,82.288 362.800 C 82.570 362.800,82.800 362.980,82.800 363.200 C 82.800 363.420,83.030 363.600,83.312 363.600 C 83.593 363.600,84.083 363.960,84.400 364.400 C 84.717 364.840,85.257 365.200,85.600 365.200 C 85.943 365.200,86.483 365.560,86.800 366.000 C 87.117 366.440,87.657 366.800,88.000 366.800 C 88.343 366.800,88.883 367.160,89.200 367.600 C 89.517 368.040,90.097 368.400,90.488 368.400 C 90.880 368.400,91.200 368.558,91.200 368.751 C 91.200 368.945,91.740 369.327,92.400 369.600 C 93.060 369.873,93.600 370.255,93.600 370.449 C 93.600 370.642,93.793 370.800,94.028 370.800 C 94.263 370.800,95.241 371.340,96.200 372.000 C 97.159 372.660,98.056 373.200,98.193 373.200 C 98.330 373.200,99.105 373.650,99.914 374.200 C 100.723 374.750,101.621 375.200,101.910 375.200 C 102.198 375.200,102.820 375.560,103.292 376.000 C 103.764 376.440,104.404 376.800,104.714 376.800 C 105.023 376.800,105.754 377.121,106.338 377.514 C 106.922 377.907,107.940 378.492,108.600 378.814 C 109.260 379.135,109.890 379.489,110.000 379.599 C 110.476 380.077,112.039 380.800,112.595 380.800 C 112.928 380.800,113.200 380.980,113.200 381.200 C 113.200 381.420,113.650 381.600,114.200 381.600 C 114.750 381.600,115.200 381.780,115.200 382.000 C 115.200 382.220,115.560 382.400,116.000 382.400 C 116.440 382.400,116.800 382.580,116.800 382.800 C 116.800 383.020,117.072 383.200,117.405 383.200 C 117.995 383.200,119.598 383.963,120.000 384.435 C 120.110 384.564,121.055 384.918,122.100 385.222 C 123.145 385.526,124.000 385.915,124.000 386.087 C 124.000 386.259,124.450 386.400,125.000 386.400 C 125.550 386.400,126.000 386.580,126.000 386.800 C 126.000 387.020,126.450 387.200,127.000 387.200 C 127.550 387.200,128.000 387.380,128.000 387.600 C 128.000 387.820,128.349 388.000,128.776 388.000 C 129.203 388.000,129.664 388.180,129.800 388.400 C 129.936 388.620,130.476 388.800,131.000 388.800 C 131.524 388.800,132.064 388.980,132.200 389.200 C 132.336 389.420,132.799 389.600,133.229 389.600 C 133.659 389.600,134.323 389.767,134.705 389.971 C 135.887 390.603,139.496 391.600,140.599 391.600 C 141.196 391.600,141.541 391.772,141.400 392.000 C 141.250 392.242,141.804 392.400,142.800 392.400 C 143.796 392.400,144.350 392.558,144.200 392.800 C 144.053 393.038,144.529 393.200,145.376 393.200 C 146.159 393.200,146.800 393.380,146.800 393.600 C 146.800 393.820,147.520 394.000,148.400 394.000 C 149.280 394.000,150.000 394.180,150.000 394.400 C 150.000 394.620,150.720 394.800,151.600 394.800 C 152.480 394.800,153.200 394.980,153.200 395.200 C 153.200 395.420,154.010 395.600,155.000 395.600 C 155.990 395.600,156.800 395.780,156.800 396.000 C 156.800 396.220,157.509 396.400,158.376 396.400 C 159.243 396.400,160.064 396.580,160.200 396.800 C 160.336 397.020,161.337 397.200,162.424 397.200 C 163.511 397.200,164.400 397.380,164.400 397.600 C 164.400 397.820,165.379 398.000,166.576 398.000 C 167.773 398.000,168.864 398.180,169.000 398.400 C 169.136 398.620,170.497 398.800,172.024 398.800 C 173.551 398.800,174.800 398.956,174.800 399.147 C 174.800 399.660,180.192 399.800,200.000 399.800 C 219.808 399.800,225.200 399.660,225.200 399.147 C 225.200 398.956,226.449 398.800,227.976 398.800 C 229.503 398.800,230.864 398.620,231.000 398.400 C 231.136 398.180,232.227 398.000,233.424 398.000 C 234.621 398.000,235.600 397.820,235.600 397.600 C 235.600 397.380,236.590 397.200,237.800 397.200 C 239.010 397.200,240.000 397.020,240.000 396.800 C 240.000 396.580,240.720 396.400,241.600 396.400 C 242.480 396.400,243.200 396.220,243.200 396.000 C 243.200 395.780,243.999 395.600,244.976 395.600 C 245.953 395.600,246.864 395.420,247.000 395.200 C 247.136 394.980,247.957 394.800,248.824 394.800 C 249.691 394.800,250.400 394.620,250.400 394.400 C 250.400 394.180,251.030 394.000,251.800 394.000 C 252.570 394.000,253.200 393.820,253.200 393.600 C 253.200 393.380,253.841 393.200,254.624 393.200 C 255.471 393.200,255.947 393.038,255.800 392.800 C 255.653 392.562,256.129 392.400,256.976 392.400 C 257.759 392.400,258.400 392.220,258.400 392.000 C 258.400 391.780,258.944 391.600,259.610 391.600 C 260.275 391.600,261.850 391.227,263.110 390.772 C 264.369 390.316,266.300 389.681,267.400 389.361 C 268.500 389.041,269.713 388.604,270.095 388.389 C 270.477 388.175,271.062 388.000,271.395 388.000 C 271.728 388.000,272.000 387.820,272.000 387.600 C 272.000 387.380,272.450 387.200,273.000 387.200 C 273.550 387.200,274.000 387.020,274.000 386.800 C 274.000 386.580,274.349 386.400,274.776 386.400 C 275.203 386.400,275.642 386.256,275.751 386.079 C 275.860 385.903,276.861 385.510,277.975 385.207 C 279.089 384.904,280.000 384.508,280.000 384.328 C 280.000 384.147,280.360 384.000,280.800 384.000 C 281.240 384.000,281.600 383.820,281.600 383.600 C 281.600 383.380,281.960 383.200,282.400 383.200 C 282.840 383.200,283.200 383.020,283.200 382.800 C 283.200 382.580,283.560 382.400,284.000 382.400 C 284.440 382.400,284.800 382.220,284.800 382.000 C 284.800 381.780,285.143 381.600,285.562 381.600 C 286.229 381.600,289.453 380.147,290.000 379.600 C 290.405 379.195,292.002 378.400,292.411 378.400 C 292.643 378.400,293.220 378.040,293.692 377.600 C 294.164 377.160,294.843 376.800,295.200 376.800 C 295.557 376.800,296.236 376.440,296.708 376.000 C 297.180 375.560,297.771 375.200,298.022 375.200 C 298.472 375.200,300.814 374.006,301.200 373.579 C 301.310 373.458,302.050 373.056,302.845 372.687 C 303.640 372.317,304.517 371.741,304.794 371.407 C 305.071 371.073,305.463 370.800,305.666 370.800 C 305.868 370.800,306.420 370.440,306.892 370.000 C 307.364 369.560,307.987 369.200,308.275 369.200 C 308.564 369.200,308.800 369.020,308.800 368.800 C 308.800 368.580,309.036 368.400,309.325 368.400 C 309.613 368.400,310.236 368.040,310.708 367.600 C 311.180 367.160,311.804 366.800,312.095 366.800 C 312.386 366.800,312.883 366.440,313.200 366.000 C 313.517 365.560,314.057 365.200,314.400 365.200 C 314.743 365.200,315.283 364.840,315.600 364.400 C 315.917 363.960,316.407 363.600,316.688 363.600 C 316.970 363.600,317.200 363.420,317.200 363.200 C 317.200 362.980,317.430 362.800,317.712 362.800 C 317.993 362.800,318.483 362.440,318.800 362.000 C 319.117 361.560,319.707 361.200,320.112 361.200 C 320.516 361.200,320.736 361.020,320.600 360.800 C 320.464 360.580,320.594 360.400,320.888 360.400 C 321.183 360.400,321.683 360.040,322.000 359.600 C 322.317 359.160,322.769 358.800,323.005 358.800 C 323.241 358.800,324.056 358.214,324.817 357.497 C 325.577 356.780,326.830 355.751,327.600 355.210 C 328.370 354.669,329.661 353.545,330.469 352.713 C 331.276 351.881,332.109 351.200,332.319 351.200 C 332.529 351.200,334.658 349.232,337.050 346.827 C 342.323 341.525,341.525 342.323,346.827 337.050 C 349.232 334.658,351.200 332.529,351.200 332.319 C 351.200 332.109,351.881 331.276,352.713 330.469 C 353.545 329.661,354.669 328.370,355.210 327.600 C 355.751 326.830,356.780 325.577,357.497 324.817 C 358.214 324.056,358.800 323.241,358.800 323.005 C 358.800 322.769,359.160 322.317,359.600 322.000 C 360.040 321.683,360.400 321.183,360.400 320.888 C 360.400 320.594,360.580 320.464,360.800 320.600 C 361.020 320.736,361.200 320.516,361.200 320.112 C 361.200 319.707,361.560 319.117,362.000 318.800 C 362.440 318.483,362.800 317.993,362.800 317.712 C 362.800 317.430,362.980 317.200,363.200 317.200 C 363.420 317.200,363.600 316.970,363.600 316.688 C 363.600 316.407,363.960 315.917,364.400 315.600 C 364.840 315.283,365.200 314.743,365.200 314.400 C 365.200 314.057,365.560 313.517,366.000 313.200 C 366.440 312.883,366.800 312.386,366.800 312.095 C 366.800 311.804,367.160 311.180,367.600 310.708 C 368.040 310.236,368.400 309.613,368.400 309.325 C 368.400 309.036,368.580 308.800,368.800 308.800 C 369.020 308.800,369.200 308.564,369.200 308.275 C 369.200 307.987,369.560 307.364,370.000 306.892 C 370.440 306.420,370.800 305.868,370.800 305.666 C 370.800 305.463,371.073 305.071,371.407 304.794 C 371.741 304.517,372.317 303.640,372.687 302.845 C 373.056 302.050,373.458 301.310,373.579 301.200 C 374.006 300.814,375.200 298.472,375.200 298.022 C 375.200 297.771,375.560 297.180,376.000 296.708 C 376.440 296.236,376.800 295.557,376.800 295.200 C 376.800 294.843,377.160 294.164,377.600 293.692 C 378.040 293.220,378.400 292.643,378.400 292.411 C 378.400 292.002,379.195 290.405,379.600 290.000 C 380.147 289.453,381.600 286.229,381.600 285.562 C 381.600 285.143,381.780 284.800,382.000 284.800 C 382.220 284.800,382.400 284.440,382.400 284.000 C 382.400 283.560,382.580 283.200,382.800 283.200 C 383.020 283.200,383.200 282.840,383.200 282.400 C 383.200 281.960,383.380 281.600,383.600 281.600 C 383.820 281.600,384.000 281.240,384.000 280.800 C 384.000 280.360,384.147 280.000,384.328 280.000 C 384.508 280.000,384.904 279.089,385.207 277.975 C 385.510 276.861,385.903 275.860,386.079 275.751 C 386.256 275.642,386.400 275.203,386.400 274.776 C 386.400 274.349,386.580 274.000,386.800 274.000 C 387.020 274.000,387.200 273.550,387.200 273.000 C 387.200 272.450,387.380 272.000,387.600 272.000 C 387.820 272.000,388.000 271.728,388.000 271.395 C 388.000 271.062,388.175 270.477,388.389 270.095 C 388.604 269.713,389.041 268.500,389.361 267.400 C 389.681 266.300,390.316 264.369,390.772 263.110 C 391.227 261.850,391.600 260.275,391.600 259.610 C 391.600 258.944,391.780 258.400,392.000 258.400 C 392.220 258.400,392.400 257.759,392.400 256.976 C 392.400 256.129,392.562 255.653,392.800 255.800 C 393.038 255.947,393.200 255.471,393.200 254.624 C 393.200 253.841,393.380 253.200,393.600 253.200 C 393.820 253.200,394.000 252.570,394.000 251.800 C 394.000 251.030,394.180 250.400,394.400 250.400 C 394.620 250.400,394.800 249.691,394.800 248.824 C 394.800 247.957,394.980 247.136,395.200 247.000 C 395.420 246.864,395.600 245.953,395.600 244.976 C 395.600 243.999,395.780 243.200,396.000 243.200 C 396.220 243.200,396.400 242.480,396.400 241.600 C 396.400 240.720,396.580 240.000,396.800 240.000 C 397.020 240.000,397.200 239.010,397.200 237.800 C 397.200 236.590,397.380 235.600,397.600 235.600 C 397.820 235.600,398.000 234.621,398.000 233.424 C 398.000 232.227,398.180 231.136,398.400 231.000 C 398.620 230.864,398.800 229.503,398.800 227.976 C 398.800 226.449,398.956 225.200,399.147 225.200 C 399.660 225.200,399.800 219.808,399.800 200.000 C 399.800 180.192,399.660 174.800,399.147 174.800 C 398.956 174.800,398.800 173.551,398.800 172.024 C 398.800 170.497,398.620 169.136,398.400 169.000 C 398.180 168.864,398.000 167.773,398.000 166.576 C 398.000 165.379,397.820 164.400,397.600 164.400 C 397.380 164.400,397.200 163.511,397.200 162.424 C 397.200 161.337,397.020 160.336,396.800 160.200 C 396.580 160.064,396.400 159.243,396.400 158.376 C 396.400 157.509,396.220 156.800,396.000 156.800 C 395.780 156.800,395.600 155.990,395.600 155.000 C 395.600 154.010,395.420 153.200,395.200 153.200 C 394.980 153.200,394.800 152.480,394.800 151.600 C 394.800 150.720,394.620 150.000,394.400 150.000 C 394.180 150.000,394.000 149.280,394.000 148.400 C 394.000 147.520,393.820 146.800,393.600 146.800 C 393.380 146.800,393.200 146.159,393.200 145.376 C 393.200 144.529,393.038 144.053,392.800 144.200 C 392.558 144.350,392.400 143.796,392.400 142.800 C 392.400 141.804,392.242 141.250,392.000 141.400 C 391.772 141.541,391.600 141.196,391.600 140.599 C 391.600 139.496,390.603 135.887,389.971 134.705 C 389.767 134.323,389.600 133.659,389.600 133.229 C 389.600 132.799,389.420 132.336,389.200 132.200 C 388.980 132.064,388.800 131.524,388.800 131.000 C 388.800 130.476,388.620 129.936,388.400 129.800 C 388.180 129.664,388.000 129.203,388.000 128.776 C 388.000 128.349,387.820 128.000,387.600 128.000 C 387.380 128.000,387.200 127.550,387.200 127.000 C 387.200 126.450,387.020 126.000,386.800 126.000 C 386.580 126.000,386.400 125.550,386.400 125.000 C 386.400 124.450,386.259 124.000,386.087 124.000 C 385.915 124.000,385.526 123.145,385.222 122.100 C 384.918 121.055,384.564 120.110,384.435 120.000 C 383.963 119.598,383.200 117.995,383.200 117.405 C 383.200 117.072,383.020 116.800,382.800 116.800 C 382.580 116.800,382.400 116.440,382.400 116.000 C 382.400 115.560,382.220 115.200,382.000 115.200 C 381.780 115.200,381.600 114.750,381.600 114.200 C 381.600 113.650,381.420 113.200,381.200 113.200 C 380.980 113.200,380.800 112.928,380.800 112.595 C 380.800 112.039,380.077 110.476,379.599 110.000 C 379.489 109.890,379.135 109.260,378.814 108.600 C 378.492 107.940,377.907 106.922,377.514 106.338 C 377.121 105.754,376.800 105.023,376.800 104.714 C 376.800 104.404,376.440 103.764,376.000 103.292 C 375.560 102.820,375.200 102.198,375.200 101.910 C 375.200 101.621,374.750 100.723,374.200 99.914 C 373.650 99.105,373.200 98.330,373.200 98.193 C 373.200 98.056,372.660 97.159,372.000 96.200 C 371.340 95.241,370.800 94.263,370.800 94.028 C 370.800 93.793,370.642 93.600,370.449 93.600 C 370.255 93.600,369.873 93.060,369.600 92.400 C 369.327 91.740,368.945 91.200,368.751 91.200 C 368.558 91.200,368.400 90.880,368.400 90.488 C 368.400 90.097,368.040 89.517,367.600 89.200 C 367.160 88.883,366.800 88.343,366.800 88.000 C 366.800 87.657,366.440 87.117,366.000 86.800 C 365.560 86.483,365.200 85.943,365.200 85.600 C 365.200 85.257,364.840 84.717,364.400 84.400 C 363.960 84.083,363.600 83.593,363.600 83.312 C 363.600 83.030,363.420 82.800,363.200 82.800 C 362.980 82.800,362.800 82.570,362.800 82.288 C 362.800 82.007,362.440 81.517,362.000 81.200 C 361.560 80.883,361.200 80.395,361.200 80.115 C 361.200 79.836,360.660 79.091,360.000 78.460 C 359.340 77.829,358.800 77.097,358.800 76.833 C 358.800 76.569,358.620 76.464,358.400 76.600 C 358.180 76.736,358.000 76.567,358.000 76.224 C 358.000 75.881,357.790 75.600,357.533 75.600 C 357.277 75.600,357.183 75.483,357.326 75.341 C 357.469 75.198,357.265 74.793,356.874 74.441 C 356.482 74.088,355.723 73.172,355.186 72.405 C 354.650 71.638,353.353 70.135,352.305 69.065 C 351.257 67.995,350.400 66.857,350.400 66.536 C 350.400 66.215,350.220 66.064,350.000 66.200 C 349.780 66.336,349.600 66.268,349.600 66.048 C 349.600 65.829,347.990 64.063,346.021 62.125 C 341.422 57.595,342.014 58.187,337.500 53.598 C 335.355 51.418,333.595 49.761,333.588 49.917 C 333.581 50.073,333.392 49.885,333.168 49.500 C 332.944 49.115,332.581 48.800,332.361 48.800 C 332.142 48.800,331.062 47.900,329.962 46.800 C 328.862 45.700,327.817 44.800,327.640 44.800 C 327.463 44.800,326.768 44.274,326.095 43.631 C 325.422 42.988,324.766 42.568,324.636 42.697 C 324.506 42.827,324.400 42.723,324.400 42.467 C 324.400 42.210,324.119 42.000,323.776 42.000 C 323.433 42.000,323.264 41.820,323.400 41.600 C 323.536 41.380,323.439 41.200,323.184 41.200 C 322.929 41.200,322.217 40.660,321.600 40.000 C 320.983 39.340,320.231 38.800,319.928 38.800 C 319.625 38.800,319.117 38.440,318.800 38.000 C 318.483 37.560,317.993 37.200,317.712 37.200 C 317.430 37.200,317.200 37.020,317.200 36.800 C 317.200 36.580,316.970 36.400,316.688 36.400 C 316.407 36.400,315.917 36.040,315.600 35.600 C 315.283 35.160,314.743 34.800,314.400 34.800 C 314.057 34.800,313.517 34.440,313.200 34.000 C 312.883 33.560,312.343 33.200,312.000 33.200 C 311.657 33.200,311.117 32.840,310.800 32.400 C 310.483 31.960,309.986 31.600,309.695 31.600 C 309.138 31.600,306.693 30.010,306.467 29.500 C 306.393 29.335,306.177 29.200,305.987 29.200 C 305.796 29.200,304.840 28.660,303.862 28.000 C 302.884 27.340,301.900 26.800,301.675 26.800 C 301.451 26.800,301.207 26.665,301.133 26.500 C 300.969 26.130,298.479 24.800,297.951 24.800 C 297.739 24.800,297.180 24.440,296.708 24.000 C 296.236 23.560,295.596 23.200,295.286 23.200 C 294.977 23.200,294.246 22.879,293.662 22.486 C 293.078 22.093,292.060 21.508,291.400 21.186 C 290.740 20.865,290.110 20.511,290.000 20.401 C 289.455 19.854,286.230 18.400,285.562 18.400 C 285.143 18.400,284.800 18.220,284.800 18.000 C 284.800 17.780,284.440 17.600,284.000 17.600 C 283.560 17.600,283.200 17.420,283.200 17.200 C 283.200 16.980,282.966 16.800,282.680 16.800 C 281.944 16.800,280.007 15.859,280.003 15.500 C 280.001 15.335,279.651 15.200,279.224 15.200 C 278.797 15.200,278.336 15.020,278.200 14.800 C 278.064 14.580,277.524 14.400,277.000 14.400 C 276.476 14.400,275.936 14.220,275.800 14.000 C 275.664 13.780,275.203 13.600,274.776 13.600 C 274.349 13.600,274.000 13.420,274.000 13.200 C 274.000 12.980,273.657 12.800,273.238 12.800 C 272.819 12.800,271.784 12.459,270.938 12.042 C 270.092 11.626,268.590 11.053,267.600 10.770 C 266.610 10.487,265.620 10.133,265.400 9.983 C 265.180 9.833,264.460 9.567,263.800 9.393 C 263.140 9.218,262.330 8.995,262.000 8.898 C 261.670 8.801,260.726 8.630,259.902 8.519 C 259.078 8.407,258.504 8.155,258.626 7.958 C 258.748 7.761,258.207 7.600,257.424 7.600 C 256.641 7.600,256.000 7.420,256.000 7.200 C 256.000 6.980,255.370 6.800,254.600 6.800 C 253.830 6.800,253.200 6.620,253.200 6.400 C 253.200 6.180,252.570 6.000,251.800 6.000 C 251.030 6.000,250.400 5.820,250.400 5.600 C 250.400 5.380,249.601 5.200,248.624 5.200 C 247.647 5.200,246.736 5.020,246.600 4.800 C 246.464 4.580,245.643 4.400,244.776 4.400 C 243.909 4.400,243.200 4.220,243.200 4.000 C 243.200 3.780,242.491 3.600,241.624 3.600 C 240.757 3.600,239.936 3.420,239.800 3.200 C 239.664 2.980,238.663 2.800,237.576 2.800 C 236.489 2.800,235.600 2.620,235.600 2.400 C 235.600 2.180,234.621 2.000,233.424 2.000 C 232.227 2.000,231.136 1.820,231.000 1.600 C 230.864 1.380,229.503 1.200,227.976 1.200 C 226.449 1.200,225.200 1.050,225.200 0.867 C 225.200 0.338,182.888 -0.384,182.389 0.136 M144.000 90.286 C 149.245 91.757,152.249 93.912,159.980 101.751 C 165.399 107.247,165.426 107.262,166.800 105.800 C 168.053 104.467,168.233 104.509,170.180 106.600 C 172.324 108.902,172.554 108.876,175.400 106.000 C 178.252 103.118,178.099 103.134,180.486 105.485 C 182.878 107.840,182.887 107.743,180.000 110.600 C 177.147 113.423,177.158 113.353,179.246 115.504 C 181.300 117.620,180.945 117.689,184.152 114.544 L 186.861 111.888 189.034 114.034 C 191.572 116.540,191.592 116.145,188.772 119.080 C 185.501 122.485,185.486 122.001,188.952 125.179 L 190.020 126.158 192.813 123.387 L 195.606 120.615 197.896 122.904 L 200.185 125.194 197.417 127.982 L 194.650 130.771 195.425 131.673 C 195.851 132.170,196.606 132.910,197.103 133.319 C 198.757 134.681,198.982 135.558,198.013 136.868 C 197.537 137.512,197.204 138.206,197.273 138.410 C 197.343 138.614,221.003 162.410,249.850 191.290 L 302.300 243.800 302.545 246.400 C 302.679 247.830,302.961 250.350,303.170 252.000 C 303.380 253.650,303.742 256.530,303.976 258.400 C 304.209 260.270,304.569 263.060,304.776 264.600 C 305.724 271.677,306.028 274.019,306.387 277.000 C 307.263 284.290,308.047 289.941,308.829 294.600 C 310.735 305.950,310.956 311.838,309.442 310.903 C 309.225 310.768,307.506 310.499,305.623 310.304 C 300.863 309.811,296.987 309.309,294.400 308.848 C 293.190 308.633,290.850 308.272,289.200 308.045 C 281.678 307.013,279.591 306.737,276.600 306.381 C 274.840 306.171,272.140 305.831,270.600 305.625 C 269.060 305.420,266.270 305.047,264.400 304.797 C 262.530 304.547,259.740 304.187,258.200 303.996 C 250.598 303.053,248.402 302.777,246.081 302.473 C 243.638 302.152,243.471 302.053,240.542 299.171 C 238.882 297.537,215.141 273.817,187.786 246.461 L 138.050 196.722 136.929 197.761 C 135.462 199.121,135.504 199.132,132.960 196.727 L 130.768 194.653 128.072 197.329 L 125.376 200.004 123.288 197.889 C 120.709 195.278,120.690 195.536,123.692 192.507 L 126.184 189.993 124.131 187.941 L 122.079 185.888 119.592 188.344 C 118.225 189.695,116.902 190.796,116.653 190.791 C 116.026 190.778,112.400 187.267,112.400 186.672 C 112.400 186.407,113.255 185.369,114.300 184.366 C 117.625 181.175,117.567 181.404,115.581 179.381 C 113.381 177.139,113.504 177.122,110.525 180.075 L 108.028 182.549 105.739 180.261 L 103.451 177.972 105.925 175.475 C 108.880 172.494,108.863 172.621,106.600 170.400 C 104.515 168.354,104.452 168.067,105.800 166.800 C 107.183 165.501,107.385 165.825,101.500 159.916 C 91.448 149.823,89.456 146.097,89.461 137.400 C 89.467 127.548,90.497 125.908,107.200 109.174 C 114.570 101.790,121.199 95.251,121.930 94.644 C 127.606 89.933,136.486 88.180,144.000 90.286 " stroke="none" fill="#eccc4c" fill-rule="evenodd"></path><path id="path1" d="M167.960 166.556 C 152.472 182.042,139.458 195.091,139.040 195.554 L 138.280 196.395 188.040 246.191 C 215.408 273.579,238.031 295.990,238.313 295.994 C 238.970 296.002,238.885 296.381,240.393 286.800 C 243.081 269.723,242.130 271.863,247.400 271.024 C 249.600 270.674,252.435 270.210,253.700 269.994 C 257.030 269.424,260.183 268.914,263.600 268.392 C 267.249 267.835,267.771 267.589,267.904 266.359 C 267.962 265.832,268.180 264.410,268.389 263.200 C 268.598 261.990,268.963 259.740,269.200 258.200 C 269.437 256.660,269.801 254.410,270.008 253.200 C 270.216 251.990,270.659 249.298,270.995 247.218 C 271.783 242.322,270.495 243.017,282.200 241.173 C 283.740 240.930,285.810 240.576,286.800 240.385 C 287.790 240.194,290.196 239.809,292.148 239.528 C 294.099 239.247,295.777 238.804,295.877 238.544 C 296.021 238.169,196.771 138.400,196.255 138.400 C 196.181 138.400,183.448 151.070,167.960 166.556 M303.000 293.090 C 301.589 293.226,300.922 293.719,297.347 297.268 L 293.294 301.292 293.022 304.052 C 292.625 308.081,292.730 308.245,295.910 308.561 C 297.390 308.708,299.950 309.003,301.600 309.216 C 303.250 309.430,305.841 309.715,307.357 309.850 L 310.114 310.097 309.846 307.348 C 309.699 305.837,309.408 303.340,309.200 301.800 C 308.992 300.260,308.702 297.740,308.555 296.200 C 308.212 292.603,308.184 292.587,303.000 293.090 " stroke="none" fill="#48a692" fill-rule="evenodd"></path><path id="path2" d="M175.144 106.607 C 172.011 109.665,172.126 109.643,170.000 107.600 C 167.737 105.426,168.690 104.718,155.247 118.550 C 153.402 120.447,151.689 122.000,151.439 122.000 C 150.859 122.000,122.000 150.879,122.000 151.459 C 122.000 151.698,120.446 153.402,118.547 155.247 C 116.648 157.091,112.942 160.748,110.312 163.374 L 105.529 168.148 106.695 169.174 C 107.337 169.738,108.182 170.693,108.573 171.295 L 109.285 172.390 106.548 175.225 L 103.811 178.060 105.902 180.056 L 107.994 182.051 110.326 179.675 C 113.512 176.430,113.818 176.381,116.154 178.753 C 118.417 181.051,118.396 181.153,115.034 184.332 C 112.359 186.862,112.387 186.628,114.515 188.717 C 116.681 190.842,116.572 190.858,119.400 188.000 C 122.226 185.144,122.472 185.111,124.685 187.283 C 126.901 189.458,126.861 189.769,124.000 192.600 C 121.138 195.432,121.144 195.386,123.315 197.517 C 125.481 199.642,125.372 199.658,128.200 196.800 C 131.050 193.920,131.262 193.898,133.627 196.226 L 135.480 198.052 139.640 193.873 C 141.928 191.575,145.536 187.873,147.657 185.647 C 149.778 183.421,151.752 181.600,152.044 181.600 C 152.749 181.600,181.135 153.236,181.462 152.204 C 181.602 151.762,183.513 149.690,185.708 147.600 C 191.966 141.641,197.600 135.932,197.600 135.550 C 197.600 135.359,196.880 134.437,196.000 133.503 C 193.904 131.278,193.941 131.082,197.058 127.941 L 199.716 125.263 197.687 123.135 L 195.658 121.008 192.625 123.950 C 189.267 127.206,189.616 127.171,186.910 124.513 C 185.091 122.727,185.227 122.196,188.292 119.107 L 190.984 116.394 188.977 114.387 L 186.970 112.379 184.149 115.190 C 180.811 118.514,180.916 118.495,178.611 116.189 C 176.285 113.864,176.307 113.707,179.400 110.615 C 182.484 107.531,182.436 107.795,180.285 105.683 C 178.121 103.560,178.298 103.528,175.144 106.607 M289.400 240.619 C 286.540 241.131,283.255 241.561,282.100 241.575 C 280.945 241.589,280.000 241.780,280.000 242.000 C 280.000 242.222,278.933 242.400,277.600 242.400 C 276.280 242.400,275.200 242.570,275.200 242.777 C 275.200 242.984,274.449 243.209,273.531 243.277 C 271.595 243.420,271.558 243.496,270.817 248.800 C 270.555 250.670,270.183 253.100,269.988 254.200 C 269.414 257.448,268.853 260.801,268.347 264.000 C 267.743 267.816,267.817 267.741,264.120 268.336 C 260.253 268.959,257.091 269.482,254.100 269.994 C 252.835 270.210,250.003 270.676,247.806 271.028 C 243.032 271.794,243.200 271.708,243.200 273.400 C 243.200 274.144,243.020 274.864,242.800 275.000 C 242.580 275.136,242.400 276.216,242.400 277.400 C 242.400 278.584,242.220 279.664,242.000 279.800 C 241.780 279.936,241.598 280.802,241.596 281.724 C 241.594 282.646,241.146 286.010,240.600 289.200 C 239.265 297.001,239.244 296.782,241.551 299.149 L 243.501 301.152 243.728 299.476 C 243.853 298.554,244.146 296.675,244.378 295.300 C 245.350 289.541,245.650 287.656,246.016 285.000 C 246.657 280.348,247.300 277.536,247.762 277.366 C 248.003 277.277,249.640 277.017,251.400 276.788 C 253.160 276.558,255.590 276.203,256.800 275.998 C 258.010 275.794,260.260 275.428,261.800 275.186 C 263.340 274.944,265.680 274.572,267.000 274.358 C 268.320 274.145,270.158 273.870,271.083 273.746 C 273.125 273.474,273.449 273.115,273.742 270.800 C 273.988 268.861,274.455 265.848,275.200 261.400 C 276.013 256.543,276.358 254.292,276.792 251.013 C 277.341 246.865,276.279 247.352,289.000 245.414 C 292.740 244.844,296.996 244.167,298.457 243.910 L 301.114 243.442 299.057 241.528 C 296.647 239.285,296.775 239.297,289.400 240.619 " stroke="none" fill="#d9dcdb" fill-rule="evenodd"></path><path id="path3" d="M133.200 89.838 C 126.024 91.142,123.432 93.025,109.013 107.405 C 92.457 123.916,91.090 125.801,89.834 133.833 C 88.982 139.281,89.963 144.436,92.875 149.812 C 94.054 151.989,105.122 163.902,106.801 164.800 C 107.287 165.061,113.907 158.656,136.385 136.176 L 165.343 107.216 160.372 102.174 C 149.818 91.470,142.502 88.149,133.200 89.838 M306.033 292.544 C 306.505 292.950,308.443 293.193,308.210 292.816 C 308.068 292.587,307.483 292.400,306.910 292.400 C 306.336 292.400,305.942 292.465,306.033 292.544 M297.065 297.135 C 292.857 301.356,292.748 301.510,292.905 303.035 L 293.066 304.600 293.133 302.993 C 293.231 300.638,300.512 293.331,303.000 293.090 L 304.600 292.934 302.993 292.867 C 301.453 292.803,301.208 292.979,297.065 297.135 M308.440 296.033 C 308.462 297.005,308.625 298.250,308.802 298.800 C 308.995 299.400,309.037 298.760,308.906 297.200 C 308.651 294.162,308.382 293.489,308.440 296.033 M309.240 302.233 C 309.262 303.095,309.427 304.250,309.607 304.800 C 309.811 305.421,309.851 304.891,309.712 303.400 C 309.454 300.621,309.182 299.949,309.240 302.233 M292.400 306.910 C 292.400 307.483,292.587 308.068,292.816 308.210 C 293.089 308.379,293.138 308.077,292.960 307.334 C 292.592 305.801,292.400 305.656,292.400 306.910 M310.000 308.378 L 310.000 309.956 308.100 310.106 L 306.200 310.256 308.300 310.328 L 310.400 310.400 310.400 308.600 C 310.400 307.610,310.310 306.800,310.200 306.800 C 310.090 306.800,310.000 307.510,310.000 308.378 M294.033 308.544 C 294.125 308.623,295.370 308.786,296.800 308.906 C 298.360 309.037,299.000 308.995,298.400 308.802 C 297.412 308.484,293.711 308.265,294.033 308.544 M300.033 309.344 C 300.125 309.423,301.370 309.592,302.800 309.718 C 304.410 309.860,305.095 309.816,304.600 309.602 C 303.842 309.274,299.680 309.039,300.033 309.344 " stroke="none" fill="#cd706f" fill-rule="evenodd"></path><path id="path4" d="M136.705 89.483 C 137.202 89.579,137.922 89.575,138.305 89.475 C 138.687 89.375,138.280 89.296,137.400 89.301 C 136.520 89.305,136.207 89.387,136.705 89.483 M116.192 100.100 L 112.200 104.200 116.300 100.208 C 120.108 96.499,120.582 96.000,120.292 96.000 C 120.233 96.000,118.388 97.845,116.192 100.100 M175.400 106.000 C 172.554 108.876,172.324 108.902,170.180 106.600 C 168.233 104.509,168.053 104.467,166.800 105.800 C 166.283 106.350,165.592 106.800,165.264 106.800 C 164.935 106.800,164.790 106.923,164.940 107.073 C 165.284 107.417,107.537 165.208,107.112 164.946 C 106.940 164.840,106.800 165.002,106.800 165.307 C 106.800 165.611,106.350 166.283,105.800 166.800 C 104.452 168.067,104.515 168.354,106.600 170.400 C 108.850 172.608,108.862 172.492,106.100 175.402 C 104.117 177.492,104.179 177.452,106.546 175.113 L 109.292 172.400 108.577 171.300 C 108.183 170.695,107.337 169.738,106.695 169.174 L 105.529 168.148 110.312 163.374 C 112.942 160.748,116.648 157.091,118.547 155.247 C 120.446 153.402,122.000 151.698,122.000 151.459 C 122.000 150.879,150.859 122.000,151.439 122.000 C 151.689 122.000,153.402 120.447,155.247 118.550 C 168.690 104.718,167.737 105.426,170.000 107.600 C 172.125 109.641,171.995 109.666,175.171 106.600 C 178.364 103.517,178.189 103.547,180.317 105.715 C 182.420 107.858,182.481 107.534,179.400 110.615 C 176.307 113.707,176.285 113.864,178.611 116.189 C 180.916 118.495,180.811 118.514,184.149 115.190 L 186.970 112.379 188.977 114.387 L 190.984 116.394 188.292 119.107 C 185.227 122.196,185.091 122.727,186.910 124.513 C 189.616 127.171,189.267 127.206,192.625 123.950 L 195.658 121.008 197.687 123.135 L 199.716 125.263 197.058 127.941 C 193.941 131.082,193.904 131.278,196.000 133.503 C 196.880 134.437,197.600 135.359,197.600 135.550 C 197.600 135.932,191.966 141.641,185.708 147.600 C 183.513 149.690,181.602 151.762,181.462 152.204 C 181.135 153.236,152.749 181.600,152.044 181.600 C 151.752 181.600,149.778 183.421,147.657 185.647 C 145.536 187.873,141.928 191.575,139.640 193.873 L 135.480 198.052 133.627 196.226 C 131.262 193.898,131.050 193.920,128.200 196.800 C 125.372 199.658,125.481 199.642,123.315 197.517 C 121.144 195.386,121.138 195.432,124.000 192.600 C 126.861 189.769,126.901 189.458,124.685 187.283 C 122.472 185.111,122.226 185.144,119.400 188.000 C 116.572 190.858,116.681 190.842,114.515 188.717 C 112.387 186.628,112.359 186.862,115.034 184.332 C 118.396 181.153,118.417 181.051,116.154 178.753 C 113.818 176.382,113.511 176.430,110.333 179.669 L 108.007 182.038 105.903 180.157 L 103.800 178.275 105.931 180.395 L 108.062 182.516 110.542 180.058 C 113.502 177.124,113.382 177.140,115.581 179.381 C 117.567 181.404,117.625 181.175,114.300 184.366 C 113.255 185.369,112.400 186.407,112.400 186.672 C 112.400 187.267,116.026 190.778,116.653 190.791 C 116.902 190.796,118.225 189.695,119.592 188.344 L 122.079 185.888 124.131 187.941 L 126.184 189.993 123.692 192.507 C 120.690 195.536,120.709 195.278,123.288 197.889 L 125.376 200.004 128.072 197.329 L 130.768 194.653 132.960 196.727 C 135.504 199.132,135.462 199.121,136.929 197.761 L 138.050 196.722 187.786 246.461 C 215.141 273.817,238.882 297.537,240.542 299.171 C 243.471 302.053,243.638 302.152,246.081 302.473 C 248.402 302.777,250.598 303.053,258.200 303.996 C 259.740 304.187,262.530 304.547,264.400 304.797 C 266.270 305.047,269.060 305.420,270.600 305.625 C 272.140 305.831,274.840 306.171,276.600 306.381 C 278.360 306.591,281.240 306.958,283.000 307.198 C 284.760 307.437,287.460 307.801,289.000 308.007 C 290.540 308.212,292.340 308.478,293.000 308.599 C 294.038 308.788,294.080 308.764,293.311 308.426 C 292.466 308.053,292.434 307.870,292.657 304.717 L 292.891 301.400 297.145 297.134 L 301.400 292.869 304.778 292.734 C 308.082 292.603,308.163 292.622,308.468 293.600 C 308.701 294.346,308.728 294.245,308.572 293.200 C 307.847 288.317,307.609 286.638,307.214 283.600 C 306.970 281.730,306.598 278.760,306.385 277.000 C 306.173 275.240,305.831 272.540,305.624 271.000 C 304.733 264.350,304.373 261.597,303.975 258.400 C 303.742 256.530,303.380 253.650,303.170 252.000 C 302.961 250.350,302.679 247.830,302.545 246.400 L 302.300 243.800 249.850 191.290 C 221.003 162.410,197.343 138.614,197.273 138.410 C 197.204 138.206,197.537 137.512,198.013 136.868 C 198.982 135.558,198.757 134.681,197.103 133.319 C 196.606 132.910,195.851 132.170,195.425 131.673 L 194.650 130.771 197.417 127.982 L 200.185 125.194 197.896 122.904 L 195.606 120.615 192.813 123.387 L 190.020 126.158 188.952 125.179 C 185.486 122.001,185.501 122.485,188.772 119.080 C 191.592 116.145,191.572 116.540,189.034 114.034 L 186.861 111.888 184.152 114.544 C 180.945 117.689,181.300 117.620,179.246 115.504 C 177.158 113.353,177.147 113.423,180.000 110.600 C 182.887 107.743,182.878 107.840,180.486 105.485 C 178.099 103.134,178.252 103.118,175.400 106.000 M100.600 115.600 C 97.967 118.240,95.903 120.400,96.013 120.400 C 96.123 120.400,98.367 118.240,101.000 115.600 C 103.633 112.960,105.697 110.800,105.587 110.800 C 105.477 110.800,103.233 112.960,100.600 115.600 M246.224 188.235 C 273.633 215.644,295.977 238.283,295.877 238.544 C 295.777 238.804,294.099 239.252,292.148 239.538 C 287.835 240.171,284.274 240.778,282.400 241.201 L 281.000 241.517 282.400 241.555 C 283.170 241.575,286.410 241.146,289.600 240.600 C 297.037 239.328,296.652 239.290,299.057 241.528 L 301.114 243.442 298.457 243.910 C 296.996 244.167,292.740 244.844,289.000 245.414 C 276.279 247.352,277.341 246.865,276.792 251.013 C 276.358 254.292,276.013 256.543,275.200 261.400 C 274.455 265.848,273.988 268.861,273.742 270.800 C 273.449 273.115,273.125 273.474,271.083 273.746 C 270.158 273.870,268.320 274.145,267.000 274.358 C 265.680 274.572,263.340 274.944,261.800 275.186 C 260.260 275.428,258.010 275.794,256.800 275.998 C 255.590 276.203,253.160 276.558,251.400 276.788 C 249.640 277.017,248.003 277.277,247.762 277.366 C 247.300 277.536,246.657 280.348,246.016 285.000 C 245.650 287.656,245.350 289.541,244.378 295.300 C 244.146 296.675,243.853 298.554,243.728 299.476 L 243.501 301.152 241.551 299.149 C 239.244 296.781,239.270 297.060,240.620 289.082 C 241.181 285.767,241.586 282.503,241.520 281.828 C 241.454 281.152,240.885 283.840,240.256 287.800 C 238.916 296.236,238.971 296.002,238.313 295.994 C 238.031 295.990,215.408 273.579,188.040 246.191 L 138.280 196.395 139.040 195.554 C 140.349 194.104,196.113 138.400,196.255 138.400 C 196.329 138.400,218.815 160.826,246.224 188.235 M276.800 242.000 C 275.553 242.262,275.651 242.300,277.700 242.347 C 279.002 242.377,280.000 242.226,280.000 242.000 C 280.000 241.555,278.912 241.555,276.800 242.000 M272.500 242.812 C 271.199 243.335,271.375 243.424,273.400 243.263 C 274.390 243.184,275.200 242.958,275.200 242.760 C 275.200 242.307,273.685 242.336,272.500 242.812 M242.814 272.374 C 242.307 273.322,242.264 275.331,242.758 275.026 C 243.063 274.838,243.599 271.600,243.325 271.600 C 243.272 271.600,243.042 271.948,242.814 272.374 M241.904 277.000 C 241.472 279.340,241.512 280.248,242.024 279.736 C 242.258 279.502,242.393 278.431,242.324 277.356 L 242.200 275.400 241.904 277.000 M309.045 298.400 C 309.190 299.610,309.374 300.675,309.454 300.767 C 309.807 301.170,309.546 297.338,309.184 296.800 C 308.903 296.382,308.861 296.867,309.045 298.400 M309.868 304.400 C 310.000 305.610,310.174 306.675,310.254 306.767 C 310.564 307.121,310.325 303.757,309.986 303.000 C 309.752 302.478,309.712 302.963,309.868 304.400 M296.400 309.177 C 296.939 309.546,300.368 309.810,299.967 309.451 C 299.875 309.369,298.900 309.182,297.800 309.035 C 296.380 308.845,295.974 308.886,296.400 309.177 M310.454 309.473 C 310.415 310.111,310.103 310.382,309.300 310.476 C 308.309 310.593,308.285 310.630,309.056 310.854 C 310.250 311.200,310.902 310.681,310.689 309.555 C 310.521 308.666,310.505 308.660,310.454 309.473 M302.600 309.986 C 303.357 310.325,306.721 310.564,306.367 310.254 C 306.275 310.174,305.210 310.000,304.000 309.868 C 302.563 309.712,302.078 309.752,302.600 309.986 " stroke="none" fill="#cbb887" fill-rule="evenodd"></path></g></svg>